<?xml version="1.0" encoding="utf-8"?>
<!-- Generator: Adobe Illustrator 18.0.0, SVG Export Plug-In . SVG Version: 6.00 Build 0)  -->
<!DOCTYPE svg PUBLIC "-//W3C//DTD SVG 1.1//EN" "http://www.w3.org/Graphics/SVG/1.1/DTD/svg11.dtd">
<svg version="1.1" id="Layer_1" xmlns="http://www.w3.org/2000/svg" xmlns:xlink="http://www.w3.org/1999/xlink" x="0px" y="0px"
	 viewBox="0 0 892 320" enable-background="new 0 0 892 320" xml:space="preserve">
<g>
	<g>
		<path d="M478.6,153.5l2.1,14.1h0.1l2.2-14.1h3.7l2.2,14.1h0.1l2.1-14.1h3.7l-3.5,19.1H487l-2.1-13.9h-0.1l-2.1,13.9h-4.3
			l-3.5-19.1H478.6z"/>
		<path d="M507,156.6h-6.8v4.5h6.4v3.2h-6.4v5.1h7.1v3.2h-10.9v-19.1H507V156.6z"/>
		<path d="M515.7,153.5c0.8,0,1.5,0.1,2.2,0.2c0.7,0.2,1.2,0.4,1.7,0.8c0.5,0.4,0.9,0.9,1.1,1.5c0.3,0.6,0.4,1.4,0.4,2.3
			c0,1-0.2,1.9-0.7,2.7c-0.5,0.7-1.2,1.2-2.2,1.5v0.1c1.1,0.1,1.9,0.6,2.5,1.4c0.6,0.8,0.9,1.8,0.9,3.1c0,0.8-0.1,1.5-0.3,2.1
			c-0.2,0.7-0.5,1.3-1,1.8s-1.1,0.9-1.8,1.2c-0.8,0.3-1.7,0.5-2.8,0.5h-6.5v-19.1H515.7z M514.2,161.3c1.1,0,1.9-0.2,2.3-0.6
			c0.5-0.4,0.7-1,0.7-1.9s-0.2-1.6-0.7-1.9s-1.2-0.6-2.1-0.6h-1.4v5H514.2z M514.6,169.7c0.9,0,1.7-0.2,2.2-0.6
			c0.6-0.4,0.9-1.2,0.9-2.3c0-0.6-0.1-1-0.2-1.4c-0.2-0.4-0.4-0.7-0.6-0.9c-0.3-0.2-0.6-0.4-0.9-0.5c-0.4-0.1-0.7-0.1-1.2-0.1h-1.7
			v5.8H514.6z"/>
		<path d="M537.3,153.5c1,0,1.8,0.2,2.5,0.5c0.7,0.3,1.2,0.8,1.6,1.3c0.4,0.5,0.7,1.1,0.9,1.8c0.2,0.7,0.3,1.4,0.3,2.1
			c0,1-0.1,1.8-0.4,2.6c-0.3,0.7-0.7,1.3-1.2,1.8s-1.2,0.8-1.9,1c-0.7,0.2-1.6,0.3-2.5,0.3h-2.1v7.6h-3.9v-19.1H537.3z M536.1,162.1
			c0.8,0,1.4-0.2,1.9-0.7c0.5-0.5,0.7-1.2,0.7-2.2c0-1-0.2-1.7-0.6-2.2c-0.4-0.5-1.1-0.7-2.1-0.7h-1.6v5.8H536.1z"/>
		<path d="M551.9,153.5l5.1,19.1h-4l-0.9-4H547l-0.9,4h-4l5.1-19.1H551.9z M551.4,165.4l-1.8-8.6h-0.1l-1.8,8.6H551.4z"/>
		<path d="M566.7,158c-0.1-0.4-0.2-0.7-0.4-1c-0.2-0.3-0.4-0.6-0.7-0.8c-0.3-0.2-0.6-0.3-1-0.3c-0.9,0-1.6,0.5-2,1.6
			s-0.6,2.7-0.6,5.1c0,1.1,0,2.2,0.1,3.1s0.2,1.7,0.4,2.4s0.5,1.2,0.8,1.5c0.3,0.3,0.8,0.5,1.4,0.5c0.2,0,0.5-0.1,0.8-0.2
			c0.3-0.1,0.5-0.3,0.8-0.6c0.2-0.2,0.4-0.6,0.6-1c0.2-0.4,0.2-0.8,0.2-1.4v-2h-2.5v-2.8h6.2v10.3h-2.8v-1.8h-0.1
			c-0.5,0.7-1,1.3-1.7,1.6c-0.7,0.3-1.4,0.5-2.3,0.5c-1.2,0-2.1-0.2-2.9-0.6s-1.3-1-1.7-1.9s-0.7-1.9-0.8-3.2
			c-0.1-1.3-0.2-2.7-0.2-4.4c0-1.6,0.1-3,0.3-4.2c0.2-1.2,0.6-2.2,1.1-3c0.5-0.8,1.2-1.4,2-1.8c0.8-0.4,1.8-0.6,3.1-0.6
			c2.1,0,3.6,0.5,4.6,1.6s1.4,2.5,1.4,4.5h-3.7C566.8,158.8,566.7,158.4,566.7,158z"/>
		<path d="M583.9,156.6H577v4.5h6.4v3.2H577v5.1h7.1v3.2h-10.9v-19.1h10.7V156.6z"/>
		<path d="M589.2,167.2c0,0.4,0,0.9,0.1,1.2c0.1,0.4,0.2,0.7,0.4,0.9s0.5,0.4,0.8,0.6c0.3,0.1,0.7,0.2,1.2,0.2
			c0.6,0,1.1-0.2,1.6-0.6s0.7-1,0.7-1.8c0-0.4-0.1-0.8-0.2-1.1s-0.3-0.6-0.6-0.8c-0.3-0.2-0.6-0.5-1.1-0.7c-0.4-0.2-1-0.4-1.6-0.6
			c-0.9-0.3-1.6-0.6-2.2-0.9c-0.6-0.3-1.1-0.7-1.6-1.2s-0.7-1-0.9-1.6c-0.2-0.6-0.3-1.3-0.3-2.1c0-1.9,0.5-3.3,1.6-4.2
			s2.5-1.4,4.3-1.4c0.9,0,1.6,0.1,2.4,0.3s1.3,0.5,1.9,0.9c0.5,0.4,0.9,1,1.2,1.6c0.3,0.7,0.4,1.4,0.4,2.3v0.5h-3.7
			c0-0.9-0.2-1.6-0.5-2.1c-0.3-0.5-0.9-0.7-1.6-0.7c-0.4,0-0.8,0.1-1.1,0.2c-0.3,0.1-0.5,0.3-0.7,0.5c-0.2,0.2-0.3,0.4-0.3,0.7
			s-0.1,0.5-0.1,0.8c0,0.6,0.1,1.1,0.4,1.5s0.8,0.8,1.6,1.1l3,1.3c0.7,0.3,1.3,0.7,1.8,1c0.5,0.3,0.8,0.7,1.1,1.1
			c0.3,0.4,0.5,0.8,0.6,1.3c0.1,0.5,0.2,1,0.2,1.6c0,2-0.6,3.5-1.8,4.4c-1.2,0.9-2.8,1.4-4.9,1.4c-2.2,0-3.7-0.5-4.7-1.4
			s-1.4-2.3-1.4-4.1v-0.8h3.9V167.2z"/>
		<path d="M613.9,153.5l5.1,19.1h-4l-0.9-4h-5.1l-0.9,4h-4l5.1-19.1H613.9z M613.4,165.4l-1.8-8.6h-0.1l-1.8,8.6H613.4z"/>
		<path d="M623.9,166.8c0,0.5,0,0.9,0.1,1.3s0.2,0.8,0.3,1c0.2,0.3,0.4,0.5,0.7,0.7c0.3,0.2,0.7,0.3,1.1,0.3c0.5,0,0.8-0.1,1.1-0.3
			c0.3-0.2,0.5-0.4,0.7-0.7c0.2-0.3,0.3-0.6,0.3-1s0.1-0.8,0.1-1.3v-13.3h3.9v13.3c0,1.2-0.2,2.2-0.5,3s-0.8,1.4-1.4,1.9
			c-0.6,0.5-1.2,0.8-2,0.9c-0.7,0.2-1.5,0.2-2.3,0.2s-1.5-0.1-2.3-0.2c-0.7-0.1-1.4-0.4-2-0.9c-0.6-0.4-1-1.1-1.4-1.9
			c-0.3-0.8-0.5-1.8-0.5-3.1v-13.3h3.9V166.8z"/>
		<path d="M645.9,156.6h-4.2v16h-3.9v-16h-4.2v-3.2h12.2V156.6z"/>
		<path d="M647.3,159c0.1-1.2,0.4-2.3,0.9-3.1c0.5-0.9,1.1-1.6,2-2c0.9-0.5,2-0.7,3.5-0.7s2.6,0.2,3.5,0.7c0.9,0.5,1.5,1.2,2,2
			c0.5,0.9,0.7,1.9,0.9,3.1s0.2,2.6,0.2,4c0,1.5-0.1,2.8-0.2,4c-0.1,1.2-0.4,2.3-0.9,3.1c-0.5,0.9-1.1,1.5-2,2s-2,0.7-3.5,0.7
			s-2.6-0.2-3.5-0.7s-1.5-1.1-2-2c-0.5-0.9-0.7-1.9-0.9-3.1c-0.1-1.2-0.2-2.6-0.2-4C647.1,161.6,647.2,160.2,647.3,159z
			 M651.1,166.3c0.1,0.9,0.2,1.6,0.4,2.2s0.5,1,0.8,1.2c0.3,0.3,0.8,0.4,1.4,0.4s1-0.1,1.4-0.4c0.3-0.3,0.6-0.7,0.8-1.2
			s0.3-1.3,0.4-2.2c0.1-0.9,0.1-2,0.1-3.3c0-1.3,0-2.4-0.1-3.3c-0.1-0.9-0.2-1.6-0.4-2.2s-0.5-1-0.8-1.2c-0.3-0.3-0.8-0.4-1.4-0.4
			s-1,0.1-1.4,0.4c-0.3,0.3-0.6,0.7-0.8,1.2s-0.3,1.3-0.4,2.2c-0.1,0.9-0.1,2-0.1,3.3C651,164.3,651,165.4,651.1,166.3z"/>
		<path d="M668.2,153.5l2.7,13.5h0.1l2.8-13.5h5.7v19.1h-3.5v-15.3h-0.1l-3.4,15.3h-3l-3.4-15.3H666v15.3h-3.5v-19.1H668.2z"/>
		<path d="M690.7,153.5l5.1,19.1h-4l-0.9-4h-5.1l-0.9,4h-4l5.1-19.1H690.7z M690.2,165.4l-1.8-8.6h-0.1l-1.8,8.6H690.2z"/>
		<path d="M706.8,156.6h-4.2v16h-3.9v-16h-4.2v-3.2h12.2V156.6z"/>
		<path d="M708.7,153.5h3.9v19.1h-3.9V153.5z"/>
		<path d="M723,156.9c-0.3-0.6-0.9-1-1.8-1c-0.5,0-0.9,0.1-1.2,0.4c-0.3,0.3-0.6,0.7-0.7,1.3c-0.2,0.6-0.3,1.3-0.4,2.3
			c-0.1,0.9-0.1,2.1-0.1,3.4c0,1.4,0,2.6,0.1,3.5c0.1,0.9,0.2,1.6,0.5,2.1c0.2,0.5,0.5,0.8,0.8,1s0.7,0.3,1.1,0.3
			c0.3,0,0.7-0.1,1-0.2c0.3-0.1,0.5-0.3,0.8-0.7c0.2-0.3,0.4-0.8,0.5-1.5s0.2-1.5,0.2-2.5h3.9c0,1-0.1,2-0.2,2.9
			c-0.2,0.9-0.5,1.7-0.9,2.4c-0.4,0.7-1.1,1.2-1.8,1.6c-0.8,0.4-1.8,0.6-3.1,0.6c-1.4,0-2.6-0.2-3.5-0.7s-1.5-1.1-2-2
			c-0.5-0.9-0.7-1.9-0.9-3.1c-0.1-1.2-0.2-2.6-0.2-4c0-1.4,0.1-2.8,0.2-4s0.4-2.3,0.9-3.1c0.5-0.9,1.1-1.6,2-2
			c0.9-0.5,2-0.7,3.5-0.7c1.4,0,2.5,0.2,3.3,0.7s1.4,1,1.8,1.7c0.4,0.7,0.6,1.4,0.7,2.2c0.1,0.8,0.1,1.5,0.1,2.2h-3.9
			C723.5,158.5,723.4,157.5,723,156.9z"/>
		<path d="M738.2,153.5l5.1,19.1h-4l-0.9-4h-5.1l-0.9,4h-4l5.1-19.1H738.2z M737.7,165.4l-1.8-8.6h-0.1l-1.8,8.6H737.7z"/>
		<path d="M744.6,153.5h3.9v16h6.8v3.2h-10.7V153.5z"/>
		<path d="M757,153.5h3.9v16h6.8v3.2H757V153.5z"/>
		<path d="M772.6,160.8L772.6,160.8l2.7-7.4h4.2l-5,11.6v7.5h-3.9V165l-5-11.6h4.3L772.6,160.8z"/>
	</g>
	<g>
		<path fill="#C21429" d="M485.4,185.4c-0.3-0.6-0.9-1-1.8-1c-0.5,0-0.9,0.1-1.2,0.4c-0.3,0.3-0.6,0.7-0.7,1.3
			c-0.2,0.6-0.3,1.3-0.4,2.3c-0.1,0.9-0.1,2.1-0.1,3.4c0,1.4,0,2.6,0.1,3.5c0.1,0.9,0.2,1.6,0.5,2.1c0.2,0.5,0.5,0.8,0.8,1
			s0.7,0.3,1.1,0.3c0.3,0,0.7-0.1,1-0.2c0.3-0.1,0.5-0.3,0.8-0.7c0.2-0.3,0.4-0.8,0.5-1.5s0.2-1.5,0.2-2.5h3.9c0,1-0.1,2-0.2,2.9
			c-0.2,0.9-0.5,1.7-0.9,2.4c-0.4,0.7-1.1,1.2-1.8,1.6c-0.8,0.4-1.8,0.6-3.1,0.6c-1.4,0-2.6-0.2-3.5-0.7s-1.5-1.1-2-2
			c-0.5-0.9-0.7-1.9-0.9-3.1c-0.1-1.2-0.2-2.6-0.2-4c0-1.4,0.1-2.8,0.2-4s0.4-2.3,0.9-3.1c0.5-0.9,1.1-1.6,2-2
			c0.9-0.5,2-0.7,3.5-0.7c1.4,0,2.5,0.2,3.3,0.7s1.4,1,1.8,1.7c0.4,0.7,0.6,1.4,0.7,2.2c0.1,0.8,0.1,1.5,0.1,2.2h-3.9
			C485.9,187.1,485.8,186.1,485.4,185.4z"/>
		<path fill="#C21429" d="M491.9,187.6c0.1-1.2,0.4-2.3,0.9-3.1c0.5-0.9,1.1-1.6,2-2c0.9-0.5,2-0.7,3.5-0.7s2.6,0.2,3.5,0.7
			c0.9,0.5,1.5,1.2,2,2c0.5,0.9,0.7,1.9,0.9,3.1s0.2,2.6,0.2,4c0,1.5-0.1,2.8-0.2,4c-0.1,1.2-0.4,2.3-0.9,3.1c-0.5,0.9-1.1,1.5-2,2
			s-2,0.7-3.5,0.7s-2.6-0.2-3.5-0.7s-1.5-1.1-2-2c-0.5-0.9-0.7-1.9-0.9-3.1c-0.1-1.2-0.2-2.6-0.2-4
			C491.7,190.1,491.8,188.8,491.9,187.6z M495.7,194.9c0.1,0.9,0.2,1.6,0.4,2.2s0.5,1,0.8,1.2c0.3,0.3,0.8,0.4,1.4,0.4
			s1-0.1,1.4-0.4c0.3-0.3,0.6-0.7,0.8-1.2s0.3-1.3,0.4-2.2c0.1-0.9,0.1-2,0.1-3.3c0-1.3,0-2.4-0.1-3.3c-0.1-0.9-0.2-1.6-0.4-2.2
			s-0.5-1-0.8-1.2c-0.3-0.3-0.8-0.4-1.4-0.4s-1,0.1-1.4,0.4c-0.3,0.3-0.6,0.7-0.8,1.2s-0.3,1.3-0.4,2.2c-0.1,0.9-0.1,2-0.1,3.3
			C495.6,192.9,495.6,194,495.7,194.9z"/>
		<path fill="#C21429" d="M516.1,195.1L516.1,195.1l0.1-13.1h3.5v19.1h-4.4l-4.7-13.4h-0.1v13.4H507V182h4.4L516.1,195.1z"/>
		<path fill="#C21429" d="M531.5,195.1L531.5,195.1l0.1-13.1h3.5v19.1h-4.4l-4.7-13.4h-0.1v13.4h-3.5V182h4.4L531.5,195.1z"/>
		<path fill="#C21429" d="M548.4,185.2h-6.8v4.5h6.4v3.2h-6.4v5.1h7.1v3.2h-10.9V182h10.7V185.2z"/>
		<path fill="#C21429" d="M558.3,185.4c-0.3-0.6-0.9-1-1.8-1c-0.5,0-0.9,0.1-1.2,0.4c-0.3,0.3-0.6,0.7-0.7,1.3
			c-0.2,0.6-0.3,1.3-0.4,2.3c-0.1,0.9-0.1,2.1-0.1,3.4c0,1.4,0,2.6,0.1,3.5c0.1,0.9,0.2,1.6,0.5,2.1c0.2,0.5,0.5,0.8,0.8,1
			s0.7,0.3,1.1,0.3c0.3,0,0.7-0.1,1-0.2c0.3-0.1,0.5-0.3,0.8-0.7c0.2-0.3,0.4-0.8,0.5-1.5s0.2-1.5,0.2-2.5h3.9c0,1-0.1,2-0.2,2.9
			c-0.2,0.9-0.5,1.7-0.9,2.4c-0.4,0.7-1.1,1.2-1.8,1.6c-0.8,0.4-1.8,0.6-3.1,0.6c-1.4,0-2.6-0.2-3.5-0.7s-1.5-1.1-2-2
			c-0.5-0.9-0.7-1.9-0.9-3.1c-0.1-1.2-0.2-2.6-0.2-4c0-1.4,0.1-2.8,0.2-4s0.4-2.3,0.9-3.1c0.5-0.9,1.1-1.6,2-2
			c0.9-0.5,2-0.7,3.5-0.7c1.4,0,2.5,0.2,3.3,0.7s1.4,1,1.8,1.7c0.4,0.7,0.6,1.4,0.7,2.2c0.1,0.8,0.1,1.5,0.1,2.2h-3.9
			C558.8,187.1,558.6,186.1,558.3,185.4z"/>
		<path fill="#C21429" d="M576.2,185.2H572v16h-3.9v-16H564V182h12.2V185.2z"/>
		<path fill="#C21429" d="M588.5,185.2h-6.8v4.5h6.4v3.2h-6.4v5.1h7.1v3.2h-10.9V182h10.7V185.2z"/>
		<path fill="#C21429" d="M597.2,182c1.3,0,2.4,0.2,3.2,0.7c0.8,0.4,1.5,1.1,1.9,1.9c0.5,0.8,0.8,1.8,0.9,2.9
			c0.2,1.1,0.2,2.4,0.2,3.8c0,1.7-0.1,3.1-0.3,4.4s-0.6,2.3-1.1,3.1c-0.5,0.8-1.2,1.4-2,1.8s-1.9,0.6-3.2,0.6h-6.1V182H597.2z
			 M596.5,198.3c0.7,0,1.2-0.1,1.6-0.3c0.4-0.2,0.7-0.6,1-1.2c0.2-0.5,0.4-1.2,0.5-2.1c0.1-0.9,0.1-2,0.1-3.3c0-1.1,0-2-0.1-2.9
			c-0.1-0.8-0.2-1.5-0.4-2c-0.2-0.5-0.6-1-1-1.2c-0.4-0.3-1-0.4-1.8-0.4h-1.6v13.4H596.5z"/>
		<path fill="#C21429" d="M622.7,185.2h-4.2v16h-3.9v-16h-4.2V182h12.2V185.2z"/>
		<path fill="#C21429" d="M624.2,187.6c0.1-1.2,0.4-2.3,0.9-3.1c0.5-0.9,1.1-1.6,2-2c0.9-0.5,2-0.7,3.5-0.7s2.6,0.2,3.5,0.7
			c0.9,0.5,1.5,1.2,2,2c0.5,0.9,0.7,1.9,0.9,3.1s0.2,2.6,0.2,4c0,1.5-0.1,2.8-0.2,4c-0.1,1.2-0.4,2.3-0.9,3.1c-0.5,0.9-1.1,1.5-2,2
			s-2,0.7-3.5,0.7s-2.6-0.2-3.5-0.7s-1.5-1.1-2-2c-0.5-0.9-0.7-1.9-0.9-3.1c-0.1-1.2-0.2-2.6-0.2-4C624,190.1,624,188.8,624.2,187.6
			z M627.9,194.9c0.1,0.9,0.2,1.6,0.4,2.2s0.5,1,0.8,1.2c0.3,0.3,0.8,0.4,1.4,0.4s1-0.1,1.4-0.4c0.3-0.3,0.6-0.7,0.8-1.2
			s0.3-1.3,0.4-2.2c0.1-0.9,0.1-2,0.1-3.3c0-1.3,0-2.4-0.1-3.3c-0.1-0.9-0.2-1.6-0.4-2.2s-0.5-1-0.8-1.2c-0.3-0.3-0.8-0.4-1.4-0.4
			s-1,0.1-1.4,0.4c-0.3,0.3-0.6,0.7-0.8,1.2s-0.3,1.3-0.4,2.2c-0.1,0.9-0.1,2-0.1,3.3C627.8,192.9,627.9,194,627.9,194.9z"/>
		<path fill="#C21429" d="M656.4,182v3.2h-6.8v4.5h6.4v3.2h-6.4v8.3h-3.9V182H656.4z"/>
		<path fill="#C21429" d="M665.1,182l5.1,19.1h-4l-0.9-4h-5.1l-0.9,4h-4l5.1-19.1H665.1z M664.6,193.9l-1.8-8.6h-0.1l-1.8,8.6H664.6
			z"/>
		<path fill="#C21429" d="M679.2,185.4c-0.3-0.6-0.9-1-1.8-1c-0.5,0-0.9,0.1-1.2,0.4c-0.3,0.3-0.6,0.7-0.7,1.3
			c-0.2,0.6-0.3,1.3-0.4,2.3c-0.1,0.9-0.1,2.1-0.1,3.4c0,1.4,0,2.6,0.1,3.5c0.1,0.9,0.2,1.6,0.5,2.1c0.2,0.5,0.5,0.8,0.8,1
			s0.7,0.3,1.1,0.3c0.3,0,0.7-0.1,1-0.2c0.3-0.1,0.5-0.3,0.8-0.7c0.2-0.3,0.4-0.8,0.5-1.5s0.2-1.5,0.2-2.5h3.9c0,1-0.1,2-0.2,2.9
			c-0.2,0.9-0.5,1.7-0.9,2.4c-0.4,0.7-1.1,1.2-1.8,1.6c-0.8,0.4-1.8,0.6-3.1,0.6c-1.4,0-2.6-0.2-3.5-0.7s-1.5-1.1-2-2
			c-0.5-0.9-0.7-1.9-0.9-3.1c-0.1-1.2-0.2-2.6-0.2-4c0-1.4,0.1-2.8,0.2-4s0.4-2.3,0.9-3.1c0.5-0.9,1.1-1.6,2-2
			c0.9-0.5,2-0.7,3.5-0.7c1.4,0,2.5,0.2,3.3,0.7s1.4,1,1.8,1.7c0.4,0.7,0.6,1.4,0.7,2.2c0.1,0.8,0.1,1.5,0.1,2.2h-3.9
			C679.7,187.1,679.5,186.1,679.2,185.4z"/>
		<path fill="#C21429" d="M696.6,185.2h-6.8v4.5h6.4v3.2h-6.4v5.1h7.1v3.2h-10.9V182h10.7V185.2z"/>
		<path fill="#C21429" d="M705.2,182c0.8,0,1.5,0.1,2.2,0.2c0.7,0.2,1.2,0.4,1.7,0.8c0.5,0.4,0.9,0.9,1.1,1.5
			c0.3,0.6,0.4,1.4,0.4,2.3c0,1-0.2,1.9-0.7,2.7c-0.5,0.7-1.2,1.2-2.2,1.5v0.1c1.1,0.1,1.9,0.6,2.5,1.4c0.6,0.8,0.9,1.8,0.9,3.1
			c0,0.8-0.1,1.5-0.3,2.1c-0.2,0.7-0.5,1.3-1,1.8s-1.1,0.9-1.8,1.2c-0.8,0.3-1.7,0.5-2.8,0.5h-6.5V182H705.2z M703.7,189.9
			c1.1,0,1.9-0.2,2.3-0.6c0.5-0.4,0.7-1,0.7-1.9s-0.2-1.6-0.7-1.9s-1.2-0.6-2.1-0.6h-1.4v5H703.7z M704.1,198.3
			c0.9,0,1.7-0.2,2.2-0.6c0.6-0.4,0.9-1.2,0.9-2.3c0-0.6-0.1-1-0.2-1.4c-0.2-0.4-0.4-0.7-0.6-0.9c-0.3-0.2-0.6-0.4-0.9-0.5
			c-0.4-0.1-0.7-0.1-1.2-0.1h-1.7v5.8H704.1z"/>
		<path fill="#C21429" d="M713.4,187.6c0.1-1.2,0.4-2.3,0.9-3.1c0.5-0.9,1.1-1.6,2-2c0.9-0.5,2-0.7,3.5-0.7s2.6,0.2,3.5,0.7
			c0.9,0.5,1.5,1.2,2,2c0.5,0.9,0.7,1.9,0.9,3.1s0.2,2.6,0.2,4c0,1.5-0.1,2.8-0.2,4c-0.1,1.2-0.4,2.3-0.9,3.1c-0.5,0.9-1.1,1.5-2,2
			s-2,0.7-3.5,0.7s-2.6-0.2-3.5-0.7s-1.5-1.1-2-2c-0.5-0.9-0.7-1.9-0.9-3.1c-0.1-1.2-0.2-2.6-0.2-4
			C713.2,190.1,713.3,188.8,713.4,187.6z M717.2,194.9c0.1,0.9,0.2,1.6,0.4,2.2s0.5,1,0.8,1.2c0.3,0.3,0.8,0.4,1.4,0.4
			s1-0.1,1.4-0.4c0.3-0.3,0.6-0.7,0.8-1.2s0.3-1.3,0.4-2.2c0.1-0.9,0.1-2,0.1-3.3c0-1.3,0-2.4-0.1-3.3c-0.1-0.9-0.2-1.6-0.4-2.2
			s-0.5-1-0.8-1.2c-0.3-0.3-0.8-0.4-1.4-0.4s-1,0.1-1.4,0.4c-0.3,0.3-0.6,0.7-0.8,1.2s-0.3,1.3-0.4,2.2c-0.1,0.9-0.1,2-0.1,3.3
			C717.1,192.9,717.1,194,717.2,194.9z"/>
		<path fill="#C21429" d="M728.3,187.6c0.1-1.2,0.4-2.3,0.9-3.1c0.5-0.9,1.1-1.6,2-2c0.9-0.5,2-0.7,3.5-0.7s2.6,0.2,3.5,0.7
			c0.9,0.5,1.5,1.2,2,2c0.5,0.9,0.7,1.9,0.9,3.1s0.2,2.6,0.2,4c0,1.5-0.1,2.8-0.2,4c-0.1,1.2-0.4,2.3-0.9,3.1c-0.5,0.9-1.1,1.5-2,2
			s-2,0.7-3.5,0.7s-2.6-0.2-3.5-0.7s-1.5-1.1-2-2c-0.5-0.9-0.7-1.9-0.9-3.1c-0.1-1.2-0.2-2.6-0.2-4
			C728.1,190.1,728.2,188.8,728.3,187.6z M732.1,194.9c0.1,0.9,0.2,1.6,0.4,2.2s0.5,1,0.8,1.2c0.3,0.3,0.8,0.4,1.4,0.4
			s1-0.1,1.4-0.4c0.3-0.3,0.6-0.7,0.8-1.2s0.3-1.3,0.4-2.2c0.1-0.9,0.1-2,0.1-3.3c0-1.3,0-2.4-0.1-3.3c-0.1-0.9-0.2-1.6-0.4-2.2
			s-0.5-1-0.8-1.2c-0.3-0.3-0.8-0.4-1.4-0.4s-1,0.1-1.4,0.4c-0.3,0.3-0.6,0.7-0.8,1.2s-0.3,1.3-0.4,2.2c-0.1,0.9-0.1,2-0.1,3.3
			C732,192.9,732,194,732.1,194.9z"/>
		<path fill="#C21429" d="M747.3,189.7L747.3,189.7l4.9-7.7h4.2l-5.2,8.2l5.8,10.9h-4.3l-3.9-7.8l-1.4,2.2v5.7h-3.9V182h3.9V189.7z"
			/>
	</g>
	<g>
		<path fill="#C21429" d="M438.1,136h-18.4v-12.2h1.7c6.3,0,11.2-1.2,14.8-3.5c3.6-2.3,5.9-6.1,6.8-11.3h13.8v92.2h-18.8V136z"/>
	</g>
	<g>
		<g>
			<path fill="#333433" d="M362.1,215.4l-265.9,0v-116l265.9,0C406.1,138.1,406.1,176.7,362.1,215.4z"/>
		</g>
		<g>
			<g>
				<g>
					<circle fill="#333433" cx="96.3" cy="157.4" r="58"/>
					<path fill="#FFFFFF" d="M96.3,216.4c-32.5,0-59-26.5-59-59s26.5-59,59-59s59,26.5,59,59S128.8,216.4,96.3,216.4z M96.3,100.4
						c-31.4,0-57,25.6-57,57s25.6,57,57,57s57-25.6,57-57S127.7,100.4,96.3,100.4z"/>
				</g>
				<g>
					<circle fill="#333433" cx="96.3" cy="157.4" r="49.7"/>
					<path fill="#FFFFFF" d="M96.3,208.1c-28,0-50.7-22.8-50.7-50.7s22.8-50.7,50.7-50.7s50.7,22.8,50.7,50.7
						S124.2,208.1,96.3,208.1z M96.3,108.6c-26.9,0-48.7,21.9-48.7,48.7s21.9,48.7,48.7,48.7s48.7-21.9,48.7-48.7
						S123.1,108.6,96.3,108.6z"/>
				</g>
			</g>
			<g>
				<path fill="#FFFFFF" d="M113.5,147.4h-11.8v-7.7c0-2.9,1.9-3.6,3.3-3.6c1.3,0,8.3,0,8.3,0v-12.7l-11.4,0
					c-12.7,0-15.6,9.5-15.6,15.6v8.5H79v13.1h7.3c0,16.8,0,37.1,0,37.1h15.4c0,0,0-20.5,0-37.1h10.4L113.5,147.4z"/>
			</g>
		</g>
		<g>
			<path fill="#FFFFFF" d="M176.7,131.7h4.2V149h7.4v3.4h-11.6V131.7z"/>
			<path fill="#FFFFFF" d="M189.9,137.7c0.1-1.3,0.5-2.5,1-3.4s1.2-1.7,2.1-2.2c0.9-0.5,2.2-0.8,3.7-0.8c1.6,0,2.8,0.3,3.7,0.8
				c0.9,0.5,1.6,1.3,2.1,2.2s0.8,2.1,1,3.4c0.1,1.3,0.2,2.8,0.2,4.3c0,1.6-0.1,3-0.2,4.3c-0.1,1.3-0.5,2.4-1,3.4
				c-0.5,0.9-1.2,1.7-2.1,2.2c-0.9,0.5-2.2,0.8-3.7,0.8c-1.6,0-2.8-0.3-3.7-0.8c-0.9-0.5-1.6-1.2-2.1-2.2c-0.5-0.9-0.8-2.1-1-3.4
				c-0.1-1.3-0.2-2.8-0.2-4.3C189.6,140.5,189.7,139,189.9,137.7z M193.9,145.6c0.1,1,0.2,1.8,0.4,2.4c0.2,0.6,0.5,1.1,0.9,1.3
				c0.4,0.3,0.9,0.4,1.5,0.4c0.6,0,1.1-0.1,1.5-0.4c0.4-0.3,0.7-0.7,0.9-1.3c0.2-0.6,0.3-1.4,0.4-2.4c0.1-1,0.1-2.2,0.1-3.6
				c0-1.4,0-2.6-0.1-3.5c-0.1-1-0.2-1.8-0.4-2.4c-0.2-0.6-0.5-1.1-0.9-1.3s-0.9-0.4-1.5-0.4c-0.6,0-1.1,0.1-1.5,0.4
				s-0.7,0.7-0.9,1.3c-0.2,0.6-0.3,1.4-0.4,2.4c-0.1,1-0.1,2.1-0.1,3.5C193.8,143.4,193.9,144.6,193.9,145.6z"/>
			<path fill="#FFFFFF" d="M215.3,136.6c-0.1-0.4-0.2-0.8-0.4-1.1s-0.4-0.6-0.7-0.8c-0.3-0.2-0.7-0.3-1.1-0.3c-1,0-1.7,0.6-2.2,1.7
				c-0.4,1.1-0.7,3-0.7,5.6c0,1.2,0,2.4,0.1,3.4s0.2,1.9,0.4,2.6c0.2,0.7,0.5,1.2,0.9,1.6s0.9,0.6,1.5,0.6c0.3,0,0.5-0.1,0.8-0.2
				c0.3-0.1,0.6-0.3,0.8-0.6c0.3-0.3,0.5-0.6,0.7-1c0.2-0.4,0.3-0.9,0.3-1.5v-2.1h-2.8v-3.1h6.8v11.2h-3.1v-1.9h-0.1
				c-0.5,0.8-1.1,1.4-1.8,1.7c-0.7,0.3-1.6,0.5-2.5,0.5c-1.3,0-2.3-0.2-3.1-0.7c-0.8-0.4-1.4-1.1-1.9-2.1c-0.5-0.9-0.8-2.1-0.9-3.4
				c-0.2-1.4-0.2-2.9-0.2-4.7c0-1.7,0.1-3.3,0.3-4.6c0.2-1.3,0.6-2.4,1.1-3.3c0.5-0.9,1.3-1.5,2.1-2c0.9-0.4,2-0.7,3.3-0.7
				c2.3,0,3.9,0.6,4.9,1.7c1,1.1,1.5,2.8,1.5,4.9h-4C215.4,137.4,215.4,137.1,215.3,136.6z"/>
			<path fill="#FFFFFF" d="M222.5,131.7h4.2v20.7h-4.2V131.7z"/>
			<path fill="#FFFFFF" d="M239.7,145.9L239.7,145.9l0.1-14.2h3.8v20.7h-4.8l-5.1-14.5h-0.1v14.5h-3.8v-20.7h4.8L239.7,145.9z"/>
		</g>
		<g>
			<path fill="#FFFFFF" d="M177.6,164.3l2.3,15.3h0.1l2.4-15.3h4l2.4,15.3h0.1l2.3-15.3h4l-3.8,20.7h-4.7l-2.3-15h-0.1l-2.3,15h-4.7
				l-3.8-20.7H177.6z"/>
			<path fill="#FFFFFF" d="M197.1,164.3h4.2V185h-4.2V164.3z"/>
			<path fill="#FFFFFF" d="M216.5,167.7h-4.5V185h-4.2v-17.3h-4.5v-3.4h13.2V167.7z"/>
			<path fill="#FFFFFF" d="M222.4,164.3v7.9h4.9v-7.9h4.2V185h-4.2v-9.2h-4.9v9.2h-4.2v-20.7H222.4z"/>
			<path fill="#FFFFFF" d="M252.9,164.3v3.4h-7.4v4.9h7v3.4h-7v9h-4.2v-20.7H252.9z"/>
			<path fill="#FFFFFF" d="M262.4,164.3l5.5,20.7h-4.4l-1-4.4h-5.5l-1,4.4h-4.3l5.5-20.7H262.4z M261.9,177.2l-2-9.3h-0.1l-2,9.3
				H261.9z"/>
			<path fill="#FFFFFF" d="M277.6,168c-0.4-0.7-1-1-2-1c-0.5,0-1,0.1-1.3,0.4c-0.3,0.3-0.6,0.7-0.8,1.4c-0.2,0.6-0.3,1.5-0.4,2.5
				c-0.1,1-0.1,2.3-0.1,3.7c0,1.6,0.1,2.8,0.2,3.8c0.1,1,0.3,1.7,0.5,2.2c0.2,0.5,0.5,0.9,0.8,1.1c0.3,0.2,0.7,0.3,1.2,0.3
				c0.4,0,0.7-0.1,1-0.2c0.3-0.1,0.6-0.4,0.8-0.8c0.2-0.4,0.4-0.9,0.6-1.6c0.1-0.7,0.2-1.6,0.2-2.7h4.2c0,1.1-0.1,2.2-0.3,3.2
				c-0.2,1-0.5,1.9-1,2.6s-1.1,1.3-2,1.8c-0.9,0.4-2,0.6-3.3,0.6c-1.6,0-2.8-0.3-3.7-0.8c-0.9-0.5-1.6-1.2-2.1-2.2
				c-0.5-0.9-0.8-2.1-1-3.4c-0.1-1.3-0.2-2.8-0.2-4.3c0-1.6,0.1-3,0.2-4.3c0.1-1.3,0.5-2.5,1-3.4s1.2-1.7,2.1-2.2
				c0.9-0.5,2.2-0.8,3.7-0.8c1.5,0,2.7,0.2,3.5,0.7s1.5,1.1,1.9,1.8c0.4,0.7,0.7,1.5,0.8,2.4c0.1,0.9,0.2,1.7,0.2,2.4h-4.2
				C278.2,169.8,278,168.7,277.6,168z"/>
			<path fill="#FFFFFF" d="M296.5,167.7h-7.4v4.9h7v3.4h-7v5.6h7.7v3.4h-11.9v-20.7h11.6V167.7z"/>
			<path fill="#FFFFFF" d="M305.8,164.3c0.9,0,1.6,0.1,2.4,0.3s1.3,0.5,1.9,0.9c0.5,0.4,0.9,0.9,1.2,1.6s0.4,1.5,0.4,2.5
				c0,1.1-0.3,2.1-0.8,2.9c-0.5,0.8-1.3,1.3-2.3,1.6v0.1c1.2,0.2,2.1,0.6,2.8,1.5c0.7,0.8,1,1.9,1,3.3c0,0.8-0.1,1.6-0.3,2.3
				c-0.2,0.7-0.6,1.4-1.1,1.9c-0.5,0.6-1.2,1-2,1.3c-0.8,0.3-1.8,0.5-3.1,0.5h-7v-20.7H305.8z M304.2,172.8c1.2,0,2-0.2,2.5-0.6
				c0.5-0.4,0.8-1.1,0.8-2.1c0-1-0.2-1.7-0.7-2.1c-0.5-0.4-1.2-0.6-2.3-0.6H303v5.4H304.2z M304.7,181.9c1,0,1.8-0.2,2.4-0.7
				c0.6-0.4,0.9-1.3,0.9-2.5c0-0.6-0.1-1.1-0.2-1.5c-0.2-0.4-0.4-0.7-0.7-1c-0.3-0.2-0.6-0.4-1-0.5s-0.8-0.1-1.3-0.1H303v6.2H304.7z
				"/>
			<path fill="#FFFFFF" d="M314.8,170.3c0.1-1.3,0.5-2.5,1-3.4s1.2-1.7,2.1-2.2c0.9-0.5,2.2-0.8,3.7-0.8c1.6,0,2.8,0.3,3.7,0.8
				c0.9,0.5,1.6,1.3,2.1,2.2s0.8,2.1,1,3.4c0.1,1.3,0.2,2.8,0.2,4.3c0,1.6-0.1,3-0.2,4.3c-0.1,1.3-0.5,2.4-1,3.4
				c-0.5,0.9-1.2,1.7-2.1,2.2c-0.9,0.5-2.2,0.8-3.7,0.8c-1.6,0-2.8-0.3-3.7-0.8c-0.9-0.5-1.6-1.2-2.1-2.2c-0.5-0.9-0.8-2.1-1-3.4
				c-0.1-1.3-0.2-2.8-0.2-4.3C314.5,173.1,314.6,171.6,314.8,170.3z M318.8,178.2c0.1,1,0.2,1.8,0.4,2.4c0.2,0.6,0.5,1.1,0.9,1.3
				c0.4,0.3,0.9,0.4,1.5,0.4c0.6,0,1.1-0.1,1.5-0.4c0.4-0.3,0.7-0.7,0.9-1.3c0.2-0.6,0.3-1.4,0.4-2.4c0.1-1,0.1-2.2,0.1-3.6
				c0-1.4,0-2.6-0.1-3.5c-0.1-1-0.2-1.8-0.4-2.4c-0.2-0.6-0.5-1.1-0.9-1.3s-0.9-0.4-1.5-0.4c-0.6,0-1.1,0.1-1.5,0.4
				s-0.7,0.7-0.9,1.3c-0.2,0.6-0.3,1.4-0.4,2.4c-0.1,1-0.1,2.1-0.1,3.5C318.7,176,318.8,177.2,318.8,178.2z"/>
			<path fill="#FFFFFF" d="M330.9,170.3c0.1-1.3,0.5-2.5,1-3.4s1.2-1.7,2.1-2.2c0.9-0.5,2.2-0.8,3.7-0.8c1.6,0,2.8,0.3,3.7,0.8
				c0.9,0.5,1.6,1.3,2.1,2.2s0.8,2.1,1,3.4c0.1,1.3,0.2,2.8,0.2,4.3c0,1.6-0.1,3-0.2,4.3c-0.1,1.3-0.5,2.4-1,3.4
				c-0.5,0.9-1.2,1.7-2.1,2.2c-0.9,0.5-2.2,0.8-3.7,0.8c-1.6,0-2.8-0.3-3.7-0.8c-0.9-0.5-1.6-1.2-2.1-2.2c-0.5-0.9-0.8-2.1-1-3.4
				c-0.1-1.3-0.2-2.8-0.2-4.3C330.7,173.1,330.7,171.6,330.9,170.3z M334.9,178.2c0.1,1,0.2,1.8,0.4,2.4c0.2,0.6,0.5,1.1,0.9,1.3
				c0.4,0.3,0.9,0.4,1.5,0.4c0.6,0,1.1-0.1,1.5-0.4c0.4-0.3,0.7-0.7,0.9-1.3c0.2-0.6,0.3-1.4,0.4-2.4c0.1-1,0.1-2.2,0.1-3.6
				c0-1.4,0-2.6-0.1-3.5c-0.1-1-0.2-1.8-0.4-2.4c-0.2-0.6-0.5-1.1-0.9-1.3s-0.9-0.4-1.5-0.4c-0.6,0-1.1,0.1-1.5,0.4
				s-0.7,0.7-0.9,1.3c-0.2,0.6-0.3,1.4-0.4,2.4c-0.1,1-0.1,2.1-0.1,3.5C334.8,176,334.9,177.2,334.9,178.2z"/>
			<path fill="#FFFFFF" d="M351.4,172.6L351.4,172.6l5.3-8.3h4.5l-5.6,8.9l6.3,11.8h-4.7l-4.3-8.5l-1.5,2.3v6.1h-4.2v-20.7h4.2
				V172.6z"/>
		</g>
	</g>
	<g>
		<path fill="#C21429" d="M486.9,109.9l4.9,24.3h0.1l5-24.3h10.3v34.5h-6.4v-27.5h-0.1l-6.1,27.5h-5.4l-6.1-27.5h-0.1v27.5h-6.4
			v-34.5H486.9z"/>
		<path fill="#C21429" d="M512.5,109.9h7v34.5h-7V109.9z"/>
		<path fill="#C21429" d="M524.6,109.9h7v28.8h12.3v5.7h-19.3V109.9z"/>
		<path fill="#C21429" d="M546.9,109.9h7v28.8h12.3v5.7h-19.3V109.9z"/>
		<path fill="#C21429" d="M569.6,109.9h7v34.5h-7V109.9z"/>
		<path fill="#C21429" d="M581.4,119.9c0.2-2.2,0.8-4.1,1.6-5.7c0.8-1.6,2-2.8,3.5-3.7s3.6-1.3,6.2-1.3s4.7,0.4,6.2,1.3
			c1.5,0.9,2.7,2.1,3.5,3.7c0.8,1.6,1.4,3.5,1.6,5.7c0.2,2.2,0.4,4.6,0.4,7.2c0,2.6-0.1,5.1-0.4,7.2s-0.8,4.1-1.6,5.6
			c-0.8,1.6-2,2.8-3.5,3.6c-1.5,0.8-3.6,1.3-6.2,1.3s-4.7-0.4-6.2-1.3c-1.5-0.8-2.7-2-3.5-3.6c-0.8-1.6-1.4-3.5-1.6-5.6
			s-0.4-4.6-0.4-7.2C581,124.6,581.1,122.1,581.4,119.9z M588.1,133.1c0.1,1.6,0.3,2.9,0.7,4s0.8,1.8,1.4,2.2
			c0.6,0.5,1.5,0.7,2.5,0.7c1,0,1.9-0.2,2.5-0.7c0.6-0.5,1.1-1.2,1.4-2.2s0.6-2.3,0.7-4c0.1-1.6,0.2-3.6,0.2-5.9s-0.1-4.3-0.2-5.9
			c-0.1-1.6-0.3-2.9-0.7-4c-0.3-1-0.8-1.8-1.4-2.2c-0.6-0.5-1.5-0.7-2.5-0.7c-1,0-1.9,0.2-2.5,0.7c-0.6,0.5-1.1,1.2-1.4,2.2
			c-0.3,1-0.6,2.3-0.7,4c-0.1,1.6-0.2,3.6-0.2,5.9S588,131.4,588.1,133.1z"/>
		<path fill="#C21429" d="M625,133.5L625,133.5l0.1-23.6h6.4v34.5h-7.9l-8.5-24.1h-0.1v24.1h-6.4v-34.5h8L625,133.5z"/>
	</g>
</g>
<g>
	<g>
		<rect x="33" y="31" fill="#333433" width="6" height="3"/>
	</g>
	<g>
		<path fill="#333433" d="M831,34h-12v-3h12V34z M807,34h-12v-3h12V34z M783,34h-12v-3h12V34z M759,34h-12v-3h12V34z M735,34h-12v-3
			h12V34z M711,34h-12v-3h12V34z M687,34h-12v-3h12V34z M663,34h-12v-3h12V34z M639,34h-12v-3h12V34z M615,34h-12v-3h12V34z M591,34
			h-12v-3h12V34z M567,34h-12v-3h12V34z M543,34h-12v-3h12V34z M519,34h-12v-3h12V34z M495,34h-12v-3h12V34z M471,34h-12v-3h12V34z
			 M447,34h-12v-3h12V34z M423,34h-12v-3h12V34z M399,34h-12v-3h12V34z M375,34h-12v-3h12V34z M351,34h-12v-3h12V34z M327,34h-12v-3
			h12V34z M303,34h-12v-3h12V34z M279,34h-12v-3h12V34z M255,34h-12v-3h12V34z M231,34h-12v-3h12V34z M207,34h-12v-3h12V34z M183,34
			h-12v-3h12V34z M159,34h-12v-3h12V34z M135,34h-12v-3h12V34z M111,34H99v-3h12V34z M87,34H75v-3h12V34z M63,34H51v-3h12V34z"/>
	</g>
	<g>
		<rect x="844" y="31" fill="#333433" width="6" height="3"/>
	</g>
</g>
<g>
	<g>
		<rect x="33" y="286" fill="#333433" width="6" height="3"/>
	</g>
	<g>
		<path fill="#333433" d="M831,289h-12v-3h12V289z M807,289h-12v-3h12V289z M783,289h-12v-3h12V289z M759,289h-12v-3h12V289z
			 M735,289h-12v-3h12V289z M711,289h-12v-3h12V289z M687,289h-12v-3h12V289z M663,289h-12v-3h12V289z M639,289h-12v-3h12V289z
			 M615,289h-12v-3h12V289z M591,289h-12v-3h12V289z M567,289h-12v-3h12V289z M543,289h-12v-3h12V289z M519,289h-12v-3h12V289z
			 M495,289h-12v-3h12V289z M471,289h-12v-3h12V289z M447,289h-12v-3h12V289z M423,289h-12v-3h12V289z M399,289h-12v-3h12V289z
			 M375,289h-12v-3h12V289z M351,289h-12v-3h12V289z M327,289h-12v-3h12V289z M303,289h-12v-3h12V289z M279,289h-12v-3h12V289z
			 M255,289h-12v-3h12V289z M231,289h-12v-3h12V289z M207,289h-12v-3h12V289z M183,289h-12v-3h12V289z M159,289h-12v-3h12V289z
			 M135,289h-12v-3h12V289z M111,289H99v-3h12V289z M87,289H75v-3h12V289z M63,289H51v-3h12V289z"/>
	</g>
	<g>
		<rect x="844" y="286" fill="#333433" width="6" height="3"/>
	</g>
</g>
</svg>
