<?xml version="1.0" encoding="utf-8"?>
<!-- Generator: Adobe Illustrator 18.0.0, SVG Export Plug-In . SVG Version: 6.00 Build 0)  -->
<!DOCTYPE svg PUBLIC "-//W3C//DTD SVG 1.1//EN" "http://www.w3.org/Graphics/SVG/1.1/DTD/svg11.dtd">
<svg version="1.1" id="Layer_1" xmlns="http://www.w3.org/2000/svg" xmlns:xlink="http://www.w3.org/1999/xlink" x="0px" y="0px"
	 viewBox="0 0 892 288" enable-background="new 0 0 892 288" xml:space="preserve">
<g>
	<g>
		<g>
			<circle fill="#333433" stroke="#FFFFFF" stroke-width="2" stroke-miterlimit="10" cx="242.4" cy="130.7" r="74.9"/>
			<circle fill="#333433" stroke="#FFFFFF" stroke-width="2" stroke-miterlimit="10" cx="242.4" cy="130.7" r="64.2"/>
		</g>
		<g>
			<path fill="#FFFFFF" d="M248.1,140c-2.3-1.6-6.6-5.5-6.6-7.8c0-2.7,0.8-4,4.8-7.1c4.1-3.2,7-7.8,7-13c0-6.3-2.8-12.4-8-14.4h7.9
				l5.6-4h-24.9c-11.2,0-21.7,8.5-21.7,18.3c0,10,7.6,18.1,19,18.1c0.8,0,1.6,0,2.3-0.1c-0.7,1.4-1.3,3-1.3,4.7c0,2.8,1.5,5,3.4,6.9
				c-1.4,0-2.8,0-4.3,0c-13.8,0-24.5,8.8-24.5,18c0,9,11.7,14.6,25.5,14.6c15.8,0,24.5-9,24.5-18C256.8,148.9,254.6,144.6,248.1,140
				z M234.7,127.5c-6.4-0.2-12.5-7.2-13.6-15.6c-1.1-8.4,3.2-14.9,9.6-14.7c6.4,0.2,12.5,7,13.6,15.4
				C245.5,121,241.2,127.7,234.7,127.5z M232.2,170.1c-9.6,0-16.5-6.1-16.5-13.3c0-7.1,8.6-13.1,18.1-13c2.2,0,4.3,0.4,6.2,1
				c5.2,3.6,8.9,5.7,10,9.8c0.2,0.8,0.3,1.7,0.3,2.6C250.4,164.5,245.7,170.1,232.2,170.1z"/>
			<polygon fill="#FFFFFF" points="274.6,128.2 274.6,118.5 266.8,118.5 266.8,128.2 257.1,128.2 257.1,136 266.8,136 266.8,145.7 
				274.6,145.7 274.6,136 284.3,136 284.3,128.2 			"/>
		</g>
	</g>
	<g>
		<g>
			<path d="M430.5,128.1h-4.2v16h-3.9v-16h-4.2V125h12.2V128.1z"/>
			<path d="M432.3,125h3.9v19.1h-3.9V125z"/>
			<path d="M444.9,125l2.7,13.5h0.1l2.8-13.5h5.7v19.1h-3.5v-15.3h-0.1l-3.4,15.3h-3l-3.4-15.3h-0.1v15.3h-3.5V125H444.9z"/>
			<path d="M469.5,128.1h-6.8v4.5h6.4v3.2h-6.4v5.1h7.1v3.2h-10.9V125h10.7V128.1z"/>
			<path d="M474.8,138.7c0,0.4,0,0.9,0.1,1.2c0.1,0.4,0.2,0.7,0.4,0.9s0.5,0.4,0.8,0.6c0.3,0.1,0.7,0.2,1.2,0.2
				c0.6,0,1.1-0.2,1.6-0.6s0.7-1,0.7-1.8c0-0.4-0.1-0.8-0.2-1.1s-0.3-0.6-0.6-0.8c-0.3-0.2-0.6-0.5-1.1-0.7c-0.4-0.2-1-0.4-1.6-0.6
				c-0.9-0.3-1.6-0.6-2.2-0.9c-0.6-0.3-1.1-0.7-1.6-1.2s-0.7-1-0.9-1.6c-0.2-0.6-0.3-1.3-0.3-2.1c0-1.9,0.5-3.3,1.6-4.2
				s2.5-1.4,4.3-1.4c0.9,0,1.6,0.1,2.4,0.3s1.3,0.5,1.9,0.9c0.5,0.4,0.9,1,1.2,1.6c0.3,0.7,0.4,1.4,0.4,2.3v0.5h-3.7
				c0-0.9-0.2-1.6-0.5-2.1c-0.3-0.5-0.9-0.7-1.6-0.7c-0.4,0-0.8,0.1-1.1,0.2c-0.3,0.1-0.5,0.3-0.7,0.5c-0.2,0.2-0.3,0.4-0.3,0.7
				s-0.1,0.5-0.1,0.8c0,0.6,0.1,1.1,0.4,1.5s0.8,0.8,1.6,1.1l3,1.3c0.7,0.3,1.3,0.7,1.8,1c0.5,0.3,0.8,0.7,1.1,1.1
				c0.3,0.4,0.5,0.8,0.6,1.3c0.1,0.5,0.2,1,0.2,1.6c0,2-0.6,3.5-1.8,4.4c-1.2,0.9-2.8,1.4-4.9,1.4c-2.2,0-3.7-0.5-4.7-1.4
				s-1.4-2.3-1.4-4.1v-0.8h3.9V138.7z"/>
			<path d="M498.8,125c1,0,1.8,0.2,2.5,0.5c0.7,0.3,1.2,0.8,1.6,1.3c0.4,0.5,0.7,1.1,0.9,1.8c0.2,0.7,0.3,1.4,0.3,2.1
				c0,1-0.1,1.8-0.4,2.6c-0.3,0.7-0.7,1.3-1.2,1.8s-1.2,0.8-1.9,1c-0.7,0.2-1.6,0.3-2.5,0.3h-2.1v7.6H492V125H498.8z M497.6,133.6
				c0.8,0,1.4-0.2,1.9-0.7c0.5-0.5,0.7-1.2,0.7-2.2c0-1-0.2-1.7-0.6-2.2c-0.4-0.5-1.1-0.7-2.1-0.7h-1.6v5.8H497.6z"/>
			<path d="M516.6,128.1h-6.8v4.5h6.4v3.2h-6.4v5.1h7.1v3.2h-10.9V125h10.7V128.1z"/>
			<path d="M525.9,125c1.6,0,2.9,0.4,3.7,1.2c0.9,0.8,1.3,2,1.3,3.7c0,1.3-0.3,2.3-0.8,3.1c-0.5,0.8-1.3,1.3-2.4,1.6v0.1
				c1,0.1,1.7,0.5,2.1,0.9s0.7,1.3,0.8,2.3c0,0.4,0.1,0.7,0.1,1.2c0,0.4,0,0.9,0.1,1.4c0,1,0.1,1.8,0.2,2.3c0.1,0.5,0.3,0.9,0.7,1.1
				v0.2h-4.2c-0.2-0.3-0.3-0.6-0.4-0.9c-0.1-0.3-0.1-0.7-0.1-1.1l-0.1-3.7c0-0.7-0.2-1.3-0.6-1.8c-0.3-0.4-0.9-0.6-1.7-0.6h-2.1v8.1
				h-3.9V125H525.9z M524.3,133.3c0.9,0,1.6-0.2,2.1-0.7c0.5-0.4,0.8-1.2,0.8-2.2c0-1.8-0.9-2.6-2.7-2.6h-1.8v5.5H524.3z"/>
			<path d="M546.6,125c1.3,0,2.4,0.2,3.2,0.7c0.8,0.4,1.5,1.1,1.9,1.9c0.5,0.8,0.8,1.8,0.9,2.9c0.2,1.1,0.2,2.4,0.2,3.8
				c0,1.7-0.1,3.1-0.3,4.4s-0.6,2.3-1.1,3.1c-0.5,0.8-1.2,1.4-2,1.8s-1.9,0.6-3.2,0.6h-6.1V125H546.6z M545.9,141.2
				c0.7,0,1.2-0.1,1.6-0.3c0.4-0.2,0.7-0.6,1-1.2c0.2-0.5,0.4-1.2,0.5-2.1c0.1-0.9,0.1-2,0.1-3.3c0-1.1,0-2-0.1-2.9
				c-0.1-0.8-0.2-1.5-0.4-2c-0.2-0.5-0.6-1-1-1.2c-0.4-0.3-1-0.4-1.8-0.4h-1.6v13.4H545.9z"/>
			<path d="M564,125l5.1,19.1h-4l-0.9-4H559l-0.9,4h-4l5.1-19.1H564z M563.5,136.9l-1.8-8.6h-0.1l-1.8,8.6H563.5z"/>
			<path d="M574.5,132.4L574.5,132.4l2.7-7.4h4.2l-5,11.6v7.5h-3.9v-7.5l-5-11.6h4.3L574.5,132.4z"/>
			<path d="M599.4,128.1h-4.2v16h-3.9v-16h-4.2V125h12.2V128.1z"/>
			<path d="M605,125v7.3h4.5V125h3.9v19.1h-3.9v-8.5H605v8.5h-3.9V125H605z"/>
			<path d="M626.7,128.1h-6.8v4.5h6.4v3.2h-6.4v5.1h7.1v3.2H616V125h10.7V128.1z"/>
		</g>
		<g>
			<path d="M422.2,180.4h3.9v19.1h-3.9V180.4z"/>
			<path d="M432,194.2c0,0.4,0,0.9,0.1,1.2c0.1,0.4,0.2,0.7,0.4,0.9s0.5,0.4,0.8,0.6c0.3,0.1,0.7,0.2,1.2,0.2c0.6,0,1.1-0.2,1.6-0.6
				s0.7-1,0.7-1.8c0-0.4-0.1-0.8-0.2-1.1s-0.3-0.6-0.6-0.8c-0.3-0.2-0.6-0.5-1.1-0.7c-0.4-0.2-1-0.4-1.6-0.6
				c-0.9-0.3-1.6-0.6-2.2-0.9c-0.6-0.3-1.1-0.7-1.6-1.2s-0.7-1-0.9-1.6c-0.2-0.6-0.3-1.3-0.3-2.1c0-1.9,0.5-3.3,1.6-4.2
				s2.5-1.4,4.3-1.4c0.9,0,1.6,0.1,2.4,0.3s1.3,0.5,1.9,0.9c0.5,0.4,0.9,1,1.2,1.6c0.3,0.7,0.4,1.4,0.4,2.3v0.5h-3.7
				c0-0.9-0.2-1.6-0.5-2.1c-0.3-0.5-0.9-0.7-1.6-0.7c-0.4,0-0.8,0.1-1.1,0.2c-0.3,0.1-0.5,0.3-0.7,0.5c-0.2,0.2-0.3,0.4-0.3,0.7
				s-0.1,0.5-0.1,0.8c0,0.6,0.1,1.1,0.4,1.5s0.8,0.8,1.6,1.1l3,1.3c0.7,0.3,1.3,0.7,1.8,1c0.5,0.3,0.8,0.7,1.1,1.1
				c0.3,0.4,0.5,0.8,0.6,1.3c0.1,0.5,0.2,1,0.2,1.6c0,2-0.6,3.5-1.8,4.4c-1.2,0.9-2.8,1.4-4.9,1.4c-2.2,0-3.7-0.5-4.7-1.4
				s-1.4-2.3-1.4-4.1v-0.8h3.9V194.2z"/>
			<path d="M452.9,193.8c0,0.5,0,0.9,0.1,1.3s0.2,0.8,0.3,1c0.2,0.3,0.4,0.5,0.7,0.7c0.3,0.2,0.7,0.3,1.1,0.3c0.5,0,0.8-0.1,1.1-0.3
				c0.3-0.2,0.5-0.4,0.7-0.7c0.2-0.3,0.3-0.6,0.3-1s0.1-0.8,0.1-1.3v-13.3h3.9v13.3c0,1.2-0.2,2.2-0.5,3s-0.8,1.4-1.4,1.9
				c-0.6,0.5-1.2,0.8-2,0.9c-0.7,0.2-1.5,0.2-2.3,0.2s-1.5-0.1-2.3-0.2c-0.7-0.1-1.4-0.4-2-0.9c-0.6-0.4-1-1.1-1.4-1.9
				c-0.3-0.8-0.5-1.8-0.5-3.1v-13.3h3.9V193.8z"/>
			<path d="M466.8,194.2c0,0.4,0,0.9,0.1,1.2c0.1,0.4,0.2,0.7,0.4,0.9s0.5,0.4,0.8,0.6c0.3,0.1,0.7,0.2,1.2,0.2
				c0.6,0,1.1-0.2,1.6-0.6s0.7-1,0.7-1.8c0-0.4-0.1-0.8-0.2-1.1s-0.3-0.6-0.6-0.8c-0.3-0.2-0.6-0.5-1.1-0.7c-0.4-0.2-1-0.4-1.6-0.6
				c-0.9-0.3-1.6-0.6-2.2-0.9c-0.6-0.3-1.1-0.7-1.6-1.2s-0.7-1-0.9-1.6c-0.2-0.6-0.3-1.3-0.3-2.1c0-1.9,0.5-3.3,1.6-4.2
				s2.5-1.4,4.3-1.4c0.9,0,1.6,0.1,2.4,0.3s1.3,0.5,1.9,0.9c0.5,0.4,0.9,1,1.2,1.6c0.3,0.7,0.4,1.4,0.4,2.3v0.5h-3.7
				c0-0.9-0.2-1.6-0.5-2.1c-0.3-0.5-0.9-0.7-1.6-0.7c-0.4,0-0.8,0.1-1.1,0.2c-0.3,0.1-0.5,0.3-0.7,0.5c-0.2,0.2-0.3,0.4-0.3,0.7
				s-0.1,0.5-0.1,0.8c0,0.6,0.1,1.1,0.4,1.5s0.8,0.8,1.6,1.1l3,1.3c0.7,0.3,1.3,0.7,1.8,1c0.5,0.3,0.8,0.7,1.1,1.1
				c0.3,0.4,0.5,0.8,0.6,1.3c0.1,0.5,0.2,1,0.2,1.6c0,2-0.6,3.5-1.8,4.4c-1.2,0.9-2.8,1.4-4.9,1.4c-2.2,0-3.7-0.5-4.7-1.4
				s-1.4-2.3-1.4-4.1v-0.8h3.9V194.2z"/>
			<path d="M488.2,183.6h-6.8v4.5h6.4v3.2h-6.4v5.1h7.1v3.2h-10.9v-19.1h10.7V183.6z"/>
			<path d="M496.9,180.4c1.3,0,2.4,0.2,3.2,0.7c0.8,0.4,1.5,1.1,1.9,1.9c0.5,0.8,0.8,1.8,0.9,2.9c0.2,1.1,0.2,2.4,0.2,3.8
				c0,1.7-0.1,3.1-0.3,4.4s-0.6,2.3-1.1,3.1c-0.5,0.8-1.2,1.4-2,1.8s-1.9,0.6-3.2,0.6h-6.1v-19.1H496.9z M496.2,196.7
				c0.7,0,1.2-0.1,1.6-0.3c0.4-0.2,0.7-0.6,1-1.2c0.2-0.5,0.4-1.2,0.5-2.1c0.1-0.9,0.1-2,0.1-3.3c0-1.1,0-2-0.1-2.9
				c-0.1-0.8-0.2-1.5-0.4-2c-0.2-0.5-0.6-1-1-1.2c-0.4-0.3-1-0.4-1.8-0.4h-1.6v13.4H496.2z"/>
		</g>
		<g>
			<path fill="#C21429" d="M428.8,153.6c0.8,0,1.5,0.1,2.2,0.2c0.7,0.2,1.2,0.4,1.7,0.8c0.5,0.4,0.9,0.9,1.1,1.5
				c0.3,0.6,0.4,1.4,0.4,2.3c0,1-0.2,1.9-0.7,2.7c-0.5,0.7-1.2,1.2-2.2,1.5v0.1c1.1,0.1,1.9,0.6,2.5,1.4c0.6,0.8,0.9,1.8,0.9,3.1
				c0,0.8-0.1,1.5-0.3,2.1c-0.2,0.7-0.5,1.3-1,1.8s-1.1,0.9-1.8,1.2c-0.8,0.3-1.7,0.5-2.8,0.5h-6.5v-19.1H428.8z M427.3,161.4
				c1.1,0,1.9-0.2,2.3-0.6c0.5-0.4,0.7-1,0.7-1.9s-0.2-1.6-0.7-1.9s-1.2-0.6-2.1-0.6h-1.4v5H427.3z M427.7,169.9
				c0.9,0,1.7-0.2,2.2-0.6c0.6-0.4,0.9-1.2,0.9-2.3c0-0.6-0.1-1-0.2-1.4c-0.2-0.4-0.4-0.7-0.6-0.9c-0.3-0.2-0.6-0.4-0.9-0.5
				c-0.4-0.1-0.7-0.1-1.2-0.1h-1.7v5.8H427.7z"/>
			<path fill="#C21429" d="M440.9,166.9c0,0.5,0,0.9,0.1,1.3s0.2,0.8,0.3,1c0.2,0.3,0.4,0.5,0.7,0.7c0.3,0.2,0.7,0.3,1.1,0.3
				c0.5,0,0.8-0.1,1.1-0.3c0.3-0.2,0.5-0.4,0.7-0.7c0.2-0.3,0.3-0.6,0.3-1s0.1-0.8,0.1-1.3v-13.3h3.9v13.3c0,1.2-0.2,2.2-0.5,3
				s-0.8,1.4-1.4,1.9c-0.6,0.5-1.2,0.8-2,0.9c-0.7,0.2-1.5,0.2-2.3,0.2s-1.5-0.1-2.3-0.2c-0.7-0.1-1.4-0.4-2-0.9
				c-0.6-0.4-1-1.1-1.4-1.9c-0.3-0.8-0.5-1.8-0.5-3.1v-13.3h3.9V166.9z"/>
			<path fill="#C21429" d="M462.9,156.7h-4.2v16h-3.9v-16h-4.2v-3.2h12.2V156.7z"/>
			<path fill="#C21429" d="M475.7,156.7h-4.2v16h-3.9v-16h-4.2v-3.2h12.2V156.7z"/>
			<path fill="#C21429" d="M477.2,159.1c0.1-1.2,0.4-2.3,0.9-3.1c0.5-0.9,1.1-1.6,2-2c0.9-0.5,2-0.7,3.5-0.7s2.6,0.2,3.5,0.7
				c0.9,0.5,1.5,1.2,2,2c0.5,0.9,0.7,1.9,0.9,3.1s0.2,2.6,0.2,4c0,1.5-0.1,2.8-0.2,4c-0.1,1.2-0.4,2.3-0.9,3.1c-0.5,0.9-1.1,1.5-2,2
				s-2,0.7-3.5,0.7s-2.6-0.2-3.5-0.7s-1.5-1.1-2-2c-0.5-0.9-0.7-1.9-0.9-3.1c-0.1-1.2-0.2-2.6-0.2-4
				C477,161.7,477,160.4,477.2,159.1z M480.9,166.4c0.1,0.9,0.2,1.6,0.4,2.2s0.5,1,0.8,1.2c0.3,0.3,0.8,0.4,1.4,0.4s1-0.1,1.4-0.4
				c0.3-0.3,0.6-0.7,0.8-1.2s0.3-1.3,0.4-2.2c0.1-0.9,0.1-2,0.1-3.3c0-1.3,0-2.4-0.1-3.3c-0.1-0.9-0.2-1.6-0.4-2.2s-0.5-1-0.8-1.2
				c-0.3-0.3-0.8-0.4-1.4-0.4s-1,0.1-1.4,0.4c-0.3,0.3-0.6,0.7-0.8,1.2s-0.3,1.3-0.4,2.2c-0.1,0.9-0.1,2-0.1,3.3
				C480.8,164.4,480.8,165.5,480.9,166.4z"/>
			<path fill="#C21429" d="M501.3,166.7L501.3,166.7l0.1-13.1h3.5v19.1h-4.4l-4.7-13.4h-0.1v13.4h-3.5v-19.1h4.4L501.3,166.7z"/>
			<path fill="#C21429" d="M524.7,153.6v3.2h-6.8v4.5h6.4v3.2h-6.4v8.3H514v-19.1H524.7z"/>
			<path fill="#C21429" d="M533.5,153.6c1.6,0,2.9,0.4,3.7,1.2c0.9,0.8,1.3,2,1.3,3.7c0,1.3-0.3,2.3-0.8,3.1
				c-0.5,0.8-1.3,1.3-2.4,1.6v0.1c1,0.1,1.7,0.5,2.1,0.9s0.7,1.3,0.8,2.3c0,0.4,0.1,0.7,0.1,1.2c0,0.4,0,0.9,0.1,1.4
				c0,1,0.1,1.8,0.2,2.3c0.1,0.5,0.3,0.9,0.7,1.1v0.2h-4.2c-0.2-0.3-0.3-0.6-0.4-0.9c-0.1-0.3-0.1-0.7-0.1-1.1l-0.1-3.7
				c0-0.7-0.2-1.3-0.6-1.8c-0.3-0.4-0.9-0.6-1.7-0.6h-2.1v8.1h-3.9v-19.1H533.5z M531.9,161.9c0.9,0,1.6-0.2,2.1-0.7
				c0.5-0.4,0.8-1.2,0.8-2.2c0-1.8-0.9-2.6-2.7-2.6h-1.8v5.5H531.9z"/>
			<path fill="#C21429" d="M541.1,159.1c0.1-1.2,0.4-2.3,0.9-3.1c0.5-0.9,1.1-1.6,2-2c0.9-0.5,2-0.7,3.5-0.7s2.6,0.2,3.5,0.7
				c0.9,0.5,1.5,1.2,2,2c0.5,0.9,0.7,1.9,0.9,3.1s0.2,2.6,0.2,4c0,1.5-0.1,2.8-0.2,4c-0.1,1.2-0.4,2.3-0.9,3.1c-0.5,0.9-1.1,1.5-2,2
				s-2,0.7-3.5,0.7s-2.6-0.2-3.5-0.7s-1.5-1.1-2-2c-0.5-0.9-0.7-1.9-0.9-3.1c-0.1-1.2-0.2-2.6-0.2-4
				C540.9,161.7,541,160.4,541.1,159.1z M544.9,166.4c0.1,0.9,0.2,1.6,0.4,2.2s0.5,1,0.8,1.2c0.3,0.3,0.8,0.4,1.4,0.4s1-0.1,1.4-0.4
				c0.3-0.3,0.6-0.7,0.8-1.2s0.3-1.3,0.4-2.2c0.1-0.9,0.1-2,0.1-3.3c0-1.3,0-2.4-0.1-3.3c-0.1-0.9-0.2-1.6-0.4-2.2s-0.5-1-0.8-1.2
				c-0.3-0.3-0.8-0.4-1.4-0.4s-1,0.1-1.4,0.4c-0.3,0.3-0.6,0.7-0.8,1.2s-0.3,1.3-0.4,2.2c-0.1,0.9-0.1,2-0.1,3.3
				C544.8,164.4,544.8,165.5,544.9,166.4z"/>
			<path fill="#C21429" d="M562,153.6l2.7,13.5h0.1l2.8-13.5h5.7v19.1h-3.5v-15.3h-0.1l-3.4,15.3h-3l-3.4-15.3h-0.1v15.3h-3.5v-19.1
				H562z"/>
			<path fill="#C21429" d="M590.8,158.2c-0.1-0.4-0.2-0.7-0.4-1c-0.2-0.3-0.4-0.6-0.7-0.8c-0.3-0.2-0.6-0.3-1-0.3
				c-0.9,0-1.6,0.5-2,1.6s-0.6,2.7-0.6,5.1c0,1.1,0,2.2,0.1,3.1s0.2,1.7,0.4,2.4s0.5,1.2,0.8,1.5c0.3,0.3,0.8,0.5,1.4,0.5
				c0.2,0,0.5-0.1,0.8-0.2c0.3-0.1,0.5-0.3,0.8-0.6c0.2-0.2,0.4-0.6,0.6-1c0.2-0.4,0.2-0.8,0.2-1.4v-2h-2.5v-2.8h6.2v10.3H592v-1.8
				h-0.1c-0.5,0.7-1,1.3-1.7,1.6c-0.7,0.3-1.4,0.5-2.3,0.5c-1.2,0-2.1-0.2-2.9-0.6s-1.3-1-1.7-1.9s-0.7-1.9-0.8-3.2
				c-0.1-1.3-0.2-2.7-0.2-4.4c0-1.6,0.1-3,0.3-4.2c0.2-1.2,0.6-2.2,1.1-3c0.5-0.8,1.2-1.4,2-1.8c0.8-0.4,1.8-0.6,3.1-0.6
				c2.1,0,3.6,0.5,4.6,1.6s1.4,2.5,1.4,4.5h-3.7C590.9,158.9,590.9,158.5,590.8,158.2z"/>
			<path fill="#C21429" d="M597.1,159.1c0.1-1.2,0.4-2.3,0.9-3.1c0.5-0.9,1.1-1.6,2-2c0.9-0.5,2-0.7,3.5-0.7s2.6,0.2,3.5,0.7
				c0.9,0.5,1.5,1.2,2,2c0.5,0.9,0.7,1.9,0.9,3.1s0.2,2.6,0.2,4c0,1.5-0.1,2.8-0.2,4c-0.1,1.2-0.4,2.3-0.9,3.1c-0.5,0.9-1.1,1.5-2,2
				s-2,0.7-3.5,0.7s-2.6-0.2-3.5-0.7s-1.5-1.1-2-2c-0.5-0.9-0.7-1.9-0.9-3.1c-0.1-1.2-0.2-2.6-0.2-4
				C596.9,161.7,597,160.4,597.1,159.1z M600.9,166.4c0.1,0.9,0.2,1.6,0.4,2.2s0.5,1,0.8,1.2c0.3,0.3,0.8,0.4,1.4,0.4s1-0.1,1.4-0.4
				c0.3-0.3,0.6-0.7,0.8-1.2s0.3-1.3,0.4-2.2c0.1-0.9,0.1-2,0.1-3.3c0-1.3,0-2.4-0.1-3.3c-0.1-0.9-0.2-1.6-0.4-2.2s-0.5-1-0.8-1.2
				c-0.3-0.3-0.8-0.4-1.4-0.4s-1,0.1-1.4,0.4c-0.3,0.3-0.6,0.7-0.8,1.2s-0.3,1.3-0.4,2.2c-0.1,0.9-0.1,2-0.1,3.3
				C600.8,164.4,600.8,165.5,600.9,166.4z"/>
			<path fill="#C21429" d="M612,159.1c0.1-1.2,0.4-2.3,0.9-3.1c0.5-0.9,1.1-1.6,2-2c0.9-0.5,2-0.7,3.5-0.7s2.6,0.2,3.5,0.7
				c0.9,0.5,1.5,1.2,2,2c0.5,0.9,0.7,1.9,0.9,3.1s0.2,2.6,0.2,4c0,1.5-0.1,2.8-0.2,4c-0.1,1.2-0.4,2.3-0.9,3.1c-0.5,0.9-1.1,1.5-2,2
				s-2,0.7-3.5,0.7s-2.6-0.2-3.5-0.7s-1.5-1.1-2-2c-0.5-0.9-0.7-1.9-0.9-3.1c-0.1-1.2-0.2-2.6-0.2-4
				C611.8,161.7,611.9,160.4,612,159.1z M615.7,166.4c0.1,0.9,0.2,1.6,0.4,2.2s0.5,1,0.8,1.2c0.3,0.3,0.8,0.4,1.4,0.4s1-0.1,1.4-0.4
				c0.3-0.3,0.6-0.7,0.8-1.2s0.3-1.3,0.4-2.2c0.1-0.9,0.1-2,0.1-3.3c0-1.3,0-2.4-0.1-3.3c-0.1-0.9-0.2-1.6-0.4-2.2s-0.5-1-0.8-1.2
				c-0.3-0.3-0.8-0.4-1.4-0.4s-1,0.1-1.4,0.4c-0.3,0.3-0.6,0.7-0.8,1.2s-0.3,1.3-0.4,2.2c-0.1,0.9-0.1,2-0.1,3.3
				C615.6,164.4,615.7,165.5,615.7,166.4z"/>
			<path fill="#C21429" d="M635.4,158.2c-0.1-0.4-0.2-0.7-0.4-1c-0.2-0.3-0.4-0.6-0.7-0.8c-0.3-0.2-0.6-0.3-1-0.3
				c-0.9,0-1.6,0.5-2,1.6s-0.6,2.7-0.6,5.1c0,1.1,0,2.2,0.1,3.1s0.2,1.7,0.4,2.4s0.5,1.2,0.8,1.5c0.3,0.3,0.8,0.5,1.4,0.5
				c0.2,0,0.5-0.1,0.8-0.2c0.3-0.1,0.5-0.3,0.8-0.6c0.2-0.2,0.4-0.6,0.6-1c0.2-0.4,0.2-0.8,0.2-1.4v-2h-2.5v-2.8h6.2v10.3h-2.8v-1.8
				h-0.1c-0.5,0.7-1,1.3-1.7,1.6c-0.7,0.3-1.4,0.5-2.3,0.5c-1.2,0-2.1-0.2-2.9-0.6s-1.3-1-1.7-1.9s-0.7-1.9-0.8-3.2
				c-0.1-1.3-0.2-2.7-0.2-4.4c0-1.6,0.1-3,0.3-4.2c0.2-1.2,0.6-2.2,1.1-3c0.5-0.8,1.2-1.4,2-1.8c0.8-0.4,1.8-0.6,3.1-0.6
				c2.1,0,3.6,0.5,4.6,1.6s1.4,2.5,1.4,4.5h-3.7C635.6,158.9,635.5,158.5,635.4,158.2z"/>
			<path fill="#C21429" d="M642,153.6h3.9v16h6.8v3.2H642V153.6z"/>
			<path fill="#C21429" d="M665,156.7h-6.8v4.5h6.4v3.2h-6.4v5.1h7.1v3.2h-10.9v-19.1H665V156.7z"/>
		</g>
		<g>
			<path fill="#C21429" d="M364.3,95l-2.1,23h0.3c1.9-2.7,4.4-4.6,7.4-5.8c3.1-1.2,6.8-1.8,11.2-1.8c4.9,0,8.9,0.9,12.1,2.8
				c3.2,1.9,5.7,4.3,7.6,7.4c1.9,3.1,3.2,6.5,3.9,10.4c0.8,3.9,1.1,7.8,1.1,11.8c0,5.6-0.5,10.7-1.4,15.3c-1,4.6-2.6,8.5-5.1,11.8
				s-5.7,5.8-9.9,7.4c-4.2,1.7-9.5,2.5-16,2.5c-6.4,0-11.6-0.9-15.5-2.6c-4-1.7-7-4-9.1-6.8c-2.1-2.8-3.5-5.9-4.2-9.2
				c-0.7-3.3-1.1-6.4-1.1-9.2v-2.7h19.7c0,1.7,0.1,3.5,0.3,5.4c0.2,1.9,0.6,3.7,1.4,5.4c0.7,1.7,1.7,3.1,3.1,4.1
				c1.3,1.1,3.1,1.6,5.3,1.6c4.3,0,7.4-1.6,9.2-4.9s2.8-8.2,2.8-14.8c0-4.2-0.2-7.7-0.6-10.4c-0.4-2.8-1-5-1.9-6.6
				c-0.9-1.6-2.1-2.8-3.6-3.4c-1.5-0.7-3.4-1-5.7-1c-3,0-5.2,0.8-6.8,2.5c-1.6,1.7-2.6,3.9-2.9,6.8h-18.5l3.7-55.1h52.8v16H364.3z"
				/>
		</g>
		<g>
			<path fill="#C21429" d="M431.9,78l4.9,24.3h0.1l5-24.3h10.3v34.5h-6.4V85h-0.1l-6.1,27.5h-5.4L428,85h-0.1v27.5h-6.4V78H431.9z"
				/>
			<path fill="#C21429" d="M457.4,78h7v34.5h-7V78z"/>
			<path fill="#C21429" d="M469.6,78h7v28.8h12.3v5.7h-19.3V78z"/>
			<path fill="#C21429" d="M491.9,78h7v28.8h12.3v5.7h-19.3V78z"/>
			<path fill="#C21429" d="M514.6,78h7v34.5h-7V78z"/>
			<path fill="#C21429" d="M526.4,88c0.2-2.2,0.8-4.1,1.6-5.7c0.8-1.6,2-2.8,3.5-3.7s3.6-1.3,6.2-1.3s4.7,0.4,6.2,1.3
				c1.5,0.9,2.7,2.1,3.5,3.7c0.8,1.6,1.4,3.5,1.6,5.7c0.2,2.2,0.4,4.6,0.4,7.2c0,2.6-0.1,5.1-0.4,7.2s-0.8,4.1-1.6,5.6
				c-0.8,1.6-2,2.8-3.5,3.6c-1.5,0.8-3.6,1.3-6.2,1.3s-4.7-0.4-6.2-1.3c-1.5-0.8-2.7-2-3.5-3.6c-0.8-1.6-1.4-3.5-1.6-5.6
				s-0.4-4.6-0.4-7.2C526,92.7,526.1,90.2,526.4,88z M533.1,101.2c0.1,1.6,0.3,2.9,0.7,4s0.8,1.8,1.4,2.2c0.6,0.5,1.5,0.7,2.5,0.7
				c1,0,1.9-0.2,2.5-0.7c0.6-0.5,1.1-1.2,1.4-2.2s0.6-2.3,0.7-4c0.1-1.6,0.2-3.6,0.2-5.9s-0.1-4.3-0.2-5.9c-0.1-1.6-0.3-2.9-0.7-4
				c-0.3-1-0.8-1.8-1.4-2.2c-0.6-0.5-1.5-0.7-2.5-0.7c-1,0-1.9,0.2-2.5,0.7c-0.6,0.5-1.1,1.2-1.4,2.2c-0.3,1-0.6,2.3-0.7,4
				c-0.1,1.6-0.2,3.6-0.2,5.9S533,99.5,533.1,101.2z"/>
			<path fill="#C21429" d="M570,101.6L570,101.6l0.1-23.6h6.4v34.5h-7.9L560,88.4h-0.1v24.1h-6.4V78h8L570,101.6z"/>
		</g>
		<g>
			<path fill="#C21429" d="M641.9,136.9v-6h9.2v-9.2h6v9.2h9.2v6h-9.2v9.2h-6v-9.2H641.9z"/>
			<path fill="#C21429" d="M677.4,121.9h-6.8v-4.5h0.6c2.3,0,4.1-0.4,5.5-1.3c1.3-0.9,2.2-2.3,2.5-4.2h5.1v34.2h-7V121.9z"/>
		</g>
	</g>
</g>
</svg>
