<?xml version="1.0" encoding="utf-8"?>
<!-- Generator: Adobe Illustrator 18.0.0, SVG Export Plug-In . SVG Version: 6.00 Build 0)  -->
<!DOCTYPE svg PUBLIC "-//W3C//DTD SVG 1.1//EN" "http://www.w3.org/Graphics/SVG/1.1/DTD/svg11.dtd">
<svg version="1.1" id="Layer_1" xmlns="http://www.w3.org/2000/svg" xmlns:xlink="http://www.w3.org/1999/xlink" x="0px" y="0px"
	 viewBox="0 0 892 288" enable-background="new 0 0 892 288" xml:space="preserve">
<g>
	<g>
		<rect x="22" y="240" fill="#333433" width="6" height="3"/>
	</g>
	<g>
		<path fill="#333433" d="M820,243h-12v-3h12V243z M796,243h-12v-3h12V243z M772,243h-12v-3h12V243z M748,243h-12v-3h12V243z
			 M724,243h-12v-3h12V243z M700,243h-12v-3h12V243z M676,243h-12v-3h12V243z M652,243h-12v-3h12V243z M628,243h-12v-3h12V243z
			 M604,243h-12v-3h12V243z M580,243h-12v-3h12V243z M556,243h-12v-3h12V243z M532,243h-12v-3h12V243z M508,243h-12v-3h12V243z
			 M484,243h-12v-3h12V243z M460,243h-12v-3h12V243z M436,243h-12v-3h12V243z M412,243h-12v-3h12V243z M388,243h-12v-3h12V243z
			 M364,243h-12v-3h12V243z M340,243h-12v-3h12V243z M316,243h-12v-3h12V243z M292,243h-12v-3h12V243z M268,243h-12v-3h12V243z
			 M244,243h-12v-3h12V243z M220,243h-12v-3h12V243z M196,243h-12v-3h12V243z M172,243h-12v-3h12V243z M148,243h-12v-3h12V243z
			 M124,243h-12v-3h12V243z M100,243H88v-3h12V243z M76,243H64v-3h12V243z M52,243H40v-3h12V243z"/>
	</g>
	<g>
		<rect x="833" y="240" fill="#333433" width="6" height="3"/>
	</g>
</g>
<g>
	<g>
		<g>
			<path fill="#333433" d="M347.4,103H28.3c-6.6,0-12-5.4-12-12V45c0-6.6,5.4-12,12-12h319.1c6.6,0,12,5.4,12,12v46
				C359.4,97.6,354,103,347.4,103z"/>
		</g>
		<g>
			<path fill="#333433" d="M347.4,189H28.3c-6.6,0-12-5.4-12-12v-46c0-6.6,5.4-12,12-12h319.1c6.6,0,12,5.4,12,12v46
				C359.4,183.6,354,189,347.4,189z"/>
		</g>
		<g>
			<path fill="#FFFFFF" d="M117.3,142.8c1.3,0,2.4,0.2,3.3,0.7c0.9,0.4,1.6,1,2.2,1.7c0.6,0.7,0.9,1.5,1.2,2.5
				c0.2,0.9,0.4,1.9,0.4,2.8c0,1.3-0.2,2.5-0.6,3.5c-0.4,1-0.9,1.8-1.7,2.4s-1.6,1.1-2.6,1.4c-1,0.3-2.1,0.5-3.3,0.5h-2.8v10.3h-5.2
				v-25.7H117.3z M115.7,154.4c1,0,1.9-0.3,2.5-0.9s1-1.6,1-2.9c0-1.3-0.3-2.3-0.8-3c-0.6-0.7-1.5-1-2.8-1h-2.2v7.8H115.7z"/>
			<path fill="#FFFFFF" d="M137,142.8l6.8,25.7h-5.4l-1.2-5.4h-6.8l-1.2,5.4h-5.4l6.8-25.7H137z M136.3,158.8l-2.5-11.6h-0.1
				l-2.5,11.6H136.3z"/>
			<path fill="#FFFFFF" d="M149.8,161.2c0,0.6,0,1.1,0.1,1.6c0.1,0.5,0.3,0.9,0.5,1.2c0.3,0.3,0.6,0.6,1.1,0.8s1,0.3,1.7,0.3
				c0.8,0,1.5-0.3,2.1-0.8c0.6-0.5,1-1.3,1-2.4c0-0.6-0.1-1.1-0.2-1.5s-0.4-0.8-0.8-1.1c-0.4-0.3-0.8-0.6-1.4-0.9
				c-0.6-0.3-1.3-0.6-2.2-0.8c-1.2-0.4-2.1-0.8-3-1.3c-0.8-0.5-1.5-1-2.1-1.6c-0.6-0.6-1-1.3-1.2-2.1c-0.3-0.8-0.4-1.7-0.4-2.8
				c0-2.5,0.7-4.4,2.1-5.7c1.4-1.2,3.4-1.9,5.8-1.9c1.2,0,2.2,0.1,3.2,0.4s1.8,0.7,2.5,1.2c0.7,0.6,1.3,1.3,1.7,2.2
				c0.4,0.9,0.6,1.9,0.6,3.2v0.7h-5c0-1.2-0.2-2.2-0.6-2.8c-0.4-0.7-1.2-1-2.2-1c-0.6,0-1.1,0.1-1.4,0.3s-0.7,0.4-0.9,0.7
				c-0.2,0.3-0.4,0.6-0.5,1c-0.1,0.4-0.1,0.7-0.1,1.1c0,0.8,0.2,1.5,0.5,2s1.1,1,2.2,1.5l4,1.7c1,0.4,1.8,0.9,2.4,1.3
				c0.6,0.5,1.1,1,1.5,1.5c0.4,0.5,0.6,1.1,0.8,1.8c0.1,0.6,0.2,1.4,0.2,2.2c0,2.7-0.8,4.7-2.4,5.9c-1.6,1.2-3.8,1.9-6.6,1.9
				c-2.9,0-5-0.6-6.3-1.9c-1.3-1.3-1.9-3.1-1.9-5.5v-1h5.2V161.2z"/>
			<path fill="#FFFFFF" d="M168.4,161.2c0,0.6,0,1.1,0.1,1.6c0.1,0.5,0.3,0.9,0.5,1.2c0.3,0.3,0.6,0.6,1.1,0.8s1,0.3,1.7,0.3
				c0.8,0,1.5-0.3,2.1-0.8c0.6-0.5,1-1.3,1-2.4c0-0.6-0.1-1.1-0.2-1.5s-0.4-0.8-0.8-1.1c-0.4-0.3-0.8-0.6-1.4-0.9
				c-0.6-0.3-1.3-0.6-2.2-0.8c-1.2-0.4-2.1-0.8-3-1.3c-0.8-0.5-1.5-1-2.1-1.6c-0.6-0.6-1-1.3-1.2-2.1c-0.3-0.8-0.4-1.7-0.4-2.8
				c0-2.5,0.7-4.4,2.1-5.7c1.4-1.2,3.4-1.9,5.8-1.9c1.2,0,2.2,0.1,3.2,0.4s1.8,0.7,2.5,1.2c0.7,0.6,1.3,1.3,1.7,2.2
				c0.4,0.9,0.6,1.9,0.6,3.2v0.7h-5c0-1.2-0.2-2.2-0.6-2.8c-0.4-0.7-1.2-1-2.2-1c-0.6,0-1.1,0.1-1.4,0.3s-0.7,0.4-0.9,0.7
				c-0.2,0.3-0.4,0.6-0.5,1c-0.1,0.4-0.1,0.7-0.1,1.1c0,0.8,0.2,1.5,0.5,2s1.1,1,2.2,1.5l4,1.7c1,0.4,1.8,0.9,2.4,1.3
				c0.6,0.5,1.1,1,1.5,1.5c0.4,0.5,0.6,1.1,0.8,1.8c0.1,0.6,0.2,1.4,0.2,2.2c0,2.7-0.8,4.7-2.4,5.9c-1.6,1.2-3.8,1.9-6.6,1.9
				c-2.9,0-5-0.6-6.3-1.9c-1.3-1.3-1.9-3.1-1.9-5.5v-1h5.2V161.2z"/>
			<path fill="#FFFFFF" d="M186.4,142.8l2.8,19h0.1l3-19h5l3,19h0.1l2.8-19h5l-4.7,25.7h-5.8l-2.9-18.6h-0.1l-2.9,18.6h-5.8
				l-4.7-25.7H186.4z"/>
			<path fill="#FFFFFF" d="M210,150.2c0.2-1.6,0.6-3.1,1.2-4.2c0.6-1.2,1.5-2.1,2.6-2.8c1.2-0.7,2.7-1,4.6-1c1.9,0,3.5,0.3,4.6,1
				c1.2,0.7,2,1.6,2.6,2.8s1,2.6,1.2,4.2c0.2,1.6,0.3,3.4,0.3,5.4c0,2-0.1,3.8-0.3,5.4c-0.2,1.6-0.6,3-1.2,4.2
				c-0.6,1.2-1.5,2.1-2.6,2.7c-1.2,0.6-2.7,0.9-4.6,0.9c-1.9,0-3.5-0.3-4.6-0.9c-1.2-0.6-2-1.5-2.6-2.7c-0.6-1.2-1-2.6-1.2-4.2
				c-0.2-1.6-0.3-3.4-0.3-5.4C209.8,153.7,209.9,151.9,210,150.2z M215.1,160c0.1,1.2,0.3,2.2,0.5,3s0.6,1.3,1.1,1.7
				c0.5,0.3,1.1,0.5,1.9,0.5c0.8,0,1.4-0.2,1.9-0.5c0.5-0.3,0.8-0.9,1.1-1.7s0.4-1.7,0.5-3c0.1-1.2,0.1-2.7,0.1-4.4
				c0-1.7,0-3.2-0.1-4.4c-0.1-1.2-0.3-2.2-0.5-3c-0.3-0.8-0.6-1.3-1.1-1.7c-0.5-0.3-1.1-0.5-1.9-0.5c-0.8,0-1.4,0.2-1.9,0.5
				c-0.5,0.3-0.8,0.9-1.1,1.7c-0.3,0.8-0.4,1.8-0.5,3c-0.1,1.2-0.1,2.7-0.1,4.4C215,157.3,215,158.8,215.1,160z"/>
			<path fill="#FFFFFF" d="M239.9,142.8c2.2,0,3.8,0.5,5,1.6c1.2,1.1,1.8,2.8,1.8,5c0,1.7-0.3,3.1-1,4.2s-1.8,1.8-3.2,2.1v0.1
				c1.3,0.2,2.2,0.6,2.8,1.3c0.6,0.6,1,1.7,1.1,3.1c0,0.5,0.1,1,0.1,1.6c0,0.6,0,1.2,0.1,1.9c0,1.4,0.1,2.4,0.2,3.1
				c0.1,0.7,0.5,1.2,0.9,1.5v0.2h-5.6c-0.3-0.4-0.4-0.8-0.5-1.2c-0.1-0.5-0.1-1-0.1-1.5l-0.1-4.9c0-1-0.3-1.8-0.8-2.4
				s-1.2-0.9-2.3-0.9h-2.8v10.9h-5.2v-25.7H239.9z M237.7,154c1.2,0,2.2-0.3,2.9-0.9c0.7-0.6,1-1.6,1-3c0-2.4-1.2-3.6-3.6-3.6h-2.4
				v7.4H237.7z"/>
			<path fill="#FFFFFF" d="M259.1,142.8c1.8,0,3.3,0.3,4.4,0.9c1.1,0.6,2,1.4,2.6,2.5c0.6,1.1,1,2.4,1.2,3.9
				c0.2,1.5,0.3,3.3,0.3,5.1c0,2.3-0.1,4.2-0.4,5.9c-0.3,1.7-0.8,3-1.4,4.1s-1.6,1.9-2.7,2.4c-1.1,0.5-2.6,0.8-4.3,0.8h-8.2v-25.7
				H259.1z M258.1,164.6c0.9,0,1.6-0.2,2.2-0.5c0.6-0.3,1-0.8,1.3-1.5s0.5-1.7,0.6-2.8c0.1-1.2,0.2-2.6,0.2-4.4c0-1.5,0-2.7-0.1-3.9
				c-0.1-1.1-0.3-2-0.6-2.8c-0.3-0.7-0.7-1.3-1.3-1.7c-0.6-0.4-1.4-0.6-2.4-0.6h-2.2v18.1H258.1z"/>
		</g>
		<g>
			<path fill="#FFFFFF" d="M342.2,99.1H32.3c-7.2,0-13-5.8-13-13V49.9c0-7.2,5.8-13,13-13h309.8c7.2,0,13,5.8,13,13v36.2
				C355.2,93.2,349.3,99.1,342.2,99.1z M32.3,38.9c-6.1,0-11,4.9-11,11v36.2c0,6.1,4.9,11,11,11h309.8c6.1,0,11-4.9,11-11V49.9
				c0-6.1-4.9-11-11-11H32.3z"/>
		</g>
		<g>
			<path fill="#FFFFFF" d="M342.2,185.1H32.3c-7.2,0-13-5.8-13-13v-36.2c0-7.2,5.8-13,13-13h309.8c7.2,0,13,5.8,13,13v36.2
				C355.2,179.2,349.3,185.1,342.2,185.1z M32.3,124.9c-6.1,0-11,4.9-11,11v36.2c0,6.1,4.9,11,11,11h309.8c6.1,0,11-4.9,11-11v-36.2
				c0-6.1-4.9-11-11-11H32.3z"/>
		</g>
		<g>
			<path fill="#FFFFFF" d="M159,62h-9.2v6h8.6v4.2h-8.6v6.9h9.5v4.2h-14.7V57.8H159V62z"/>
			<path fill="#FFFFFF" d="M169.8,57.8l3.7,18.1h0.1l3.7-18.1h7.7v25.7h-4.8V62.9h-0.1l-4.6,20.5h-4l-4.6-20.5h-0.1v20.5h-4.8V57.8
				H169.8z"/>
			<path fill="#FFFFFF" d="M200,57.8l6.8,25.7h-5.4l-1.2-5.4h-6.8l-1.2,5.4h-5.4l6.8-25.7H200z M199.3,73.8l-2.5-11.6h-0.1
				l-2.5,11.6H199.3z"/>
			<path fill="#FFFFFF" d="M208.9,57.8h5.2v25.7h-5.2V57.8z"/>
			<path fill="#FFFFFF" d="M217.9,57.8h5.2v21.5h9.2v4.2h-14.4V57.8z"/>
		</g>
	</g>
	<g>
		<path fill="#C21429" d="M589.9,127.6v5.4h-11.6v7.7h10.9v5.4h-10.9v14.1h-6.6v-32.5H589.9z"/>
		<path fill="#C21429" d="M593.1,127.6h6.6v32.5h-6.6V127.6z"/>
		<path fill="#C21429" d="M614,151.7h0.1l4.8-24.1h6.8l-7.5,32.5h-8.4l-7.5-32.5h7L614,151.7z"/>
		<path fill="#C21429" d="M646.4,133h-11.6v7.7h10.9v5.4h-10.9v8.8h12.1v5.4h-18.6v-32.5h18.2V133z"/>
		<path fill="#C21429" d="M678.4,133h-7.1v27.2h-6.6V133h-7.1v-5.4h20.8V133z"/>
		<path fill="#C21429" d="M681.6,127.6h6.6v32.5h-6.6V127.6z"/>
		<path fill="#C21429" d="M702.9,127.6l4.6,23h0.1l4.7-23h9.7v32.5h-6v-26H716l-5.8,26h-5.1l-5.8-26h-0.1v26h-6v-32.5H702.9z"/>
		<path fill="#C21429" d="M744.9,133h-11.6v7.7h10.9v5.4h-10.9v8.8h12.1v5.4h-18.6v-32.5h18.2V133z"/>
		<path fill="#C21429" d="M754,151c0,0.8,0.1,1.5,0.2,2.1s0.3,1.1,0.7,1.6c0.3,0.4,0.8,0.8,1.3,1s1.3,0.4,2.1,0.4c1,0,1.9-0.3,2.7-1
			c0.8-0.7,1.2-1.7,1.2-3c0-0.7-0.1-1.4-0.3-1.9c-0.2-0.5-0.5-1-1-1.4c-0.5-0.4-1.1-0.8-1.8-1.2c-0.7-0.3-1.7-0.7-2.8-1.1
			c-1.5-0.5-2.7-1-3.8-1.6c-1.1-0.6-2-1.3-2.7-2c-0.7-0.8-1.2-1.7-1.6-2.7c-0.3-1-0.5-2.2-0.5-3.5c0-3.2,0.9-5.6,2.7-7.2
			c1.8-1.6,4.3-2.4,7.4-2.4c1.5,0,2.8,0.2,4,0.5s2.3,0.8,3.2,1.5c0.9,0.7,1.6,1.6,2.1,2.7c0.5,1.1,0.8,2.4,0.8,4v0.9h-6.3
			c0-1.5-0.3-2.7-0.8-3.6s-1.5-1.3-2.7-1.3c-0.7,0-1.3,0.1-1.8,0.3c-0.5,0.2-0.9,0.5-1.2,0.8c-0.3,0.3-0.5,0.8-0.6,1.2
			c-0.1,0.5-0.2,0.9-0.2,1.4c0,1,0.2,1.8,0.6,2.5c0.4,0.7,1.3,1.3,2.7,1.9l5.1,2.2c1.2,0.5,2.3,1.1,3.1,1.7s1.4,1.2,1.9,1.9
			c0.5,0.7,0.8,1.4,1,2.3c0.2,0.8,0.3,1.7,0.3,2.7c0,3.4-1,5.9-3,7.5c-2,1.6-4.8,2.3-8.3,2.3c-3.7,0-6.4-0.8-8-2.4
			c-1.6-1.6-2.4-3.9-2.4-6.9V150h6.6V151z"/>
	</g>
	<g>
		<path d="M569.4,66c0.2-1.6,0.6-2.9,1.1-4.1c0.6-1.1,1.4-2,2.5-2.6c1.1-0.6,2.6-1,4.5-1s3.4,0.3,4.5,1c1.1,0.6,2,1.5,2.5,2.6
			c0.6,1.1,1,2.5,1.1,4.1c0.2,1.6,0.3,3.3,0.3,5.2c0,1.9-0.1,3.6-0.3,5.2c-0.2,1.6-0.6,2.9-1.1,4.1c-0.6,1.1-1.4,2-2.5,2.6
			c-1.1,0.6-2.6,0.9-4.5,0.9s-3.4-0.3-4.5-0.9c-1.1-0.6-2-1.5-2.5-2.6c-0.6-1.1-1-2.5-1.1-4.1c-0.2-1.6-0.3-3.3-0.3-5.2
			C569.2,69.3,569.3,67.6,569.4,66z M574.3,75.4c0.1,1.2,0.2,2.1,0.5,2.8c0.2,0.7,0.6,1.3,1,1.6c0.5,0.3,1,0.5,1.8,0.5
			c0.7,0,1.3-0.2,1.8-0.5c0.5-0.3,0.8-0.9,1-1.6c0.2-0.7,0.4-1.7,0.5-2.8c0.1-1.2,0.1-2.6,0.1-4.2s0-3.1-0.1-4.2
			c-0.1-1.2-0.2-2.1-0.5-2.8c-0.2-0.7-0.6-1.3-1-1.6c-0.5-0.3-1-0.5-1.8-0.5c-0.7,0-1.3,0.2-1.8,0.5c-0.5,0.3-0.8,0.9-1,1.6
			c-0.2,0.7-0.4,1.7-0.5,2.8s-0.1,2.6-0.1,4.2S574.2,74.3,574.3,75.4z"/>
		<path d="M602.8,58.8v4.1h-8.8v5.8h8.3v4.1h-8.3v10.7h-5V58.8H602.8z"/>
		<path d="M630.7,58.8v4.1h-8.8v5.8h8.3v4.1h-8.3v10.7h-5V58.8H630.7z"/>
		<path d="M642,58.8l6.5,24.7h-5.2l-1.1-5.2h-6.6l-1.1,5.2h-5.2l6.5-24.7H642z M641.3,74.2l-2.4-11.1h-0.1l-2.4,11.1H641.3z"/>
		<path d="M660.2,63.2c-0.4-0.8-1.2-1.2-2.3-1.2c-0.6,0-1.1,0.2-1.5,0.5c-0.4,0.3-0.7,0.9-1,1.6c-0.2,0.8-0.4,1.7-0.5,2.9
			c-0.1,1.2-0.1,2.7-0.1,4.4c0,1.9,0.1,3.4,0.2,4.5c0.1,1.2,0.3,2,0.6,2.7c0.3,0.6,0.6,1.1,1,1.3c0.4,0.2,0.9,0.3,1.4,0.3
			c0.4,0,0.8-0.1,1.2-0.2s0.7-0.5,1-0.9c0.3-0.5,0.5-1.1,0.7-1.9c0.2-0.8,0.2-1.9,0.2-3.2h5c0,1.3-0.1,2.6-0.3,3.8s-0.6,2.3-1.2,3.2
			c-0.6,0.9-1.4,1.6-2.4,2.1c-1,0.5-2.4,0.8-4,0.8c-1.9,0-3.4-0.3-4.5-0.9c-1.1-0.6-2-1.5-2.5-2.6c-0.6-1.1-1-2.5-1.1-4.1
			c-0.2-1.6-0.3-3.3-0.3-5.2c0-1.9,0.1-3.6,0.3-5.2c0.2-1.6,0.6-2.9,1.1-4.1c0.6-1.1,1.4-2,2.5-2.6c1.1-0.6,2.6-1,4.5-1
			c1.8,0,3.2,0.3,4.2,0.9c1,0.6,1.8,1.3,2.3,2.2s0.8,1.8,1,2.9c0.1,1,0.2,2,0.2,2.9h-5C660.8,65.4,660.6,64.1,660.2,63.2z"/>
		<path d="M682.7,62.9h-8.8v5.8h8.3v4.1h-8.3v6.6h9.2v4.1h-14.2V58.8h13.8V62.9z"/>
		<path d="M693.9,58.8c1,0,2,0.1,2.8,0.3c0.9,0.2,1.6,0.6,2.2,1s1.1,1.1,1.5,1.9c0.3,0.8,0.5,1.8,0.5,3c0,1.3-0.3,2.5-0.9,3.4
			c-0.6,1-1.6,1.6-2.8,2v0.1c1.4,0.2,2.5,0.8,3.3,1.8c0.8,1,1.2,2.3,1.2,4c0,1-0.1,1.9-0.4,2.8s-0.7,1.6-1.3,2.3
			c-0.6,0.7-1.4,1.2-2.4,1.6c-1,0.4-2.2,0.6-3.7,0.6h-8.4V58.8H693.9z M691.9,69c1.4,0,2.4-0.2,3-0.7c0.6-0.5,1-1.3,1-2.5
			c0-1.2-0.3-2-0.9-2.5s-1.5-0.7-2.7-0.7h-1.8V69H691.9z M692.4,79.9c1.2,0,2.2-0.3,2.9-0.8c0.7-0.5,1.1-1.5,1.1-2.9
			c0-0.7-0.1-1.3-0.3-1.8c-0.2-0.5-0.5-0.9-0.8-1.1c-0.3-0.3-0.7-0.5-1.2-0.6s-1-0.2-1.5-0.2h-2.1v7.4H692.4z"/>
		<path d="M704.5,66c0.2-1.6,0.6-2.9,1.1-4.1c0.6-1.1,1.4-2,2.5-2.6c1.1-0.6,2.6-1,4.5-1s3.4,0.3,4.5,1c1.1,0.6,2,1.5,2.5,2.6
			c0.6,1.1,1,2.5,1.1,4.1c0.2,1.6,0.3,3.3,0.3,5.2c0,1.9-0.1,3.6-0.3,5.2c-0.2,1.6-0.6,2.9-1.1,4.1c-0.6,1.1-1.4,2-2.5,2.6
			c-1.1,0.6-2.6,0.9-4.5,0.9s-3.4-0.3-4.5-0.9c-1.1-0.6-2-1.5-2.5-2.6c-0.6-1.1-1-2.5-1.1-4.1c-0.2-1.6-0.3-3.3-0.3-5.2
			C704.2,69.3,704.3,67.6,704.5,66z M709.4,75.4c0.1,1.2,0.2,2.1,0.5,2.8c0.2,0.7,0.6,1.3,1,1.6c0.5,0.3,1,0.5,1.8,0.5
			c0.7,0,1.3-0.2,1.8-0.5c0.5-0.3,0.8-0.9,1-1.6c0.2-0.7,0.4-1.7,0.5-2.8c0.1-1.2,0.1-2.6,0.1-4.2s0-3.1-0.1-4.2
			c-0.1-1.2-0.2-2.1-0.5-2.8c-0.2-0.7-0.6-1.3-1-1.6c-0.5-0.3-1-0.5-1.8-0.5c-0.7,0-1.3,0.2-1.8,0.5c-0.5,0.3-0.8,0.9-1,1.6
			c-0.2,0.7-0.4,1.7-0.5,2.8s-0.1,2.6-0.1,4.2S709.3,74.3,709.4,75.4z"/>
		<path d="M723.8,66c0.2-1.6,0.6-2.9,1.1-4.1c0.6-1.1,1.4-2,2.5-2.6c1.1-0.6,2.6-1,4.5-1s3.4,0.3,4.5,1c1.1,0.6,2,1.5,2.5,2.6
			c0.6,1.1,1,2.5,1.1,4.1c0.2,1.6,0.3,3.3,0.3,5.2c0,1.9-0.1,3.6-0.3,5.2c-0.2,1.6-0.6,2.9-1.1,4.1c-0.6,1.1-1.4,2-2.5,2.6
			c-1.1,0.6-2.6,0.9-4.5,0.9s-3.4-0.3-4.5-0.9c-1.1-0.6-2-1.5-2.5-2.6c-0.6-1.1-1-2.5-1.1-4.1c-0.2-1.6-0.3-3.3-0.3-5.2
			C723.5,69.3,723.6,67.6,723.8,66z M728.6,75.4c0.1,1.2,0.2,2.1,0.5,2.8c0.2,0.7,0.6,1.3,1,1.6c0.5,0.3,1,0.5,1.8,0.5
			c0.7,0,1.3-0.2,1.8-0.5c0.5-0.3,0.8-0.9,1-1.6c0.2-0.7,0.4-1.7,0.5-2.8c0.1-1.2,0.1-2.6,0.1-4.2s0-3.1-0.1-4.2
			c-0.1-1.2-0.2-2.1-0.5-2.8c-0.2-0.7-0.6-1.3-1-1.6c-0.5-0.3-1-0.5-1.8-0.5c-0.7,0-1.3,0.2-1.8,0.5c-0.5,0.3-0.8,0.9-1,1.6
			c-0.2,0.7-0.4,1.7-0.5,2.8s-0.1,2.6-0.1,4.2S728.5,74.3,728.6,75.4z"/>
		<path d="M748.2,68.7L748.2,68.7l6.4-9.9h5.4l-6.7,10.6l7.5,14.1h-5.6l-5.1-10.1l-1.8,2.8v7.3h-5V58.8h5V68.7z"/>
		<path d="M778.4,76.1c0,0.6,0,1.2,0.1,1.7c0.1,0.5,0.2,1,0.5,1.4c0.2,0.4,0.5,0.7,0.9,0.9c0.4,0.2,0.9,0.3,1.4,0.3
			c0.6,0,1.1-0.1,1.5-0.3c0.4-0.2,0.7-0.5,0.9-0.9c0.2-0.4,0.4-0.8,0.5-1.4c0.1-0.5,0.1-1.1,0.1-1.7V58.8h5v17.2
			c0,1.6-0.2,2.9-0.7,3.9c-0.4,1-1,1.8-1.8,2.4c-0.7,0.6-1.6,1-2.5,1.2s-1.9,0.3-2.9,0.3s-2-0.1-2.9-0.3s-1.8-0.6-2.5-1.1
			c-0.7-0.6-1.3-1.4-1.8-2.4c-0.4-1-0.7-2.4-0.7-4.1V58.8h5V76.1z"/>
		<path d="M796.4,76.6c0,0.6,0,1.1,0.1,1.6c0.1,0.5,0.3,0.9,0.5,1.2c0.3,0.3,0.6,0.6,1,0.8c0.4,0.2,1,0.3,1.6,0.3
			c0.8,0,1.4-0.2,2.1-0.7c0.6-0.5,0.9-1.3,0.9-2.3c0-0.6-0.1-1-0.2-1.4c-0.2-0.4-0.4-0.8-0.7-1.1c-0.3-0.3-0.8-0.6-1.4-0.9
			c-0.6-0.3-1.3-0.5-2.1-0.8c-1.1-0.4-2.1-0.8-2.9-1.2c-0.8-0.4-1.5-1-2-1.5c-0.5-0.6-0.9-1.3-1.2-2s-0.4-1.7-0.4-2.7
			c0-2.4,0.7-4.3,2-5.5s3.2-1.8,5.6-1.8c1.1,0,2.1,0.1,3.1,0.4c0.9,0.2,1.7,0.6,2.4,1.2s1.2,1.2,1.6,2.1s0.6,1.9,0.6,3v0.7h-4.8
			c0-1.2-0.2-2.1-0.6-2.7c-0.4-0.6-1.1-1-2.1-1c-0.6,0-1,0.1-1.4,0.2c-0.4,0.2-0.7,0.4-0.9,0.6c-0.2,0.3-0.4,0.6-0.5,0.9
			c-0.1,0.3-0.1,0.7-0.1,1.1c0,0.8,0.2,1.4,0.5,1.9c0.3,0.5,1,1,2.1,1.4l3.8,1.7c0.9,0.4,1.7,0.8,2.3,1.3c0.6,0.5,1.1,0.9,1.4,1.5
			s0.6,1.1,0.7,1.7c0.1,0.6,0.2,1.3,0.2,2.1c0,2.6-0.8,4.5-2.3,5.7c-1.5,1.2-3.6,1.8-6.3,1.8c-2.8,0-4.8-0.6-6-1.8s-1.8-3-1.8-5.3
			v-1h5V76.6z"/>
		<path d="M824.1,62.9h-8.8v5.8h8.3v4.1h-8.3v6.6h9.2v4.1h-14.2V58.8h13.8V62.9z"/>
		<path d="M836.2,58.8c2.1,0,3.7,0.5,4.8,1.6c1.2,1,1.7,2.6,1.7,4.8c0,1.7-0.3,3-1,4.1c-0.7,1-1.7,1.7-3.1,2v0.1
			c1.2,0.2,2.2,0.6,2.7,1.2s0.9,1.6,1.1,3c0,0.5,0.1,1,0.1,1.5c0,0.5,0,1.1,0.1,1.8c0,1.3,0.1,2.3,0.2,3c0.1,0.7,0.4,1.2,0.9,1.4
			v0.2h-5.4c-0.3-0.3-0.4-0.7-0.5-1.2s-0.1-0.9-0.1-1.4l-0.1-4.7c0-1-0.3-1.7-0.7-2.3s-1.2-0.8-2.2-0.8H832v10.5h-5V58.8H836.2z
			 M834,69.6c1.2,0,2.1-0.3,2.8-0.8c0.6-0.6,1-1.5,1-2.9c0-2.3-1.2-3.4-3.5-3.4H832v7.1H834z"/>
		<path d="M850.2,76.6c0,0.6,0,1.1,0.1,1.6c0.1,0.5,0.3,0.9,0.5,1.2c0.3,0.3,0.6,0.6,1,0.8c0.4,0.2,1,0.3,1.6,0.3
			c0.8,0,1.4-0.2,2.1-0.7c0.6-0.5,0.9-1.3,0.9-2.3c0-0.6-0.1-1-0.2-1.4c-0.2-0.4-0.4-0.8-0.7-1.1c-0.3-0.3-0.8-0.6-1.4-0.9
			c-0.6-0.3-1.3-0.5-2.1-0.8c-1.1-0.4-2.1-0.8-2.9-1.2c-0.8-0.4-1.5-1-2-1.5c-0.5-0.6-0.9-1.3-1.2-2s-0.4-1.7-0.4-2.7
			c0-2.4,0.7-4.3,2-5.5s3.2-1.8,5.6-1.8c1.1,0,2.1,0.1,3.1,0.4c0.9,0.2,1.7,0.6,2.4,1.2s1.2,1.2,1.6,2.1s0.6,1.9,0.6,3v0.7h-4.8
			c0-1.2-0.2-2.1-0.6-2.7c-0.4-0.6-1.1-1-2.1-1c-0.6,0-1,0.1-1.4,0.2c-0.4,0.2-0.7,0.4-0.9,0.6c-0.2,0.3-0.4,0.6-0.5,0.9
			c-0.1,0.3-0.1,0.7-0.1,1.1c0,0.8,0.2,1.4,0.5,1.9c0.3,0.5,1,1,2.1,1.4l3.8,1.7c0.9,0.4,1.7,0.8,2.3,1.3c0.6,0.5,1.1,0.9,1.4,1.5
			s0.6,1.1,0.7,1.7c0.1,0.6,0.2,1.3,0.2,2.1c0,2.6-0.8,4.5-2.3,5.7c-1.5,1.2-3.6,1.8-6.3,1.8c-2.8,0-4.8-0.6-6-1.8s-1.8-3-1.8-5.3
			v-1h5V76.6z"/>
	</g>
	<g>
		<path d="M570.1,92.9h5v20.6h8.8v4.1h-13.8V92.9z"/>
		<path d="M585.9,100.1c0.2-1.6,0.6-2.9,1.1-4.1c0.6-1.1,1.4-2,2.5-2.6c1.1-0.6,2.6-1,4.5-1s3.4,0.3,4.5,1c1.1,0.6,2,1.5,2.5,2.6
			c0.6,1.1,1,2.5,1.1,4.1c0.2,1.6,0.3,3.3,0.3,5.2c0,1.9-0.1,3.6-0.3,5.2c-0.2,1.6-0.6,2.9-1.1,4.1c-0.6,1.1-1.4,2-2.5,2.6
			c-1.1,0.6-2.6,0.9-4.5,0.9s-3.4-0.3-4.5-0.9c-1.1-0.6-2-1.5-2.5-2.6c-0.6-1.1-1-2.5-1.1-4.1c-0.2-1.6-0.3-3.3-0.3-5.2
			C585.6,103.4,585.7,101.7,585.9,100.1z M590.7,109.6c0.1,1.2,0.2,2.1,0.5,2.8c0.2,0.7,0.6,1.3,1,1.6c0.5,0.3,1,0.5,1.8,0.5
			c0.7,0,1.3-0.2,1.8-0.5c0.5-0.3,0.8-0.9,1-1.6c0.2-0.7,0.4-1.7,0.5-2.8c0.1-1.2,0.1-2.6,0.1-4.2s0-3.1-0.1-4.2
			c-0.1-1.2-0.2-2.1-0.5-2.8c-0.2-0.7-0.6-1.3-1-1.6c-0.5-0.3-1-0.5-1.8-0.5c-0.7,0-1.3,0.2-1.8,0.5c-0.5,0.3-0.8,0.9-1,1.6
			c-0.2,0.7-0.4,1.7-0.5,2.8s-0.1,2.6-0.1,4.2S590.6,108.4,590.7,109.6z"/>
		<path d="M616.2,98.9c-0.1-0.5-0.3-0.9-0.5-1.3c-0.2-0.4-0.5-0.7-0.9-1c-0.4-0.3-0.8-0.4-1.3-0.4c-1.2,0-2.1,0.7-2.6,2
			c-0.5,1.3-0.8,3.6-0.8,6.6c0,1.5,0,2.8,0.1,4c0.1,1.2,0.3,2.2,0.5,3.1c0.2,0.8,0.6,1.5,1,1.9s1,0.7,1.7,0.7c0.3,0,0.6-0.1,1-0.2
			c0.4-0.2,0.7-0.4,1-0.7s0.6-0.7,0.8-1.2c0.2-0.5,0.3-1.1,0.3-1.7V108h-3.3v-3.7h8.1v13.3h-3.7v-2.3h-0.1c-0.6,1-1.3,1.7-2.2,2.1
			c-0.8,0.4-1.9,0.6-3,0.6c-1.5,0-2.8-0.3-3.7-0.8c-1-0.5-1.7-1.4-2.2-2.5c-0.5-1.1-0.9-2.5-1.1-4.1s-0.3-3.5-0.3-5.7
			c0-2.1,0.1-3.9,0.4-5.5c0.3-1.6,0.7-2.9,1.4-3.9c0.6-1,1.5-1.8,2.6-2.4c1.1-0.5,2.4-0.8,4-0.8c2.7,0,4.7,0.7,5.9,2
			s1.8,3.3,1.8,5.8h-4.8C616.3,99.8,616.3,99.4,616.2,98.9z"/>
		<path d="M624.9,92.9h5v24.7h-5V92.9z"/>
		<path d="M645.3,109.9L645.3,109.9l0.1-16.9h4.6v24.7h-5.7l-6.1-17.3h-0.1v17.3h-4.6V92.9h5.7L645.3,109.9z"/>
		<path d="M676.3,92.9l6.5,24.7h-5.2l-1.1-5.2h-6.6l-1.1,5.2h-5.2l6.5-24.7H676.3z M675.6,108.4l-2.4-11.1h-0.1l-2.4,11.1H675.6z"/>
		<path d="M697.1,97h-5.4v20.6h-5V97h-5.4v-4.1h15.8V97z"/>
		<path d="M711.1,92.9h5v20.6h8.8v4.1h-13.8V92.9z"/>
		<path d="M741,97h-8.8v5.8h8.3v4.1h-8.3v6.6h9.2v4.1h-14.2V92.9H741V97z"/>
		<path d="M754.8,92.9l6.5,24.7h-5.2l-1.1-5.2h-6.6l-1.1,5.2h-5.2l6.5-24.7H754.8z M754.1,108.4l-2.4-11.1h-0.1l-2.4,11.1H754.1z"/>
		<path d="M767.1,110.7c0,0.6,0,1.1,0.1,1.6c0.1,0.5,0.3,0.9,0.5,1.2c0.3,0.3,0.6,0.6,1,0.8c0.4,0.2,1,0.3,1.6,0.3
			c0.8,0,1.4-0.2,2.1-0.7c0.6-0.5,0.9-1.3,0.9-2.3c0-0.6-0.1-1-0.2-1.4c-0.2-0.4-0.4-0.8-0.7-1.1c-0.3-0.3-0.8-0.6-1.4-0.9
			c-0.6-0.3-1.3-0.5-2.1-0.8c-1.1-0.4-2.1-0.8-2.9-1.2c-0.8-0.4-1.5-1-2-1.5c-0.5-0.6-0.9-1.3-1.2-2s-0.4-1.7-0.4-2.7
			c0-2.4,0.7-4.3,2-5.5s3.2-1.8,5.6-1.8c1.1,0,2.1,0.1,3.1,0.4c0.9,0.2,1.7,0.6,2.4,1.2s1.2,1.2,1.6,2.1s0.6,1.9,0.6,3v0.7H773
			c0-1.2-0.2-2.1-0.6-2.7c-0.4-0.6-1.1-1-2.1-1c-0.6,0-1,0.1-1.4,0.2c-0.4,0.2-0.7,0.4-0.9,0.6c-0.2,0.3-0.4,0.6-0.5,0.9
			c-0.1,0.3-0.1,0.7-0.1,1.1c0,0.8,0.2,1.4,0.5,1.9c0.3,0.5,1,1,2.1,1.4l3.8,1.7c0.9,0.4,1.7,0.8,2.3,1.3c0.6,0.5,1.1,0.9,1.4,1.5
			s0.6,1.1,0.7,1.7c0.1,0.6,0.2,1.3,0.2,2.1c0,2.6-0.8,4.5-2.3,5.7c-1.5,1.2-3.6,1.8-6.3,1.8c-2.8,0-4.8-0.6-6-1.8s-1.8-3-1.8-5.3
			v-1h5V110.7z"/>
		<path d="M795.5,97h-5.4v20.6h-5V97h-5.4v-4.1h15.8V97z"/>
	</g>
	<g>
		<path d="M578.9,168l6,22.8h-4.8l-1.1-4.8H573l-1.1,4.8h-4.8l6-22.8H578.9z M578.3,182.2l-2.2-10.3H576l-2.2,10.3H578.3z"/>
		<path d="M602,168c1.6,0,2.9,0.3,3.9,0.8c1,0.5,1.7,1.3,2.3,2.2c0.5,1,0.9,2.1,1.1,3.5c0.2,1.4,0.3,2.9,0.3,4.6
			c0,2-0.1,3.8-0.4,5.2s-0.7,2.7-1.3,3.7c-0.6,1-1.4,1.7-2.4,2.1c-1,0.5-2.3,0.7-3.8,0.7h-7.3V168H602z M601.1,187.4
			c0.8,0,1.5-0.1,2-0.4c0.5-0.3,0.9-0.7,1.2-1.4c0.3-0.6,0.5-1.5,0.6-2.5c0.1-1,0.1-2.3,0.1-3.9c0-1.3,0-2.4-0.1-3.4
			c-0.1-1-0.3-1.8-0.5-2.4c-0.3-0.7-0.7-1.1-1.2-1.5c-0.5-0.3-1.2-0.5-2.1-0.5h-2v16.1H601.1z"/>
		<path d="M622.8,168l6,22.8H624L623,186h-6.1l-1.1,4.8H611l6-22.8H622.8z M622.2,182.2l-2.2-10.3h-0.1l-2.2,10.3H622.2z"/>
		<path d="M635.3,176.8L635.3,176.8l3.3-8.8h5l-5.9,13.9v9h-4.6v-9l-5.9-13.9h5.2L635.3,176.8z"/>
	</g>
	<g>
		<path fill="#C21429" d="M383.7,146.5c0-3.1,0.3-6,0.9-8.6c0.6-2.7,1.6-5.2,2.8-7.7c1.3-2.4,2.9-4.8,4.8-7.1c1.9-2.3,4.2-4.7,6.7-7
			l5.7-5.3c1.6-1.4,2.8-2.7,3.8-3.8c0.9-1.2,1.7-2.4,2.2-3.5c0.5-1.2,0.9-2.5,1-3.8c0.2-1.4,0.2-2.9,0.2-4.7c0-5.8-2.3-8.6-6.9-8.6
			c-1.8,0-3.2,0.4-4.2,1.1c-1,0.7-1.8,1.7-2.4,2.9c-0.6,1.2-0.9,2.7-1.1,4.3c-0.2,1.6-0.2,3.4-0.2,5.2h-13.6v-2.7
			c0-6.5,1.7-11.5,5.2-14.9c3.5-3.5,8.9-5.2,16.4-5.2c7.1,0,12.3,1.6,15.7,4.9c3.4,3.3,5.1,8,5.1,14.1c0,2.2-0.2,4.3-0.6,6.2
			c-0.4,1.9-1,3.8-1.9,5.6c-0.9,1.8-2,3.5-3.3,5.2s-3,3.4-5,5.2l-7.9,7.3c-2.1,1.9-3.7,3.8-4.9,5.6c-1.2,1.8-1.9,3.4-2.3,4.7h26.2
			v11H383.7z"/>
		<path fill="#C21429" d="M446.3,135.4c1,2.1,3.1,3.2,6.1,3.2c1.7,0,3.1-0.3,4.1-0.9c1-0.6,1.8-1.4,2.4-2.4c0.6-1,0.9-2.2,1.1-3.6
			c0.2-1.4,0.2-2.8,0.2-4.3c0-1.6-0.1-3.1-0.3-4.5c-0.2-1.4-0.7-2.7-1.3-3.8c-0.7-1.1-1.6-2-2.8-2.7c-1.2-0.7-2.8-1-4.7-1h-4.7v-9.2
			h4.6c1.5,0,2.8-0.3,3.8-0.9c1-0.6,1.8-1.4,2.5-2.5c0.6-1,1.1-2.2,1.4-3.5c0.3-1.3,0.4-2.7,0.4-4.1c0-3.3-0.6-5.7-1.7-7.1
			c-1.1-1.4-2.8-2.1-5.1-2.1c-1.5,0-2.7,0.3-3.7,0.8c-1,0.6-1.7,1.3-2.2,2.4c-0.5,1-0.9,2.2-1,3.6c-0.2,1.4-0.2,2.9-0.2,4.5h-13
			c0-6.9,1.7-12.1,5.2-15.5c3.5-3.4,8.5-5.1,15.2-5.1c6.4,0,11.3,1.4,14.8,4.3c3.5,2.9,5.3,7.4,5.3,13.6c0,4.2-0.9,7.6-2.8,10.3
			s-4.5,4.3-7.8,5.1v0.2c4.5,0.7,7.7,2.5,9.6,5.5c1.9,2.9,2.8,6.6,2.8,11c0,2.4-0.3,4.8-0.9,7.3c-0.6,2.5-1.7,4.8-3.4,6.8
			c-1.7,2-4,3.7-7,4.9c-3,1.2-6.9,1.9-11.7,1.9c-6.7,0-11.8-1.8-15.1-5.5c-3.3-3.7-5-8.9-5-15.6v-0.3h13.6
			C444.7,130.2,445.3,133.3,446.3,135.4z"/>
		<path fill="#C21429" d="M479.5,87.4c0.4-2.4,1.1-4.3,2.2-5.9s2.6-2.7,4.5-3.5c1.9-0.8,4.4-1.1,7.4-1.1c3.1,0,5.6,0.4,7.5,1.1
			c1.9,0.8,3.4,1.9,4.5,3.5s1.8,3.5,2.2,5.9c0.4,2.4,0.6,5.1,0.6,8.3s-0.2,5.9-0.6,8.3c-0.4,2.4-1.1,4.3-2.2,5.9s-2.6,2.7-4.5,3.5
			c-1.9,0.8-4.4,1.1-7.5,1.1c-3,0-5.5-0.4-7.4-1.1c-1.9-0.8-3.4-1.9-4.5-3.5s-1.8-3.5-2.2-5.9c-0.4-2.4-0.6-5.1-0.6-8.3
			S479.1,89.8,479.5,87.4z M490,104.1c0.5,1.9,1.7,2.9,3.6,2.9c2,0,3.2-1,3.6-2.9c0.5-1.9,0.7-4.9,0.7-8.8c0-3.5-0.2-6.2-0.7-8.1
			c-0.5-1.9-1.7-2.8-3.6-2.8c-2,0-3.2,0.9-3.6,2.8c-0.5,1.9-0.7,4.6-0.7,8.1C489.4,99.2,489.6,102.2,490,104.1z M538.7,75.3
			l-39.9,74H490l39.9-74H538.7z M521.2,120.9c0.4-2.4,1.1-4.3,2.2-5.9c1.1-1.6,2.6-2.7,4.5-3.5c1.9-0.8,4.4-1.1,7.4-1.1
			c3.1,0,5.6,0.4,7.5,1.1c1.9,0.8,3.4,1.9,4.5,3.5c1.1,1.6,1.8,3.5,2.2,5.9c0.4,2.4,0.6,5.1,0.6,8.3c0,3.2-0.2,6-0.6,8.3
			c-0.4,2.3-1.1,4.3-2.2,5.8c-1.1,1.5-2.6,2.7-4.5,3.3c-1.9,0.7-4.4,1-7.5,1c-3,0-5.5-0.3-7.4-1c-1.9-0.7-3.4-1.8-4.5-3.3
			c-1.1-1.5-1.8-3.5-2.2-5.8c-0.4-2.3-0.6-5.1-0.6-8.3C520.6,126,520.8,123.2,521.2,120.9z M531.7,137.5c0.5,1.9,1.7,2.9,3.6,2.9
			c2,0,3.2-1,3.6-2.9c0.5-1.9,0.7-4.9,0.7-8.8c0-3.5-0.2-6.2-0.7-8.1c-0.5-1.9-1.7-2.8-3.6-2.8c-2,0-3.2,0.9-3.6,2.8
			c-0.5,1.9-0.7,4.6-0.7,8.1C531,132.6,531.3,135.6,531.7,137.5z"/>
	</g>
</g>
</svg>
