<?xml version="1.0" encoding="utf-8"?>
<!-- Generator: Adobe Illustrator 18.0.0, SVG Export Plug-In . SVG Version: 6.00 Build 0)  -->
<!DOCTYPE svg PUBLIC "-//W3C//DTD SVG 1.1//EN" "http://www.w3.org/Graphics/SVG/1.1/DTD/svg11.dtd">
<svg version="1.1" id="Layer_1" xmlns="http://www.w3.org/2000/svg" xmlns:xlink="http://www.w3.org/1999/xlink" x="0px" y="0px"
	 viewBox="0 0 960 180.6" enable-background="new 0 0 960 180.6" xml:space="preserve">
<g>
	<g>
		<path fill="#C21429" d="M438.3,17.5h10.4v31.3h4.7v7.8h-4.7v10.2h-9.2V56.6H422v-8.2L438.3,17.5z M439.4,30l-9.6,18.7h9.8V30
			H439.4z"/>
		<path fill="#C21429" d="M475.1,25.6c-0.7-1-1.8-1.5-3.5-1.5c-1.3,0-2.4,0.3-3.2,0.9s-1.4,1.5-1.9,2.6c-0.4,1.1-0.7,2.4-0.9,4
			c-0.1,1.5-0.2,3.2-0.2,5V39h0.1c0.8-1.3,2-2.3,3.6-3.1c1.6-0.8,3.4-1.1,5.7-1.1c2.2,0,4,0.4,5.6,1.1c1.5,0.8,2.8,1.8,3.7,3.2
			c1,1.4,1.6,3,2.1,4.9c0.4,1.9,0.7,3.9,0.7,6.2c0,5.7-1.3,10-3.8,13c-2.5,2.9-6.6,4.4-12.2,4.4c-3.4,0-6.2-0.6-8.2-1.8
			s-3.6-2.9-4.7-5c-1.1-2.1-1.8-4.6-2.1-7.3c-0.3-2.8-0.5-5.7-0.5-8.7c0-3.5,0.1-6.9,0.3-10.1c0.2-3.3,0.8-6.2,1.9-8.7
			c1-2.5,2.7-4.6,4.9-6.1c2.2-1.5,5.4-2.3,9.5-2.3c1.8,0,3.5,0.2,5.1,0.6c1.6,0.4,3.1,1.1,4.4,2.1s2.3,2.3,3,3.9
			c0.8,1.6,1.2,3.6,1.2,6h-9.6C476.1,28.1,475.8,26.6,475.1,25.6z M466.1,55.4c0.1,1.2,0.4,2.2,0.8,3.1c0.4,0.9,1,1.5,1.7,2
			c0.7,0.5,1.7,0.7,2.8,0.7c1.2,0,2.2-0.2,2.9-0.7c0.7-0.5,1.3-1.2,1.6-2.1c0.4-0.9,0.6-1.9,0.7-3.1c0.1-1.2,0.2-2.5,0.2-3.9
			c0-3.3-0.4-5.7-1.3-7.2c-0.8-1.4-2.2-2.2-4.2-2.2c-2,0-3.4,0.7-4.2,2.2c-0.8,1.4-1.3,3.8-1.3,7.2C465.9,52.9,466,54.2,466.1,55.4z
			"/>
		<path fill="#C21429" d="M490.2,24.9c0.3-1.7,0.8-3.1,1.6-4.2c0.8-1.1,1.8-1.9,3.2-2.5c1.4-0.5,3.1-0.8,5.3-0.8
			c2.2,0,3.9,0.3,5.3,0.8c1.3,0.5,2.4,1.4,3.2,2.5c0.8,1.1,1.3,2.5,1.6,4.2c0.3,1.7,0.4,3.6,0.4,5.9c0,2.2-0.1,4.2-0.4,5.9
			c-0.3,1.7-0.8,3.1-1.6,4.2s-1.8,1.9-3.2,2.5c-1.3,0.5-3.1,0.8-5.3,0.8c-2.1,0-3.9-0.3-5.3-0.8c-1.4-0.5-2.4-1.4-3.2-2.5
			s-1.3-2.5-1.6-4.2s-0.4-3.6-0.4-5.9C489.8,28.6,489.9,26.6,490.2,24.9z M497.6,36.7c0.3,1.4,1.2,2.1,2.6,2.1
			c1.4,0,2.3-0.7,2.6-2.1c0.3-1.4,0.5-3.4,0.5-6.2c0-2.5-0.2-4.4-0.5-5.7c-0.3-1.3-1.2-2-2.6-2c-1.4,0-2.3,0.7-2.6,2
			c-0.3,1.3-0.5,3.2-0.5,5.7C497.1,33.3,497.3,35.4,497.6,36.7z M532.1,16.3l-28.3,52.5h-6.2l28.3-52.5H532.1z M519.7,48.6
			c0.3-1.7,0.8-3.1,1.6-4.2c0.8-1.1,1.8-1.9,3.2-2.5c1.4-0.5,3.1-0.8,5.3-0.8c2.2,0,3.9,0.3,5.3,0.8c1.3,0.5,2.4,1.4,3.2,2.5
			c0.8,1.1,1.3,2.5,1.6,4.2c0.3,1.7,0.4,3.6,0.4,5.9c0,2.3-0.1,4.2-0.4,5.9c-0.3,1.6-0.8,3-1.6,4.1c-0.8,1.1-1.8,1.9-3.2,2.4
			c-1.3,0.5-3.1,0.7-5.3,0.7c-2.1,0-3.9-0.2-5.3-0.7c-1.4-0.5-2.4-1.3-3.2-2.4c-0.8-1.1-1.3-2.5-1.6-4.1c-0.3-1.6-0.4-3.6-0.4-5.9
			C519.3,52.2,519.4,50.3,519.7,48.6z M527.2,60.4c0.3,1.4,1.2,2.1,2.6,2.1s2.3-0.7,2.6-2.1c0.3-1.4,0.5-3.4,0.5-6.2
			c0-2.5-0.2-4.4-0.5-5.7c-0.3-1.3-1.2-2-2.6-2s-2.3,0.7-2.6,2c-0.3,1.3-0.5,3.2-0.5,5.7C526.7,57,526.8,59.1,527.2,60.4z"/>
	</g>
	<g>
		<path d="M438.2,78.1l8.8,33.4h-7l-1.5-7.1h-8.9l-1.5,7.1h-7l8.8-33.4H438.2z M437.3,98.9l-3.2-15h-0.1l-3.2,15H437.3z"/>
		<path d="M463.9,86.1c-0.1-0.7-0.4-1.3-0.7-1.8c-0.3-0.5-0.7-1-1.2-1.4c-0.5-0.4-1.1-0.5-1.8-0.5c-1.6,0-2.8,0.9-3.5,2.7
			c-0.7,1.8-1.1,4.8-1.1,9c0,2,0.1,3.8,0.2,5.4c0.1,1.6,0.4,3,0.7,4.1c0.3,1.1,0.8,2,1.4,2.6s1.4,0.9,2.4,0.9c0.4,0,0.8-0.1,1.3-0.3
			c0.5-0.2,0.9-0.5,1.4-1c0.4-0.4,0.8-1,1.1-1.7s0.4-1.5,0.4-2.4v-3.4h-4.4v-5H471v18h-5v-3.1h-0.1c-0.8,1.3-1.8,2.2-2.9,2.8
			s-2.5,0.8-4.1,0.8c-2.1,0-3.7-0.4-5-1.1c-1.3-0.7-2.3-1.8-3-3.3c-0.7-1.5-1.2-3.3-1.5-5.5c-0.2-2.2-0.4-4.7-0.4-7.6
			c0-2.8,0.2-5.3,0.5-7.4c0.4-2.1,1-3.9,1.8-5.3c0.9-1.4,2-2.5,3.5-3.2c1.4-0.7,3.2-1.1,5.4-1.1c3.7,0,6.3,0.9,7.9,2.7
			c1.6,1.8,2.4,4.4,2.4,7.8h-6.4C464.1,87.4,464.1,86.7,463.9,86.1z"/>
		<path d="M493.9,83.6H482v7.9h11.2V97H482v9h12.4v5.5h-19.1V78.1h18.6V83.6z"/>
		<path d="M503.2,102c0,0.8,0.1,1.5,0.2,2.1c0.1,0.6,0.4,1.2,0.7,1.6c0.3,0.4,0.8,0.8,1.4,1c0.6,0.2,1.3,0.4,2.2,0.4
			c1,0,2-0.3,2.8-1c0.8-0.7,1.2-1.7,1.2-3.1c0-0.7-0.1-1.4-0.3-1.9c-0.2-0.5-0.5-1-1-1.5c-0.5-0.4-1.1-0.8-1.8-1.2
			c-0.8-0.4-1.7-0.7-2.8-1.1c-1.5-0.5-2.8-1-3.9-1.6c-1.1-0.6-2-1.3-2.7-2.1c-0.7-0.8-1.3-1.7-1.6-2.8c-0.3-1-0.5-2.3-0.5-3.6
			c0-3.3,0.9-5.8,2.8-7.4c1.8-1.6,4.4-2.4,7.6-2.4c1.5,0,2.9,0.2,4.1,0.5c1.3,0.3,2.4,0.9,3.3,1.6c0.9,0.7,1.6,1.7,2.1,2.8
			c0.5,1.1,0.8,2.5,0.8,4.1v0.9h-6.4c0-1.6-0.3-2.8-0.8-3.7c-0.6-0.9-1.5-1.3-2.8-1.3c-0.7,0-1.4,0.1-1.9,0.3
			c-0.5,0.2-0.9,0.5-1.2,0.9c-0.3,0.4-0.5,0.8-0.6,1.2c-0.1,0.5-0.2,1-0.2,1.4c0,1,0.2,1.9,0.7,2.6s1.4,1.3,2.8,1.9l5.2,2.2
			c1.3,0.6,2.3,1.1,3.1,1.8c0.8,0.6,1.5,1.3,1.9,2c0.5,0.7,0.8,1.5,1,2.3s0.3,1.8,0.3,2.8c0,3.5-1,6.1-3.1,7.7
			c-2,1.6-4.9,2.4-8.5,2.4c-3.8,0-6.5-0.8-8.2-2.5c-1.6-1.7-2.5-4-2.5-7.1V101h6.7V102z"/>
		<path d="M542.5,78.4h7v21h3.2v5.2h-3.2v6.9h-6.2v-6.9h-11.8v-5.5L542.5,78.4z M543.2,86.8l-6.4,12.6h6.5L543.2,86.8L543.2,86.8z"
			/>
		<path d="M561,84.3l-0.7,7.5h0.1c0.6-0.9,1.4-1.5,2.4-1.9s2.2-0.6,3.6-0.6c1.6,0,2.9,0.3,3.9,0.9s1.9,1.4,2.5,2.4s1,2.1,1.3,3.4
			s0.4,2.5,0.4,3.9c0,1.8-0.2,3.5-0.5,5c-0.3,1.5-0.9,2.8-1.7,3.9c-0.8,1.1-1.9,1.9-3.2,2.4s-3.1,0.8-5.2,0.8
			c-2.1,0-3.8-0.3-5.1-0.8c-1.3-0.6-2.3-1.3-3-2.2c-0.7-0.9-1.1-1.9-1.4-3c-0.2-1.1-0.4-2.1-0.4-3V102h6.4c0,0.6,0,1.2,0.1,1.8
			c0.1,0.6,0.2,1.2,0.4,1.8c0.2,0.5,0.6,1,1,1.4c0.4,0.4,1,0.5,1.7,0.5c1.4,0,2.4-0.5,3-1.6c0.6-1.1,0.9-2.7,0.9-4.8
			c0-1.4-0.1-2.5-0.2-3.4c-0.1-0.9-0.3-1.6-0.6-2.1c-0.3-0.5-0.7-0.9-1.2-1.1s-1.1-0.3-1.9-0.3c-1,0-1.7,0.3-2.2,0.8
			c-0.5,0.5-0.8,1.3-1,2.2h-6l1.2-18h17.2v5.2H561z"/>
		<path d="M591,100.7h-13.2v-5.5H591V100.7z"/>
		<path d="M600.7,84.3l-0.7,7.5h0.1c0.6-0.9,1.4-1.5,2.4-1.9s2.2-0.6,3.6-0.6c1.6,0,2.9,0.3,3.9,0.9c1,0.6,1.9,1.4,2.5,2.4
			s1,2.1,1.3,3.4s0.4,2.5,0.4,3.9c0,1.8-0.2,3.5-0.5,5c-0.3,1.5-0.9,2.8-1.7,3.9c-0.8,1.1-1.9,1.9-3.2,2.4c-1.4,0.5-3.1,0.8-5.2,0.8
			c-2.1,0-3.8-0.3-5.1-0.8c-1.3-0.6-2.3-1.3-3-2.2c-0.7-0.9-1.1-1.9-1.4-3c-0.2-1.1-0.4-2.1-0.4-3V102h6.4c0,0.6,0,1.2,0.1,1.8
			s0.2,1.2,0.4,1.8c0.2,0.5,0.6,1,1,1.4s1,0.5,1.7,0.5c1.4,0,2.4-0.5,3-1.6c0.6-1.1,0.9-2.7,0.9-4.8c0-1.4-0.1-2.5-0.2-3.4
			c-0.1-0.9-0.3-1.6-0.6-2.1c-0.3-0.5-0.7-0.9-1.2-1.1c-0.5-0.2-1.1-0.3-1.9-0.3c-1,0-1.7,0.3-2.2,0.8c-0.5,0.5-0.8,1.3-1,2.2h-6
			l1.2-18h17.2v5.2H600.7z"/>
		<path d="M627.1,78.4h7v21h3.2v5.2h-3.2v6.9h-6.2v-6.9h-11.8v-5.5L627.1,78.4z M627.8,86.8l-6.4,12.6h6.5L627.8,86.8L627.8,86.8z"
			/>
	</g>
	<g>
		<path fill="#C21429" d="M422.6,122.6h3.9V142h-3.9V122.6z"/>
		<path fill="#C21429" d="M438.6,135.9L438.6,135.9l0.1-13.3h3.6V142h-4.5l-4.8-13.6H433V142h-3.6v-19.4h4.5L438.6,135.9z"/>
		<path fill="#C21429" d="M452.8,126c-0.3-0.6-0.9-1-1.8-1c-0.5,0-0.9,0.1-1.2,0.4c-0.3,0.3-0.6,0.7-0.7,1.3
			c-0.2,0.6-0.3,1.4-0.4,2.3c-0.1,1-0.1,2.1-0.1,3.5c0,1.5,0,2.7,0.1,3.6c0.1,0.9,0.3,1.6,0.5,2.1c0.2,0.5,0.5,0.8,0.8,1
			c0.3,0.2,0.7,0.3,1.1,0.3c0.3,0,0.7-0.1,1-0.2c0.3-0.1,0.6-0.4,0.8-0.7c0.2-0.4,0.4-0.9,0.5-1.5c0.1-0.6,0.2-1.5,0.2-2.5h3.9
			c0,1.1-0.1,2-0.2,3c-0.2,0.9-0.5,1.8-0.9,2.5c-0.4,0.7-1.1,1.3-1.9,1.7s-1.9,0.6-3.1,0.6c-1.5,0-2.6-0.2-3.5-0.7
			c-0.9-0.5-1.5-1.2-2-2c-0.5-0.9-0.8-1.9-0.9-3.2c-0.1-1.2-0.2-2.6-0.2-4.1c0-1.5,0.1-2.8,0.2-4.1c0.1-1.2,0.4-2.3,0.9-3.2
			c0.5-0.9,1.1-1.6,2-2.1c0.9-0.5,2-0.7,3.5-0.7c1.4,0,2.5,0.2,3.3,0.7s1.4,1,1.8,1.7c0.4,0.7,0.6,1.5,0.7,2.3s0.1,1.6,0.1,2.3h-3.9
			C453.3,127.7,453.1,126.7,452.8,126z"/>
		<path fill="#C21429" d="M466.8,122.6c1.6,0,2.9,0.4,3.8,1.2c0.9,0.8,1.4,2.1,1.4,3.8c0,1.3-0.3,2.4-0.8,3.2
			c-0.5,0.8-1.3,1.4-2.4,1.6v0.1c1,0.1,1.7,0.5,2.1,1s0.7,1.3,0.8,2.4c0,0.4,0.1,0.8,0.1,1.2c0,0.4,0,0.9,0.1,1.4
			c0,1,0.1,1.8,0.2,2.4c0.1,0.5,0.3,0.9,0.7,1.1v0.2h-4.2c-0.2-0.3-0.3-0.6-0.4-0.9c-0.1-0.4-0.1-0.7-0.1-1.1l-0.1-3.7
			c0-0.8-0.2-1.4-0.6-1.8c-0.3-0.4-0.9-0.7-1.7-0.7h-2.1v8.2h-3.9v-19.4H466.8z M465.1,131.1c0.9,0,1.7-0.2,2.2-0.7
			c0.5-0.4,0.8-1.2,0.8-2.2c0-1.8-0.9-2.7-2.7-2.7h-1.8v5.6H465.1z"/>
		<path fill="#C21429" d="M485.5,125.8h-6.9v4.6h6.5v3.2h-6.5v5.2h7.2v3.2h-11.1v-19.4h10.8V125.8z"/>
		<path fill="#C21429" d="M496.4,122.6l5.1,19.4h-4.1l-0.9-4.1h-5.2l-0.9,4.1h-4.1l5.1-19.4H496.4z M495.9,134.7l-1.9-8.7h-0.1
			l-1.9,8.7H495.9z"/>
		<path fill="#C21429" d="M506,136.5c0,0.5,0,0.9,0.1,1.2c0.1,0.4,0.2,0.7,0.4,0.9s0.5,0.5,0.8,0.6c0.3,0.1,0.8,0.2,1.3,0.2
			c0.6,0,1.1-0.2,1.6-0.6c0.5-0.4,0.7-1,0.7-1.8c0-0.4-0.1-0.8-0.2-1.1c-0.1-0.3-0.3-0.6-0.6-0.9c-0.3-0.3-0.6-0.5-1.1-0.7
			c-0.4-0.2-1-0.4-1.6-0.6c-0.9-0.3-1.6-0.6-2.3-1c-0.6-0.3-1.2-0.7-1.6-1.2c-0.4-0.5-0.7-1-0.9-1.6c-0.2-0.6-0.3-1.3-0.3-2.1
			c0-1.9,0.5-3.4,1.6-4.3s2.5-1.4,4.4-1.4c0.9,0,1.7,0.1,2.4,0.3c0.7,0.2,1.4,0.5,1.9,0.9c0.5,0.4,1,1,1.2,1.6
			c0.3,0.7,0.4,1.5,0.4,2.4v0.5h-3.8c0-0.9-0.2-1.6-0.5-2.1c-0.3-0.5-0.9-0.7-1.6-0.7c-0.4,0-0.8,0.1-1.1,0.2
			c-0.3,0.1-0.5,0.3-0.7,0.5c-0.2,0.2-0.3,0.4-0.4,0.7c-0.1,0.3-0.1,0.6-0.1,0.8c0,0.6,0.1,1.1,0.4,1.5c0.3,0.4,0.8,0.8,1.6,1.1
			l3,1.3c0.7,0.3,1.3,0.7,1.8,1c0.5,0.4,0.8,0.7,1.1,1.1c0.3,0.4,0.5,0.9,0.6,1.3c0.1,0.5,0.2,1,0.2,1.6c0,2-0.6,3.5-1.8,4.5
			c-1.2,0.9-2.8,1.4-5,1.4c-2.2,0-3.8-0.5-4.7-1.4c-1-1-1.4-2.3-1.4-4.1v-0.8h3.9V136.5z"/>
		<path fill="#C21429" d="M527.8,125.8h-6.9v4.6h6.5v3.2h-6.5v5.2h7.2v3.2H517v-19.4h10.8V125.8z"/>
		<path d="M539.8,136.5c0,0.5,0,0.9,0.1,1.2c0.1,0.4,0.2,0.7,0.4,0.9s0.5,0.5,0.8,0.6c0.3,0.1,0.8,0.2,1.3,0.2
			c0.6,0,1.1-0.2,1.6-0.6c0.5-0.4,0.7-1,0.7-1.8c0-0.4-0.1-0.8-0.2-1.1s-0.3-0.6-0.6-0.9c-0.3-0.3-0.6-0.5-1.1-0.7s-1-0.4-1.6-0.6
			c-0.9-0.3-1.6-0.6-2.3-1c-0.6-0.3-1.2-0.7-1.6-1.2c-0.4-0.5-0.7-1-0.9-1.6s-0.3-1.3-0.3-2.1c0-1.9,0.5-3.4,1.6-4.3
			s2.5-1.4,4.4-1.4c0.9,0,1.7,0.1,2.4,0.3c0.7,0.2,1.4,0.5,1.9,0.9c0.5,0.4,1,1,1.2,1.6c0.3,0.7,0.4,1.5,0.4,2.4v0.5h-3.8
			c0-0.9-0.2-1.6-0.5-2.1c-0.3-0.5-0.9-0.7-1.6-0.7c-0.4,0-0.8,0.1-1.1,0.2s-0.5,0.3-0.7,0.5c-0.2,0.2-0.3,0.4-0.4,0.7
			c-0.1,0.3-0.1,0.6-0.1,0.8c0,0.6,0.1,1.1,0.4,1.5c0.3,0.4,0.8,0.8,1.6,1.1l3,1.3c0.7,0.3,1.3,0.7,1.8,1s0.8,0.7,1.1,1.1
			c0.3,0.4,0.5,0.9,0.6,1.3s0.2,1,0.2,1.6c0,2-0.6,3.5-1.8,4.5c-1.2,0.9-2.8,1.4-5,1.4c-2.2,0-3.8-0.5-4.7-1.4s-1.4-2.3-1.4-4.1
			v-0.8h3.9V136.5z"/>
		<path d="M550.9,122.6h3.9V142h-3.9V122.6z"/>
		<path d="M567,135.9L567,135.9l0.1-13.3h3.6V142h-4.5l-4.8-13.6h-0.1V142h-3.6v-19.4h4.5L567,135.9z"/>
		<path d="M581.1,126c-0.3-0.6-0.9-1-1.8-1c-0.5,0-0.9,0.1-1.2,0.4c-0.3,0.3-0.6,0.7-0.7,1.3c-0.2,0.6-0.3,1.4-0.4,2.3
			c-0.1,1-0.1,2.1-0.1,3.5c0,1.5,0,2.7,0.1,3.6s0.3,1.6,0.5,2.1c0.2,0.5,0.5,0.8,0.8,1c0.3,0.2,0.7,0.3,1.1,0.3c0.3,0,0.7-0.1,1-0.2
			c0.3-0.1,0.6-0.4,0.8-0.7s0.4-0.9,0.5-1.5s0.2-1.5,0.2-2.5h3.9c0,1.1-0.1,2-0.2,3s-0.5,1.8-0.9,2.5c-0.4,0.7-1.1,1.3-1.9,1.7
			c-0.8,0.4-1.9,0.6-3.1,0.6c-1.5,0-2.6-0.2-3.5-0.7c-0.9-0.5-1.5-1.2-2-2c-0.5-0.9-0.8-1.9-0.9-3.2c-0.1-1.2-0.2-2.6-0.2-4.1
			c0-1.5,0.1-2.8,0.2-4.1c0.1-1.2,0.4-2.3,0.9-3.2c0.5-0.9,1.1-1.6,2-2.1c0.9-0.5,2-0.7,3.5-0.7c1.4,0,2.5,0.2,3.3,0.7
			c0.8,0.5,1.4,1,1.8,1.7c0.4,0.7,0.6,1.5,0.7,2.3c0.1,0.8,0.1,1.6,0.1,2.3h-3.9C581.6,127.7,581.5,126.7,581.1,126z"/>
		<path d="M598.8,125.8h-6.9v4.6h6.5v3.2h-6.5v5.2h7.2v3.2h-11.1v-19.4h10.8V125.8z"/>
		<path d="M606.7,142c0-0.9,0.1-1.6,0.3-2.4c0.2-0.7,0.4-1.4,0.8-2.1s0.8-1.3,1.3-2c0.5-0.6,1.2-1.3,1.9-1.9l1.6-1.5
			c0.4-0.4,0.8-0.7,1-1.1s0.5-0.7,0.6-1c0.1-0.3,0.2-0.7,0.3-1.1s0.1-0.8,0.1-1.3c0-1.6-0.6-2.4-1.9-2.4c-0.5,0-0.9,0.1-1.2,0.3
			c-0.3,0.2-0.5,0.5-0.7,0.8c-0.2,0.3-0.3,0.7-0.3,1.2c0,0.5-0.1,0.9-0.1,1.4h-3.8v-0.7c0-1.8,0.5-3.2,1.4-4.1c1-1,2.5-1.4,4.5-1.4
			c2,0,3.4,0.5,4.3,1.4s1.4,2.2,1.4,3.9c0,0.6-0.1,1.2-0.2,1.7c-0.1,0.5-0.3,1-0.5,1.5c-0.2,0.5-0.5,1-0.9,1.4s-0.8,0.9-1.4,1.4
			l-2.2,2c-0.6,0.5-1,1-1.4,1.5c-0.3,0.5-0.5,0.9-0.6,1.3h7.3v3H606.7z"/>
		<path d="M619.8,129.1c0.1-1.2,0.3-2.3,0.7-3.3c0.4-1,1-1.7,1.8-2.3c0.8-0.6,1.9-0.9,3.4-0.9c1.2,0,2.2,0.2,2.9,0.5
			c0.8,0.3,1.4,0.9,1.8,1.6c0.5,0.7,0.8,1.7,1,2.9c0.2,1.2,0.3,2.6,0.3,4.3c0,1.3,0,2.6-0.1,3.9c-0.1,1.2-0.3,2.3-0.7,3.3
			c-0.4,1-1,1.7-1.8,2.2c-0.8,0.5-1.9,0.8-3.4,0.8c-1.2,0-2.1-0.2-2.9-0.5c-0.8-0.3-1.4-0.8-1.9-1.6c-0.5-0.7-0.8-1.7-1-2.9
			c-0.2-1.2-0.3-2.6-0.3-4.3C619.7,131.7,619.8,130.4,619.8,129.1z M623.7,136.8c0.1,0.8,0.2,1.4,0.3,1.8s0.4,0.7,0.7,0.9
			c0.3,0.2,0.6,0.2,1,0.2c0.4,0,0.8-0.1,1.1-0.3c0.3-0.2,0.5-0.6,0.6-1.1c0.2-0.5,0.3-1.2,0.3-2s0.1-1.9,0.1-3.1v-2.1
			c0-1.2,0-2.2-0.1-3c-0.1-0.8-0.2-1.4-0.3-1.8s-0.4-0.7-0.7-0.9c-0.3-0.2-0.6-0.2-1-0.2c-0.4,0-0.8,0.1-1.1,0.3
			c-0.3,0.2-0.5,0.6-0.6,1.1c-0.2,0.5-0.3,1.2-0.3,2s-0.1,1.9-0.1,3.1v2.1C623.6,135.1,623.7,136.1,623.7,136.8z"/>
		<path d="M637.2,128.4h-3.8v-2.6h0.4c1.3,0,2.3-0.2,3.1-0.7s1.2-1.3,1.4-2.4h2.9V142h-3.9V128.4z"/>
		<path d="M645.8,142c0-0.9,0.1-1.6,0.3-2.4c0.2-0.7,0.4-1.4,0.8-2.1s0.8-1.3,1.3-2c0.5-0.6,1.2-1.3,1.9-1.9l1.6-1.5
			c0.4-0.4,0.8-0.7,1-1.1s0.5-0.7,0.6-1c0.1-0.3,0.2-0.7,0.3-1.1s0.1-0.8,0.1-1.3c0-1.6-0.6-2.4-1.9-2.4c-0.5,0-0.9,0.1-1.2,0.3
			c-0.3,0.2-0.5,0.5-0.7,0.8c-0.2,0.3-0.3,0.7-0.3,1.2c0,0.5-0.1,0.9-0.1,1.4h-3.8v-0.7c0-1.8,0.5-3.2,1.4-4.1c1-1,2.5-1.4,4.5-1.4
			c2,0,3.4,0.5,4.3,1.4s1.4,2.2,1.4,3.9c0,0.6-0.1,1.2-0.2,1.7c-0.1,0.5-0.3,1-0.5,1.5c-0.2,0.5-0.5,1-0.9,1.4s-0.8,0.9-1.4,1.4
			l-2.2,2c-0.6,0.5-1,1-1.4,1.5c-0.3,0.5-0.5,0.9-0.6,1.3h7.3v3H645.8z"/>
	</g>
	<g>
		<g>
			<g>
				<circle fill="#333433" cx="279.8" cy="75.3" r="74.3"/>
				<path fill="#FFFFFF" d="M279.8,150.5c-41.5,0-75.3-33.8-75.3-75.3c0-41.5,33.8-75.3,75.3-75.3c41.5,0,75.3,33.8,75.3,75.3
					C355.1,116.8,321.3,150.5,279.8,150.5z M279.8,2c-40.4,0-73.3,32.9-73.3,73.3c0,40.4,32.9,73.3,73.3,73.3
					c40.4,0,73.3-32.9,73.3-73.3C353.1,34.9,320.2,2,279.8,2z"/>
			</g>
			<g>
				<circle fill="#333433" cx="279.8" cy="75.3" r="63.7"/>
				<path fill="#FFFFFF" d="M279.8,140c-35.7,0-64.7-29-64.7-64.7s29-64.7,64.7-64.7c35.7,0,64.7,29,64.7,64.7S315.5,140,279.8,140z
					 M279.8,12.6c-34.6,0-62.7,28.1-62.7,62.7s28.1,62.7,62.7,62.7s62.7-28.1,62.7-62.7S314.4,12.6,279.8,12.6z"/>
			</g>
		</g>
		<g>
			<path fill="#FFFFFF" d="M301.9,62.5h-15.1v-9.9c0-3.7,2.5-4.6,4.2-4.6c1.7,0,10.6,0,10.6,0V31.8L287,31.7
				c-16.3,0-19.9,12.2-19.9,19.9v10.9h-9.4v16.8h9.4c0,21.6,0,47.6,0,47.6h19.8c0,0,0-26.2,0-47.6h13.3L301.9,62.5z"/>
		</g>
	</g>
</g>
</svg>
