<?xml version="1.0" encoding="utf-8"?>
<!-- Generator: Adobe Illustrator 18.0.0, SVG Export Plug-In . SVG Version: 6.00 Build 0)  -->
<!DOCTYPE svg PUBLIC "-//W3C//DTD SVG 1.1//EN" "http://www.w3.org/Graphics/SVG/1.1/DTD/svg11.dtd">
<svg version="1.1" id="Layer_1" xmlns="http://www.w3.org/2000/svg" xmlns:xlink="http://www.w3.org/1999/xlink" x="0px" y="0px"
	 viewBox="0 0 960 200" enable-background="new 0 0 960 200" xml:space="preserve">
<g>
	<g>
		<g>
			<circle fill="#333433" cx="277.3" cy="101.9" r="75.4"/>
			<path fill="#FFFFFF" d="M277.3,178.3c-42.1,0-76.4-34.3-76.4-76.4s34.3-76.4,76.4-76.4s76.4,34.3,76.4,76.4
				S319.4,178.3,277.3,178.3z M277.3,27.4c-41,0-74.4,33.4-74.4,74.4s33.4,74.4,74.4,74.4s74.4-33.4,74.4-74.4
				S318.3,27.4,277.3,27.4z"/>
		</g>
		<g>
			<circle fill="#333433" cx="277.3" cy="101.9" r="64.7"/>
			<path fill="#FFFFFF" d="M277.3,167.6c-36.2,0-65.7-29.5-65.7-65.7s29.5-65.7,65.7-65.7S343,65.6,343,101.9
				S313.5,167.6,277.3,167.6z M277.3,38.2c-35.1,0-63.7,28.6-63.7,63.7c0,35.1,28.6,63.7,63.7,63.7S341,137,341,101.9
				C341,66.7,312.4,38.2,277.3,38.2z"/>
		</g>
	</g>
	<g>
		<g>
			<path fill="#FFFFFF" d="M283,111.2c-2.3-1.6-6.6-5.5-6.6-7.8c0-2.7,0.8-4,4.8-7.2c4.2-3.2,7.1-7.8,7.1-13.1
				c0-6.3-2.8-12.5-8.1-14.5h8l5.6-4.1h-25.1c-11.3,0-21.9,8.5-21.9,18.4c0,10.1,7.7,18.2,19.1,18.2c0.8,0,1.6,0,2.3-0.1
				c-0.7,1.4-1.3,3-1.3,4.7c0,2.8,1.5,5.1,3.4,6.9c-1.4,0-2.8,0-4.4,0c-13.9,0-24.7,8.9-24.7,18.1c0,9.1,11.8,14.7,25.7,14.7
				c15.9,0,24.7-9,24.7-18.1C291.8,120.3,289.6,115.9,283,111.2z M269.6,98.6c-6.5-0.2-12.6-7.2-13.7-15.7c-1.1-8.5,3.2-15,9.7-14.8
				c6.5,0.2,12.6,7,13.7,15.5C280.4,92.1,276.1,98.8,269.6,98.6z M267.1,141.6c-9.6,0-16.6-6.1-16.6-13.4c0-7.2,8.6-13.2,18.3-13.1
				c2.2,0,4.3,0.4,6.2,1c5.2,3.6,9,5.7,10,9.8c0.2,0.8,0.3,1.7,0.3,2.6C285.3,135.9,280.6,141.6,267.1,141.6z"/>
		</g>
		<g>
			<polygon fill="#FFFFFF" points="309.8,99.4 309.8,89.6 301.9,89.6 301.9,99.4 292.1,99.4 292.1,107.2 301.9,107.2 301.9,117 
				309.8,117 309.8,107.2 319.6,107.2 319.6,99.4 			"/>
		</g>
	</g>
</g>
<g>
	<path fill="#C21429" d="M428.4,52.1l-1,11.2h0.1c0.9-1.3,2.1-2.2,3.6-2.8c1.5-0.6,3.3-0.9,5.4-0.9c2.4,0,4.3,0.5,5.9,1.4
		c1.6,0.9,2.8,2.1,3.7,3.6c0.9,1.5,1.5,3.2,1.9,5.1c0.4,1.9,0.6,3.8,0.6,5.7c0,2.7-0.2,5.2-0.7,7.5c-0.5,2.2-1.3,4.1-2.5,5.7
		c-1.2,1.6-2.8,2.8-4.8,3.6c-2,0.8-4.6,1.2-7.8,1.2c-3.1,0-5.6-0.4-7.6-1.3c-1.9-0.8-3.4-1.9-4.4-3.3c-1-1.4-1.7-2.9-2.1-4.5
		c-0.3-1.6-0.5-3.1-0.5-4.5v-1.3h9.6c0,0.8,0,1.7,0.1,2.6c0.1,0.9,0.3,1.8,0.7,2.6c0.3,0.8,0.8,1.5,1.5,2c0.6,0.5,1.5,0.8,2.6,0.8
		c2.1,0,3.6-0.8,4.5-2.4c0.9-1.6,1.4-4,1.4-7.2c0-2-0.1-3.7-0.3-5.1c-0.2-1.3-0.5-2.4-0.9-3.2c-0.4-0.8-1-1.3-1.8-1.7
		c-0.7-0.3-1.7-0.5-2.8-0.5c-1.4,0-2.5,0.4-3.3,1.2c-0.8,0.8-1.2,1.9-1.4,3.3h-9l1.8-26.8h25.7v7.8H428.4z"/>
	<path fill="#C21429" d="M471.1,51.4c-0.7-1-1.8-1.5-3.5-1.5c-1.3,0-2.4,0.3-3.2,0.9s-1.4,1.5-1.9,2.6c-0.4,1.1-0.7,2.4-0.9,4
		c-0.1,1.5-0.2,3.2-0.2,5v2.4h0.1c0.8-1.3,2-2.3,3.6-3.1c1.6-0.8,3.4-1.1,5.7-1.1c2.2,0,4,0.4,5.6,1.1c1.5,0.8,2.8,1.8,3.7,3.2
		c1,1.4,1.6,3,2.1,4.9c0.4,1.9,0.7,3.9,0.7,6.2c0,5.7-1.3,10-3.8,13c-2.5,2.9-6.6,4.4-12.2,4.4c-3.4,0-6.2-0.6-8.2-1.8
		s-3.6-2.9-4.7-5c-1.1-2.1-1.8-4.6-2.1-7.3c-0.3-2.8-0.5-5.7-0.5-8.7c0-3.5,0.1-6.9,0.3-10.1c0.2-3.3,0.8-6.2,1.9-8.7
		c1-2.5,2.7-4.6,4.9-6.1c2.2-1.5,5.4-2.3,9.5-2.3c1.8,0,3.5,0.2,5.1,0.6c1.6,0.4,3.1,1.1,4.4,2.1s2.3,2.3,3,3.9
		c0.8,1.6,1.2,3.6,1.2,6h-9.6C472.1,53.9,471.8,52.4,471.1,51.4z M462.1,81.2c0.1,1.2,0.4,2.2,0.8,3.1c0.4,0.9,1,1.5,1.7,2
		c0.7,0.5,1.7,0.7,2.8,0.7c1.2,0,2.2-0.2,2.9-0.7c0.7-0.5,1.3-1.2,1.6-2.1c0.4-0.9,0.6-1.9,0.7-3.1c0.1-1.2,0.2-2.5,0.2-3.9
		c0-3.3-0.4-5.7-1.3-7.2c-0.8-1.4-2.2-2.2-4.2-2.2c-2,0-3.4,0.7-4.2,2.2c-0.8,1.4-1.3,3.8-1.3,7.2C461.9,78.7,462,80,462.1,81.2z"/>
	<path fill="#C21429" d="M486.2,50.7c0.3-1.7,0.8-3.1,1.6-4.2c0.8-1.1,1.8-1.9,3.2-2.5c1.4-0.5,3.1-0.8,5.3-0.8
		c2.2,0,3.9,0.3,5.3,0.8c1.3,0.5,2.4,1.4,3.2,2.5c0.8,1.1,1.3,2.5,1.6,4.2c0.3,1.7,0.4,3.6,0.4,5.9c0,2.2-0.1,4.2-0.4,5.9
		c-0.3,1.7-0.8,3.1-1.6,4.2s-1.8,1.9-3.2,2.5c-1.3,0.5-3.1,0.8-5.3,0.8c-2.1,0-3.9-0.3-5.3-0.8c-1.4-0.5-2.4-1.4-3.2-2.5
		s-1.3-2.5-1.6-4.2c-0.3-1.7-0.4-3.6-0.4-5.9C485.8,54.4,485.9,52.4,486.2,50.7z M493.6,62.5c0.3,1.4,1.2,2.1,2.6,2.1
		c1.4,0,2.3-0.7,2.6-2.1c0.3-1.4,0.5-3.4,0.5-6.2c0-2.5-0.2-4.4-0.5-5.7c-0.3-1.3-1.2-2-2.6-2c-1.4,0-2.3,0.7-2.6,2
		c-0.3,1.3-0.5,3.2-0.5,5.7C493.1,59.1,493.3,61.2,493.6,62.5z M528.1,42.1l-28.3,52.5h-6.2l28.3-52.5H528.1z M515.7,74.4
		c0.3-1.7,0.8-3.1,1.6-4.2c0.8-1.1,1.8-1.9,3.2-2.5c1.4-0.5,3.1-0.8,5.3-0.8c2.2,0,3.9,0.3,5.3,0.8c1.3,0.5,2.4,1.4,3.2,2.5
		c0.8,1.1,1.3,2.5,1.6,4.2c0.3,1.7,0.4,3.6,0.4,5.9c0,2.3-0.1,4.2-0.4,5.9c-0.3,1.6-0.8,3-1.6,4.1c-0.8,1.1-1.8,1.9-3.2,2.4
		c-1.3,0.5-3.1,0.7-5.3,0.7c-2.1,0-3.9-0.2-5.3-0.7c-1.4-0.5-2.4-1.3-3.2-2.4c-0.8-1.1-1.3-2.5-1.6-4.1c-0.3-1.6-0.4-3.6-0.4-5.9
		C515.3,78,515.4,76.1,515.7,74.4z M523.2,86.2c0.3,1.4,1.2,2.1,2.6,2.1s2.3-0.7,2.6-2.1c0.3-1.4,0.5-3.4,0.5-6.2
		c0-2.5-0.2-4.4-0.5-5.7c-0.3-1.3-1.2-2-2.6-2s-2.3,0.7-2.6,2c-0.3,1.3-0.5,3.2-0.5,5.7C522.7,82.8,522.8,84.9,523.2,86.2z"/>
</g>
<g>
	<path d="M434.2,103.9l8.8,33.4h-7l-1.5-7.1h-8.9l-1.5,7.1h-7l8.8-33.4H434.2z M433.3,124.7l-3.2-15h-0.1l-3.2,15H433.3z"/>
	<path d="M459.9,111.9c-0.1-0.7-0.4-1.3-0.7-1.8c-0.3-0.5-0.7-1-1.2-1.4c-0.5-0.4-1.1-0.5-1.8-0.5c-1.6,0-2.8,0.9-3.5,2.7
		c-0.7,1.8-1.1,4.8-1.1,9c0,2,0.1,3.8,0.2,5.4c0.1,1.6,0.4,3,0.7,4.1c0.3,1.1,0.8,2,1.4,2.6s1.4,0.9,2.4,0.9c0.4,0,0.8-0.1,1.3-0.3
		c0.5-0.2,0.9-0.5,1.4-1c0.4-0.4,0.8-1,1.1-1.7c0.3-0.7,0.4-1.5,0.4-2.4v-3.4h-4.4v-5H467v18h-5v-3.1h-0.1c-0.8,1.3-1.8,2.2-2.9,2.8
		c-1.1,0.5-2.5,0.8-4.1,0.8c-2.1,0-3.7-0.4-5-1.1c-1.3-0.7-2.3-1.8-3-3.3c-0.7-1.5-1.2-3.3-1.5-5.5c-0.2-2.2-0.4-4.7-0.4-7.6
		c0-2.8,0.2-5.3,0.5-7.4c0.4-2.1,1-3.9,1.8-5.3c0.9-1.4,2-2.5,3.5-3.2c1.4-0.7,3.2-1.1,5.4-1.1c3.7,0,6.3,0.9,7.9,2.7
		c1.6,1.8,2.4,4.4,2.4,7.8h-6.4C460.1,113.2,460.1,112.6,459.9,111.9z"/>
	<path d="M489.9,109.4H478v7.9h11.2v5.5H478v9h12.4v5.5h-19.1v-33.4h18.6V109.4z"/>
	<path d="M499.2,127.8c0,0.8,0.1,1.5,0.2,2.1c0.1,0.6,0.4,1.2,0.7,1.6c0.3,0.4,0.8,0.8,1.4,1c0.6,0.2,1.3,0.4,2.2,0.4
		c1,0,2-0.3,2.8-1c0.8-0.7,1.2-1.7,1.2-3.1c0-0.7-0.1-1.4-0.3-1.9c-0.2-0.5-0.5-1-1-1.5c-0.5-0.4-1.1-0.8-1.8-1.2
		c-0.8-0.4-1.7-0.7-2.8-1.1c-1.5-0.5-2.8-1-3.9-1.6c-1.1-0.6-2-1.3-2.7-2.1c-0.7-0.8-1.3-1.7-1.6-2.8c-0.3-1-0.5-2.3-0.5-3.6
		c0-3.3,0.9-5.8,2.8-7.4c1.8-1.6,4.4-2.4,7.6-2.4c1.5,0,2.9,0.2,4.1,0.5c1.3,0.3,2.4,0.9,3.3,1.6c0.9,0.7,1.6,1.7,2.1,2.8
		c0.5,1.1,0.8,2.5,0.8,4.1v0.9h-6.4c0-1.6-0.3-2.8-0.8-3.7c-0.6-0.9-1.5-1.3-2.8-1.3c-0.7,0-1.4,0.1-1.9,0.3
		c-0.5,0.2-0.9,0.5-1.2,0.9c-0.3,0.4-0.5,0.8-0.6,1.2c-0.1,0.5-0.2,1-0.2,1.4c0,1,0.2,1.9,0.7,2.6s1.4,1.3,2.8,1.9l5.2,2.2
		c1.3,0.6,2.3,1.1,3.1,1.8c0.8,0.6,1.5,1.3,1.9,2c0.5,0.7,0.8,1.5,1,2.3s0.3,1.8,0.3,2.8c0,3.5-1,6.1-3.1,7.7
		c-2,1.6-4.9,2.4-8.5,2.4c-3.8,0-6.5-0.8-8.2-2.5c-1.6-1.7-2.5-4-2.5-7.1v-1.4h6.7V127.8z"/>
	<path d="M538.5,104.2h7v21h3.2v5.2h-3.2v6.9h-6.2v-6.9h-11.8v-5.5L538.5,104.2z M539.2,112.6l-6.4,12.6h6.5L539.2,112.6
		L539.2,112.6z"/>
	<path d="M557,110.1l-0.7,7.5h0.1c0.6-0.9,1.4-1.5,2.4-1.9s2.2-0.6,3.6-0.6c1.6,0,2.9,0.3,3.9,0.9s1.9,1.4,2.5,2.4s1,2.1,1.3,3.4
		s0.4,2.5,0.4,3.9c0,1.8-0.2,3.5-0.5,5c-0.3,1.5-0.9,2.8-1.7,3.9c-0.8,1.1-1.9,1.9-3.2,2.4s-3.1,0.8-5.2,0.8c-2.1,0-3.8-0.3-5.1-0.8
		c-1.3-0.6-2.3-1.3-3-2.2c-0.7-0.9-1.1-1.9-1.4-3c-0.2-1.1-0.4-2.1-0.4-3v-0.9h6.4c0,0.6,0,1.2,0.1,1.8c0.1,0.6,0.2,1.2,0.4,1.8
		c0.2,0.5,0.6,1,1,1.4c0.4,0.4,1,0.5,1.7,0.5c1.4,0,2.4-0.5,3-1.6c0.6-1.1,0.9-2.7,0.9-4.8c0-1.4-0.1-2.5-0.2-3.4
		c-0.1-0.9-0.3-1.6-0.6-2.1c-0.3-0.5-0.7-0.9-1.2-1.1s-1.1-0.3-1.9-0.3c-1,0-1.7,0.3-2.2,0.8c-0.5,0.5-0.8,1.3-1,2.2h-6l1.2-18h17.2
		v5.2H557z"/>
	<path d="M587,126.5h-13.2V121H587V126.5z"/>
	<path d="M596.7,110.1l-0.7,7.5h0.1c0.6-0.9,1.4-1.5,2.4-1.9c1-0.4,2.2-0.6,3.6-0.6c1.6,0,2.9,0.3,3.9,0.9s1.9,1.4,2.5,2.4
		s1,2.1,1.3,3.4c0.2,1.3,0.4,2.5,0.4,3.9c0,1.8-0.2,3.5-0.5,5c-0.3,1.5-0.9,2.8-1.7,3.9c-0.8,1.1-1.9,1.9-3.2,2.4s-3.1,0.8-5.2,0.8
		c-2.1,0-3.8-0.3-5.1-0.8c-1.3-0.6-2.3-1.3-3-2.2c-0.7-0.9-1.1-1.9-1.4-3c-0.2-1.1-0.4-2.1-0.4-3v-0.9h6.4c0,0.6,0,1.2,0.1,1.8
		c0.1,0.6,0.2,1.2,0.4,1.8c0.2,0.5,0.6,1,1,1.4c0.4,0.4,1,0.5,1.7,0.5c1.4,0,2.4-0.5,3-1.6c0.6-1.1,0.9-2.7,0.9-4.8
		c0-1.4-0.1-2.5-0.2-3.4c-0.1-0.9-0.3-1.6-0.6-2.1c-0.3-0.5-0.7-0.9-1.2-1.1c-0.5-0.2-1.1-0.3-1.9-0.3c-1,0-1.7,0.3-2.2,0.8
		s-0.8,1.3-1,2.2h-6l1.2-18h17.2v5.2H596.7z"/>
	<path d="M623.1,104.2h7v21h3.2v5.2h-3.2v6.9h-6.2v-6.9h-11.8v-5.5L623.1,104.2z M623.8,112.6l-6.4,12.6h6.5L623.8,112.6
		L623.8,112.6z"/>
</g>
<g>
	<path fill="#C21429" d="M418.6,148.4h3.9v19.4h-3.9V148.4z"/>
	<path fill="#C21429" d="M434.6,161.7L434.6,161.7l0.1-13.3h3.6v19.4h-4.5l-4.8-13.6H429v13.6h-3.6v-19.4h4.5L434.6,161.7z"/>
	<path fill="#C21429" d="M448.8,151.8c-0.3-0.6-0.9-1-1.8-1c-0.5,0-0.9,0.1-1.2,0.4c-0.3,0.3-0.6,0.7-0.7,1.3
		c-0.2,0.6-0.3,1.4-0.4,2.3c-0.1,1-0.1,2.1-0.1,3.5c0,1.5,0,2.7,0.1,3.6c0.1,0.9,0.3,1.6,0.5,2.1c0.2,0.5,0.5,0.8,0.8,1
		c0.3,0.2,0.7,0.3,1.1,0.3c0.3,0,0.7-0.1,1-0.2c0.3-0.1,0.6-0.4,0.8-0.7c0.2-0.4,0.4-0.9,0.5-1.5c0.1-0.6,0.2-1.5,0.2-2.5h3.9
		c0,1.1-0.1,2-0.2,3c-0.2,0.9-0.5,1.8-0.9,2.5c-0.4,0.7-1.1,1.3-1.9,1.7s-1.9,0.6-3.1,0.6c-1.5,0-2.6-0.2-3.5-0.7
		c-0.9-0.5-1.5-1.2-2-2c-0.5-0.9-0.8-1.9-0.9-3.2c-0.1-1.2-0.2-2.6-0.2-4.1c0-1.5,0.1-2.8,0.2-4.1c0.1-1.2,0.4-2.3,0.9-3.2
		c0.5-0.9,1.1-1.6,2-2.1c0.9-0.5,2-0.7,3.5-0.7c1.4,0,2.5,0.2,3.3,0.7s1.4,1,1.8,1.7c0.4,0.7,0.6,1.5,0.7,2.3s0.1,1.6,0.1,2.3h-3.9
		C449.3,153.5,449.1,152.5,448.8,151.8z"/>
	<path fill="#C21429" d="M462.8,148.4c1.6,0,2.9,0.4,3.8,1.2c0.9,0.8,1.4,2.1,1.4,3.8c0,1.3-0.3,2.4-0.8,3.2
		c-0.5,0.8-1.3,1.4-2.4,1.6v0.1c1,0.1,1.7,0.5,2.1,1s0.7,1.3,0.8,2.4c0,0.4,0.1,0.8,0.1,1.2c0,0.4,0,0.9,0.1,1.4
		c0,1,0.1,1.8,0.2,2.4c0.1,0.5,0.3,0.9,0.7,1.1v0.2h-4.2c-0.2-0.3-0.3-0.6-0.4-0.9c-0.1-0.4-0.1-0.7-0.1-1.1l-0.1-3.7
		c0-0.8-0.2-1.4-0.6-1.8c-0.3-0.4-0.9-0.7-1.7-0.7h-2.1v8.2h-3.9v-19.4H462.8z M461.1,156.9c0.9,0,1.7-0.2,2.2-0.7
		c0.5-0.4,0.8-1.2,0.8-2.2c0-1.8-0.9-2.7-2.7-2.7h-1.8v5.6H461.1z"/>
	<path fill="#C21429" d="M481.5,151.6h-6.9v4.6h6.5v3.2h-6.5v5.2h7.2v3.2h-11.1v-19.4h10.8V151.6z"/>
	<path fill="#C21429" d="M492.4,148.4l5.1,19.4h-4.1l-0.9-4.1h-5.2l-0.9,4.1h-4.1l5.1-19.4H492.4z M491.9,160.5l-1.9-8.7h-0.1
		l-1.9,8.7H491.9z"/>
	<path fill="#C21429" d="M502,162.3c0,0.5,0,0.9,0.1,1.2c0.1,0.4,0.2,0.7,0.4,0.9s0.5,0.5,0.8,0.6c0.3,0.1,0.8,0.2,1.3,0.2
		c0.6,0,1.1-0.2,1.6-0.6c0.5-0.4,0.7-1,0.7-1.8c0-0.4-0.1-0.8-0.2-1.1c-0.1-0.3-0.3-0.6-0.6-0.9c-0.3-0.3-0.6-0.5-1.1-0.7
		c-0.4-0.2-1-0.4-1.6-0.6c-0.9-0.3-1.6-0.6-2.3-1c-0.6-0.3-1.2-0.7-1.6-1.2c-0.4-0.5-0.7-1-0.9-1.6c-0.2-0.6-0.3-1.3-0.3-2.1
		c0-1.9,0.5-3.4,1.6-4.3s2.5-1.4,4.4-1.4c0.9,0,1.7,0.1,2.4,0.3c0.7,0.2,1.4,0.5,1.9,0.9c0.5,0.4,1,1,1.2,1.6
		c0.3,0.7,0.4,1.5,0.4,2.4v0.5h-3.8c0-0.9-0.2-1.6-0.5-2.1c-0.3-0.5-0.9-0.7-1.6-0.7c-0.4,0-0.8,0.1-1.1,0.2
		c-0.3,0.1-0.5,0.3-0.7,0.5c-0.2,0.2-0.3,0.4-0.4,0.7c-0.1,0.3-0.1,0.6-0.1,0.8c0,0.6,0.1,1.1,0.4,1.5c0.3,0.4,0.8,0.8,1.6,1.1
		l3,1.3c0.7,0.3,1.3,0.7,1.8,1c0.5,0.4,0.8,0.7,1.1,1.1c0.3,0.4,0.5,0.9,0.6,1.3c0.1,0.5,0.2,1,0.2,1.6c0,2-0.6,3.5-1.8,4.5
		c-1.2,0.9-2.8,1.4-5,1.4c-2.2,0-3.8-0.5-4.7-1.4c-1-1-1.4-2.3-1.4-4.1v-0.8h3.9V162.3z"/>
	<path fill="#C21429" d="M523.8,151.6h-6.9v4.6h6.5v3.2h-6.5v5.2h7.2v3.2H513v-19.4h10.8V151.6z"/>
	<path d="M535.8,162.3c0,0.5,0,0.9,0.1,1.2c0.1,0.4,0.2,0.7,0.4,0.9s0.5,0.5,0.8,0.6c0.3,0.1,0.8,0.2,1.3,0.2c0.6,0,1.1-0.2,1.6-0.6
		c0.5-0.4,0.7-1,0.7-1.8c0-0.4-0.1-0.8-0.2-1.1s-0.3-0.6-0.6-0.9c-0.3-0.3-0.6-0.5-1.1-0.7s-1-0.4-1.6-0.6c-0.9-0.3-1.6-0.6-2.3-1
		c-0.6-0.3-1.2-0.7-1.6-1.2c-0.4-0.5-0.7-1-0.9-1.6s-0.3-1.3-0.3-2.1c0-1.9,0.5-3.4,1.6-4.3s2.5-1.4,4.4-1.4c0.9,0,1.7,0.1,2.4,0.3
		c0.7,0.2,1.4,0.5,1.9,0.9c0.5,0.4,1,1,1.2,1.6c0.3,0.7,0.4,1.5,0.4,2.4v0.5h-3.8c0-0.9-0.2-1.6-0.5-2.1c-0.3-0.5-0.9-0.7-1.6-0.7
		c-0.4,0-0.8,0.1-1.1,0.2s-0.5,0.3-0.7,0.5c-0.2,0.2-0.3,0.4-0.4,0.7c-0.1,0.3-0.1,0.6-0.1,0.8c0,0.6,0.1,1.1,0.4,1.5
		c0.3,0.4,0.8,0.8,1.6,1.1l3,1.3c0.7,0.3,1.3,0.7,1.8,1s0.8,0.7,1.1,1.1c0.3,0.4,0.5,0.9,0.6,1.3s0.2,1,0.2,1.6c0,2-0.6,3.5-1.8,4.5
		c-1.2,0.9-2.8,1.4-5,1.4c-2.2,0-3.8-0.5-4.7-1.4s-1.4-2.3-1.4-4.1v-0.8h3.9V162.3z"/>
	<path d="M546.9,148.4h3.9v19.4h-3.9V148.4z"/>
	<path d="M563,161.7L563,161.7l0.1-13.3h3.6v19.4h-4.5l-4.8-13.6h-0.1v13.6h-3.6v-19.4h4.5L563,161.7z"/>
	<path d="M577.1,151.8c-0.3-0.6-0.9-1-1.8-1c-0.5,0-0.9,0.1-1.2,0.4c-0.3,0.3-0.6,0.7-0.7,1.3c-0.2,0.6-0.3,1.4-0.4,2.3
		c-0.1,1-0.1,2.1-0.1,3.5c0,1.5,0,2.7,0.1,3.6s0.3,1.6,0.5,2.1c0.2,0.5,0.5,0.8,0.8,1c0.3,0.2,0.7,0.3,1.1,0.3c0.3,0,0.7-0.1,1-0.2
		c0.3-0.1,0.6-0.4,0.8-0.7s0.4-0.9,0.5-1.5s0.2-1.5,0.2-2.5h3.9c0,1.1-0.1,2-0.2,3s-0.5,1.8-0.9,2.5c-0.4,0.7-1.1,1.3-1.9,1.7
		c-0.8,0.4-1.9,0.6-3.1,0.6c-1.5,0-2.6-0.2-3.5-0.7c-0.9-0.5-1.5-1.2-2-2c-0.5-0.9-0.8-1.9-0.9-3.2c-0.1-1.2-0.2-2.6-0.2-4.1
		c0-1.5,0.1-2.8,0.2-4.1c0.1-1.2,0.4-2.3,0.9-3.2c0.5-0.9,1.1-1.6,2-2.1c0.9-0.5,2-0.7,3.5-0.7c1.4,0,2.5,0.2,3.3,0.7
		c0.8,0.5,1.4,1,1.8,1.7c0.4,0.7,0.6,1.5,0.7,2.3c0.1,0.8,0.1,1.6,0.1,2.3h-3.9C577.6,153.5,577.5,152.5,577.1,151.8z"/>
	<path d="M594.8,151.6h-6.9v4.6h6.5v3.2h-6.5v5.2h7.2v3.2h-11.1v-19.4h10.8V151.6z"/>
	<path d="M602.7,167.8c0-0.9,0.1-1.6,0.3-2.4c0.2-0.7,0.4-1.4,0.8-2.1s0.8-1.3,1.3-2c0.5-0.6,1.2-1.3,1.9-1.9l1.6-1.5
		c0.4-0.4,0.8-0.7,1-1.1s0.5-0.7,0.6-1c0.1-0.3,0.2-0.7,0.3-1.1s0.1-0.8,0.1-1.3c0-1.6-0.6-2.4-1.9-2.4c-0.5,0-0.9,0.1-1.2,0.3
		c-0.3,0.2-0.5,0.5-0.7,0.8c-0.2,0.3-0.3,0.7-0.3,1.2c0,0.5-0.1,0.9-0.1,1.4h-3.8v-0.7c0-1.8,0.5-3.2,1.4-4.1c1-1,2.5-1.4,4.5-1.4
		c2,0,3.4,0.5,4.3,1.4s1.4,2.2,1.4,3.9c0,0.6-0.1,1.2-0.2,1.7c-0.1,0.5-0.3,1-0.5,1.5c-0.2,0.5-0.5,1-0.9,1.4s-0.8,0.9-1.4,1.4
		l-2.2,2c-0.6,0.5-1,1-1.4,1.5c-0.3,0.5-0.5,0.9-0.6,1.3h7.3v3H602.7z"/>
	<path d="M615.8,155c0.1-1.2,0.3-2.3,0.7-3.3c0.4-1,1-1.7,1.8-2.3c0.8-0.6,1.9-0.9,3.4-0.9c1.2,0,2.2,0.2,2.9,0.5
		c0.8,0.3,1.4,0.9,1.8,1.6c0.5,0.7,0.8,1.7,1,2.9c0.2,1.2,0.3,2.6,0.3,4.3c0,1.3,0,2.6-0.1,3.9c-0.1,1.2-0.3,2.3-0.7,3.3
		c-0.4,1-1,1.7-1.8,2.2c-0.8,0.5-1.9,0.8-3.4,0.8c-1.2,0-2.1-0.2-2.9-0.5c-0.8-0.3-1.4-0.8-1.9-1.6c-0.5-0.7-0.8-1.7-1-2.9
		c-0.2-1.2-0.3-2.6-0.3-4.3C615.7,157.5,615.8,156.2,615.8,155z M619.7,162.6c0.1,0.8,0.2,1.4,0.3,1.8s0.4,0.7,0.7,0.9
		c0.3,0.2,0.6,0.2,1,0.2c0.4,0,0.8-0.1,1.1-0.3c0.3-0.2,0.5-0.6,0.6-1.1c0.2-0.5,0.3-1.2,0.3-2s0.1-1.9,0.1-3.1V157
		c0-1.2,0-2.2-0.1-3c-0.1-0.8-0.2-1.4-0.3-1.8s-0.4-0.7-0.7-0.9c-0.3-0.2-0.6-0.2-1-0.2c-0.4,0-0.8,0.1-1.1,0.3
		c-0.3,0.2-0.5,0.6-0.6,1.1c-0.2,0.5-0.3,1.2-0.3,2s-0.1,1.9-0.1,3.1v2.1C619.6,160.9,619.7,161.9,619.7,162.6z"/>
	<path d="M633.2,154.2h-3.8v-2.6h0.4c1.3,0,2.3-0.2,3.1-0.7s1.2-1.3,1.4-2.4h2.9v19.2h-3.9V154.2z"/>
	<path d="M641.8,167.8c0-0.9,0.1-1.6,0.3-2.4c0.2-0.7,0.4-1.4,0.8-2.1s0.8-1.3,1.3-2c0.5-0.6,1.2-1.3,1.9-1.9l1.6-1.5
		c0.4-0.4,0.8-0.7,1-1.1s0.5-0.7,0.6-1c0.1-0.3,0.2-0.7,0.3-1.1s0.1-0.8,0.1-1.3c0-1.6-0.6-2.4-1.9-2.4c-0.5,0-0.9,0.1-1.2,0.3
		c-0.3,0.2-0.5,0.5-0.7,0.8c-0.2,0.3-0.3,0.7-0.3,1.2c0,0.5-0.1,0.9-0.1,1.4h-3.8v-0.7c0-1.8,0.5-3.2,1.4-4.1c1-1,2.5-1.4,4.5-1.4
		c2,0,3.4,0.5,4.3,1.4s1.4,2.2,1.4,3.9c0,0.6-0.1,1.2-0.2,1.7c-0.1,0.5-0.3,1-0.5,1.5c-0.2,0.5-0.5,1-0.9,1.4s-0.8,0.9-1.4,1.4
		l-2.2,2c-0.6,0.5-1,1-1.4,1.5c-0.3,0.5-0.5,0.9-0.6,1.3h7.3v3H641.8z"/>
</g>
</svg>
