<?xml version="1.0" encoding="utf-8"?>
<!-- Generator: Adobe Illustrator 18.0.0, SVG Export Plug-In . SVG Version: 6.00 Build 0)  -->
<!DOCTYPE svg PUBLIC "-//W3C//DTD SVG 1.1//EN" "http://www.w3.org/Graphics/SVG/1.1/DTD/svg11.dtd">
<svg version="1.1" id="Layer_1" xmlns="http://www.w3.org/2000/svg" xmlns:xlink="http://www.w3.org/1999/xlink" x="0px" y="0px"
	 viewBox="0 0 960 577.4" enable-background="new 0 0 960 577.4" xml:space="preserve">
<g>
	<text transform="matrix(1 0 0 1 260.0045 156.8951)"><tspan x="0" y="0" fill="#333433" font-family="'HelveticaNeue-CondensedBlack'" font-size="57">SOCIAL MEDIA USE </tspan><tspan x="54.9" y="54" fill="#333433" font-family="'HelveticaNeue-CondensedBlack'" font-size="57">BY AGE GROUP</tspan></text>
	<g>
		
			<radialGradient id="SVGID_1_" cx="803.5958" cy="4928.9131" r="307.5095" gradientTransform="matrix(-1.204 0 0 0.1618 1456.9626 -716.0895)" gradientUnits="userSpaceOnUse">
			<stop  offset="0" style="stop-color:#1F1F1F"/>
			<stop  offset="1.044071e-02" style="stop-color:#222222"/>
			<stop  offset="0.2194" style="stop-color:#646464"/>
			<stop  offset="0.418" style="stop-color:#9C9C9C"/>
			<stop  offset="0.6008" style="stop-color:#C7C7C7"/>
			<stop  offset="0.7644" style="stop-color:#E5E5E5"/>
			<stop  offset="0.903" style="stop-color:#F8F8F8"/>
			<stop  offset="1" style="stop-color:#FFFFFF"/>
		</radialGradient>
		<path opacity="0.8" fill="url(#SVGID_1_)" d="M481,25.2c208.6,0,386,16.3,386,56.2H111.7C111.7,41.5,272.5,25.2,481,25.2z"/>
		
			<radialGradient id="SVGID_2_" cx="794.9087" cy="13807.7432" r="307.5095" gradientTransform="matrix(-1.2534 0 0 -0.1618 1479.9799 2472.8179)" gradientUnits="userSpaceOnUse">
			<stop  offset="0" style="stop-color:#1F1F1F"/>
			<stop  offset="1.044071e-02" style="stop-color:#222222"/>
			<stop  offset="0.2194" style="stop-color:#646464"/>
			<stop  offset="0.418" style="stop-color:#9C9C9C"/>
			<stop  offset="0.6008" style="stop-color:#C7C7C7"/>
			<stop  offset="0.7644" style="stop-color:#E5E5E5"/>
			<stop  offset="0.903" style="stop-color:#F8F8F8"/>
			<stop  offset="1" style="stop-color:#FFFFFF"/>
		</radialGradient>
		<path opacity="0.8" fill="url(#SVGID_2_)" d="M475,294.9c217.1,0,401.8-16.2,401.8-56.1H90.5C90.5,278.7,257.9,294.9,475,294.9z"
			/>
		
			<radialGradient id="SVGID_3_" cx="803.5943" cy="4928.9097" r="211.1025" gradientTransform="matrix(-1.204 0 0 0.1618 1456.9626 -716.0895)" gradientUnits="userSpaceOnUse">
			<stop  offset="0" style="stop-color:#1F1F1F"/>
			<stop  offset="1.044071e-02" style="stop-color:#222222"/>
			<stop  offset="0.2194" style="stop-color:#646464"/>
			<stop  offset="0.418" style="stop-color:#9C9C9C"/>
			<stop  offset="0.6008" style="stop-color:#C7C7C7"/>
			<stop  offset="0.7644" style="stop-color:#E5E5E5"/>
			<stop  offset="0.903" style="stop-color:#F8F8F8"/>
			<stop  offset="1" style="stop-color:#FFFFFF"/>
		</radialGradient>
		<path opacity="0.3" fill="url(#SVGID_3_)" d="M483.7,42.8c143.2,0,265,11.1,265,38.6H230.1C230.1,54,340.5,42.8,483.7,42.8z"/>
		
			<radialGradient id="SVGID_4_" cx="794.9072" cy="13807.7393" r="211.1025" gradientTransform="matrix(-1.2534 0 0 -0.1618 1479.9799 2472.8179)" gradientUnits="userSpaceOnUse">
			<stop  offset="0" style="stop-color:#1F1F1F"/>
			<stop  offset="1.044071e-02" style="stop-color:#222222"/>
			<stop  offset="0.2194" style="stop-color:#646464"/>
			<stop  offset="0.418" style="stop-color:#9C9C9C"/>
			<stop  offset="0.6008" style="stop-color:#C7C7C7"/>
			<stop  offset="0.7644" style="stop-color:#E5E5E5"/>
			<stop  offset="0.903" style="stop-color:#F8F8F8"/>
			<stop  offset="1" style="stop-color:#FFFFFF"/>
		</radialGradient>
		<path opacity="0.3" fill="url(#SVGID_4_)" d="M477.7,277.3c149.1,0,275.8-11.1,275.8-38.5H213.8
			C213.8,266.2,328.6,277.3,477.7,277.3z"/>
	</g>
</g>
<g>
	
		<text transform="matrix(1 0 0 1 497.1724 475.6672)" fill="#C21429" font-family="'HelveticaNeue-CondensedBold'" font-size="134.2302">{</text>
	
		<text transform="matrix(-1 0 0 -1 772.6328 403.8391)" fill="#C21429" font-family="'HelveticaNeue-CondensedBold'" font-size="134.2302">{</text>
	
		<text transform="matrix(1 0 0 1 550.2124 419.4797)" fill="#333433" font-family="'HelveticaNeue-CondensedBlack'" font-size="98.1665">72%</text>
	<g>
		<g>
			<path fill="#333433" d="M581,533.4c1.7-1.6,4.2-2.4,7.5-2.4c2,0,3.6,0.2,4.9,0.6c1.3,0.4,2.3,1,3.1,1.7c0.8,0.8,1.3,1.7,1.6,2.8
				c0.3,1.1,0.5,2.4,0.5,3.8c0,0.6-0.1,1.3-0.2,2c-0.2,0.7-0.4,1.3-0.8,1.9c-0.3,0.6-0.8,1.1-1.4,1.6c-0.6,0.5-1.3,0.8-2.1,1v0.1
				c1.9,0.4,3.2,1.2,4,2.5c0.8,1.3,1.1,2.8,1.1,4.6c0,3.6-0.9,6.3-2.6,7.9c-1.8,1.6-4.4,2.4-7.9,2.4c-1.8,0-3.4-0.2-4.8-0.5
				c-1.4-0.3-2.5-0.8-3.3-1.6c-0.9-0.8-1.5-1.8-2-3.2c-0.4-1.3-0.6-3-0.6-4.9h7.9c0,0.9,0.1,1.7,0.2,2.3c0.1,0.6,0.2,1.1,0.4,1.5
				c0.4,0.8,1,1.2,1.9,1.2c0.5,0,0.9-0.1,1.2-0.2c0.3-0.1,0.5-0.4,0.7-0.8c0.2-0.4,0.3-0.9,0.3-1.5c0.1-0.7,0.1-1.5,0.1-2.5
				c0-1.6-0.3-2.6-0.8-3.2c-0.5-0.5-1.3-0.8-2.3-0.8h-2.1v-5.3h1.2c0.6,0,1.2-0.1,1.6-0.2s0.8-0.3,1.1-0.7c0.3-0.3,0.5-0.8,0.7-1.4
				c0.2-0.6,0.2-1.4,0.2-2.3c0-1.4-0.2-2.3-0.5-2.8c-0.3-0.5-0.9-0.7-1.6-0.7c-0.8,0-1.4,0.3-1.8,1c-0.3,0.6-0.5,1.8-0.5,3.5h-7.7
				C578.4,537.4,579.3,534.9,581,533.4z"/>
			<path fill="#333433" d="M602.3,539.4c0.4-2.1,1.1-3.8,2-5.1c0.9-1.2,2-2.1,3.4-2.6c1.4-0.5,3-0.7,4.9-0.7c1.9,0,3.5,0.2,4.9,0.7
				c1.4,0.5,2.5,1.4,3.4,2.6c0.9,1.2,1.6,2.9,2,5.1c0.4,2.1,0.7,4.8,0.7,8.1c0,3.3-0.2,6-0.7,8.1c-0.4,2.1-1.1,3.8-2,5
				c-0.9,1.2-2,2.1-3.4,2.5c-1.4,0.5-3,0.7-4.9,0.7c-1.9,0-3.5-0.2-4.9-0.7c-1.4-0.5-2.5-1.3-3.4-2.5s-1.6-2.9-2-5s-0.7-4.8-0.7-8.1
				C601.6,544.2,601.9,541.5,602.3,539.4z M610.7,557.4c0.4,0.8,1,1.2,1.9,1.2c0.9,0,1.5-0.4,1.9-1.2c0.4-0.8,0.6-2.3,0.6-4.6v-10.7
				c0-2.3-0.2-3.8-0.6-4.6c-0.4-0.8-1-1.2-1.9-1.2c-0.9,0-1.5,0.4-1.9,1.2c-0.4,0.8-0.6,2.3-0.6,4.6v10.7
				C610.1,555,610.3,556.6,610.7,557.4z"/>
			<path fill="#333433" d="M639.9,546.6v6.9h-14.2v-6.9H639.9z"/>
			<path fill="#333433" d="M661.8,531.6v6.4h-12.2l-0.4,5.4c0.8-0.7,1.7-1.3,2.7-1.7c1-0.4,2.1-0.6,3.3-0.6c2.6,0,4.6,0.8,6,2.5
				c1.4,1.7,2,4.3,2,7.7c0,2.1-0.2,4-0.5,5.5c-0.3,1.6-0.9,2.9-1.8,3.9c-0.8,1-1.9,1.8-3.3,2.3c-1.4,0.5-3,0.7-5,0.7
				c-3.7,0-6.4-0.8-8.1-2.4c-1.7-1.6-2.5-3.8-2.5-6.7v-1h7.9v1.1c0,1.5,0.2,2.5,0.6,3.1c0.4,0.5,1,0.8,1.7,0.8
				c0.4,0,0.8-0.1,1.1-0.2c0.3-0.1,0.5-0.4,0.8-0.9c0.2-0.5,0.4-1.2,0.5-2.1c0.1-0.9,0.1-2.1,0.1-3.7c0-1.8-0.2-3.1-0.6-3.8
				c-0.4-0.7-1-1.1-1.8-1.1c-0.7,0-1.3,0.2-1.7,0.6c-0.4,0.4-0.6,1.1-0.6,2.1h-7.7l0.7-17.9H661.8z"/>
			<path fill="#333433" d="M675,557.9c0.3,0.4,0.9,0.6,1.7,0.6c0.6,0,1.1-0.2,1.6-0.8s0.7-1.3,0.7-2.3v-5.1h-0.1
				c-0.4,0.8-1,1.4-2,1.8c-1,0.5-2.1,0.7-3.4,0.7c-1.2,0-2.2-0.2-3.1-0.5c-0.9-0.3-1.8-0.8-2.4-1.6c-0.7-0.7-1.2-1.7-1.6-3
				s-0.5-2.8-0.5-4.7c0-2.2,0.2-4,0.7-5.6s1.2-2.8,2.1-3.8c0.9-1,2.1-1.7,3.4-2.1c1.3-0.4,2.9-0.7,4.6-0.7c1.9,0,3.5,0.2,4.9,0.7
				c1.4,0.4,2.6,1.2,3.5,2.3c0.9,1.1,1.6,2.5,2.1,4.2s0.7,4,0.7,6.6v3.6c0,2.5-0.1,4.7-0.4,6.6c-0.3,1.9-0.8,3.6-1.6,4.9
				c-0.8,1.3-1.9,2.3-3.4,3c-1.5,0.7-3.4,1-5.8,1c-2.1,0-3.8-0.2-5.1-0.6c-1.3-0.4-2.4-1-3.1-1.8c-0.7-0.8-1.3-1.6-1.5-2.6
				c-0.3-1-0.4-2-0.4-3.1h7.9C674.3,556.7,674.6,557.5,675,557.9z M674.7,545.7c0.3,0.7,1,1.1,1.8,1.1c0.8,0,1.4-0.4,1.8-1.1
				c0.4-0.7,0.6-2.1,0.6-4.2c0-2.1-0.2-3.5-0.5-4.2c-0.3-0.7-1-1.1-1.8-1.1c-0.8,0-1.4,0.4-1.8,1.1s-0.6,2.1-0.6,4.2
				C674.2,543.6,674.4,545,674.7,545.7z"/>
		</g>
		<g>
			<polygon fill="#DEDEDE" points="635.3,445.2 599.5,481 671.1,481 			"/>
		</g>
		<g>
			<path fill="#333433" d="M589.4,487.7l12.7,32.5h-4.8l-3.6-9.8H580l-3.6,9.8H572l12.7-32.5H589.4z M592.4,506.8l-5.4-15.2h-0.1
				l-5.5,15.2H592.4z"/>
			<path fill="#333433" d="M624.9,519.8c-1.9,0.7-3.8,1.1-5.7,1.1c-2.4,0-4.6-0.4-6.5-1.3c-1.9-0.9-3.5-2.1-4.9-3.6
				c-1.3-1.5-2.4-3.3-3.1-5.2c-0.7-2-1-4-1-6.1c0-2.4,0.3-4.6,1-6.8c0.7-2.1,1.6-4,2.9-5.6c1.3-1.6,2.9-2.9,4.8-3.8
				c1.9-1,4.2-1.4,6.8-1.4c1.8,0,3.4,0.2,5,0.6c1.6,0.4,3,1.1,4.2,1.9c1.2,0.9,2.3,2,3.1,3.3c0.8,1.4,1.4,3,1.7,4.9h-4.3
				c-0.2-1.2-0.6-2.3-1.2-3.2c-0.6-0.9-1.3-1.6-2.1-2.2c-0.9-0.6-1.8-1-2.9-1.3c-1.1-0.3-2.2-0.4-3.4-0.4c-2,0-3.7,0.4-5.1,1.2
				s-2.6,1.8-3.5,3.1c-0.9,1.3-1.6,2.8-2,4.4c-0.4,1.7-0.6,3.3-0.6,5.1c0,1.7,0.2,3.3,0.7,4.9c0.5,1.6,1.2,2.9,2.1,4.1
				c0.9,1.2,2.1,2.2,3.5,2.9c1.4,0.7,3,1.1,4.8,1.1c1.7,0,3.2-0.3,4.5-0.8c1.3-0.5,2.4-1.3,3.3-2.3c0.9-1,1.6-2.1,2-3.4
				c0.5-1.3,0.7-2.7,0.6-4.2h-10.4v-3.6h14.3v17.1h-2.7l-1.1-4.1C628.4,517.8,626.8,519.1,624.9,519.8z"/>
			<path fill="#333433" d="M662.3,487.7v3.6h-18.1v10.3h16.9v3.6h-16.9v11.2h18.3v3.6h-22.6v-32.5H662.3z"/>
			<path fill="#333433" d="M684,492.1c-1.4-1-3.3-1.6-5.5-1.6c-0.9,0-1.8,0.1-2.7,0.3s-1.7,0.5-2.3,0.9c-0.7,0.4-1.2,1-1.6,1.7
				c-0.4,0.7-0.6,1.6-0.6,2.7c0,1,0.3,1.8,0.9,2.4c0.6,0.6,1.4,1.1,2.4,1.5c1,0.4,2.1,0.7,3.3,1c1.2,0.3,2.5,0.5,3.8,0.8
				c1.3,0.3,2.6,0.7,3.8,1.1s2.4,1,3.3,1.7c1,0.7,1.8,1.6,2.4,2.6c0.6,1.1,0.9,2.4,0.9,4c0,1.7-0.4,3.2-1.2,4.4
				c-0.8,1.2-1.8,2.2-3,3c-1.2,0.8-2.6,1.3-4.1,1.7s-3,0.5-4.5,0.5c-1.8,0-3.5-0.2-5.2-0.7c-1.6-0.5-3.1-1.1-4.3-2.1
				s-2.2-2.1-2.9-3.6c-0.7-1.4-1.1-3.1-1.1-5.1h4.1c0,1.4,0.3,2.5,0.8,3.5c0.5,1,1.2,1.8,2.1,2.4s1.9,1.1,3,1.4
				c1.2,0.3,2.3,0.5,3.6,0.5c1,0,2-0.1,2.9-0.3c1-0.2,1.9-0.5,2.7-0.9c0.8-0.4,1.4-1,1.9-1.8c0.5-0.8,0.7-1.7,0.7-2.9
				c0-1.1-0.3-2-0.9-2.7c-0.6-0.7-1.4-1.3-2.4-1.7c-1-0.4-2.1-0.8-3.3-1.1c-1.2-0.3-2.5-0.6-3.8-0.8c-1.3-0.3-2.6-0.6-3.8-1
				c-1.2-0.4-2.4-0.9-3.3-1.5c-1-0.6-1.8-1.4-2.4-2.4c-0.6-1-0.9-2.2-0.9-3.7c0-1.6,0.3-3.1,1-4.3s1.6-2.2,2.7-3
				c1.1-0.8,2.4-1.4,3.8-1.7c1.4-0.4,2.9-0.6,4.3-0.6c1.7,0,3.2,0.2,4.6,0.6c1.4,0.4,2.7,1,3.8,1.9s1.9,1.9,2.6,3.2
				c0.6,1.3,1,2.8,1,4.6h-4.1C686.3,494.9,685.4,493.2,684,492.1z"/>
		</g>
	</g>
</g>
<text transform="matrix(1 0 0 1 181.769 477.7043)" fill="#C21429" font-family="'HelveticaNeue-CondensedBold'" font-size="134.2302">{</text>
<text transform="matrix(-1 0 0 -1 457.2289 405.8743)" fill="#C21429" font-family="'HelveticaNeue-CondensedBold'" font-size="134.2302">{</text>
<text transform="matrix(1 0 0 1 234.81 421.5168)" fill="#333433" font-family="'HelveticaNeue-CondensedBlack'" font-size="98.1665">89%</text>
<g>
	<g>
		<path fill="#333433" d="M267.4,543.3h-6.1V538c1.3,0,2.4-0.1,3.4-0.3c0.9-0.2,1.7-0.4,2.4-0.8c0.7-0.4,1.2-0.9,1.6-1.5
			c0.4-0.7,0.8-1.4,1-2.4h6.1v32.2h-8.5V543.3z"/>
		<path fill="#333433" d="M290,565.3c-1.4-0.3-2.5-0.8-3.4-1.6c-0.9-0.8-1.7-1.8-2.2-3.1c-0.5-1.3-0.8-3-0.8-5c0-2,0.4-3.6,1.3-5
			s2.2-2.2,4-2.4v-0.1c-0.9-0.2-1.7-0.5-2.3-1s-1.1-1-1.5-1.5s-0.6-1.2-0.8-1.9c-0.1-0.7-0.2-1.4-0.2-2.1c0-1.3,0.2-2.4,0.6-3.5
			s1-2,1.8-2.7c0.8-0.8,1.9-1.4,3.2-1.8c1.3-0.4,2.9-0.6,4.8-0.6c1.9,0,3.5,0.2,4.8,0.6c1.3,0.4,2.4,1,3.2,1.8s1.4,1.7,1.8,2.7
			c0.4,1.1,0.6,2.2,0.6,3.5c0,0.7-0.1,1.4-0.2,2.1c-0.1,0.7-0.4,1.3-0.8,1.9s-0.8,1.1-1.5,1.5s-1.4,0.8-2.4,1v0.1
			c1,0.2,1.8,0.5,2.5,1c0.7,0.5,1.2,1,1.7,1.7c0.4,0.7,0.7,1.4,0.9,2.2c0.2,0.8,0.3,1.7,0.3,2.6c0,2-0.3,3.7-0.8,5
			c-0.5,1.3-1.2,2.3-2.1,3.1c-0.9,0.8-2.1,1.3-3.4,1.6s-2.9,0.4-4.6,0.4S291.3,565.6,290,565.3z M292.8,559.6c0.4,0.6,1.1,1,1.8,1
			c0.8,0,1.4-0.3,1.8-1c0.4-0.6,0.7-1.9,0.7-3.8c0-1.9-0.2-3.1-0.7-3.8c-0.4-0.6-1.1-1-1.8-1c-0.8,0-1.4,0.3-1.8,1s-0.7,1.9-0.7,3.8
			C292.1,557.7,292.3,559,292.8,559.6z M292.6,544.1c0.1,0.5,0.3,0.9,0.5,1.2c0.2,0.3,0.4,0.5,0.7,0.6s0.5,0.2,0.8,0.2
			c0.6,0,1.1-0.3,1.5-0.8c0.4-0.5,0.6-1.6,0.6-3.1c0-0.8-0.1-1.4-0.2-1.9c-0.1-0.5-0.3-0.9-0.5-1.2c-0.2-0.3-0.4-0.5-0.7-0.6
			c-0.3-0.1-0.5-0.2-0.8-0.2s-0.6,0.1-0.8,0.2s-0.5,0.3-0.7,0.6c-0.2,0.3-0.4,0.7-0.5,1.2s-0.2,1.1-0.2,1.9
			C292.4,542.9,292.5,543.6,292.6,544.1z"/>
		<path fill="#333433" d="M321.9,548.6v6.9h-14.2v-6.9H321.9z"/>
		<path fill="#333433" d="M324.8,539.4c0.3-1.4,0.8-2.5,1.5-3.5c0.8-1,1.8-1.7,3.2-2.2c1.4-0.5,3.2-0.8,5.4-0.8
			c2.1,0,3.9,0.2,5.2,0.7c1.3,0.5,2.4,1.1,3.2,1.9s1.3,1.7,1.6,2.8c0.3,1.1,0.4,2.2,0.4,3.4c0,2.2-0.4,4-1.1,5.5
			c-0.7,1.5-1.7,2.8-2.9,4.1l-5,4.9c-0.4,0.4-0.8,0.8-1.2,1.2c-0.4,0.5-0.7,0.9-0.9,1.4h11.1v6.4h-21.2c0-2.3,0.3-4.4,1-6.4
			c0.7-2,2-4,3.8-5.9l5.6-5.7c0.8-0.8,1.4-1.6,1.8-2.3c0.3-0.7,0.5-1.7,0.5-2.9c0-1.4-0.2-2.3-0.6-2.8c-0.4-0.5-0.9-0.8-1.6-0.8
			c-0.3,0-0.6,0.1-0.9,0.2s-0.5,0.3-0.8,0.6c-0.2,0.3-0.4,0.7-0.5,1.3c-0.1,0.6-0.2,1.3-0.2,2.2v1.4h-7.9
			C324.4,542.3,324.5,540.8,324.8,539.4z"/>
		<path fill="#333433" d="M357,559.9c0.3,0.4,0.9,0.6,1.7,0.6c0.6,0,1.1-0.2,1.6-0.8s0.7-1.3,0.7-2.3v-5.1h-0.1
			c-0.4,0.8-1,1.4-2,1.8c-1,0.5-2.1,0.7-3.4,0.7c-1.2,0-2.2-0.2-3.1-0.5c-0.9-0.3-1.8-0.8-2.4-1.6c-0.7-0.7-1.2-1.7-1.6-3
			s-0.5-2.8-0.5-4.7c0-2.2,0.2-4,0.7-5.6s1.2-2.8,2.1-3.8c0.9-1,2.1-1.7,3.4-2.1c1.3-0.4,2.9-0.7,4.6-0.7c1.9,0,3.5,0.2,4.9,0.7
			c1.4,0.4,2.6,1.2,3.5,2.3c0.9,1.1,1.6,2.5,2.1,4.2s0.7,4,0.7,6.6v3.6c0,2.5-0.1,4.7-0.4,6.6c-0.3,1.9-0.8,3.6-1.6,4.9
			c-0.8,1.3-1.9,2.3-3.4,3c-1.5,0.7-3.4,1-5.8,1c-2.1,0-3.8-0.2-5.1-0.6c-1.3-0.4-2.4-1-3.1-1.8c-0.7-0.8-1.3-1.6-1.5-2.6
			c-0.3-1-0.4-2-0.4-3.1h7.9C356.3,558.7,356.6,559.5,357,559.9z M356.7,547.7c0.3,0.7,1,1.1,1.8,1.1c0.8,0,1.4-0.4,1.8-1.1
			c0.4-0.7,0.6-2.1,0.6-4.2c0-2.1-0.2-3.5-0.5-4.2c-0.3-0.7-1-1.1-1.8-1.1c-0.8,0-1.4,0.4-1.8,1.1s-0.6,2.1-0.6,4.2
			C356.2,545.6,356.4,547,356.7,547.7z"/>
	</g>
	<g>
		<polygon fill="#DEDEDE" points="317.3,447.2 281.5,483 353.1,483 		"/>
	</g>
	<g>
		<path fill="#333433" d="M271.4,489.7l12.7,32.5h-4.8l-3.6-9.8H262l-3.6,9.8H254l12.7-32.5H271.4z M274.4,508.8l-5.4-15.2h-0.1
			l-5.5,15.2H274.4z"/>
		<path fill="#333433" d="M306.9,521.8c-1.9,0.7-3.8,1.1-5.7,1.1c-2.4,0-4.6-0.4-6.5-1.3c-1.9-0.9-3.5-2.1-4.9-3.6
			c-1.3-1.5-2.4-3.3-3.1-5.2c-0.7-2-1-4-1-6.1c0-2.4,0.3-4.6,1-6.8c0.7-2.1,1.6-4,2.9-5.6c1.3-1.6,2.9-2.9,4.8-3.8
			c1.9-1,4.2-1.4,6.8-1.4c1.8,0,3.4,0.2,5,0.6c1.6,0.4,3,1.1,4.2,1.9c1.2,0.9,2.3,2,3.1,3.3c0.8,1.4,1.4,3,1.7,4.9h-4.3
			c-0.2-1.2-0.6-2.3-1.2-3.2c-0.6-0.9-1.3-1.6-2.1-2.2c-0.9-0.6-1.8-1-2.9-1.3c-1.1-0.3-2.2-0.4-3.4-0.4c-2,0-3.7,0.4-5.1,1.2
			c-1.4,0.8-2.6,1.8-3.5,3.1c-0.9,1.3-1.6,2.8-2,4.4c-0.4,1.7-0.6,3.3-0.6,5.1c0,1.7,0.2,3.3,0.7,4.9c0.5,1.6,1.2,2.9,2.1,4.1
			c0.9,1.2,2.1,2.2,3.5,2.9c1.4,0.7,3,1.1,4.8,1.1c1.7,0,3.2-0.3,4.5-0.8c1.3-0.5,2.4-1.3,3.3-2.3c0.9-1,1.6-2.1,2-3.4
			c0.5-1.3,0.7-2.7,0.6-4.2h-10.4v-3.6h14.3v17.1h-2.7l-1.1-4.1C310.4,519.8,308.8,521.1,306.9,521.8z"/>
		<path fill="#333433" d="M344.3,489.7v3.6h-18.1v10.3h16.9v3.6h-16.9v11.2h18.3v3.6h-22.6v-32.5H344.3z"/>
		<path fill="#333433" d="M366,494.1c-1.4-1-3.3-1.6-5.5-1.6c-0.9,0-1.8,0.1-2.7,0.3c-0.9,0.2-1.7,0.5-2.3,0.9s-1.2,1-1.6,1.7
			c-0.4,0.7-0.6,1.6-0.6,2.7c0,1,0.3,1.8,0.9,2.4c0.6,0.6,1.4,1.1,2.4,1.5c1,0.4,2.1,0.7,3.3,1c1.2,0.3,2.5,0.5,3.8,0.8
			c1.3,0.3,2.6,0.7,3.8,1.1c1.2,0.4,2.4,1,3.3,1.7c1,0.7,1.8,1.6,2.4,2.6c0.6,1.1,0.9,2.4,0.9,4c0,1.7-0.4,3.2-1.2,4.4
			c-0.8,1.2-1.8,2.2-3,3c-1.2,0.8-2.6,1.3-4.1,1.7s-3,0.5-4.5,0.5c-1.8,0-3.5-0.2-5.2-0.7c-1.6-0.5-3.1-1.1-4.3-2.1
			s-2.2-2.1-2.9-3.6c-0.7-1.4-1.1-3.1-1.1-5.1h4.1c0,1.4,0.3,2.5,0.8,3.5c0.5,1,1.2,1.8,2.1,2.4s1.9,1.1,3,1.4
			c1.2,0.3,2.3,0.5,3.6,0.5c1,0,2-0.1,2.9-0.3c1-0.2,1.9-0.5,2.7-0.9c0.8-0.4,1.4-1,1.9-1.8c0.5-0.8,0.7-1.7,0.7-2.9
			c0-1.1-0.3-2-0.9-2.7c-0.6-0.7-1.4-1.3-2.4-1.7c-1-0.4-2.1-0.8-3.3-1.1c-1.2-0.3-2.5-0.6-3.8-0.8c-1.3-0.3-2.6-0.6-3.8-1
			c-1.2-0.4-2.4-0.9-3.3-1.5c-1-0.6-1.8-1.4-2.4-2.4c-0.6-1-0.9-2.2-0.9-3.7c0-1.6,0.3-3.1,1-4.3c0.7-1.2,1.6-2.2,2.7-3
			c1.1-0.8,2.4-1.4,3.8-1.7c1.4-0.4,2.9-0.6,4.3-0.6c1.7,0,3.2,0.2,4.6,0.6c1.4,0.4,2.7,1,3.8,1.9c1.1,0.8,1.9,1.9,2.6,3.2
			c0.6,1.3,1,2.8,1,4.6h-4.1C368.3,496.9,367.4,495.2,366,494.1z"/>
	</g>
</g>
</svg>
