<?xml version="1.0" encoding="utf-8"?>
<!-- Generator: Adobe Illustrator 18.0.0, SVG Export Plug-In . SVG Version: 6.00 Build 0)  -->
<!DOCTYPE svg PUBLIC "-//W3C//DTD SVG 1.1//EN" "http://www.w3.org/Graphics/SVG/1.1/DTD/svg11.dtd">
<svg version="1.1" id="Layer_1" xmlns="http://www.w3.org/2000/svg" xmlns:xlink="http://www.w3.org/1999/xlink" x="0px" y="0px"
	 viewBox="0 0 960 283.9" enable-background="new 0 0 960 283.9" xml:space="preserve">
<g>
	
		<text transform="matrix(1 0 0 1 502.0155 175.3094)" fill="#C21429" font-family="'HelveticaNeue-CondensedBold'" font-size="134.2302">{</text>
	
		<text transform="matrix(-1 0 0 -1 777.4745 103.4793)" fill="#C21429" font-family="'HelveticaNeue-CondensedBold'" font-size="134.2302">{</text>
	
		<text transform="matrix(1 0 0 1 555.0547 119.1219)" fill="#333433" font-family="'HelveticaNeue-CondensedBlack'" font-size="98.1665">43%</text>
	<g>
		<g>
			<path fill="#333433" d="M614.3,235.6c-0.3-0.4-0.9-0.6-1.7-0.6c-0.6,0-1.1,0.2-1.6,0.8s-0.7,1.3-0.7,2.3v5.1h0.1
				c0.4-0.8,1-1.4,2-1.9c1-0.5,2.1-0.7,3.4-0.7c1.2,0,2.2,0.2,3.1,0.5c0.9,0.3,1.8,0.9,2.4,1.6c0.7,0.7,1.2,1.7,1.6,3
				s0.5,2.8,0.5,4.7c0,2.2-0.2,4.1-0.7,5.6c-0.5,1.5-1.2,2.8-2.1,3.8c-0.9,1-2.1,1.6-3.4,2c-1.3,0.4-2.9,0.6-4.6,0.6
				c-1.9,0-3.5-0.2-4.9-0.6c-1.4-0.4-2.6-1.1-3.5-2.2s-1.6-2.4-2.1-4.2s-0.7-3.9-0.7-6.6v-3.6c0-2.5,0.1-4.7,0.4-6.6
				c0.3-1.9,0.8-3.6,1.6-4.9c0.8-1.3,1.9-2.3,3.4-3c1.5-0.7,3.4-1,5.8-1c2.1,0,3.8,0.2,5.1,0.7c1.3,0.5,2.4,1.1,3.1,1.8
				s1.3,1.7,1.6,2.7c0.3,1,0.4,2,0.4,3.1h-7.9C614.9,236.9,614.6,236.1,614.3,235.6z M610.8,256.2c0.3,0.7,1,1.1,1.8,1.1
				c0.8,0,1.4-0.4,1.8-1.1c0.4-0.7,0.6-2.1,0.6-4.2s-0.2-3.5-0.5-4.2c-0.3-0.7-1-1.1-1.8-1.1c-0.8,0-1.4,0.4-1.8,1.1
				c-0.4,0.7-0.6,2.1-0.6,4.2S610.4,255.4,610.8,256.2z"/>
			<path fill="#333433" d="M644.9,230.3v6.4h-12.3l-0.4,5.4c0.8-0.7,1.7-1.3,2.7-1.7c1-0.4,2.1-0.6,3.3-0.6c2.6,0,4.6,0.8,6,2.5
				c1.4,1.7,2,4.3,2,7.7c0,2.1-0.2,4-0.5,5.5c-0.3,1.6-0.9,2.9-1.8,3.9c-0.8,1-1.9,1.8-3.3,2.3s-3,0.7-5,0.7c-3.7,0-6.4-0.8-8.1-2.4
				c-1.7-1.6-2.5-3.8-2.5-6.7v-1h7.9v1.1c0,1.5,0.2,2.5,0.6,3.1s1,0.8,1.7,0.8c0.4,0,0.8-0.1,1.1-0.2c0.3-0.1,0.5-0.4,0.8-0.9
				c0.2-0.5,0.4-1.2,0.5-2.1c0.1-0.9,0.1-2.1,0.1-3.7c0-1.8-0.2-3.1-0.6-3.8c-0.4-0.7-1-1.1-1.8-1.1c-0.7,0-1.3,0.2-1.7,0.6
				c-0.4,0.4-0.6,1.1-0.6,2.1h-7.7l0.7-17.9H644.9z"/>
			<path fill="#333433" d="M664.8,238.9v8.3h8.3v6.4h-8.3v8.3h-6.4v-8.3h-8.3v-6.4h8.3v-8.3H664.8z"/>
		</g>
		<g>
			<polygon fill="#DEDEDE" points="638,145.3 602.2,181.1 673.8,181.1 			"/>
		</g>
		<g>
			<path fill="#333433" d="M594.6,187.4l12.7,32.5h-4.8l-3.6-9.8h-13.8l-3.6,9.8h-4.4l12.7-32.5H594.6z M597.6,206.4l-5.4-15.2h-0.1
				l-5.5,15.2H597.6z"/>
			<path fill="#333433" d="M630.1,219.5c-1.9,0.7-3.8,1.1-5.7,1.1c-2.4,0-4.6-0.4-6.5-1.3c-1.9-0.9-3.5-2.1-4.9-3.6
				c-1.3-1.5-2.4-3.3-3.1-5.2c-0.7-2-1-4-1-6.1c0-2.4,0.3-4.6,1-6.8c0.7-2.1,1.6-4,2.9-5.6c1.3-1.6,2.9-2.9,4.8-3.8
				c1.9-1,4.2-1.4,6.8-1.4c1.8,0,3.4,0.2,5,0.6c1.6,0.4,3,1.1,4.2,1.9c1.2,0.9,2.3,2,3.1,3.3s1.4,3,1.7,4.9H634
				c-0.2-1.2-0.6-2.3-1.2-3.2c-0.6-0.9-1.3-1.6-2.1-2.2c-0.8-0.6-1.8-1-2.9-1.3c-1.1-0.3-2.2-0.4-3.4-0.4c-2,0-3.7,0.4-5.1,1.2
				c-1.4,0.8-2.6,1.8-3.5,3.1c-0.9,1.3-1.6,2.8-2,4.4c-0.4,1.7-0.6,3.3-0.6,5.1c0,1.7,0.2,3.3,0.7,4.9c0.5,1.6,1.2,2.9,2.1,4.1
				c0.9,1.2,2.1,2.2,3.5,2.9c1.4,0.7,3,1.1,4.8,1.1c1.7,0,3.2-0.3,4.5-0.8c1.3-0.5,2.4-1.3,3.3-2.3c0.9-1,1.6-2.1,2-3.4
				c0.5-1.3,0.7-2.7,0.6-4.2h-10.4v-3.6h14.3v17.1h-2.7l-1.1-4.1C633.5,217.5,631.9,218.7,630.1,219.5z"/>
			<path fill="#333433" d="M667.5,187.4v3.6h-18.1v10.3h16.9v3.6h-16.9v11.2h18.3v3.6H645v-32.5H667.5z"/>
			<path fill="#333433" d="M689.1,191.8c-1.4-1-3.3-1.6-5.5-1.6c-0.9,0-1.8,0.1-2.7,0.3c-0.9,0.2-1.7,0.5-2.3,0.9
				c-0.7,0.4-1.2,1-1.6,1.7c-0.4,0.7-0.6,1.6-0.6,2.7c0,1,0.3,1.8,0.9,2.4c0.6,0.6,1.4,1.1,2.4,1.5s2.1,0.7,3.3,1
				c1.2,0.3,2.5,0.5,3.8,0.8c1.3,0.3,2.6,0.7,3.8,1.1c1.2,0.4,2.4,1,3.3,1.7c1,0.7,1.8,1.6,2.4,2.6c0.6,1.1,0.9,2.4,0.9,4
				c0,1.7-0.4,3.2-1.2,4.4c-0.8,1.2-1.8,2.2-3,3c-1.2,0.8-2.6,1.3-4.1,1.7s-3,0.5-4.5,0.5c-1.8,0-3.5-0.2-5.2-0.7
				c-1.6-0.5-3.1-1.1-4.3-2.1s-2.2-2.1-2.9-3.6c-0.7-1.4-1.1-3.1-1.1-5.1h4.1c0,1.4,0.3,2.5,0.8,3.5c0.5,1,1.2,1.8,2.1,2.4
				s1.9,1.1,3,1.4c1.2,0.3,2.3,0.5,3.6,0.5c1,0,2-0.1,2.9-0.3c1-0.2,1.9-0.5,2.7-0.9c0.8-0.4,1.4-1,1.9-1.8c0.5-0.8,0.7-1.7,0.7-2.9
				c0-1.1-0.3-2-0.9-2.7s-1.4-1.3-2.4-1.7c-1-0.4-2.1-0.8-3.3-1.1c-1.2-0.3-2.5-0.6-3.8-0.8c-1.3-0.3-2.6-0.6-3.8-1
				c-1.2-0.4-2.4-0.9-3.3-1.5c-1-0.6-1.8-1.4-2.4-2.4s-0.9-2.2-0.9-3.7c0-1.6,0.3-3.1,1-4.3c0.7-1.2,1.6-2.2,2.7-3
				c1.1-0.8,2.4-1.4,3.8-1.7c1.4-0.4,2.9-0.6,4.3-0.6c1.7,0,3.2,0.2,4.6,0.6c1.4,0.4,2.7,1,3.8,1.9c1.1,0.8,1.9,1.9,2.5,3.2
				c0.6,1.3,1,2.8,1,4.6h-4.1C691.4,194.5,690.6,192.8,689.1,191.8z"/>
		</g>
	</g>
</g>
<g>
	<g>
		
			<text transform="matrix(1 0 0 1 184.5625 173.3445)" fill="#C21429" font-family="'HelveticaNeue-CondensedBold'" font-size="134.2302">{</text>
		
			<text transform="matrix(-1 0 0 -1 460.0235 101.5164)" fill="#C21429" font-family="'HelveticaNeue-CondensedBold'" font-size="134.2302">{</text>
		
			<text transform="matrix(1 0 0 1 237.8651 117.157)" fill="#333433" font-family="'HelveticaNeue-CondensedBlack'" font-size="98.1665">60%</text>
	</g>
	<g>
		<g>
			<path fill="#333433" d="M290.8,229.3v6.4h-12.3l-0.4,5.4c0.8-0.7,1.7-1.3,2.7-1.7c1-0.4,2.1-0.6,3.3-0.6c2.6,0,4.6,0.8,6,2.5
				c1.4,1.7,2,4.3,2,7.7c0,2.1-0.2,4-0.5,5.5c-0.3,1.6-0.9,2.9-1.8,3.9c-0.8,1-1.9,1.8-3.3,2.3c-1.4,0.5-3,0.7-5,0.7
				c-3.7,0-6.4-0.8-8.1-2.4c-1.7-1.6-2.5-3.8-2.5-6.7v-1h7.9v1.1c0,1.5,0.2,2.5,0.6,3.1c0.4,0.5,1,0.8,1.7,0.8
				c0.4,0,0.8-0.1,1.1-0.2c0.3-0.1,0.5-0.4,0.8-0.9c0.2-0.5,0.4-1.2,0.5-2.1c0.1-0.9,0.1-2.1,0.1-3.7c0-1.8-0.2-3.1-0.6-3.8
				c-0.4-0.7-1-1.1-1.8-1.1c-0.7,0-1.3,0.2-1.7,0.6c-0.4,0.4-0.6,1.1-0.6,2.1h-7.7l0.7-17.9H290.8z"/>
			<path fill="#333433" d="M295.4,237c0.4-2.1,1.1-3.8,2-5.1c0.9-1.2,2-2.1,3.4-2.6c1.4-0.5,3-0.7,4.9-0.7c1.9,0,3.5,0.2,4.9,0.7
				c1.4,0.5,2.5,1.4,3.4,2.6c0.9,1.2,1.6,2.9,2,5.1c0.4,2.1,0.7,4.8,0.7,8.1c0,3.3-0.2,6-0.7,8.1c-0.4,2.1-1.1,3.8-2,5
				c-0.9,1.2-2,2.1-3.4,2.5c-1.4,0.5-3,0.7-4.9,0.7c-1.9,0-3.5-0.2-4.9-0.7c-1.4-0.5-2.5-1.3-3.4-2.5s-1.6-2.9-2-5
				c-0.4-2.1-0.7-4.8-0.7-8.1C294.8,241.9,295,239.2,295.4,237z M303.8,255.1c0.4,0.8,1,1.2,1.9,1.2c0.9,0,1.5-0.4,1.9-1.2
				c0.4-0.8,0.6-2.3,0.6-4.6v-10.7c0-2.3-0.2-3.8-0.6-4.6c-0.4-0.8-1-1.2-1.9-1.2c-0.9,0-1.5,0.4-1.9,1.2c-0.4,0.8-0.6,2.3-0.6,4.6
				v10.7C303.3,252.7,303.5,254.2,303.8,255.1z"/>
			<path fill="#333433" d="M333.1,244.3v6.9h-14.2v-6.9H333.1z"/>
			<path fill="#333433" d="M348,234.6c-0.3-0.4-0.9-0.6-1.7-0.6c-0.6,0-1.1,0.2-1.6,0.8S344,236,344,237v5.1h0.1
				c0.4-0.8,1-1.4,2-1.9c1-0.5,2.1-0.7,3.4-0.7c1.2,0,2.2,0.2,3.1,0.5c0.9,0.3,1.8,0.9,2.4,1.6c0.7,0.7,1.2,1.7,1.6,3
				s0.5,2.8,0.5,4.7c0,2.2-0.2,4.1-0.7,5.6c-0.5,1.5-1.2,2.8-2.1,3.8c-0.9,1-2.1,1.6-3.4,2c-1.3,0.4-2.9,0.6-4.6,0.6
				c-1.9,0-3.5-0.2-4.9-0.6c-1.4-0.4-2.6-1.1-3.5-2.2c-0.9-1-1.6-2.4-2.1-4.2c-0.5-1.7-0.7-3.9-0.7-6.6v-3.6c0-2.5,0.1-4.7,0.4-6.6
				c0.3-1.9,0.8-3.6,1.6-4.9c0.8-1.3,1.9-2.3,3.4-3c1.5-0.7,3.4-1,5.8-1c2.1,0,3.8,0.2,5.1,0.7c1.3,0.5,2.4,1.1,3.1,1.8
				c0.8,0.8,1.3,1.7,1.6,2.7c0.3,1,0.4,2,0.4,3.1h-7.9C348.6,235.9,348.4,235.1,348,234.6z M344.5,255.2c0.3,0.7,1,1.1,1.8,1.1
				c0.8,0,1.4-0.4,1.8-1.1c0.4-0.7,0.6-2.1,0.6-4.2s-0.2-3.5-0.5-4.2c-0.3-0.7-1-1.1-1.8-1.1c-0.8,0-1.4,0.4-1.8,1.1
				c-0.4,0.7-0.6,2.1-0.6,4.2S344.1,254.4,344.5,255.2z"/>
			<path fill="#333433" d="M359.6,237c0.4-2.1,1.1-3.8,2-5.1c0.9-1.2,2-2.1,3.4-2.6c1.4-0.5,3-0.7,4.9-0.7c1.9,0,3.5,0.2,4.9,0.7
				c1.4,0.5,2.5,1.4,3.4,2.6c0.9,1.2,1.6,2.9,2,5.1c0.4,2.1,0.7,4.8,0.7,8.1c0,3.3-0.2,6-0.7,8.1c-0.4,2.1-1.1,3.8-2,5
				c-0.9,1.2-2,2.1-3.4,2.5c-1.4,0.5-3,0.7-4.9,0.7c-1.9,0-3.5-0.2-4.9-0.7c-1.4-0.5-2.5-1.3-3.4-2.5s-1.6-2.9-2-5
				c-0.4-2.1-0.7-4.8-0.7-8.1C358.9,241.9,359.1,239.2,359.6,237z M368,255.1c0.4,0.8,1,1.2,1.9,1.2c0.9,0,1.5-0.4,1.9-1.2
				c0.4-0.8,0.6-2.3,0.6-4.6v-10.7c0-2.3-0.2-3.8-0.6-4.6c-0.4-0.8-1-1.2-1.9-1.2c-0.9,0-1.5,0.4-1.9,1.2c-0.4,0.8-0.6,2.3-0.6,4.6
				v10.7C367.4,252.7,367.6,254.2,368,255.1z"/>
		</g>
		<g>
			<polygon fill="#DEDEDE" points="326,144.3 290.2,180.1 361.8,180.1 			"/>
		</g>
		<g>
			<path fill="#333433" d="M282.6,186.4l12.7,32.5h-4.8l-3.6-9.8h-13.8l-3.6,9.8h-4.4l12.7-32.5H282.6z M285.6,205.4l-5.4-15.2h-0.1
				l-5.5,15.2H285.6z"/>
			<path fill="#333433" d="M318.1,218.5c-1.9,0.7-3.8,1.1-5.7,1.1c-2.4,0-4.6-0.4-6.5-1.3c-1.9-0.9-3.5-2.1-4.9-3.6
				c-1.3-1.5-2.4-3.3-3.1-5.2c-0.7-2-1-4-1-6.1c0-2.4,0.3-4.6,1-6.8c0.7-2.1,1.6-4,2.9-5.6c1.3-1.6,2.9-2.9,4.8-3.8
				c1.9-1,4.2-1.4,6.8-1.4c1.8,0,3.4,0.2,5,0.6c1.6,0.4,3,1.1,4.2,1.9c1.2,0.9,2.3,2,3.1,3.3c0.8,1.4,1.4,3,1.7,4.9H322
				c-0.2-1.2-0.6-2.3-1.2-3.2c-0.6-0.9-1.3-1.6-2.1-2.2c-0.9-0.6-1.8-1-2.9-1.3c-1.1-0.3-2.2-0.4-3.4-0.4c-2,0-3.7,0.4-5.1,1.2
				c-1.4,0.8-2.6,1.8-3.5,3.1c-0.9,1.3-1.6,2.8-2,4.4c-0.4,1.7-0.6,3.3-0.6,5.1c0,1.7,0.2,3.3,0.7,4.9c0.5,1.6,1.2,2.9,2.1,4.1
				c0.9,1.2,2.1,2.2,3.5,2.9c1.4,0.7,3,1.1,4.8,1.1c1.7,0,3.2-0.3,4.5-0.8c1.3-0.5,2.4-1.3,3.3-2.3c0.9-1,1.6-2.1,2-3.4
				c0.5-1.3,0.7-2.7,0.6-4.2h-10.4v-3.6h14.3v17.1h-2.7l-1.1-4.1C321.5,216.5,319.9,217.7,318.1,218.5z"/>
			<path fill="#333433" d="M355.5,186.4v3.6h-18.1v10.3h16.9v3.6h-16.9v11.2h18.3v3.6H333v-32.5H355.5z"/>
			<path fill="#333433" d="M377.1,190.8c-1.4-1-3.3-1.6-5.5-1.6c-0.9,0-1.8,0.1-2.7,0.3c-0.9,0.2-1.7,0.5-2.3,0.9s-1.2,1-1.6,1.7
				c-0.4,0.7-0.6,1.6-0.6,2.7c0,1,0.3,1.8,0.9,2.4c0.6,0.6,1.4,1.1,2.4,1.5c1,0.4,2.1,0.7,3.3,1c1.2,0.3,2.5,0.5,3.8,0.8
				c1.3,0.3,2.6,0.7,3.8,1.1c1.2,0.4,2.4,1,3.3,1.7c1,0.7,1.8,1.6,2.4,2.6c0.6,1.1,0.9,2.4,0.9,4c0,1.7-0.4,3.2-1.2,4.4
				c-0.8,1.2-1.8,2.2-3,3c-1.2,0.8-2.6,1.3-4.1,1.7s-3,0.5-4.5,0.5c-1.8,0-3.5-0.2-5.2-0.7c-1.6-0.5-3.1-1.1-4.3-2.1
				s-2.2-2.1-2.9-3.6c-0.7-1.4-1.1-3.1-1.1-5.1h4.1c0,1.4,0.3,2.5,0.8,3.5c0.5,1,1.2,1.8,2.1,2.4s1.9,1.1,3,1.4
				c1.2,0.3,2.3,0.5,3.6,0.5c1,0,2-0.1,2.9-0.3c1-0.2,1.9-0.5,2.7-0.9c0.8-0.4,1.4-1,1.9-1.8c0.5-0.8,0.7-1.7,0.7-2.9
				c0-1.1-0.3-2-0.9-2.7c-0.6-0.7-1.4-1.3-2.4-1.7c-1-0.4-2.1-0.8-3.3-1.1c-1.2-0.3-2.5-0.6-3.8-0.8c-1.3-0.3-2.6-0.6-3.8-1
				c-1.2-0.4-2.4-0.9-3.3-1.5c-1-0.6-1.8-1.4-2.4-2.4c-0.6-1-0.9-2.2-0.9-3.7c0-1.6,0.3-3.1,1-4.3c0.7-1.2,1.6-2.2,2.7-3
				c1.1-0.8,2.4-1.4,3.8-1.7c1.4-0.4,2.9-0.6,4.3-0.6c1.7,0,3.2,0.2,4.6,0.6c1.4,0.4,2.7,1,3.8,1.9c1.1,0.8,1.9,1.9,2.6,3.2
				c0.6,1.3,1,2.8,1,4.6h-4.1C379.4,193.5,378.6,191.8,377.1,190.8z"/>
		</g>
	</g>
</g>
</svg>
