<?xml version="1.0" encoding="utf-8"?>
<!-- Generator: Adobe Illustrator 18.0.0, SVG Export Plug-In . SVG Version: 6.00 Build 0)  -->
<!DOCTYPE svg PUBLIC "-//W3C//DTD SVG 1.1//EN" "http://www.w3.org/Graphics/SVG/1.1/DTD/svg11.dtd">
<svg version="1.1" id="Layer_1" xmlns="http://www.w3.org/2000/svg" xmlns:xlink="http://www.w3.org/1999/xlink" x="0px" y="0px"
	 viewBox="0 904 960 188" enable-background="new 0 904 960 188" xml:space="preserve">
<g>
	<path fill="#DEDEDE" d="M281.3,1046.9l8.1,5.8c2.2,1.5,6.5,2.9,11.7,4l-11.5-8.2h3.9l12.7,9l0,0l10.2,7.3c2.8,2,10.1,3.7,17,4
		l-19.3-13.8h3.9l19.9,13.8c5.6-1.2,8.5-3,5.7-5.1l-10.5-6.1l0,0l-12.7-9h3.9l11.5,8.2c2.4-1.1,2.7-2.5,0.5-4l-8.1-5.8
		c-4.6-3.3-18.8-5.9-31.9-5.9C283.5,1040.9,276.7,1043.6,281.3,1046.9z M299.8,1036.5c-2.6-1.8-8.9-3.3-14.3-3.3
		c-5.4,0-7.6,1.5-5.1,3.3c2.6,1.8,8.9,3.3,14.3,3.3C300.2,1039.7,302.4,1038.3,299.8,1036.5z"/>
	<path fill="#DEDEDE" d="M335.7,973.2c-15.2,0-27.4,9.1-27.4,20.4v19.8c0,5.3,2.7,10.1,7.2,13.8v-28.1h4.5v31.1l0,0v25
		c0,7,5.8,12.7,13.5,13.7v-47h4.5v47c7.6-1,13.5-6.7,13.5-13.7v-25l0,0v-31.1h4.6v28.1c4.4-3.7,7.1-8.4,7.1-13.8v-19.8
		C363.1,982.3,350.9,973.2,335.7,973.2z M335.7,969.2c6.2,0,11.3-5.1,11.3-11.3c0-6.2-5.1-11.3-11.3-11.3c-6.2,0-11.3,5.1-11.3,11.3
		S329.4,969.2,335.7,969.2z"/>
</g>
<g>
	<path fill="#DEDEDE" d="M384.9,1046.9l8.1,5.8c2.2,1.5,6.5,2.9,11.7,4l-11.5-8.2h3.9l12.7,9l0,0l10.2,7.3c2.8,2,10.1,3.7,17,4
		l-19.3-13.8h3.9l19.8,13.8c5.6-1.2,8.5-3,5.7-5.1l-10.5-6.1l0,0l-12.5-9.3h3.9l11.5,8.2c2.4-1.1,2.7-2.5,0.5-4l-8.1-5.8
		c-4.6-3.3-18.8-5.9-31.9-5.9C387,1040.9,380.2,1043.6,384.9,1046.9z M403.5,1036.5c-2.6-1.8-8.9-3.3-14.3-3.3s-7.6,1.5-5.1,3.3
		c2.6,1.8,8.9,3.3,14.3,3.3C403.7,1039.7,406,1038.3,403.5,1036.5z"/>
	<path fill="#DEDEDE" d="M439.2,973.2c-15.2,0-27.4,9.1-27.4,20.4v19.8c0,5.3,2.7,10.1,7.2,13.8v-28.1h4.5v31.1l0,0v25
		c0,7,5.8,12.7,13.5,13.7v-47h4.5v47c7.6-1,13.5-6.7,13.5-13.7v-25l0,0v-31.1h4.6v28.1c4.4-3.7,7.1-8.4,7.1-13.8v-19.8
		C466.8,982.3,454.4,973.2,439.2,973.2z M439.2,969.2c6.2,0,11.3-5.1,11.3-11.3c0-6.2-5.1-11.3-11.3-11.3s-11.3,5.1-11.3,11.3
		S433,969.2,439.2,969.2z"/>
</g>
<g>
	<path fill="#DEDEDE" d="M480.8,1046.9l8.1,5.8c2.2,1.5,6.5,2.9,11.7,4l-11.5-8.2h3.9l12.7,9l0,0l10.2,7.3c2.8,2,10.1,3.7,17,4
		l-19.3-13.8h3.9l19.8,13.8c5.6-1.2,8.5-3,5.7-5.1l-10.5-6.1l0,0l-12.6-9.3h3.9l11.5,8.2c2.4-1.1,2.7-2.5,0.5-4l-8.1-5.8
		c-4.6-3.3-18.8-5.9-31.9-5.9C482.9,1040.9,476.1,1043.6,480.8,1046.9z M499.3,1036.5c-2.6-1.8-8.9-3.3-14.3-3.3s-7.6,1.5-5.1,3.3
		c2.6,1.8,8.9,3.3,14.3,3.3C499.6,1039.7,501.8,1038.3,499.3,1036.5z"/>
	<path fill="#DEDEDE" d="M535.1,973.2c-15.2,0-27.4,9.1-27.4,20.4v19.8c0,5.3,2.7,10.1,7.2,13.8v-28.1h4.5v31.1l0,0v25
		c0,7,5.8,12.7,13.5,13.7v-47h4.5v47c7.6-1,13.5-6.7,13.5-13.7v-25l0,0v-31.1h4.6v28.1c4.4-3.7,7.1-8.4,7.1-13.8v-19.8
		C562.7,982.3,550.3,973.2,535.1,973.2z M535.1,969.2c6.2,0,11.3-5.1,11.3-11.3c0-6.2-5.1-11.3-11.3-11.3s-11.3,5.1-11.3,11.3
		S528.9,969.2,535.1,969.2z"/>
</g>
<g>
	<path fill="#DEDEDE" d="M577.5,1046.9l8.1,5.8c2.2,1.5,6.5,2.9,11.7,4l-11.5-8.2h3.9l12.7,9l0,0l10.2,7.3c2.8,2,10.1,3.7,17,4
		l-19.3-13.8h3.9l19.8,13.8c5.6-1.2,8.5-3,5.7-5.1l-10.5-6.1l0,0l-12.5-9.3h3.9l11.5,8.2c2.4-1.1,2.7-2.5,0.5-4l-8.1-5.8
		c-4.6-3.3-18.8-5.9-31.9-5.9C579.7,1040.9,572.9,1043.6,577.5,1046.9z M596,1036.5c-2.6-1.8-8.9-3.3-14.3-3.3s-7.6,1.5-5.1,3.3
		c2.6,1.8,8.9,3.3,14.3,3.3C596.3,1039.7,598.6,1038.3,596,1036.5z"/>
	<path fill="#DEDEDE" d="M631.9,973.2c-15.2,0-27.4,9.1-27.4,20.4v19.8c0,5.3,2.7,10.1,7.2,13.8v-28.1h4.5v31.1l0,0v25
		c0,7,5.8,12.7,13.5,13.7v-47h4.5v47c7.6-1,13.5-6.7,13.5-13.7v-25l0,0v-31.1h4.6v28.1c4.4-3.7,7.1-8.4,7.1-13.8v-19.8
		C659.4,982.3,647,973.2,631.9,973.2z M631.9,969.2c6.2,0,11.3-5.1,11.3-11.3c0-6.2-5.1-11.3-11.3-11.3c-6.2,0-11.3,5.1-11.3,11.3
		S625.6,969.2,631.9,969.2z"/>
</g>
</svg>
