<?xml version="1.0" encoding="utf-8"?>
<!-- Generator: Adobe Illustrator 18.0.0, SVG Export Plug-In . SVG Version: 6.00 Build 0)  -->
<!DOCTYPE svg PUBLIC "-//W3C//DTD SVG 1.1//EN" "http://www.w3.org/Graphics/SVG/1.1/DTD/svg11.dtd">
<svg version="1.1" id="Layer_1" xmlns="http://www.w3.org/2000/svg" xmlns:xlink="http://www.w3.org/1999/xlink" x="0px" y="0px"
	 viewBox="0 0 892 436" enable-background="new 0 0 892 436" xml:space="preserve">
<g>
	<g>
		<path fill="#DEDEDE" d="M147,79.3c-7.3,11-12.3,23.2-14.9,36.2c-2.6,13-2.7,26.2-0.3,39.2c2.5,13.5,7.7,26.1,15.3,37.6
			c6.5,9.8,14.5,18.3,23.8,25.2l12.2-15.2c-7.7-5.7-14.4-12.7-19.8-20.8c-12.2-18.4-16.6-40.5-12.2-62.2
			c4.4-21.7,16.9-40.3,35.3-52.6s40.5-16.6,62.2-12.2c21.7,4.4,40.3,16.9,52.6,35.3c12.2,18.4,16.6,40.5,12.2,62.2
			s-16.9,40.3-35.3,52.6c-6.4,4.2-13.2,7.5-20.2,9.8l6.7,18.2c8.5-2.8,16.7-6.8,24.3-11.9c11.5-7.6,21.1-17.3,28.7-28.7
			c7.3-11,12.3-23.2,14.9-36.2c2.6-13,2.7-26.2,0.3-39.2c-2.5-13.5-7.7-26.1-15.3-37.6c-7.6-11.5-17.3-21.1-28.7-28.7
			c-11-7.3-23.2-12.3-36.2-14.9c-13-2.6-26.2-2.7-39.2-0.3c-13.5,2.5-26.1,7.7-37.6,15.3S154.5,67.9,147,79.3z"/>
	</g>
	<g>
		<path fill="#C21429" d="M267.6,211.2c-11.2,5.3-23.5,8-36.3,7.9c-22.1-0.3-42.8-9.1-58.2-24.9c-15.4-15.8-23.8-36.7-23.6-58.8
			c0.3-22.1,9.1-42.8,24.9-58.2c15.8-15.4,36.7-23.8,58.8-23.6c16.8,0.2,32.9,5.4,46.4,14.8L291.5,53c-6.1-4.3-12.7-8-19.6-11
			c-12.2-5.1-25.1-7.8-38.4-7.9c-13.3-0.2-26.2,2.2-38.5,7c-12.7,5-24.2,12.4-34.1,22.1c-9.9,9.6-17.6,20.9-22.8,33.6
			c-5.1,12.2-7.8,25.1-7.9,38.4c-0.2,13.3,2.2,26.2,7,38.5c5,12.7,12.4,24.2,22.1,34.1c9.6,9.9,20.9,17.6,33.6,22.8
			c12.2,5.1,25.1,7.8,38.4,7.9c13.3,0.2,26.2-2.2,38.5-7c2.4-0.9,4.7-1.9,7-3L267.6,211.2z"/>
	</g>
	<g>
		<path fill="#333433" d="M277.9,230.9c-11.8,5.7-24.8,9.4-38.6,10.3c-57.9,4.1-108.4-39.8-112.4-97.7
			c-4.1-57.9,39.8-108.4,97.7-112.4c25.5-1.8,49.5,5.7,68.7,19.5l1.8-2.3c-19.8-14.3-44.5-22-70.7-20.1
			c-59.5,4.2-104.6,56-100.4,115.5s56,104.6,115.5,100.4c14.3-1,27.7-4.7,39.8-10.7L277.9,230.9z"/>
	</g>
	<g>
		<path fill="#333433" d="M264.4,205.2c-8.3,3.9-17.5,6.4-27.2,7.1c-42.3,3-79.1-29-82.1-71.3c-3-42.3,29-79.1,71.3-82.1
			c18.4-1.3,35.7,4,49.7,13.9l1.8-2.3c-14.5-10.3-32.6-15.9-51.7-14.5c-43.9,3.1-77.1,41.3-74,85.2c3.1,43.9,41.3,77.1,85.2,74
			c10.1-0.7,19.7-3.3,28.4-7.4L264.4,205.2z"/>
	</g>
</g>
<g>
	<path fill="#333433" d="M278.7,116.8c-2.3,3.2-4.3,6.7-6.1,10.4c-1.8,3.7-3.4,7.5-4.7,11.4c-1.4,3.9-2.5,7.9-3.4,11.9
		c-0.9,4-1.6,8-2,11.9h-11.8c0.4-3.3,1-6.8,1.9-10.5c0.8-3.7,1.9-7.4,3.3-11.2c1.4-3.8,3.1-7.6,5-11.5c2-3.8,4.3-7.6,7-11.3h-23.2
		v-9.7h34V116.8z"/>
	<path fill="#333433" d="M282.2,125.5c0.3-3.5,1-6.7,2.1-9.4c1.1-2.7,2.9-4.9,5.2-6.6c2.3-1.6,5.5-2.5,9.6-2.5
		c3.4,0,6.2,0.5,8.4,1.4c2.2,1,4,2.5,5.3,4.6c1.3,2.1,2.3,4.9,2.8,8.3c0.5,3.4,0.8,7.6,0.8,12.4c0,3.8-0.1,7.5-0.4,11.1
		c-0.3,3.5-1,6.7-2.1,9.4c-1.1,2.7-2.9,4.9-5.2,6.4c-2.3,1.6-5.5,2.3-9.6,2.3c-3.3,0-6.1-0.4-8.3-1.3c-2.2-0.9-4-2.4-5.3-4.5
		c-1.3-2.1-2.3-4.9-2.8-8.3c-0.5-3.4-0.8-7.6-0.8-12.4C281.8,132.8,281.9,129.1,282.2,125.5z M293.3,147.6c0.2,2.2,0.5,4,1,5.2
		c0.5,1.3,1.1,2.1,1.9,2.6c0.8,0.5,1.8,0.7,3,0.7c1.2,0,2.3-0.3,3-0.9s1.4-1.6,1.8-3c0.4-1.4,0.8-3.3,0.9-5.7
		c0.2-2.4,0.3-5.4,0.3-8.9v-6c0-3.5-0.1-6.3-0.3-8.5c-0.2-2.2-0.5-4-1-5.2c-0.5-1.3-1.1-2.1-1.9-2.6c-0.8-0.5-1.8-0.7-3-0.7
		c-1.2,0-2.3,0.3-3,0.9c-0.8,0.6-1.4,1.6-1.8,3c-0.4,1.4-0.8,3.3-0.9,5.7c-0.2,2.4-0.3,5.4-0.3,8.9v6
		C293,142.5,293.1,145.4,293.3,147.6z"/>
	<path fill="#333433" d="M320.4,115.5c0.3-1.9,0.9-3.4,1.8-4.7c0.9-1.2,2.1-2.2,3.6-2.8c1.5-0.6,3.5-0.9,5.9-0.9
		c2.4,0,4.4,0.3,5.9,0.9c1.5,0.6,2.7,1.5,3.5,2.8s1.4,2.8,1.8,4.7c0.3,1.9,0.5,4.1,0.5,6.6s-0.2,4.7-0.5,6.6
		c-0.3,1.9-0.9,3.4-1.8,4.7s-2,2.2-3.5,2.8c-1.5,0.6-3.5,0.9-5.9,0.9c-2.4,0-4.4-0.3-5.9-0.9c-1.5-0.6-2.7-1.5-3.6-2.8
		c-0.9-1.2-1.4-2.8-1.8-4.7c-0.3-1.9-0.5-4.1-0.5-6.6S320.1,117.4,320.4,115.5z M328.8,128.7c0.4,1.5,1.3,2.3,2.9,2.3
		c1.6,0,2.5-0.8,2.9-2.3c0.4-1.5,0.5-3.9,0.5-7c0-2.8-0.2-5-0.5-6.4c-0.4-1.5-1.3-2.2-2.9-2.2c-1.6,0-2.5,0.7-2.9,2.2
		c-0.4,1.5-0.5,3.6-0.5,6.4C328.2,124.8,328.4,127.2,328.8,128.7z M367.4,105.8l-31.7,58.7h-6.9l31.7-58.7H367.4z M353.5,142
		c0.3-1.9,0.9-3.4,1.8-4.7c0.9-1.2,2.1-2.2,3.6-2.8c1.5-0.6,3.5-0.9,5.9-0.9c2.4,0,4.4,0.3,5.9,0.9c1.5,0.6,2.7,1.5,3.5,2.8
		c0.9,1.2,1.4,2.8,1.8,4.7c0.3,1.9,0.5,4.1,0.5,6.6c0,2.5-0.2,4.7-0.5,6.6c-0.3,1.8-0.9,3.4-1.8,4.6c-0.9,1.2-2,2.1-3.5,2.7
		c-1.5,0.5-3.5,0.8-5.9,0.8c-2.4,0-4.4-0.3-5.9-0.8c-1.5-0.5-2.7-1.4-3.6-2.7c-0.9-1.2-1.4-2.8-1.8-4.6c-0.3-1.8-0.5-4-0.5-6.6
		C353,146.1,353.2,143.9,353.5,142z M361.8,155.2c0.4,1.5,1.3,2.3,2.9,2.3c1.6,0,2.5-0.8,2.9-2.3c0.4-1.5,0.5-3.9,0.5-7
		c0-2.8-0.2-5-0.5-6.4c-0.4-1.5-1.3-2.2-2.9-2.2c-1.6,0-2.5,0.7-2.9,2.2c-0.4,1.5-0.5,3.6-0.5,6.4
		C361.3,151.4,361.5,153.7,361.8,155.2z"/>
</g>
<g>
	<g>
		<path fill="#DEDEDE" d="M699.8,39.2c-12.5-4.3-25.5-6.2-38.8-5.5c-13.3,0.7-26,3.9-38,9.5c-12.4,5.8-23.4,13.9-32.6,24.2
			c-7.9,8.7-14.1,18.6-18.5,29.3l17.7,8c3.6-8.8,8.7-17.1,15.3-24.3c14.8-16.4,35.1-26.1,57.2-27.2c22.1-1.1,43.3,6.4,59.7,21.2
			s26.1,35.1,27.2,57.2c1.1,22.1-6.4,43.3-21.2,59.7c-14.8,16.4-35.1,26.1-57.2,27.2c-22.1,1.1-43.3-6.4-59.7-21.2
			c-5.7-5.1-10.5-10.9-14.5-17.2l-16,11c4.9,7.6,10.7,14.4,17.5,20.6c10.2,9.2,22,16.2,34.9,20.7c12.5,4.3,25.5,6.2,38.8,5.5
			c13.3-0.7,26-3.9,38-9.5c12.4-5.8,23.4-13.9,32.6-24.2c9.2-10.2,16.2-22,20.7-34.9c4.3-12.5,6.2-25.5,5.5-38.8
			c-0.7-13.3-3.9-26-9.5-38c-5.8-12.4-13.9-23.4-24.2-32.6S712.7,43.6,699.8,39.2z"/>
	</g>
	<g>
		<path fill="#C21429" d="M607.1,194.2c-15.4-15.8-23.8-36.7-23.6-58.8c0.2-19.3,7-37.5,19.2-52.1l-15-12.4
			c-6.5,7.8-11.8,16.5-15.7,25.9c-5.1,12.2-7.8,25.1-7.9,38.4c-0.2,13.3,2.2,26.2,7,38.5c5,12.7,12.4,24.2,22.1,34.1
			c3.5,3.6,7.2,6.9,11.1,9.9l11.7-15.5C612.9,199.7,609.9,197,607.1,194.2z"/>
	</g>
	<g>
		<path fill="#333433" d="M589.2,141c-1.4-20.5,5.4-39.7,17.6-54.4l-2.2-1.8c-12.7,15.3-19.7,35.2-18.2,56.5
			c1.7,24,13.9,44.8,31.8,58.2l1.8-2.3C602.5,184.2,590.8,164.1,589.2,141z"/>
	</g>
	<g>
		<path fill="#333433" d="M560.8,143.6c-2-28.2,7.4-54.7,24.3-74.8l-2.2-1.8c-17.3,20.7-26.9,47.9-24.9,76.9
			c2.3,32.4,18.6,60.5,42.7,78.7l1.8-2.3C579,202.4,563,175.1,560.8,143.6z"/>
	</g>
</g>
<g>
	<path fill="#333433" d="M690.6,153.6c0.8,1.7,2.4,2.5,4.9,2.5c1.4,0,2.4-0.2,3.2-0.7c0.8-0.5,1.4-1.1,1.9-1.9
		c0.4-0.8,0.7-1.8,0.9-2.8c0.1-1.1,0.2-2.2,0.2-3.4c0-1.2-0.1-2.4-0.3-3.5c-0.2-1.1-0.5-2.1-1.1-3c-0.5-0.9-1.2-1.6-2.2-2.1
		c-0.9-0.5-2.2-0.8-3.7-0.8h-3.7v-7.3h3.7c1.2,0,2.2-0.2,3-0.7c0.8-0.5,1.5-1.1,2-2c0.5-0.8,0.9-1.7,1.1-2.8c0.2-1,0.4-2.1,0.4-3.3
		c0-2.7-0.4-4.5-1.3-5.6c-0.9-1.1-2.2-1.6-4.1-1.6c-1.2,0-2.2,0.2-2.9,0.7c-0.8,0.4-1.3,1.1-1.8,1.9c-0.4,0.8-0.7,1.8-0.8,2.8
		c-0.1,1.1-0.2,2.3-0.2,3.6h-10.3c0-5.5,1.4-9.6,4.1-12.3c2.8-2.7,6.8-4,12.1-4c5,0,9,1.1,11.7,3.4c2.8,2.3,4.2,5.9,4.2,10.8
		c0,3.3-0.7,6-2.2,8.2c-1.5,2.1-3.5,3.4-6.2,4v0.2c3.6,0.6,6.1,2,7.6,4.3c1.5,2.3,2.2,5.2,2.2,8.7c0,1.9-0.2,3.8-0.7,5.8
		c-0.5,2-1.4,3.8-2.7,5.4c-1.4,1.6-3.2,2.9-5.6,3.9c-2.4,1-5.5,1.5-9.3,1.5c-5.4,0-9.4-1.5-12-4.4c-2.7-2.9-4-7-4-12.4v-0.2h10.8
		C689.3,149.4,689.8,151.9,690.6,153.6z"/>
	<path fill="#333433" d="M733.8,107.1h11.6v35h5.3v8.7h-5.3v11.5h-10.3v-11.5h-19.7v-9.2L733.8,107.1z M735,121.2l-10.8,21h10.9v-21
		H735z"/>
	<path fill="#333433" d="M754.4,115.5c0.3-1.9,0.9-3.4,1.8-4.7c0.9-1.2,2.1-2.2,3.6-2.8c1.5-0.6,3.5-0.9,5.9-0.9
		c2.4,0,4.4,0.3,5.9,0.9c1.5,0.6,2.7,1.5,3.5,2.8s1.4,2.8,1.8,4.7c0.3,1.9,0.5,4.1,0.5,6.6s-0.2,4.7-0.5,6.6
		c-0.3,1.9-0.9,3.4-1.8,4.7s-2,2.2-3.5,2.8c-1.5,0.6-3.5,0.9-5.9,0.9c-2.4,0-4.4-0.3-5.9-0.9c-1.5-0.6-2.7-1.5-3.6-2.8
		c-0.9-1.2-1.4-2.8-1.8-4.7c-0.3-1.9-0.5-4.1-0.5-6.6S754.1,117.4,754.4,115.5z M762.8,128.7c0.4,1.5,1.3,2.3,2.9,2.3
		c1.6,0,2.5-0.8,2.9-2.3c0.4-1.5,0.5-3.9,0.5-7c0-2.8-0.2-5-0.5-6.4c-0.4-1.5-1.3-2.2-2.9-2.2c-1.6,0-2.5,0.7-2.9,2.2
		c-0.4,1.5-0.5,3.6-0.5,6.4C762.2,124.8,762.4,127.2,762.8,128.7z M801.4,105.8l-31.7,58.7h-6.9l31.7-58.7H801.4z M787.5,142
		c0.3-1.9,0.9-3.4,1.8-4.7c0.9-1.2,2.1-2.2,3.6-2.8c1.5-0.6,3.5-0.9,5.9-0.9c2.4,0,4.4,0.3,5.9,0.9c1.5,0.6,2.7,1.5,3.5,2.8
		c0.9,1.2,1.4,2.8,1.8,4.7c0.3,1.9,0.5,4.1,0.5,6.6c0,2.5-0.2,4.7-0.5,6.6c-0.3,1.8-0.9,3.4-1.8,4.6c-0.9,1.2-2,2.1-3.5,2.7
		c-1.5,0.5-3.5,0.8-5.9,0.8c-2.4,0-4.4-0.3-5.9-0.8c-1.5-0.5-2.7-1.4-3.6-2.7c-0.9-1.2-1.4-2.8-1.8-4.6c-0.3-1.8-0.5-4-0.5-6.6
		C787,146.1,787.2,143.9,787.5,142z M795.8,155.2c0.4,1.5,1.3,2.3,2.9,2.3c1.6,0,2.5-0.8,2.9-2.3c0.4-1.5,0.5-3.9,0.5-7
		c0-2.8-0.2-5-0.5-6.4c-0.4-1.5-1.3-2.2-2.9-2.2c-1.6,0-2.5,0.7-2.9,2.2c-0.4,1.5-0.5,3.6-0.5,6.4
		C795.3,151.4,795.5,153.7,795.8,155.2z"/>
</g>
<g>
	<path d="M125,281.6c0.2-1.6,0.5-2.9,1.1-4s1.4-2,2.5-2.6c1.1-0.6,2.6-0.9,4.4-0.9s3.3,0.3,4.4,0.9c1.1,0.6,1.9,1.5,2.5,2.6
		s1,2.4,1.1,4s0.3,3.2,0.3,5.1c0,1.9-0.1,3.6-0.3,5.1c-0.2,1.5-0.5,2.9-1.1,4s-1.4,2-2.5,2.5c-1.1,0.6-2.5,0.9-4.4,0.9
		s-3.3-0.3-4.4-0.9c-1.1-0.6-1.9-1.4-2.5-2.5s-1-2.4-1.1-4c-0.2-1.5-0.3-3.2-0.3-5.1C124.7,284.9,124.8,283.2,125,281.6z
		 M129.7,290.9c0.1,1.1,0.2,2.1,0.5,2.8c0.2,0.7,0.6,1.2,1,1.6c0.4,0.3,1,0.5,1.8,0.5c0.7,0,1.3-0.2,1.8-0.5c0.4-0.3,0.8-0.8,1-1.6
		c0.2-0.7,0.4-1.6,0.5-2.8c0.1-1.1,0.1-2.5,0.1-4.2s0-3-0.1-4.1c-0.1-1.1-0.2-2.1-0.5-2.8c-0.2-0.7-0.6-1.3-1-1.6
		c-0.4-0.3-1-0.5-1.8-0.5c-0.7,0-1.3,0.2-1.8,0.5c-0.4,0.3-0.8,0.9-1,1.6c-0.2,0.7-0.4,1.7-0.5,2.8c-0.1,1.1-0.1,2.5-0.1,4.1
		S129.6,289.7,129.7,290.9z"/>
	<path d="M157.7,274.6v4H149v5.7h8.2v4H149v10.5h-4.9v-24.3H157.7z"/>
	<path d="M175.4,274.6l3.5,17.1h0.1l3.5-17.1h7.2v24.3h-4.5v-19.4h-0.1l-4.3,19.4H177l-4.3-19.4h-0.1v19.4h-4.5v-24.3H175.4z"/>
	<path d="M204,274.6l6.4,24.3h-5.1l-1.1-5.1h-6.5l-1.1,5.1h-5.1l6.4-24.3H204z M203.3,289.7l-2.3-10.9h-0.1l-2.3,10.9H203.3z"/>
	<path d="M221.1,274.6c2,0,3.6,0.5,4.8,1.5c1.1,1,1.7,2.6,1.7,4.7c0,1.6-0.3,3-1,4c-0.7,1-1.7,1.7-3.1,2v0.1
		c1.2,0.2,2.1,0.6,2.7,1.2c0.6,0.6,0.9,1.6,1.1,3c0,0.5,0.1,0.9,0.1,1.5c0,0.5,0,1.1,0.1,1.8c0,1.3,0.1,2.3,0.2,3
		c0.1,0.7,0.4,1.1,0.9,1.4v0.2h-5.3c-0.2-0.3-0.4-0.7-0.5-1.2c-0.1-0.4-0.1-0.9-0.1-1.4l-0.1-4.7c0-1-0.3-1.7-0.7-2.2
		c-0.4-0.5-1.2-0.8-2.2-0.8H217v10.3h-4.9v-24.3H221.1z M219,285.2c1.2,0,2.1-0.3,2.7-0.8c0.6-0.6,1-1.5,1-2.8
		c0-2.2-1.1-3.4-3.4-3.4H217v7H219z"/>
	<path d="M235.9,284.3L235.9,284.3l6.3-9.7h5.3l-6.6,10.4l7.3,13.9h-5.5l-5-10l-1.8,2.8v7.2H231v-24.3h4.9V284.3z"/>
	<path d="M262.8,278.6h-8.7v5.7h8.2v4h-8.2v6.5h9v4h-13.9v-24.3h13.6V278.6z"/>
	<path d="M279.8,278.6h-5.3v20.3h-4.9v-20.3h-5.3v-4h15.5V278.6z"/>
	<path d="M295.5,278.6h-8.7v5.7h8.2v4h-8.2v6.5h9v4h-13.9v-24.3h13.6V278.6z"/>
	<path d="M307.3,274.6c2,0,3.6,0.5,4.8,1.5c1.1,1,1.7,2.6,1.7,4.7c0,1.6-0.3,3-1,4c-0.7,1-1.7,1.7-3.1,2v0.1
		c1.2,0.2,2.1,0.6,2.7,1.2c0.6,0.6,0.9,1.6,1.1,3c0,0.5,0.1,0.9,0.1,1.5c0,0.5,0,1.1,0.1,1.8c0,1.3,0.1,2.3,0.2,3
		c0.1,0.7,0.4,1.1,0.9,1.4v0.2h-5.3c-0.2-0.3-0.4-0.7-0.5-1.2c-0.1-0.4-0.1-0.9-0.1-1.4l-0.1-4.7c0-1-0.3-1.7-0.7-2.2
		s-1.2-0.8-2.2-0.8h-2.6v10.3h-4.9v-24.3H307.3z M305.2,285.2c1.2,0,2.1-0.3,2.7-0.8s1-1.5,1-2.8c0-2.2-1.1-3.4-3.4-3.4h-2.3v7
		H305.2z"/>
	<path d="M321.1,292c0,0.6,0,1.1,0.1,1.5c0.1,0.5,0.3,0.9,0.5,1.2c0.2,0.3,0.6,0.6,1,0.7c0.4,0.2,0.9,0.3,1.6,0.3
		c0.7,0,1.4-0.2,2-0.7c0.6-0.5,0.9-1.2,0.9-2.3c0-0.5-0.1-1-0.2-1.4c-0.1-0.4-0.4-0.8-0.7-1.1s-0.8-0.6-1.3-0.9
		c-0.6-0.3-1.2-0.5-2.1-0.8c-1.1-0.4-2-0.8-2.8-1.2c-0.8-0.4-1.5-0.9-2-1.5c-0.5-0.6-0.9-1.2-1.2-2c-0.2-0.8-0.4-1.6-0.4-2.6
		c0-2.4,0.7-4.2,2-5.4c1.3-1.2,3.2-1.8,5.5-1.8c1.1,0,2.1,0.1,3,0.4c0.9,0.2,1.7,0.6,2.4,1.2c0.7,0.5,1.2,1.2,1.6,2
		c0.4,0.8,0.6,1.8,0.6,3v0.7h-4.7c0-1.2-0.2-2-0.6-2.7c-0.4-0.6-1.1-0.9-2-0.9c-0.5,0-1,0.1-1.4,0.2c-0.4,0.2-0.7,0.4-0.9,0.6
		c-0.2,0.3-0.4,0.6-0.4,0.9s-0.1,0.7-0.1,1.1c0,0.7,0.2,1.4,0.5,1.9c0.3,0.5,1,1,2,1.4l3.8,1.6c0.9,0.4,1.7,0.8,2.3,1.3
		c0.6,0.4,1.1,0.9,1.4,1.4c0.4,0.5,0.6,1.1,0.7,1.7c0.1,0.6,0.2,1.3,0.2,2c0,2.6-0.7,4.4-2.2,5.6c-1.5,1.2-3.6,1.8-6.2,1.8
		c-2.8,0-4.7-0.6-5.9-1.8c-1.2-1.2-1.8-2.9-1.8-5.2v-1h4.9V292z"/>
</g>
<g>
	<path fill="#C21429" d="M87.9,309.6v9.3h5.7v-9.3h4.9v24.3h-4.9v-10.8h-5.7v10.8H83v-24.3H87.9z"/>
	<path fill="#C21429" d="M112.6,309.6l6.4,24.3H114l-1.1-5.1h-6.5l-1.1,5.1h-5.1l6.4-24.3H112.6z M112,324.7l-2.3-10.9h-0.1
		l-2.3,10.9H112z"/>
	<path fill="#C21429" d="M127.2,327.5h0.1l3.6-18h5.1l-5.6,24.3h-6.3l-5.6-24.3h5.2L127.2,327.5z"/>
	<path fill="#C21429" d="M151.3,313.6h-8.7v5.7h8.2v4h-8.2v6.5h9v4h-13.9v-24.3h13.6V313.6z"/>
	<path fill="#C21429" d="M166.8,326.5c0,0.6,0,1.2,0.1,1.7c0.1,0.5,0.2,1,0.4,1.3c0.2,0.4,0.5,0.7,0.9,0.9c0.4,0.2,0.8,0.3,1.4,0.3
		c0.6,0,1.1-0.1,1.4-0.3c0.4-0.2,0.7-0.5,0.9-0.9c0.2-0.4,0.4-0.8,0.4-1.3c0.1-0.5,0.1-1.1,0.1-1.7v-16.9h4.9v16.9
		c0,1.5-0.2,2.8-0.6,3.8c-0.4,1-1,1.8-1.7,2.4c-0.7,0.6-1.6,1-2.5,1.2c-0.9,0.2-1.9,0.3-2.9,0.3c-1,0-2-0.1-2.9-0.3
		c-0.9-0.2-1.8-0.5-2.5-1.1c-0.7-0.6-1.3-1.3-1.7-2.4c-0.4-1-0.6-2.3-0.6-4v-16.9h4.9V326.5z"/>
	<path fill="#C21429" d="M184.5,327c0,0.6,0,1.1,0.1,1.5c0.1,0.5,0.3,0.9,0.5,1.2c0.2,0.3,0.6,0.6,1,0.7c0.4,0.2,0.9,0.3,1.6,0.3
		c0.7,0,1.4-0.2,2-0.7c0.6-0.5,0.9-1.2,0.9-2.3c0-0.5-0.1-1-0.2-1.4c-0.1-0.4-0.4-0.8-0.7-1.1c-0.3-0.3-0.8-0.6-1.3-0.9
		c-0.6-0.3-1.2-0.5-2.1-0.8c-1.1-0.4-2-0.8-2.8-1.2c-0.8-0.4-1.5-0.9-2-1.5s-0.9-1.2-1.2-2c-0.2-0.8-0.4-1.6-0.4-2.6
		c0-2.4,0.7-4.2,2-5.4c1.3-1.2,3.2-1.8,5.5-1.8c1.1,0,2.1,0.1,3,0.4c0.9,0.2,1.7,0.6,2.4,1.2c0.7,0.5,1.2,1.2,1.6,2
		c0.4,0.8,0.6,1.8,0.6,3v0.7h-4.7c0-1.2-0.2-2-0.6-2.7c-0.4-0.6-1.1-0.9-2-0.9c-0.5,0-1,0.1-1.4,0.2c-0.4,0.2-0.7,0.4-0.9,0.6
		c-0.2,0.3-0.4,0.6-0.4,0.9c-0.1,0.3-0.1,0.7-0.1,1.1c0,0.7,0.2,1.4,0.5,1.9c0.3,0.5,1,1,2,1.4l3.8,1.6c0.9,0.4,1.7,0.8,2.3,1.3
		s1.1,0.9,1.4,1.4c0.4,0.5,0.6,1.1,0.7,1.7c0.1,0.6,0.2,1.3,0.2,2c0,2.6-0.7,4.4-2.2,5.6c-1.5,1.2-3.6,1.8-6.2,1.8
		c-2.8,0-4.7-0.6-5.9-1.8c-1.2-1.2-1.8-2.9-1.8-5.2v-1h4.9V327z"/>
	<path fill="#C21429" d="M211.7,313.6h-8.7v5.7h8.2v4h-8.2v6.5h9v4h-13.9v-24.3h13.6V313.6z"/>
	<path fill="#C21429" d="M222.8,309.6c1.7,0,3.1,0.3,4.1,0.8c1,0.6,1.9,1.3,2.4,2.4c0.6,1,1,2.3,1.2,3.7c0.2,1.5,0.3,3.1,0.3,4.9
		c0,2.1-0.1,4-0.4,5.6s-0.7,2.9-1.3,3.9c-0.6,1-1.5,1.8-2.5,2.3c-1.1,0.5-2.4,0.7-4,0.7h-7.7v-24.3H222.8z M221.8,330.3
		c0.9,0,1.6-0.1,2.1-0.4c0.5-0.3,0.9-0.8,1.2-1.5c0.3-0.7,0.5-1.6,0.6-2.7c0.1-1.1,0.2-2.5,0.2-4.1c0-1.4,0-2.6-0.1-3.6
		c-0.1-1-0.3-1.9-0.6-2.6s-0.7-1.2-1.3-1.6c-0.6-0.4-1.3-0.5-2.2-0.5h-2.1v17.1H221.8z"/>
	<path fill="#C21429" d="M255.8,309.6v4h-8.7v5.7h8.2v4h-8.2v10.5h-4.9v-24.3H255.8z"/>
	<path fill="#C21429" d="M266.9,309.6l6.4,24.3h-5.1l-1.1-5.1h-6.5l-1.1,5.1h-5.1l6.4-24.3H266.9z M266.2,324.7l-2.3-10.9h-0.1
		l-2.3,10.9H266.2z"/>
	<path fill="#C21429" d="M284.8,313.9c-0.4-0.8-1.2-1.2-2.3-1.2c-0.6,0-1.1,0.2-1.5,0.5c-0.4,0.3-0.7,0.9-0.9,1.6s-0.4,1.7-0.5,2.9
		c-0.1,1.2-0.1,2.6-0.1,4.4c0,1.8,0.1,3.3,0.2,4.5c0.1,1.1,0.3,2,0.6,2.6c0.3,0.6,0.6,1,1,1.3c0.4,0.2,0.9,0.3,1.4,0.3
		c0.4,0,0.8-0.1,1.2-0.2s0.7-0.4,1-0.9c0.3-0.4,0.5-1.1,0.6-1.9c0.2-0.8,0.2-1.9,0.2-3.2h4.9c0,1.3-0.1,2.6-0.3,3.7
		s-0.6,2.2-1.1,3.1c-0.6,0.9-1.3,1.6-2.3,2.1s-2.3,0.7-3.9,0.7c-1.8,0-3.3-0.3-4.4-0.9c-1.1-0.6-1.9-1.4-2.5-2.5s-1-2.4-1.1-4
		c-0.2-1.5-0.3-3.2-0.3-5.1c0-1.8,0.1-3.5,0.3-5.1s0.5-2.9,1.1-4s1.4-2,2.5-2.6c1.1-0.6,2.5-0.9,4.4-0.9c1.7,0,3.1,0.3,4.1,0.8
		c1,0.6,1.8,1.3,2.3,2.2c0.5,0.9,0.8,1.8,0.9,2.8c0.1,1,0.2,2,0.2,2.8h-4.9C285.4,316,285.2,314.7,284.8,313.9z"/>
	<path fill="#C21429" d="M306.8,313.6h-8.7v5.7h8.2v4h-8.2v6.5h9v4h-13.9v-24.3h13.6V313.6z"/>
	<path fill="#C21429" d="M317.8,309.6c1,0,1.9,0.1,2.8,0.3c0.9,0.2,1.6,0.5,2.2,1c0.6,0.5,1.1,1.1,1.4,1.9c0.3,0.8,0.5,1.8,0.5,2.9
		c0,1.3-0.3,2.4-0.9,3.4c-0.6,0.9-1.5,1.6-2.8,1.9v0.1c1.4,0.2,2.4,0.8,3.2,1.7c0.8,1,1.2,2.3,1.2,3.9c0,1-0.1,1.9-0.4,2.7
		s-0.7,1.6-1.3,2.3c-0.6,0.6-1.4,1.2-2.3,1.5c-1,0.4-2.2,0.6-3.6,0.6h-8.3v-24.3H317.8z M315.9,319.5c1.4,0,2.4-0.2,3-0.7
		c0.6-0.5,0.9-1.3,0.9-2.5s-0.3-2-0.9-2.4s-1.5-0.7-2.7-0.7h-1.8v6.4H315.9z M316.4,330.3c1.2,0,2.1-0.3,2.9-0.8
		c0.7-0.5,1.1-1.5,1.1-2.9c0-0.7-0.1-1.3-0.3-1.8c-0.2-0.5-0.5-0.8-0.8-1.1c-0.3-0.3-0.7-0.5-1.2-0.6c-0.5-0.1-1-0.2-1.5-0.2h-2.1
		v7.3H316.4z"/>
	<path fill="#C21429" d="M328.3,316.6c0.2-1.6,0.5-2.9,1.1-4s1.4-2,2.5-2.6c1.1-0.6,2.6-0.9,4.4-0.9s3.3,0.3,4.4,0.9
		c1.1,0.6,1.9,1.5,2.5,2.6s1,2.4,1.1,4s0.3,3.2,0.3,5.1c0,1.9-0.1,3.6-0.3,5.1c-0.2,1.5-0.5,2.9-1.1,4s-1.4,2-2.5,2.5
		c-1.1,0.6-2.5,0.9-4.4,0.9s-3.3-0.3-4.4-0.9c-1.1-0.6-1.9-1.4-2.5-2.5s-1-2.4-1.1-4c-0.2-1.5-0.3-3.2-0.3-5.1
		C328,319.9,328.1,318.2,328.3,316.6z M333,325.9c0.1,1.1,0.2,2.1,0.5,2.8c0.2,0.7,0.6,1.2,1,1.6c0.4,0.3,1,0.5,1.8,0.5
		c0.7,0,1.3-0.2,1.8-0.5c0.4-0.3,0.8-0.8,1-1.6c0.2-0.7,0.4-1.6,0.5-2.8c0.1-1.1,0.1-2.5,0.1-4.2s0-3-0.1-4.1
		c-0.1-1.1-0.2-2.1-0.5-2.8c-0.2-0.7-0.6-1.3-1-1.6c-0.4-0.3-1-0.5-1.8-0.5c-0.7,0-1.3,0.2-1.8,0.5c-0.4,0.3-0.8,0.9-1,1.6
		c-0.2,0.7-0.4,1.7-0.5,2.8c-0.1,1.1-0.1,2.5-0.1,4.1S333,324.7,333,325.9z"/>
	<path fill="#C21429" d="M347.2,316.6c0.2-1.6,0.5-2.9,1.1-4s1.4-2,2.5-2.6c1.1-0.6,2.6-0.9,4.4-0.9s3.3,0.3,4.4,0.9
		c1.1,0.6,1.9,1.5,2.5,2.6s1,2.4,1.1,4s0.3,3.2,0.3,5.1c0,1.9-0.1,3.6-0.3,5.1c-0.2,1.5-0.5,2.9-1.1,4s-1.4,2-2.5,2.5
		c-1.1,0.6-2.5,0.9-4.4,0.9s-3.3-0.3-4.4-0.9c-1.1-0.6-1.9-1.4-2.5-2.5s-1-2.4-1.1-4c-0.2-1.5-0.3-3.2-0.3-5.1
		C346.9,319.9,347,318.2,347.2,316.6z M351.9,325.9c0.1,1.1,0.2,2.1,0.5,2.8c0.2,0.7,0.6,1.2,1,1.6c0.4,0.3,1,0.5,1.8,0.5
		c0.7,0,1.3-0.2,1.8-0.5c0.4-0.3,0.8-0.8,1-1.6c0.2-0.7,0.4-1.6,0.5-2.8c0.1-1.1,0.1-2.5,0.1-4.2s0-3-0.1-4.1
		c-0.1-1.1-0.2-2.1-0.5-2.8c-0.2-0.7-0.6-1.3-1-1.6c-0.4-0.3-1-0.5-1.8-0.5c-0.7,0-1.3,0.2-1.8,0.5c-0.4,0.3-0.8,0.9-1,1.6
		c-0.2,0.7-0.4,1.7-0.5,2.8c-0.1,1.1-0.1,2.5-0.1,4.1S351.9,324.7,351.9,325.9z"/>
	<path fill="#C21429" d="M371.2,319.3L371.2,319.3l6.3-9.7h5.3l-6.6,10.4l7.3,13.9H378l-5-10l-1.8,2.8v7.2h-4.9v-24.3h4.9V319.3z"/>
</g>
<g>
	<path d="M123.9,348.6h-5.3v20.3h-4.9v-20.3h-5.3v-4h15.5V348.6z"/>
	<path d="M125.8,351.6c0.2-1.6,0.5-2.9,1.1-4s1.4-2,2.5-2.6c1.1-0.6,2.6-0.9,4.4-0.9s3.3,0.3,4.4,0.9c1.1,0.6,1.9,1.5,2.5,2.6
		s1,2.4,1.1,4s0.3,3.2,0.3,5.1c0,1.9-0.1,3.6-0.3,5.1c-0.2,1.5-0.5,2.9-1.1,4s-1.4,2-2.5,2.5c-1.1,0.6-2.5,0.9-4.4,0.9
		s-3.3-0.3-4.4-0.9c-1.1-0.6-1.9-1.4-2.5-2.5s-1-2.4-1.1-4c-0.2-1.5-0.3-3.2-0.3-5.1C125.5,354.9,125.6,353.2,125.8,351.6z
		 M130.5,360.9c0.1,1.1,0.2,2.1,0.5,2.8c0.2,0.7,0.6,1.2,1,1.6c0.4,0.3,1,0.5,1.8,0.5c0.7,0,1.3-0.2,1.8-0.5c0.4-0.3,0.8-0.8,1-1.6
		c0.2-0.7,0.4-1.6,0.5-2.8c0.1-1.1,0.1-2.5,0.1-4.2s0-3-0.1-4.1c-0.1-1.1-0.2-2.1-0.5-2.8c-0.2-0.7-0.6-1.3-1-1.6
		c-0.4-0.3-1-0.5-1.8-0.5c-0.7,0-1.3,0.2-1.8,0.5c-0.4,0.3-0.8,0.9-1,1.6c-0.2,0.7-0.4,1.7-0.5,2.8c-0.1,1.1-0.1,2.5-0.1,4.1
		S130.4,359.7,130.5,360.9z"/>
	<path d="M157,362c0,0.6,0,1.1,0.1,1.5c0.1,0.5,0.3,0.9,0.5,1.2c0.2,0.3,0.6,0.6,1,0.7c0.4,0.2,0.9,0.3,1.6,0.3c0.7,0,1.4-0.2,2-0.7
		c0.6-0.5,0.9-1.2,0.9-2.3c0-0.5-0.1-1-0.2-1.4c-0.1-0.4-0.4-0.8-0.7-1.1c-0.3-0.3-0.8-0.6-1.3-0.9c-0.6-0.3-1.2-0.5-2.1-0.8
		c-1.1-0.4-2-0.8-2.8-1.2c-0.8-0.4-1.5-0.9-2-1.5s-0.9-1.2-1.2-2c-0.2-0.8-0.4-1.6-0.4-2.6c0-2.4,0.7-4.2,2-5.4
		c1.3-1.2,3.2-1.8,5.5-1.8c1.1,0,2.1,0.1,3,0.4c0.9,0.2,1.7,0.6,2.4,1.2c0.7,0.5,1.2,1.2,1.6,2c0.4,0.8,0.6,1.8,0.6,3v0.7h-4.7
		c0-1.2-0.2-2-0.6-2.7c-0.4-0.6-1.1-0.9-2-0.9c-0.5,0-1,0.1-1.4,0.2c-0.4,0.2-0.7,0.4-0.9,0.6c-0.2,0.3-0.4,0.6-0.4,0.9
		c-0.1,0.3-0.1,0.7-0.1,1.1c0,0.7,0.2,1.4,0.5,1.9c0.3,0.5,1,1,2,1.4l3.8,1.6c0.9,0.4,1.7,0.8,2.3,1.3s1.1,0.9,1.4,1.4
		c0.4,0.5,0.6,1.1,0.7,1.7c0.1,0.6,0.2,1.3,0.2,2c0,2.6-0.7,4.4-2.2,5.6c-1.5,1.2-3.6,1.8-6.2,1.8c-2.8,0-4.7-0.6-5.9-1.8
		c-1.2-1.2-1.8-2.9-1.8-5.2v-1h4.9V362z"/>
	<path d="M175.3,361.5c0,0.6,0,1.2,0.1,1.7c0.1,0.5,0.2,1,0.4,1.3c0.2,0.4,0.5,0.7,0.9,0.9c0.4,0.2,0.8,0.3,1.4,0.3
		c0.6,0,1.1-0.1,1.4-0.3c0.4-0.2,0.7-0.5,0.9-0.9c0.2-0.4,0.4-0.8,0.4-1.3c0.1-0.5,0.1-1.1,0.1-1.7v-16.9h4.9v16.9
		c0,1.5-0.2,2.8-0.6,3.8c-0.4,1-1,1.8-1.7,2.4c-0.7,0.6-1.6,1-2.5,1.2c-0.9,0.2-1.9,0.3-2.9,0.3c-1,0-2-0.1-2.9-0.3
		c-0.9-0.2-1.8-0.5-2.5-1.1c-0.7-0.6-1.3-1.3-1.7-2.4c-0.4-1-0.6-2.3-0.6-4v-16.9h4.9V361.5z"/>
	<path d="M198.8,348.9c-0.4-0.8-1.2-1.2-2.3-1.2c-0.6,0-1.1,0.2-1.5,0.5c-0.4,0.3-0.7,0.9-0.9,1.6c-0.2,0.7-0.4,1.7-0.5,2.9
		c-0.1,1.2-0.1,2.6-0.1,4.4c0,1.8,0.1,3.3,0.2,4.5c0.1,1.1,0.3,2,0.6,2.6c0.3,0.6,0.6,1,1,1.3c0.4,0.2,0.9,0.3,1.4,0.3
		c0.4,0,0.8-0.1,1.2-0.2s0.7-0.4,1-0.9c0.3-0.4,0.5-1.1,0.6-1.9c0.2-0.8,0.2-1.9,0.2-3.2h4.9c0,1.3-0.1,2.6-0.3,3.7
		c-0.2,1.2-0.6,2.2-1.1,3.1c-0.6,0.9-1.3,1.6-2.3,2.1c-1,0.5-2.3,0.7-3.9,0.7c-1.8,0-3.3-0.3-4.4-0.9c-1.1-0.6-1.9-1.4-2.5-2.5
		s-1-2.4-1.1-4c-0.2-1.5-0.3-3.2-0.3-5.1c0-1.8,0.1-3.5,0.3-5.1c0.2-1.6,0.5-2.9,1.1-4s1.4-2,2.5-2.6c1.1-0.6,2.6-0.9,4.4-0.9
		c1.7,0,3.1,0.3,4.1,0.8c1,0.6,1.8,1.3,2.3,2.2c0.5,0.9,0.8,1.8,0.9,2.8s0.2,2,0.2,2.8h-4.9C199.4,351,199.2,349.7,198.8,348.9z"/>
	<path d="M217,348.9c-0.4-0.8-1.2-1.2-2.3-1.2c-0.6,0-1.1,0.2-1.5,0.5c-0.4,0.3-0.7,0.9-0.9,1.6c-0.2,0.7-0.4,1.7-0.5,2.9
		c-0.1,1.2-0.1,2.6-0.1,4.4c0,1.8,0.1,3.3,0.2,4.5c0.1,1.1,0.3,2,0.6,2.6c0.3,0.6,0.6,1,1,1.3c0.4,0.2,0.9,0.3,1.4,0.3
		c0.4,0,0.8-0.1,1.2-0.2s0.7-0.4,1-0.9c0.3-0.4,0.5-1.1,0.6-1.9c0.2-0.8,0.2-1.9,0.2-3.2h4.9c0,1.3-0.1,2.6-0.3,3.7
		c-0.2,1.2-0.6,2.2-1.1,3.1c-0.6,0.9-1.3,1.6-2.3,2.1c-1,0.5-2.3,0.7-3.9,0.7c-1.8,0-3.3-0.3-4.4-0.9c-1.1-0.6-1.9-1.4-2.5-2.5
		s-1-2.4-1.1-4c-0.2-1.5-0.3-3.2-0.3-5.1c0-1.8,0.1-3.5,0.3-5.1c0.2-1.6,0.5-2.9,1.1-4s1.4-2,2.5-2.6c1.1-0.6,2.6-0.9,4.4-0.9
		c1.7,0,3.1,0.3,4.1,0.8c1,0.6,1.8,1.3,2.3,2.2c0.5,0.9,0.8,1.8,0.9,2.8c0.1,1,0.2,2,0.2,2.8h-4.9C217.6,351,217.4,349.7,217,348.9z
		"/>
	<path d="M239.1,348.6h-8.7v5.7h8.2v4h-8.2v6.5h9v4h-13.9v-24.3h13.6V348.6z"/>
	<path d="M245.8,362c0,0.6,0,1.1,0.1,1.5c0.1,0.5,0.3,0.9,0.5,1.2c0.2,0.3,0.6,0.6,1,0.7c0.4,0.2,0.9,0.3,1.6,0.3
		c0.7,0,1.4-0.2,2-0.7c0.6-0.5,0.9-1.2,0.9-2.3c0-0.5-0.1-1-0.2-1.4c-0.1-0.4-0.4-0.8-0.7-1.1s-0.8-0.6-1.3-0.9
		c-0.6-0.3-1.2-0.5-2.1-0.8c-1.1-0.4-2-0.8-2.8-1.2c-0.8-0.4-1.5-0.9-2-1.5c-0.5-0.6-0.9-1.2-1.2-2c-0.2-0.8-0.4-1.6-0.4-2.6
		c0-2.4,0.7-4.2,2-5.4c1.3-1.2,3.2-1.8,5.5-1.8c1.1,0,2.1,0.1,3,0.4c0.9,0.2,1.7,0.6,2.4,1.2c0.7,0.5,1.2,1.2,1.6,2
		c0.4,0.8,0.6,1.8,0.6,3v0.7h-4.7c0-1.2-0.2-2-0.6-2.7c-0.4-0.6-1.1-0.9-2-0.9c-0.5,0-1,0.1-1.4,0.2c-0.4,0.2-0.7,0.4-0.9,0.6
		c-0.2,0.3-0.4,0.6-0.4,0.9s-0.1,0.7-0.1,1.1c0,0.7,0.2,1.4,0.5,1.9c0.3,0.5,1,1,2,1.4l3.8,1.6c0.9,0.4,1.7,0.8,2.3,1.3
		c0.6,0.4,1.1,0.9,1.4,1.4c0.4,0.5,0.6,1.1,0.7,1.7c0.1,0.6,0.2,1.3,0.2,2c0,2.6-0.7,4.4-2.2,5.6c-1.5,1.2-3.6,1.8-6.2,1.8
		c-2.8,0-4.7-0.6-5.9-1.8c-1.2-1.2-1.8-2.9-1.8-5.2v-1h4.9V362z"/>
	<path d="M263.5,362c0,0.6,0,1.1,0.1,1.5c0.1,0.5,0.3,0.9,0.5,1.2c0.2,0.3,0.6,0.6,1,0.7c0.4,0.2,0.9,0.3,1.6,0.3
		c0.7,0,1.4-0.2,2-0.7c0.6-0.5,0.9-1.2,0.9-2.3c0-0.5-0.1-1-0.2-1.4c-0.1-0.4-0.4-0.8-0.7-1.1s-0.8-0.6-1.3-0.9
		c-0.6-0.3-1.2-0.5-2.1-0.8c-1.1-0.4-2-0.8-2.8-1.2c-0.8-0.4-1.5-0.9-2-1.5c-0.5-0.6-0.9-1.2-1.2-2c-0.2-0.8-0.4-1.6-0.4-2.6
		c0-2.4,0.7-4.2,2-5.4c1.3-1.2,3.2-1.8,5.5-1.8c1.1,0,2.1,0.1,3,0.4c0.9,0.2,1.7,0.6,2.4,1.2c0.7,0.5,1.2,1.2,1.6,2
		c0.4,0.8,0.6,1.8,0.6,3v0.7h-4.7c0-1.2-0.2-2-0.6-2.7c-0.4-0.6-1.1-0.9-2-0.9c-0.5,0-1,0.1-1.4,0.2c-0.4,0.2-0.7,0.4-0.9,0.6
		c-0.2,0.3-0.4,0.6-0.4,0.9s-0.1,0.7-0.1,1.1c0,0.7,0.2,1.4,0.5,1.9c0.3,0.5,1,1,2,1.4l3.8,1.6c0.9,0.4,1.7,0.8,2.3,1.3
		c0.6,0.4,1.1,0.9,1.4,1.4c0.4,0.5,0.6,1.1,0.7,1.7c0.1,0.6,0.2,1.3,0.2,2c0,2.6-0.7,4.4-2.2,5.6c-1.5,1.2-3.6,1.8-6.2,1.8
		c-2.8,0-4.7-0.6-5.9-1.8c-1.2-1.2-1.8-2.9-1.8-5.2v-1h4.9V362z"/>
	<path d="M290.7,344.6v4h-8.7v5.7h8.2v4h-8.2v10.5h-4.9v-24.3H290.7z"/>
	<path d="M297.5,361.5c0,0.6,0,1.2,0.1,1.7c0.1,0.5,0.2,1,0.4,1.3c0.2,0.4,0.5,0.7,0.9,0.9c0.4,0.2,0.8,0.3,1.4,0.3
		c0.6,0,1.1-0.1,1.4-0.3c0.4-0.2,0.7-0.5,0.9-0.9c0.2-0.4,0.4-0.8,0.4-1.3s0.1-1.1,0.1-1.7v-16.9h4.9v16.9c0,1.5-0.2,2.8-0.6,3.8
		s-1,1.8-1.7,2.4c-0.7,0.6-1.6,1-2.5,1.2s-1.9,0.3-2.9,0.3c-1,0-2-0.1-2.9-0.3c-0.9-0.2-1.8-0.5-2.5-1.1c-0.7-0.6-1.3-1.3-1.7-2.4
		c-0.4-1-0.6-2.3-0.6-4v-16.9h4.9V361.5z"/>
	<path d="M311.2,344.6h4.9v20.3h8.7v4h-13.6V344.6z"/>
	<path d="M327,344.6h4.9v20.3h8.7v4H327V344.6z"/>
	<path d="M346.7,354L346.7,354l3.5-9.4h5.3l-6.3,14.7v9.6h-4.9v-9.6l-6.3-14.7h5.5L346.7,354z"/>
</g>
<g>
	<path d="M88.9,385.4c-0.1-0.5-0.3-0.9-0.5-1.3c-0.2-0.4-0.5-0.7-0.9-1c-0.4-0.3-0.8-0.4-1.3-0.4c-1.2,0-2,0.7-2.5,2
		c-0.5,1.3-0.8,3.5-0.8,6.5c0,1.5,0,2.8,0.1,3.9c0.1,1.2,0.3,2.2,0.5,3c0.2,0.8,0.6,1.5,1,1.9c0.4,0.4,1,0.7,1.7,0.7
		c0.3,0,0.6-0.1,1-0.2c0.4-0.2,0.7-0.4,1-0.7c0.3-0.3,0.6-0.7,0.8-1.2c0.2-0.5,0.3-1.1,0.3-1.7v-2.5h-3.2v-3.6H94v13.1h-3.6v-2.2
		h-0.1c-0.6,1-1.3,1.6-2.1,2c-0.8,0.4-1.8,0.6-3,0.6c-1.5,0-2.7-0.3-3.7-0.8c-0.9-0.5-1.7-1.3-2.2-2.4c-0.5-1.1-0.9-2.4-1.1-4
		c-0.2-1.6-0.3-3.5-0.3-5.6c0-2,0.1-3.8,0.4-5.4c0.3-1.5,0.7-2.8,1.3-3.9c0.6-1,1.5-1.8,2.5-2.3c1-0.5,2.3-0.8,3.9-0.8
		c2.7,0,4.6,0.7,5.8,2c1.2,1.3,1.8,3.2,1.8,5.7h-4.7C89.1,386.3,89,385.9,88.9,385.4z"/>
	<path d="M108,379.6l6.4,24.3h-5.1l-1.1-5.1h-6.5l-1.1,5.1h-5.1l6.4-24.3H108z M107.3,394.7l-2.3-10.9h-0.1l-2.3,10.9H107.3z"/>
	<path d="M116.3,379.6h4.9v24.3h-4.9V379.6z"/>
	<path d="M136.4,396.2L136.4,396.2l0.1-16.6h4.5v24.3h-5.6l-6-17h-0.1v17h-4.5v-24.3h5.6L136.4,396.2z"/>
	<path d="M164.1,396.2L164.1,396.2l0.1-16.6h4.5v24.3h-5.6l-6-17H157v17h-4.5v-24.3h5.6L164.1,396.2z"/>
	<path d="M185.6,383.6H177v5.7h8.2v4H177v6.5h9v4h-13.9v-24.3h13.6V383.6z"/>
	<path d="M191.7,379.6l2.7,18h0.1l2.9-18h4.7l2.9,18h0.1l2.7-18h4.7l-4.4,24.3h-5.5l-2.7-17.6h-0.1l-2.7,17.6h-5.5l-4.4-24.3H191.7z
		"/>
	<path d="M232.2,383.9c-0.4-0.8-1.2-1.2-2.3-1.2c-0.6,0-1.1,0.2-1.5,0.5c-0.4,0.3-0.7,0.9-0.9,1.6c-0.2,0.7-0.4,1.7-0.5,2.9
		s-0.1,2.6-0.1,4.4c0,1.8,0.1,3.3,0.2,4.5s0.3,2,0.6,2.6c0.3,0.6,0.6,1,1,1.3c0.4,0.2,0.9,0.3,1.4,0.3c0.4,0,0.8-0.1,1.2-0.2
		s0.7-0.4,1-0.9c0.3-0.4,0.5-1.1,0.6-1.9c0.2-0.8,0.2-1.9,0.2-3.2h4.9c0,1.3-0.1,2.6-0.3,3.7c-0.2,1.2-0.6,2.2-1.1,3.1
		s-1.3,1.6-2.3,2.1c-1,0.5-2.3,0.7-3.9,0.7c-1.8,0-3.3-0.3-4.4-0.9c-1.1-0.6-1.9-1.4-2.5-2.5s-1-2.4-1.1-4c-0.2-1.5-0.3-3.2-0.3-5.1
		c0-1.8,0.1-3.5,0.3-5.1c0.2-1.6,0.5-2.9,1.1-4s1.4-2,2.5-2.6c1.1-0.6,2.6-0.9,4.4-0.9c1.7,0,3.1,0.3,4.1,0.8c1,0.6,1.8,1.3,2.3,2.2
		c0.5,0.9,0.8,1.8,0.9,2.8c0.1,1,0.2,2,0.2,2.8h-4.9C232.8,386,232.6,384.7,232.2,383.9z"/>
	<path d="M245.3,396.5c0,0.6,0,1.2,0.1,1.7c0.1,0.5,0.2,1,0.4,1.3c0.2,0.4,0.5,0.7,0.9,0.9c0.4,0.2,0.8,0.3,1.4,0.3
		c0.6,0,1.1-0.1,1.4-0.3c0.4-0.2,0.7-0.5,0.9-0.9c0.2-0.4,0.4-0.8,0.4-1.3s0.1-1.1,0.1-1.7v-16.9h4.9v16.9c0,1.5-0.2,2.8-0.6,3.8
		s-1,1.8-1.7,2.4c-0.7,0.6-1.6,1-2.5,1.2s-1.9,0.3-2.9,0.3c-1,0-2-0.1-2.9-0.3c-0.9-0.2-1.8-0.5-2.5-1.1c-0.7-0.6-1.3-1.3-1.7-2.4
		c-0.4-1-0.6-2.3-0.6-4v-16.9h4.9V396.5z"/>
	<path d="M262.9,397c0,0.6,0,1.1,0.1,1.5c0.1,0.5,0.3,0.9,0.5,1.2c0.2,0.3,0.6,0.6,1,0.7c0.4,0.2,0.9,0.3,1.6,0.3
		c0.7,0,1.4-0.2,2-0.7c0.6-0.5,0.9-1.2,0.9-2.3c0-0.5-0.1-1-0.2-1.4c-0.1-0.4-0.4-0.8-0.7-1.1c-0.3-0.3-0.8-0.6-1.3-0.9
		s-1.2-0.5-2.1-0.8c-1.1-0.4-2-0.8-2.8-1.2c-0.8-0.4-1.5-0.9-2-1.5c-0.5-0.6-0.9-1.2-1.2-2c-0.2-0.8-0.4-1.6-0.4-2.6
		c0-2.4,0.7-4.2,2-5.4c1.3-1.2,3.2-1.8,5.5-1.8c1.1,0,2.1,0.1,3,0.4c0.9,0.2,1.7,0.6,2.4,1.2c0.7,0.5,1.2,1.2,1.6,2
		c0.4,0.8,0.6,1.8,0.6,3v0.7h-4.7c0-1.2-0.2-2-0.6-2.7c-0.4-0.6-1.1-0.9-2-0.9c-0.5,0-1,0.1-1.4,0.2c-0.4,0.2-0.7,0.4-0.9,0.6
		c-0.2,0.3-0.4,0.6-0.4,0.9c-0.1,0.3-0.1,0.7-0.1,1.1c0,0.7,0.2,1.4,0.5,1.9c0.3,0.5,1,1,2,1.4l3.8,1.6c0.9,0.4,1.7,0.8,2.3,1.3
		c0.6,0.4,1.1,0.9,1.4,1.4c0.4,0.5,0.6,1.1,0.7,1.7c0.1,0.6,0.2,1.3,0.2,2c0,2.6-0.7,4.4-2.2,5.6c-1.5,1.2-3.6,1.8-6.2,1.8
		c-2.8,0-4.7-0.6-5.9-1.8s-1.8-2.9-1.8-5.2v-1h4.9V397z"/>
	<path d="M290.8,383.6h-5.3v20.3h-4.9v-20.3h-5.3v-4h15.5V383.6z"/>
	<path d="M292.7,386.6c0.2-1.6,0.5-2.9,1.1-4s1.4-2,2.5-2.6c1.1-0.6,2.5-0.9,4.4-0.9s3.3,0.3,4.4,0.9c1.1,0.6,1.9,1.5,2.5,2.6
		s1,2.4,1.1,4s0.3,3.2,0.3,5.1c0,1.9-0.1,3.6-0.3,5.1c-0.2,1.5-0.5,2.9-1.1,4s-1.4,2-2.5,2.5c-1.1,0.6-2.5,0.9-4.4,0.9
		s-3.3-0.3-4.4-0.9c-1.1-0.6-1.9-1.4-2.5-2.5s-1-2.4-1.1-4c-0.2-1.5-0.3-3.2-0.3-5.1C292.4,389.9,292.5,388.2,292.7,386.6z
		 M297.4,395.9c0.1,1.1,0.2,2.1,0.5,2.8c0.2,0.7,0.6,1.2,1,1.6c0.4,0.3,1,0.5,1.8,0.5s1.3-0.2,1.8-0.5c0.4-0.3,0.8-0.8,1-1.6
		c0.2-0.7,0.4-1.6,0.5-2.8c0.1-1.1,0.1-2.5,0.1-4.2s0-3-0.1-4.1c-0.1-1.1-0.2-2.1-0.5-2.8c-0.2-0.7-0.6-1.3-1-1.6
		c-0.4-0.3-1-0.5-1.8-0.5s-1.3,0.2-1.8,0.5c-0.4,0.3-0.8,0.9-1,1.6c-0.2,0.7-0.4,1.7-0.5,2.8c-0.1,1.1-0.1,2.5-0.1,4.1
		S297.4,394.7,297.4,395.9z"/>
	<path d="M319.2,379.6l3.5,17.1h0.1l3.5-17.1h7.2v24.3H329v-19.4h-0.1l-4.3,19.4h-3.8l-4.3-19.4h-0.1v19.4h-4.5v-24.3H319.2z"/>
	<path d="M350.6,383.6h-8.7v5.7h8.2v4h-8.2v6.5h9v4H337v-24.3h13.6V383.6z"/>
	<path d="M362.4,379.6c2,0,3.6,0.5,4.8,1.5s1.7,2.6,1.7,4.7c0,1.6-0.3,3-1,4c-0.7,1-1.7,1.7-3.1,2v0.1c1.2,0.2,2.1,0.6,2.7,1.2
		c0.6,0.6,0.9,1.6,1.1,3c0,0.5,0.1,0.9,0.1,1.5s0,1.1,0.1,1.8c0,1.3,0.1,2.3,0.2,3c0.1,0.7,0.4,1.1,0.9,1.4v0.2h-5.3
		c-0.2-0.3-0.4-0.7-0.5-1.2c-0.1-0.4-0.1-0.9-0.1-1.4l-0.1-4.7c0-1-0.3-1.7-0.7-2.2c-0.4-0.5-1.2-0.8-2.2-0.8h-2.6v10.3h-4.9v-24.3
		H362.4z M360.3,390.2c1.2,0,2.1-0.3,2.7-0.8c0.6-0.6,1-1.5,1-2.8c0-2.2-1.1-3.4-3.4-3.4h-2.3v7H360.3z"/>
	<path d="M376.2,397c0,0.6,0,1.1,0.1,1.5c0.1,0.5,0.3,0.9,0.5,1.2c0.2,0.3,0.6,0.6,1,0.7c0.4,0.2,0.9,0.3,1.6,0.3
		c0.7,0,1.4-0.2,2-0.7c0.6-0.5,0.9-1.2,0.9-2.3c0-0.5-0.1-1-0.2-1.4c-0.1-0.4-0.4-0.8-0.7-1.1c-0.3-0.3-0.8-0.6-1.3-0.9
		s-1.2-0.5-2.1-0.8c-1.1-0.4-2-0.8-2.8-1.2c-0.8-0.4-1.5-0.9-2-1.5c-0.5-0.6-0.9-1.2-1.2-2c-0.2-0.8-0.4-1.6-0.4-2.6
		c0-2.4,0.7-4.2,2-5.4c1.3-1.2,3.2-1.8,5.5-1.8c1.1,0,2.1,0.1,3,0.4c0.9,0.2,1.7,0.6,2.4,1.2c0.7,0.5,1.2,1.2,1.6,2
		c0.4,0.8,0.6,1.8,0.6,3v0.7H382c0-1.2-0.2-2-0.6-2.7c-0.4-0.6-1.1-0.9-2-0.9c-0.5,0-1,0.1-1.4,0.2c-0.4,0.2-0.7,0.4-0.9,0.6
		c-0.2,0.3-0.4,0.6-0.4,0.9c-0.1,0.3-0.1,0.7-0.1,1.1c0,0.7,0.2,1.4,0.5,1.9c0.3,0.5,1,1,2,1.4l3.8,1.6c0.9,0.4,1.7,0.8,2.3,1.3
		c0.6,0.4,1.1,0.9,1.4,1.4c0.4,0.5,0.6,1.1,0.7,1.7c0.1,0.6,0.2,1.3,0.2,2c0,2.6-0.7,4.4-2.2,5.6c-1.5,1.2-3.6,1.8-6.2,1.8
		c-2.8,0-4.7-0.6-5.9-1.8s-1.8-2.9-1.8-5.2v-1h4.9V397z"/>
</g>
<g>
	<path d="M575.2,281.6c0.2-1.6,0.5-2.9,1.1-4s1.4-2,2.5-2.6c1.1-0.6,2.6-0.9,4.4-0.9s3.3,0.3,4.4,0.9c1.1,0.6,1.9,1.5,2.5,2.6
		s1,2.4,1.1,4s0.3,3.2,0.3,5.1c0,1.9-0.1,3.6-0.3,5.1c-0.2,1.5-0.5,2.9-1.1,4s-1.4,2-2.5,2.5c-1.1,0.6-2.5,0.9-4.4,0.9
		s-3.3-0.3-4.4-0.9c-1.1-0.6-1.9-1.4-2.5-2.5s-1-2.4-1.1-4c-0.2-1.5-0.3-3.2-0.3-5.1C574.9,284.9,575,283.2,575.2,281.6z
		 M579.9,290.9c0.1,1.1,0.2,2.1,0.5,2.8c0.2,0.7,0.6,1.2,1,1.6c0.4,0.3,1,0.5,1.8,0.5c0.7,0,1.3-0.2,1.8-0.5c0.4-0.3,0.8-0.8,1-1.6
		c0.2-0.7,0.4-1.6,0.5-2.8c0.1-1.1,0.1-2.5,0.1-4.2s0-3-0.1-4.1c-0.1-1.1-0.2-2.1-0.5-2.8c-0.2-0.7-0.6-1.3-1-1.6
		c-0.4-0.3-1-0.5-1.8-0.5c-0.7,0-1.3,0.2-1.8,0.5c-0.4,0.3-0.8,0.9-1,1.6c-0.2,0.7-0.4,1.7-0.5,2.8c-0.1,1.1-0.1,2.5-0.1,4.1
		S579.8,289.7,579.9,290.9z"/>
	<path d="M607.9,274.6v4h-8.7v5.7h8.2v4h-8.2v10.5h-4.9v-24.3H607.9z"/>
	<path d="M625.6,274.6l3.5,17.1h0.1l3.5-17.1h7.2v24.3h-4.5v-19.4h-0.1l-4.3,19.4h-3.8l-4.3-19.4h-0.1v19.4h-4.5v-24.3H625.6z"/>
	<path d="M654.2,274.6l6.4,24.3h-5.1l-1.1-5.1h-6.5l-1.1,5.1h-5.1l6.4-24.3H654.2z M653.5,289.7l-2.3-10.9h-0.1l-2.3,10.9H653.5z"/>
	<path d="M671.3,274.6c2,0,3.6,0.5,4.8,1.5c1.1,1,1.7,2.6,1.7,4.7c0,1.6-0.3,3-1,4c-0.7,1-1.7,1.7-3.1,2v0.1
		c1.2,0.2,2.1,0.6,2.7,1.2c0.6,0.6,0.9,1.6,1.1,3c0,0.5,0.1,0.9,0.1,1.5c0,0.5,0,1.1,0.1,1.8c0,1.3,0.1,2.3,0.2,3
		c0.1,0.7,0.4,1.1,0.9,1.4v0.2h-5.3c-0.2-0.3-0.4-0.7-0.5-1.2c-0.1-0.4-0.1-0.9-0.1-1.4l-0.1-4.7c0-1-0.3-1.7-0.7-2.2
		s-1.2-0.8-2.2-0.8h-2.6v10.3h-4.9v-24.3H671.3z M669.2,285.2c1.2,0,2.1-0.3,2.7-0.8s1-1.5,1-2.8c0-2.2-1.1-3.4-3.4-3.4h-2.3v7
		H669.2z"/>
	<path d="M686.1,284.3L686.1,284.3l6.3-9.7h5.3L691,285l7.3,13.9h-5.5l-5-10l-1.8,2.8v7.2h-4.9v-24.3h4.9V284.3z"/>
	<path d="M713,278.6h-8.7v5.7h8.2v4h-8.2v6.5h9v4h-13.9v-24.3H713V278.6z"/>
	<path d="M730,278.6h-5.3v20.3h-4.9v-20.3h-5.3v-4H730V278.6z"/>
	<path d="M745.7,278.6H737v5.7h8.2v4H737v6.5h9v4h-13.9v-24.3h13.6V278.6z"/>
	<path d="M757.5,274.6c2,0,3.6,0.5,4.8,1.5c1.1,1,1.7,2.6,1.7,4.7c0,1.6-0.3,3-1,4c-0.7,1-1.7,1.7-3.1,2v0.1
		c1.2,0.2,2.1,0.6,2.7,1.2c0.6,0.6,0.9,1.6,1.1,3c0,0.5,0.1,0.9,0.1,1.5c0,0.5,0,1.1,0.1,1.8c0,1.3,0.1,2.3,0.2,3
		c0.1,0.7,0.4,1.1,0.9,1.4v0.2h-5.3c-0.2-0.3-0.4-0.7-0.5-1.2c-0.1-0.4-0.1-0.9-0.1-1.4l-0.1-4.7c0-1-0.3-1.7-0.7-2.2
		s-1.2-0.8-2.2-0.8h-2.6v10.3h-4.9v-24.3H757.5z M755.4,285.2c1.2,0,2.1-0.3,2.7-0.8s1-1.5,1-2.8c0-2.2-1.1-3.4-3.4-3.4h-2.3v7
		H755.4z"/>
	<path d="M771.3,292c0,0.6,0,1.1,0.1,1.5c0.1,0.5,0.3,0.9,0.5,1.2c0.2,0.3,0.6,0.6,1,0.7c0.4,0.2,0.9,0.3,1.6,0.3
		c0.7,0,1.4-0.2,2-0.7c0.6-0.5,0.9-1.2,0.9-2.3c0-0.5-0.1-1-0.2-1.4c-0.1-0.4-0.4-0.8-0.7-1.1s-0.8-0.6-1.3-0.9
		c-0.6-0.3-1.2-0.5-2.1-0.8c-1.1-0.4-2-0.8-2.8-1.2c-0.8-0.4-1.5-0.9-2-1.5c-0.5-0.6-0.9-1.2-1.2-2c-0.2-0.8-0.4-1.6-0.4-2.6
		c0-2.4,0.7-4.2,2-5.4c1.3-1.2,3.2-1.8,5.5-1.8c1.1,0,2.1,0.1,3,0.4c0.9,0.2,1.7,0.6,2.4,1.2c0.7,0.5,1.2,1.2,1.6,2
		c0.4,0.8,0.6,1.8,0.6,3v0.7h-4.7c0-1.2-0.2-2-0.6-2.7c-0.4-0.6-1.1-0.9-2-0.9c-0.5,0-1,0.1-1.4,0.2c-0.4,0.2-0.7,0.4-0.9,0.6
		c-0.2,0.3-0.4,0.6-0.4,0.9s-0.1,0.7-0.1,1.1c0,0.7,0.2,1.4,0.5,1.9c0.3,0.5,1,1,2,1.4l3.8,1.6c0.9,0.4,1.7,0.8,2.3,1.3
		c0.6,0.4,1.1,0.9,1.4,1.4c0.4,0.5,0.6,1.1,0.7,1.7c0.1,0.6,0.2,1.3,0.2,2c0,2.6-0.7,4.4-2.2,5.6c-1.5,1.2-3.6,1.8-6.2,1.8
		c-2.8,0-4.7-0.6-5.9-1.8c-1.2-1.2-1.8-2.9-1.8-5.2v-1h4.9V292z"/>
</g>
<g>
	<path fill="#C21429" d="M550.5,309.6v9.3h5.7v-9.3h4.9v24.3h-4.9v-10.8h-5.7v10.8h-4.9v-24.3H550.5z"/>
	<path fill="#C21429" d="M575.2,309.6l6.4,24.3h-5.1l-1.1-5.1H569l-1.1,5.1h-5.1l6.4-24.3H575.2z M574.6,324.7l-2.3-10.9h-0.1
		l-2.3,10.9H574.6z"/>
	<path fill="#C21429" d="M589.8,327.5h0.1l3.6-18h5.1l-5.6,24.3h-6.3l-5.6-24.3h5.2L589.8,327.5z"/>
	<path fill="#C21429" d="M613.9,313.6h-8.7v5.7h8.2v4h-8.2v6.5h9v4h-13.9v-24.3h13.6V313.6z"/>
	<path fill="#C21429" d="M629.4,326.5c0,0.6,0,1.2,0.1,1.7c0.1,0.5,0.2,1,0.4,1.3c0.2,0.4,0.5,0.7,0.9,0.9c0.4,0.2,0.8,0.3,1.4,0.3
		c0.6,0,1.1-0.1,1.4-0.3c0.4-0.2,0.7-0.5,0.9-0.9s0.4-0.8,0.4-1.3c0.1-0.5,0.1-1.1,0.1-1.7v-16.9h4.9v16.9c0,1.5-0.2,2.8-0.6,3.8
		c-0.4,1-1,1.8-1.7,2.4c-0.7,0.6-1.6,1-2.5,1.2c-0.9,0.2-1.9,0.3-2.9,0.3s-2-0.1-2.9-0.3c-0.9-0.2-1.8-0.5-2.5-1.1s-1.3-1.3-1.7-2.4
		c-0.4-1-0.6-2.3-0.6-4v-16.9h4.9V326.5z"/>
	<path fill="#C21429" d="M647.1,327c0,0.6,0,1.1,0.1,1.5c0.1,0.5,0.3,0.9,0.5,1.2c0.2,0.3,0.6,0.6,1,0.7c0.4,0.2,0.9,0.3,1.6,0.3
		c0.7,0,1.4-0.2,2-0.7c0.6-0.5,0.9-1.2,0.9-2.3c0-0.5-0.1-1-0.2-1.4c-0.1-0.4-0.4-0.8-0.7-1.1c-0.3-0.3-0.8-0.6-1.3-0.9
		s-1.2-0.5-2.1-0.8c-1.1-0.4-2-0.8-2.8-1.2c-0.8-0.4-1.5-0.9-2-1.5c-0.5-0.6-0.9-1.2-1.2-2c-0.2-0.8-0.4-1.6-0.4-2.6
		c0-2.4,0.7-4.2,2-5.4c1.3-1.2,3.2-1.8,5.5-1.8c1.1,0,2.1,0.1,3,0.4c0.9,0.2,1.7,0.6,2.4,1.2c0.7,0.5,1.2,1.2,1.6,2
		c0.4,0.8,0.6,1.8,0.6,3v0.7h-4.7c0-1.2-0.2-2-0.6-2.7c-0.4-0.6-1.1-0.9-2-0.9c-0.5,0-1,0.1-1.4,0.2c-0.4,0.2-0.7,0.4-0.9,0.6
		c-0.2,0.3-0.4,0.6-0.4,0.9c-0.1,0.3-0.1,0.7-0.1,1.1c0,0.7,0.2,1.4,0.5,1.9c0.3,0.5,1,1,2,1.4l3.8,1.6c0.9,0.4,1.7,0.8,2.3,1.3
		c0.6,0.4,1.1,0.9,1.4,1.4c0.4,0.5,0.6,1.1,0.7,1.7c0.1,0.6,0.2,1.3,0.2,2c0,2.6-0.7,4.4-2.2,5.6c-1.5,1.2-3.6,1.8-6.2,1.8
		c-2.8,0-4.7-0.6-5.9-1.8s-1.8-2.9-1.8-5.2v-1h4.9V327z"/>
	<path fill="#C21429" d="M674.3,313.6h-8.7v5.7h8.2v4h-8.2v6.5h9v4h-13.9v-24.3h13.6V313.6z"/>
	<path fill="#C21429" d="M685.4,309.6c1.7,0,3.1,0.3,4.1,0.8c1,0.6,1.9,1.3,2.4,2.4c0.6,1,1,2.3,1.2,3.7c0.2,1.5,0.3,3.1,0.3,4.9
		c0,2.1-0.1,4-0.4,5.6s-0.7,2.9-1.3,3.9c-0.6,1-1.5,1.8-2.5,2.3c-1.1,0.5-2.4,0.7-4,0.7h-7.7v-24.3H685.4z M684.4,330.3
		c0.9,0,1.6-0.1,2.1-0.4c0.5-0.3,0.9-0.8,1.2-1.5c0.3-0.7,0.5-1.6,0.6-2.7c0.1-1.1,0.2-2.5,0.2-4.1c0-1.4,0-2.6-0.1-3.6
		c-0.1-1-0.3-1.9-0.6-2.6s-0.7-1.2-1.3-1.6c-0.6-0.4-1.3-0.5-2.2-0.5h-2.1v17.1H684.4z"/>
	<path fill="#C21429" d="M717.8,313.6h-5.3v20.3h-4.9v-20.3h-5.3v-4h15.5V313.6z"/>
	<path fill="#C21429" d="M723.1,309.6l2.7,18h0.1l2.9-18h4.7l2.9,18h0.1l2.7-18h4.7l-4.4,24.3h-5.5l-2.7-17.6h-0.1l-2.7,17.6h-5.5
		l-4.4-24.3H723.1z"/>
	<path fill="#C21429" d="M746,309.6h4.9v24.3H746V309.6z"/>
	<path fill="#C21429" d="M768.7,313.6h-5.3v20.3h-4.9v-20.3h-5.3v-4h15.5V313.6z"/>
	<path fill="#C21429" d="M785,313.6h-5.3v20.3h-4.9v-20.3h-5.3v-4H785V313.6z"/>
	<path fill="#C21429" d="M800.7,313.6H792v5.7h8.2v4H792v6.5h9v4h-13.9v-24.3h13.6V313.6z"/>
	<path fill="#C21429" d="M812.5,309.6c2,0,3.6,0.5,4.8,1.5c1.1,1,1.7,2.6,1.7,4.7c0,1.6-0.3,3-1,4c-0.7,1-1.7,1.7-3.1,2v0.1
		c1.2,0.2,2.1,0.6,2.7,1.2c0.6,0.6,0.9,1.6,1.1,3c0,0.5,0.1,0.9,0.1,1.5c0,0.5,0,1.1,0.1,1.8c0,1.3,0.1,2.3,0.2,3
		c0.1,0.7,0.4,1.1,0.9,1.4v0.2h-5.3c-0.2-0.3-0.4-0.7-0.5-1.2c-0.1-0.4-0.1-0.9-0.1-1.4l-0.1-4.7c0-1-0.3-1.7-0.7-2.2
		s-1.2-0.8-2.2-0.8h-2.6v10.3h-4.9v-24.3H812.5z M810.4,320.2c1.2,0,2.1-0.3,2.7-0.8s1-1.5,1-2.8c0-2.2-1.1-3.4-3.4-3.4h-2.3v7
		H810.4z"/>
</g>
<g>
	<path d="M574.1,348.6h-5.3v20.3h-4.9v-20.3h-5.3v-4h15.5V348.6z"/>
	<path d="M576,351.6c0.2-1.6,0.5-2.9,1.1-4s1.4-2,2.5-2.6c1.1-0.6,2.5-0.9,4.4-0.9s3.3,0.3,4.4,0.9c1.1,0.6,1.9,1.5,2.5,2.6
		s1,2.4,1.1,4s0.3,3.2,0.3,5.1c0,1.9-0.1,3.6-0.3,5.1c-0.2,1.5-0.5,2.9-1.1,4s-1.4,2-2.5,2.5c-1.1,0.6-2.5,0.9-4.4,0.9
		s-3.3-0.3-4.4-0.9c-1.1-0.6-1.9-1.4-2.5-2.5s-1-2.4-1.1-4c-0.2-1.5-0.3-3.2-0.3-5.1C575.7,354.9,575.8,353.2,576,351.6z
		 M580.7,360.9c0.1,1.1,0.2,2.1,0.5,2.8c0.2,0.7,0.6,1.2,1,1.6c0.4,0.3,1,0.5,1.8,0.5s1.3-0.2,1.8-0.5c0.4-0.3,0.8-0.8,1-1.6
		c0.2-0.7,0.4-1.6,0.5-2.8c0.1-1.1,0.1-2.5,0.1-4.2s0-3-0.1-4.1c-0.1-1.1-0.2-2.1-0.5-2.8c-0.2-0.7-0.6-1.3-1-1.6
		c-0.4-0.3-1-0.5-1.8-0.5s-1.3,0.2-1.8,0.5c-0.4,0.3-0.8,0.9-1,1.6c-0.2,0.7-0.4,1.7-0.5,2.8c-0.1,1.1-0.1,2.5-0.1,4.1
		S580.6,359.7,580.7,360.9z"/>
	<path d="M607.2,362c0,0.6,0,1.1,0.1,1.5c0.1,0.5,0.3,0.9,0.5,1.2c0.2,0.3,0.6,0.6,1,0.7c0.4,0.2,0.9,0.3,1.6,0.3
		c0.7,0,1.4-0.2,2-0.7c0.6-0.5,0.9-1.2,0.9-2.3c0-0.5-0.1-1-0.2-1.4c-0.1-0.4-0.4-0.8-0.7-1.1c-0.3-0.3-0.8-0.6-1.3-0.9
		s-1.2-0.5-2.1-0.8c-1.1-0.4-2-0.8-2.8-1.2c-0.8-0.4-1.5-0.9-2-1.5c-0.5-0.6-0.9-1.2-1.2-2c-0.2-0.8-0.4-1.6-0.4-2.6
		c0-2.4,0.7-4.2,2-5.4c1.3-1.2,3.2-1.8,5.5-1.8c1.1,0,2.1,0.1,3,0.4c0.9,0.2,1.7,0.6,2.4,1.2c0.7,0.5,1.2,1.2,1.6,2
		c0.4,0.8,0.6,1.8,0.6,3v0.7H613c0-1.2-0.2-2-0.6-2.7c-0.4-0.6-1.1-0.9-2-0.9c-0.5,0-1,0.1-1.4,0.2c-0.4,0.2-0.7,0.4-0.9,0.6
		c-0.2,0.3-0.4,0.6-0.4,0.9c-0.1,0.3-0.1,0.7-0.1,1.1c0,0.7,0.2,1.4,0.5,1.9c0.3,0.5,1,1,2,1.4l3.8,1.6c0.9,0.4,1.7,0.8,2.3,1.3
		c0.6,0.4,1.1,0.9,1.4,1.4c0.4,0.5,0.6,1.1,0.7,1.7c0.1,0.6,0.2,1.3,0.2,2c0,2.6-0.7,4.4-2.2,5.6c-1.5,1.2-3.6,1.8-6.2,1.8
		c-2.8,0-4.7-0.6-5.9-1.8s-1.8-2.9-1.8-5.2v-1h4.9V362z"/>
	<path d="M625.5,361.5c0,0.6,0,1.2,0.1,1.7c0.1,0.5,0.2,1,0.4,1.3c0.2,0.4,0.5,0.7,0.9,0.9c0.4,0.2,0.8,0.3,1.4,0.3
		c0.6,0,1.1-0.1,1.4-0.3c0.4-0.2,0.7-0.5,0.9-0.9s0.4-0.8,0.4-1.3c0.1-0.5,0.1-1.1,0.1-1.7v-16.9h4.9v16.9c0,1.5-0.2,2.8-0.6,3.8
		c-0.4,1-1,1.8-1.7,2.4c-0.7,0.6-1.6,1-2.5,1.2c-0.9,0.2-1.9,0.3-2.9,0.3s-2-0.1-2.9-0.3c-0.9-0.2-1.8-0.5-2.5-1.1s-1.3-1.3-1.7-2.4
		c-0.4-1-0.6-2.3-0.6-4v-16.9h4.9V361.5z"/>
	<path d="M649,348.9c-0.4-0.8-1.2-1.2-2.3-1.2c-0.6,0-1.1,0.2-1.5,0.5c-0.4,0.3-0.7,0.9-0.9,1.6s-0.4,1.7-0.5,2.9
		c-0.1,1.2-0.1,2.6-0.1,4.4c0,1.8,0.1,3.3,0.2,4.5c0.1,1.1,0.3,2,0.6,2.6c0.3,0.6,0.6,1,1,1.3c0.4,0.2,0.9,0.3,1.4,0.3
		c0.4,0,0.8-0.1,1.2-0.2s0.7-0.4,1-0.9c0.3-0.4,0.5-1.1,0.6-1.9c0.2-0.8,0.2-1.9,0.2-3.2h4.9c0,1.3-0.1,2.6-0.3,3.7
		s-0.6,2.2-1.1,3.1c-0.6,0.9-1.3,1.6-2.3,2.1s-2.3,0.7-3.9,0.7c-1.8,0-3.3-0.3-4.4-0.9c-1.1-0.6-1.9-1.4-2.5-2.5s-1-2.4-1.1-4
		c-0.2-1.5-0.3-3.2-0.3-5.1c0-1.8,0.1-3.5,0.3-5.1s0.5-2.9,1.1-4s1.4-2,2.5-2.6c1.1-0.6,2.5-0.9,4.4-0.9c1.7,0,3.1,0.3,4.1,0.8
		c1,0.6,1.8,1.3,2.3,2.2c0.5,0.9,0.8,1.8,0.9,2.8c0.1,1,0.2,2,0.2,2.8h-4.9C649.6,351,649.4,349.7,649,348.9z"/>
	<path d="M667.2,348.9c-0.4-0.8-1.2-1.2-2.3-1.2c-0.6,0-1.1,0.2-1.5,0.5c-0.4,0.3-0.7,0.9-0.9,1.6s-0.4,1.7-0.5,2.9
		c-0.1,1.2-0.1,2.6-0.1,4.4c0,1.8,0.1,3.3,0.2,4.5c0.1,1.1,0.3,2,0.6,2.6c0.3,0.6,0.6,1,1,1.3c0.4,0.2,0.9,0.3,1.4,0.3
		c0.4,0,0.8-0.1,1.2-0.2s0.7-0.4,1-0.9c0.3-0.4,0.5-1.1,0.6-1.9c0.2-0.8,0.2-1.9,0.2-3.2h4.9c0,1.3-0.1,2.6-0.3,3.7
		s-0.6,2.2-1.1,3.1c-0.6,0.9-1.3,1.6-2.3,2.1s-2.3,0.7-3.9,0.7c-1.8,0-3.3-0.3-4.4-0.9c-1.1-0.6-1.9-1.4-2.5-2.5s-1-2.4-1.1-4
		c-0.2-1.5-0.3-3.2-0.3-5.1c0-1.8,0.1-3.5,0.3-5.1s0.5-2.9,1.1-4s1.4-2,2.5-2.6c1.1-0.6,2.5-0.9,4.4-0.9c1.7,0,3.1,0.3,4.1,0.8
		c1,0.6,1.8,1.3,2.3,2.2c0.5,0.9,0.8,1.8,0.9,2.8c0.1,1,0.2,2,0.2,2.8h-4.9C667.8,351,667.6,349.7,667.2,348.9z"/>
	<path d="M689.3,348.6h-8.7v5.7h8.2v4h-8.2v6.5h9v4h-13.9v-24.3h13.6V348.6z"/>
	<path d="M696,362c0,0.6,0,1.1,0.1,1.5c0.1,0.5,0.3,0.9,0.5,1.2c0.2,0.3,0.6,0.6,1,0.7c0.4,0.2,0.9,0.3,1.6,0.3c0.7,0,1.4-0.2,2-0.7
		c0.6-0.5,0.9-1.2,0.9-2.3c0-0.5-0.1-1-0.2-1.4c-0.1-0.4-0.4-0.8-0.7-1.1c-0.3-0.3-0.8-0.6-1.3-0.9s-1.2-0.5-2.1-0.8
		c-1.1-0.4-2-0.8-2.8-1.2c-0.8-0.4-1.5-0.9-2-1.5c-0.5-0.6-0.9-1.2-1.2-2c-0.2-0.8-0.4-1.6-0.4-2.6c0-2.4,0.7-4.2,2-5.4
		c1.3-1.2,3.2-1.8,5.5-1.8c1.1,0,2.1,0.1,3,0.4c0.9,0.2,1.7,0.6,2.4,1.2c0.7,0.5,1.2,1.2,1.6,2c0.4,0.8,0.6,1.8,0.6,3v0.7h-4.7
		c0-1.2-0.2-2-0.6-2.7c-0.4-0.6-1.1-0.9-2-0.9c-0.5,0-1,0.1-1.4,0.2c-0.4,0.2-0.7,0.4-0.9,0.6c-0.2,0.3-0.4,0.6-0.4,0.9
		c-0.1,0.3-0.1,0.7-0.1,1.1c0,0.7,0.2,1.4,0.5,1.9c0.3,0.5,1,1,2,1.4l3.8,1.6c0.9,0.4,1.7,0.8,2.3,1.3c0.6,0.4,1.1,0.9,1.4,1.4
		c0.4,0.5,0.6,1.1,0.7,1.7c0.1,0.6,0.2,1.3,0.2,2c0,2.6-0.7,4.4-2.2,5.6c-1.5,1.2-3.6,1.8-6.2,1.8c-2.8,0-4.7-0.6-5.9-1.8
		s-1.8-2.9-1.8-5.2v-1h4.9V362z"/>
	<path d="M713.7,362c0,0.6,0,1.1,0.1,1.5c0.1,0.5,0.3,0.9,0.5,1.2c0.2,0.3,0.6,0.6,1,0.7c0.4,0.2,0.9,0.3,1.6,0.3
		c0.7,0,1.4-0.2,2-0.7c0.6-0.5,0.9-1.2,0.9-2.3c0-0.5-0.1-1-0.2-1.4c-0.1-0.4-0.4-0.8-0.7-1.1c-0.3-0.3-0.8-0.6-1.3-0.9
		s-1.2-0.5-2.1-0.8c-1.1-0.4-2-0.8-2.8-1.2c-0.8-0.4-1.5-0.9-2-1.5c-0.5-0.6-0.9-1.2-1.2-2c-0.2-0.8-0.4-1.6-0.4-2.6
		c0-2.4,0.7-4.2,2-5.4c1.3-1.2,3.2-1.8,5.5-1.8c1.1,0,2.1,0.1,3,0.4c0.9,0.2,1.7,0.6,2.4,1.2c0.7,0.5,1.2,1.2,1.6,2
		c0.4,0.8,0.6,1.8,0.6,3v0.7h-4.7c0-1.2-0.2-2-0.6-2.7c-0.4-0.6-1.1-0.9-2-0.9c-0.5,0-1,0.1-1.4,0.2c-0.4,0.2-0.7,0.4-0.9,0.6
		c-0.2,0.3-0.4,0.6-0.4,0.9c-0.1,0.3-0.1,0.7-0.1,1.1c0,0.7,0.2,1.4,0.5,1.9c0.3,0.5,1,1,2,1.4l3.8,1.6c0.9,0.4,1.7,0.8,2.3,1.3
		c0.6,0.4,1.1,0.9,1.4,1.4c0.4,0.5,0.6,1.1,0.7,1.7c0.1,0.6,0.2,1.3,0.2,2c0,2.6-0.7,4.4-2.2,5.6c-1.5,1.2-3.6,1.8-6.2,1.8
		c-2.8,0-4.7-0.6-5.9-1.8s-1.8-2.9-1.8-5.2v-1h4.9V362z"/>
	<path d="M740.9,344.6v4h-8.7v5.7h8.2v4h-8.2v10.5h-4.9v-24.3H740.9z"/>
	<path d="M747.7,361.5c0,0.6,0,1.2,0.1,1.7c0.1,0.5,0.2,1,0.4,1.3c0.2,0.4,0.5,0.7,0.9,0.9c0.4,0.2,0.8,0.3,1.4,0.3
		c0.6,0,1.1-0.1,1.4-0.3c0.4-0.2,0.7-0.5,0.9-0.9s0.4-0.8,0.4-1.3c0.1-0.5,0.1-1.1,0.1-1.7v-16.9h4.9v16.9c0,1.5-0.2,2.8-0.6,3.8
		c-0.4,1-1,1.8-1.7,2.4c-0.7,0.6-1.6,1-2.5,1.2c-0.9,0.2-1.9,0.3-2.9,0.3s-2-0.1-2.9-0.3c-0.9-0.2-1.8-0.5-2.5-1.1s-1.3-1.3-1.7-2.4
		c-0.4-1-0.6-2.3-0.6-4v-16.9h4.9V361.5z"/>
	<path d="M761.4,344.6h4.9v20.3h8.7v4h-13.6V344.6z"/>
	<path d="M777.1,344.6h4.9v20.3h8.7v4h-13.6V344.6z"/>
	<path d="M796.9,354L796.9,354l3.5-9.4h5.3l-6.3,14.7v9.6h-4.9v-9.6l-6.3-14.7h5.5L796.9,354z"/>
</g>
<g>
	<path d="M576.9,385.4c-0.1-0.5-0.3-0.9-0.5-1.3c-0.2-0.4-0.5-0.7-0.9-1s-0.8-0.4-1.3-0.4c-1.2,0-2,0.7-2.5,2
		c-0.5,1.3-0.8,3.5-0.8,6.5c0,1.5,0,2.8,0.1,3.9c0.1,1.2,0.3,2.2,0.5,3c0.2,0.8,0.6,1.5,1,1.9c0.4,0.4,1,0.7,1.7,0.7
		c0.3,0,0.6-0.1,1-0.2c0.4-0.2,0.7-0.4,1-0.7c0.3-0.3,0.6-0.7,0.8-1.2c0.2-0.5,0.3-1.1,0.3-1.7v-2.5h-3.2v-3.6h7.9v13.1h-3.6v-2.2
		h-0.1c-0.6,1-1.3,1.6-2.1,2c-0.8,0.4-1.8,0.6-3,0.6c-1.5,0-2.7-0.3-3.7-0.8c-0.9-0.5-1.7-1.3-2.2-2.4c-0.5-1.1-0.9-2.4-1.1-4
		c-0.2-1.6-0.3-3.5-0.3-5.6c0-2,0.1-3.8,0.4-5.4c0.3-1.5,0.7-2.8,1.3-3.9c0.6-1,1.5-1.8,2.5-2.3s2.3-0.8,3.9-0.8
		c2.7,0,4.6,0.7,5.8,2c1.2,1.3,1.8,3.2,1.8,5.7H577C577,386.3,577,385.9,576.9,385.4z"/>
	<path d="M598.7,383.6h-8.7v5.7h8.2v4h-8.2v6.5h9v4h-13.9v-24.3h13.6V383.6z"/>
	<path d="M613.1,396.2L613.1,396.2l0.1-16.6h4.5v24.3h-5.6l-6-17H606v17h-4.5v-24.3h5.6L613.1,396.2z"/>
	<path d="M634.6,383.6h-8.7v5.7h8.2v4h-8.2v6.5h9v4H621v-24.3h13.6V383.6z"/>
	<path d="M646.4,379.6c2,0,3.6,0.5,4.8,1.5s1.7,2.6,1.7,4.7c0,1.6-0.3,3-1,4c-0.7,1-1.7,1.7-3.1,2v0.1c1.2,0.2,2.1,0.6,2.7,1.2
		c0.6,0.6,0.9,1.6,1.1,3c0,0.5,0.1,0.9,0.1,1.5s0,1.1,0.1,1.8c0,1.3,0.1,2.3,0.2,3c0.1,0.7,0.4,1.1,0.9,1.4v0.2h-5.3
		c-0.2-0.3-0.4-0.7-0.5-1.2c-0.1-0.4-0.1-0.9-0.1-1.4l-0.1-4.7c0-1-0.3-1.7-0.7-2.2c-0.4-0.5-1.2-0.8-2.2-0.8h-2.6v10.3h-4.9v-24.3
		H646.4z M644.3,390.2c1.2,0,2.1-0.3,2.7-0.8c0.6-0.6,1-1.5,1-2.8c0-2.2-1.1-3.4-3.4-3.4h-2.3v7H644.3z"/>
	<path d="M667.1,379.6l6.4,24.3h-5.1l-1.1-5.1h-6.5l-1.1,5.1h-5.1l6.4-24.3H667.1z M666.4,394.7l-2.3-10.9H664l-2.3,10.9H666.4z"/>
	<path d="M687.5,383.6h-5.3v20.3h-4.9v-20.3H672v-4h15.5V383.6z"/>
	<path d="M703.2,383.6h-8.7v5.7h8.2v4h-8.2v6.5h9v4h-13.9v-24.3h13.6V383.6z"/>
	<path d="M714.2,379.6h4.9v20.3h8.7v4h-13.6V379.6z"/>
	<path d="M743.5,383.6h-8.7v5.7h8.2v4h-8.2v6.5h9v4h-13.9v-24.3h13.6V383.6z"/>
	<path d="M757,379.6l6.4,24.3h-5.1l-1.1-5.1h-6.5l-1.1,5.1h-5.1l6.4-24.3H757z M756.4,394.7l-2.3-10.9H754l-2.3,10.9H756.4z"/>
	<path d="M773.4,379.6c1.7,0,3.1,0.3,4.1,0.8c1,0.6,1.9,1.3,2.4,2.4c0.6,1,1,2.3,1.2,3.7c0.2,1.5,0.3,3.1,0.3,4.9
		c0,2.1-0.1,4-0.4,5.6c-0.3,1.6-0.7,2.9-1.3,3.9c-0.6,1-1.5,1.8-2.5,2.3c-1.1,0.5-2.4,0.7-4,0.7h-7.7v-24.3H773.4z M772.5,400.2
		c0.9,0,1.6-0.1,2.1-0.4c0.5-0.3,0.9-0.8,1.2-1.5c0.3-0.7,0.5-1.6,0.6-2.7c0.1-1.1,0.2-2.5,0.2-4.1c0-1.4,0-2.6-0.1-3.6
		c-0.1-1-0.3-1.9-0.6-2.6c-0.3-0.7-0.7-1.2-1.3-1.6s-1.3-0.5-2.2-0.5h-2.1v17.1H772.5z"/>
	<path d="M788.6,397c0,0.6,0,1.1,0.1,1.5c0.1,0.5,0.3,0.9,0.5,1.2c0.2,0.3,0.6,0.6,1,0.7c0.4,0.2,0.9,0.3,1.6,0.3
		c0.7,0,1.4-0.2,2-0.7c0.6-0.5,0.9-1.2,0.9-2.3c0-0.5-0.1-1-0.2-1.4c-0.1-0.4-0.4-0.8-0.7-1.1c-0.3-0.3-0.8-0.6-1.3-0.9
		s-1.2-0.5-2.1-0.8c-1.1-0.4-2-0.8-2.8-1.2c-0.8-0.4-1.5-0.9-2-1.5c-0.5-0.6-0.9-1.2-1.2-2c-0.2-0.8-0.4-1.6-0.4-2.6
		c0-2.4,0.7-4.2,2-5.4c1.3-1.2,3.2-1.8,5.5-1.8c1.1,0,2.1,0.1,3,0.4c0.9,0.2,1.7,0.6,2.4,1.2c0.7,0.5,1.2,1.2,1.6,2
		c0.4,0.8,0.6,1.8,0.6,3v0.7h-4.7c0-1.2-0.2-2-0.6-2.7c-0.4-0.6-1.1-0.9-2-0.9c-0.5,0-1,0.1-1.4,0.2c-0.4,0.2-0.7,0.4-0.9,0.6
		c-0.2,0.3-0.4,0.6-0.4,0.9c-0.1,0.3-0.1,0.7-0.1,1.1c0,0.7,0.2,1.4,0.5,1.9c0.3,0.5,1,1,2,1.4l3.8,1.6c0.9,0.4,1.7,0.8,2.3,1.3
		c0.6,0.4,1.1,0.9,1.4,1.4c0.4,0.5,0.6,1.1,0.7,1.7c0.1,0.6,0.2,1.3,0.2,2c0,2.6-0.7,4.4-2.2,5.6c-1.5,1.2-3.6,1.8-6.2,1.8
		c-2.8,0-4.7-0.6-5.9-1.8s-1.8-2.9-1.8-5.2v-1h4.9V397z"/>
</g>
</svg>
