<?xml version="1.0" encoding="utf-8"?>
<!-- Generator: Adobe Illustrator 18.0.0, SVG Export Plug-In . SVG Version: 6.00 Build 0)  -->
<!DOCTYPE svg PUBLIC "-//W3C//DTD SVG 1.1//EN" "http://www.w3.org/Graphics/SVG/1.1/DTD/svg11.dtd">
<svg version="1.1" id="Layer_1" xmlns="http://www.w3.org/2000/svg" xmlns:xlink="http://www.w3.org/1999/xlink" x="0px" y="0px"
	 viewBox="0 0 892 298" enable-background="new 0 0 892 298" xml:space="preserve">
<g>
	<path fill="#C21429" d="M365.3,159.5h-8.7v33.4h-8.1v-33.4h-8.7v-6.6h25.5V159.5z"/>
	<path fill="#C21429" d="M376.8,152.9v15.3h9.4v-15.3h8.1v40h-8.1v-17.8h-9.4v17.8h-8.1v-40H376.8z"/>
	<path fill="#C21429" d="M422.2,159.5h-14.3v9.4h13.4v6.6h-13.4v10.8h14.8v6.6h-22.9v-40h22.3V159.5z"/>
	<path fill="#C21429" d="M461.6,159.5h-8.7v33.4h-8.1v-33.4H436v-6.6h25.5V159.5z"/>
	<path fill="#C21429" d="M464.6,164.5c0.3-2.6,0.9-4.8,1.8-6.6c1-1.8,2.3-3.3,4.1-4.3c1.8-1,4.2-1.5,7.2-1.5c3,0,5.4,0.5,7.2,1.5
		s3.2,2.5,4.1,4.3c1,1.8,1.6,4,1.8,6.6c0.3,2.6,0.4,5.3,0.4,8.4c0,3.1-0.1,5.9-0.4,8.4c-0.3,2.5-0.9,4.7-1.8,6.6
		c-1,1.8-2.3,3.2-4.1,4.2s-4.2,1.5-7.2,1.5c-3,0-5.4-0.5-7.2-1.5c-1.8-1-3.2-2.4-4.1-4.2c-1-1.8-1.6-4-1.8-6.6
		c-0.3-2.5-0.4-5.3-0.4-8.4C464.2,169.8,464.4,167,464.6,164.5z M472.5,179.7c0.1,1.9,0.4,3.4,0.8,4.6c0.4,1.2,1,2,1.7,2.6
		c0.7,0.5,1.7,0.8,2.9,0.8c1.2,0,2.2-0.3,2.9-0.8c0.7-0.5,1.3-1.4,1.7-2.6c0.4-1.2,0.7-2.7,0.8-4.6c0.1-1.9,0.2-4.2,0.2-6.9
		c0-2.7-0.1-5-0.2-6.8c-0.1-1.9-0.4-3.4-0.8-4.6c-0.4-1.2-1-2.1-1.7-2.6c-0.7-0.5-1.7-0.8-2.9-0.8c-1.2,0-2.2,0.3-2.9,0.8
		c-0.7,0.5-1.3,1.4-1.7,2.6c-0.4,1.2-0.7,2.7-0.8,4.6c-0.1,1.9-0.2,4.1-0.2,6.8C472.3,175.6,472.3,177.8,472.5,179.7z"/>
	<path fill="#C21429" d="M510.3,152.9c2.1,0,3.8,0.3,5.2,1c1.4,0.7,2.5,1.6,3.4,2.7c0.9,1.1,1.5,2.4,1.8,3.8
		c0.4,1.4,0.6,2.9,0.6,4.4c0,2.1-0.3,3.8-0.9,5.4c-0.6,1.5-1.5,2.8-2.6,3.8c-1.1,1-2.4,1.7-4,2.2c-1.6,0.5-3.3,0.7-5.2,0.7h-4.3v16
		h-8.1v-40H510.3z M507.8,171c1.6,0,2.9-0.5,3.9-1.5c1-1,1.5-2.5,1.5-4.5c0-2-0.4-3.5-1.3-4.6c-0.9-1-2.3-1.6-4.3-1.6h-3.4V171
		H507.8z"/>
	<path fill="#C21429" d="M545.7,186.6c0.6,1.2,1.7,1.8,3.5,1.8c1,0,1.7-0.2,2.3-0.5c0.6-0.3,1-0.8,1.3-1.4c0.3-0.6,0.5-1.3,0.6-2
		c0.1-0.8,0.1-1.6,0.1-2.5c0-0.9-0.1-1.7-0.2-2.5c-0.1-0.8-0.4-1.5-0.8-2.2c-0.4-0.6-0.9-1.1-1.6-1.5c-0.7-0.4-1.6-0.6-2.7-0.6h-2.7
		V170h2.6c0.9,0,1.6-0.2,2.2-0.5s1-0.8,1.4-1.4c0.4-0.6,0.6-1.2,0.8-2c0.2-0.7,0.3-1.5,0.3-2.4c0-1.9-0.3-3.2-1-4
		c-0.6-0.8-1.6-1.2-2.9-1.2c-0.9,0-1.6,0.2-2.1,0.5c-0.5,0.3-1,0.8-1.3,1.3c-0.3,0.6-0.5,1.3-0.6,2c-0.1,0.8-0.1,1.6-0.1,2.6h-7.4
		c0-4,1-6.9,3-8.8c2-1.9,4.9-2.9,8.7-2.9c3.6,0,6.4,0.8,8.4,2.5s3,4.2,3,7.7c0,2.4-0.5,4.3-1.6,5.9c-1.1,1.5-2.5,2.5-4.5,2.9v0.1
		c2.6,0.4,4.4,1.4,5.5,3.1c1.1,1.7,1.6,3.7,1.6,6.2c0,1.3-0.2,2.7-0.5,4.1c-0.3,1.4-1,2.7-2,3.9c-1,1.2-2.3,2.1-4,2.8
		c-1.7,0.7-3.9,1.1-6.7,1.1c-3.8,0-6.7-1-8.6-3.1c-1.9-2.1-2.9-5.1-2.9-8.9v-0.2h7.7C544.8,183.6,545.1,185.3,545.7,186.6z"/>
</g>
<g>
	<path d="M272.8,222c0,0.6,0,1.1,0.1,1.5c0.1,0.5,0.3,0.9,0.5,1.2c0.2,0.3,0.6,0.6,1,0.7c0.4,0.2,0.9,0.3,1.6,0.3
		c0.7,0,1.4-0.2,2-0.7c0.6-0.5,0.9-1.2,0.9-2.3c0-0.5-0.1-1-0.2-1.4c-0.1-0.4-0.4-0.8-0.7-1.1c-0.3-0.3-0.8-0.6-1.3-0.9
		s-1.2-0.5-2.1-0.8c-1.1-0.4-2-0.8-2.8-1.2c-0.8-0.4-1.5-0.9-2-1.5c-0.5-0.6-0.9-1.2-1.2-2c-0.2-0.8-0.4-1.6-0.4-2.6
		c0-2.4,0.7-4.2,2-5.4c1.3-1.2,3.2-1.8,5.5-1.8c1.1,0,2.1,0.1,3,0.4c0.9,0.2,1.7,0.6,2.4,1.2c0.7,0.5,1.2,1.2,1.6,2
		c0.4,0.8,0.6,1.8,0.6,3v0.7h-4.7c0-1.2-0.2-2-0.6-2.7c-0.4-0.6-1.1-0.9-2-0.9c-0.5,0-1,0.1-1.4,0.2c-0.4,0.2-0.7,0.4-0.9,0.6
		c-0.2,0.3-0.4,0.6-0.4,0.9c-0.1,0.3-0.1,0.7-0.1,1.1c0,0.7,0.2,1.4,0.5,1.9c0.3,0.5,1,1,2,1.4l3.8,1.6c0.9,0.4,1.7,0.8,2.3,1.3
		c0.6,0.4,1.1,0.9,1.4,1.4c0.4,0.5,0.6,1.1,0.7,1.7c0.1,0.6,0.2,1.3,0.2,2c0,2.6-0.7,4.4-2.2,5.6c-1.5,1.2-3.6,1.8-6.2,1.8
		c-2.8,0-4.7-0.6-5.9-1.8s-1.8-2.9-1.8-5.2v-1h4.9V222z"/>
	<path d="M286.3,211.6c0.2-1.6,0.5-2.9,1.1-4s1.4-2,2.5-2.6c1.1-0.6,2.6-0.9,4.4-0.9s3.3,0.3,4.4,0.9c1.1,0.6,1.9,1.5,2.5,2.6
		s1,2.4,1.1,4s0.3,3.2,0.3,5.1c0,1.9-0.1,3.6-0.3,5.1c-0.2,1.5-0.5,2.9-1.1,4s-1.4,2-2.5,2.5c-1.1,0.6-2.5,0.9-4.4,0.9
		s-3.3-0.3-4.4-0.9c-1.1-0.6-1.9-1.4-2.5-2.5s-1-2.4-1.1-4c-0.2-1.5-0.3-3.2-0.3-5.1C286,214.9,286.1,213.2,286.3,211.6z M291,220.9
		c0.1,1.1,0.2,2.1,0.5,2.8c0.2,0.7,0.6,1.2,1,1.6c0.4,0.3,1,0.5,1.8,0.5c0.7,0,1.3-0.2,1.8-0.5c0.4-0.3,0.8-0.8,1-1.6
		c0.2-0.7,0.4-1.6,0.5-2.8c0.1-1.1,0.1-2.5,0.1-4.2s0-3-0.1-4.1c-0.1-1.1-0.2-2.1-0.5-2.8c-0.2-0.7-0.6-1.3-1-1.6
		c-0.4-0.3-1-0.5-1.8-0.5c-0.7,0-1.3,0.2-1.8,0.5c-0.4,0.3-0.8,0.9-1,1.6c-0.2,0.7-0.4,1.7-0.5,2.8c-0.1,1.1-0.1,2.5-0.1,4.1
		S291,219.7,291,220.9z"/>
	<path d="M315.2,208.9c-0.4-0.8-1.2-1.2-2.3-1.2c-0.6,0-1.1,0.2-1.5,0.5c-0.4,0.3-0.7,0.9-0.9,1.6s-0.4,1.7-0.5,2.9
		c-0.1,1.2-0.1,2.6-0.1,4.4c0,1.8,0.1,3.3,0.2,4.5c0.1,1.1,0.3,2,0.6,2.6c0.3,0.6,0.6,1,1,1.3c0.4,0.2,0.9,0.3,1.4,0.3
		c0.4,0,0.8-0.1,1.2-0.2s0.7-0.4,1-0.9c0.3-0.4,0.5-1.1,0.6-1.9c0.2-0.8,0.2-1.9,0.2-3.2h4.9c0,1.3-0.1,2.6-0.3,3.7
		s-0.6,2.2-1.1,3.1c-0.6,0.9-1.3,1.6-2.3,2.1s-2.3,0.7-3.9,0.7c-1.8,0-3.3-0.3-4.4-0.9c-1.1-0.6-1.9-1.4-2.5-2.5s-1-2.4-1.1-4
		c-0.2-1.5-0.3-3.2-0.3-5.1c0-1.8,0.1-3.5,0.3-5.1s0.5-2.9,1.1-4s1.4-2,2.5-2.6c1.1-0.6,2.5-0.9,4.4-0.9c1.7,0,3.1,0.3,4.1,0.8
		c1,0.6,1.8,1.3,2.3,2.2c0.5,0.9,0.8,1.8,0.9,2.8c0.1,1,0.2,2,0.2,2.8h-4.9C315.8,211,315.6,209.7,315.2,208.9z"/>
	<path d="M323.9,204.6h4.9v24.3h-4.9V204.6z"/>
	<path d="M343.2,204.6l6.4,24.3h-5.1l-1.1-5.1H337l-1.1,5.1h-5.1l6.4-24.3H343.2z M342.6,219.7l-2.3-10.9h-0.1l-2.3,10.9H342.6z"/>
	<path d="M351.4,204.6h4.9v20.3h8.7v4h-13.6V204.6z"/>
	<path d="M382.6,204.6l3.5,17.1h0.1l3.5-17.1h7.2v24.3h-4.5v-19.4h-0.1l-4.3,19.4h-3.8l-4.3-19.4h-0.1v19.4h-4.5v-24.3H382.6z"/>
	<path d="M414,208.6h-8.7v5.7h8.2v4h-8.2v6.5h9v4h-13.9v-24.3H414V208.6z"/>
	<path d="M425,204.6c1.7,0,3.1,0.3,4.1,0.8c1,0.6,1.9,1.3,2.4,2.4c0.6,1,1,2.3,1.2,3.7c0.2,1.5,0.3,3.1,0.3,4.9c0,2.1-0.1,4-0.4,5.6
		s-0.7,2.9-1.3,3.9c-0.6,1-1.5,1.8-2.5,2.3c-1.1,0.5-2.4,0.7-4,0.7H417v-24.3H425z M424.1,225.2c0.9,0,1.6-0.1,2.1-0.4
		c0.5-0.3,0.9-0.8,1.2-1.5c0.3-0.7,0.5-1.6,0.6-2.7c0.1-1.1,0.2-2.5,0.2-4.1c0-1.4,0-2.6-0.1-3.6c-0.1-1-0.3-1.9-0.6-2.6
		s-0.7-1.2-1.3-1.6c-0.6-0.4-1.3-0.5-2.2-0.5h-2.1v17.1H424.1z"/>
	<path d="M436.5,204.6h4.9v24.3h-4.9V204.6z"/>
	<path d="M455.8,204.6l6.4,24.3h-5.1l-1.1-5.1h-6.5l-1.1,5.1h-5.1l6.4-24.3H455.8z M455.2,219.7l-2.3-10.9h-0.1l-2.3,10.9H455.2z"/>
	<path d="M476.1,222c0,0.6,0,1.1,0.1,1.5c0.1,0.5,0.3,0.9,0.5,1.2c0.2,0.3,0.6,0.6,1,0.7c0.4,0.2,0.9,0.3,1.6,0.3
		c0.7,0,1.4-0.2,2-0.7c0.6-0.5,0.9-1.2,0.9-2.3c0-0.5-0.1-1-0.2-1.4c-0.1-0.4-0.4-0.8-0.7-1.1s-0.8-0.6-1.3-0.9
		c-0.6-0.3-1.2-0.5-2.1-0.8c-1.1-0.4-2-0.8-2.8-1.2c-0.8-0.4-1.5-0.9-2-1.5c-0.5-0.6-0.9-1.2-1.2-2c-0.2-0.8-0.4-1.6-0.4-2.6
		c0-2.4,0.7-4.2,2-5.4c1.3-1.2,3.2-1.8,5.5-1.8c1.1,0,2.1,0.1,3,0.4c0.9,0.2,1.7,0.6,2.4,1.2c0.7,0.5,1.2,1.2,1.6,2
		c0.4,0.8,0.6,1.8,0.6,3v0.7h-4.7c0-1.2-0.2-2-0.6-2.7c-0.4-0.6-1.1-0.9-2-0.9c-0.5,0-1,0.1-1.4,0.2c-0.4,0.2-0.7,0.4-0.9,0.6
		c-0.2,0.3-0.4,0.6-0.4,0.9s-0.1,0.7-0.1,1.1c0,0.7,0.2,1.4,0.5,1.9c0.3,0.5,1,1,2,1.4l3.8,1.6c0.9,0.4,1.7,0.8,2.3,1.3
		c0.6,0.4,1.1,0.9,1.4,1.4c0.4,0.5,0.6,1.1,0.7,1.7c0.1,0.6,0.2,1.3,0.2,2c0,2.6-0.7,4.4-2.2,5.6c-1.5,1.2-3.6,1.8-6.2,1.8
		c-2.8,0-4.7-0.6-5.9-1.8c-1.2-1.2-1.8-2.9-1.8-5.2v-1h4.9V222z"/>
	<path d="M490,204.6h4.9v24.3H490V204.6z"/>
	<path d="M512.8,208.6h-5.3v20.3h-4.9v-20.3h-5.3v-4h15.5V208.6z"/>
	<path d="M528.4,208.6h-8.7v5.7h8.2v4h-8.2v6.5h9v4h-13.9v-24.3h13.6V208.6z"/>
	<path d="M535.2,222c0,0.6,0,1.1,0.1,1.5c0.1,0.5,0.3,0.9,0.5,1.2c0.2,0.3,0.6,0.6,1,0.7c0.4,0.2,0.9,0.3,1.6,0.3
		c0.7,0,1.4-0.2,2-0.7c0.6-0.5,0.9-1.2,0.9-2.3c0-0.5-0.1-1-0.2-1.4c-0.1-0.4-0.4-0.8-0.7-1.1s-0.8-0.6-1.3-0.9
		c-0.6-0.3-1.2-0.5-2.1-0.8c-1.1-0.4-2-0.8-2.8-1.2c-0.8-0.4-1.5-0.9-2-1.5c-0.5-0.6-0.9-1.2-1.2-2c-0.2-0.8-0.4-1.6-0.4-2.6
		c0-2.4,0.7-4.2,2-5.4c1.3-1.2,3.2-1.8,5.5-1.8c1.1,0,2.1,0.1,3,0.4c0.9,0.2,1.7,0.6,2.4,1.2c0.7,0.5,1.2,1.2,1.6,2
		c0.4,0.8,0.6,1.8,0.6,3v0.7h-4.7c0-1.2-0.2-2-0.6-2.7c-0.4-0.6-1.1-0.9-2-0.9c-0.5,0-1,0.1-1.4,0.2c-0.4,0.2-0.7,0.4-0.9,0.6
		c-0.2,0.3-0.4,0.6-0.4,0.9s-0.1,0.7-0.1,1.1c0,0.7,0.2,1.4,0.5,1.9c0.3,0.5,1,1,2,1.4l3.8,1.6c0.9,0.4,1.7,0.8,2.3,1.3
		c0.6,0.4,1.1,0.9,1.4,1.4c0.4,0.5,0.6,1.1,0.7,1.7c0.1,0.6,0.2,1.3,0.2,2c0,2.6-0.7,4.4-2.2,5.6c-1.5,1.2-3.6,1.8-6.2,1.8
		c-2.8,0-4.7-0.6-5.9-1.8c-1.2-1.2-1.8-2.9-1.8-5.2v-1h4.9V222z"/>
	<path d="M561.6,221.5c0,0.6,0,1.2,0.1,1.7c0.1,0.5,0.2,1,0.4,1.3c0.2,0.4,0.5,0.7,0.9,0.9c0.4,0.2,0.8,0.3,1.4,0.3
		c0.6,0,1.1-0.1,1.4-0.3c0.4-0.2,0.7-0.5,0.9-0.9s0.4-0.8,0.4-1.3c0.1-0.5,0.1-1.1,0.1-1.7v-16.9h4.9v16.9c0,1.5-0.2,2.8-0.6,3.8
		c-0.4,1-1,1.8-1.7,2.4c-0.7,0.6-1.6,1-2.5,1.2c-0.9,0.2-1.9,0.3-2.9,0.3s-2-0.1-2.9-0.3c-0.9-0.2-1.8-0.5-2.5-1.1s-1.3-1.3-1.7-2.4
		c-0.4-1-0.6-2.3-0.6-4v-16.9h4.9V221.5z"/>
	<path d="M579.3,222c0,0.6,0,1.1,0.1,1.5c0.1,0.5,0.3,0.9,0.5,1.2c0.2,0.3,0.6,0.6,1,0.7c0.4,0.2,0.9,0.3,1.6,0.3
		c0.7,0,1.4-0.2,2-0.7c0.6-0.5,0.9-1.2,0.9-2.3c0-0.5-0.1-1-0.2-1.4c-0.1-0.4-0.4-0.8-0.7-1.1s-0.8-0.6-1.3-0.9
		c-0.6-0.3-1.2-0.5-2.1-0.8c-1.1-0.4-2-0.8-2.8-1.2c-0.8-0.4-1.5-0.9-2-1.5c-0.5-0.6-0.9-1.2-1.2-2c-0.2-0.8-0.4-1.6-0.4-2.6
		c0-2.4,0.7-4.2,2-5.4c1.3-1.2,3.2-1.8,5.5-1.8c1.1,0,2.1,0.1,3,0.4c0.9,0.2,1.7,0.6,2.4,1.2c0.7,0.5,1.2,1.2,1.6,2
		c0.4,0.8,0.6,1.8,0.6,3v0.7H585c0-1.2-0.2-2-0.6-2.7c-0.4-0.6-1.1-0.9-2-0.9c-0.5,0-1,0.1-1.4,0.2c-0.4,0.2-0.7,0.4-0.9,0.6
		c-0.2,0.3-0.4,0.6-0.4,0.9s-0.1,0.7-0.1,1.1c0,0.7,0.2,1.4,0.5,1.9c0.3,0.5,1,1,2,1.4l3.8,1.6c0.9,0.4,1.7,0.8,2.3,1.3
		c0.6,0.4,1.1,0.9,1.4,1.4c0.4,0.5,0.6,1.1,0.7,1.7c0.1,0.6,0.2,1.3,0.2,2c0,2.6-0.7,4.4-2.2,5.6c-1.5,1.2-3.6,1.8-6.2,1.8
		c-2.8,0-4.7-0.6-5.9-1.8c-1.2-1.2-1.8-2.9-1.8-5.2v-1h4.9V222z"/>
	<path d="M606.5,208.6h-8.7v5.7h8.2v4h-8.2v6.5h9v4H593v-24.3h13.6V208.6z"/>
	<path d="M617.6,204.6c1.7,0,3.1,0.3,4.1,0.8c1,0.6,1.9,1.3,2.4,2.4c0.6,1,1,2.3,1.2,3.7c0.2,1.5,0.3,3.1,0.3,4.9
		c0,2.1-0.1,4-0.4,5.6c-0.3,1.6-0.7,2.9-1.3,3.9c-0.6,1-1.5,1.8-2.5,2.3c-1.1,0.5-2.4,0.7-4,0.7h-7.7v-24.3H617.6z M616.6,225.2
		c0.9,0,1.6-0.1,2.1-0.4c0.5-0.3,0.9-0.8,1.2-1.5c0.3-0.7,0.5-1.6,0.6-2.7c0.1-1.1,0.2-2.5,0.2-4.1c0-1.4,0-2.6-0.1-3.6
		c-0.1-1-0.3-1.9-0.6-2.6c-0.3-0.7-0.7-1.2-1.3-1.6s-1.3-0.5-2.2-0.5h-2.1v17.1H616.6z"/>
</g>
<g>
	<path d="M355.4,239.6c1,0,1.9,0.1,2.8,0.3c0.9,0.2,1.6,0.5,2.2,1c0.6,0.5,1.1,1.1,1.4,1.9c0.3,0.8,0.5,1.8,0.5,2.9
		c0,1.3-0.3,2.4-0.9,3.4c-0.6,0.9-1.5,1.6-2.8,1.9v0.1c1.4,0.2,2.4,0.8,3.2,1.7c0.8,1,1.2,2.3,1.2,3.9c0,1-0.1,1.9-0.4,2.7
		s-0.7,1.6-1.3,2.3c-0.6,0.6-1.4,1.2-2.3,1.5c-1,0.4-2.2,0.6-3.6,0.6h-8.3v-24.3H355.4z M353.5,249.5c1.4,0,2.4-0.2,3-0.7
		c0.6-0.5,0.9-1.3,0.9-2.5s-0.3-2-0.9-2.4s-1.5-0.7-2.7-0.7h-1.8v6.4H353.5z M354,260.2c1.2,0,2.1-0.3,2.9-0.8
		c0.7-0.5,1.1-1.5,1.1-2.9c0-0.7-0.1-1.3-0.3-1.8c-0.2-0.5-0.5-0.8-0.8-1.1c-0.3-0.3-0.7-0.5-1.2-0.6c-0.5-0.1-1-0.2-1.5-0.2h-2.1
		v7.3H354z"/>
	<path d="M373.2,249L373.2,249l3.5-9.4h5.3l-6.3,14.7v9.6h-4.9v-9.6l-6.3-14.7h5.5L373.2,249z"/>
	<path d="M399.3,239.6l3.5,17.1h0.1l3.5-17.1h7.2v24.3h-4.5v-19.4H409l-4.3,19.4h-3.8l-4.3-19.4h-0.1v19.4H392v-24.3H399.3z"/>
	<path d="M427.8,239.6l6.4,24.3h-5.1l-1.1-5.1h-6.5l-1.1,5.1h-5.1l6.4-24.3H427.8z M427.2,254.7l-2.3-10.9h-0.1l-2.3,10.9H427.2z"/>
	<path d="M445,239.6c2,0,3.6,0.5,4.8,1.5c1.1,1,1.7,2.6,1.7,4.7c0,1.6-0.3,3-1,4c-0.7,1-1.7,1.7-3.1,2v0.1c1.2,0.2,2.1,0.6,2.7,1.2
		c0.6,0.6,0.9,1.6,1.1,3c0,0.5,0.1,0.9,0.1,1.5c0,0.5,0,1.1,0.1,1.8c0,1.3,0.1,2.3,0.2,3c0.1,0.7,0.4,1.1,0.9,1.4v0.2h-5.3
		c-0.2-0.3-0.4-0.7-0.5-1.2c-0.1-0.4-0.1-0.9-0.1-1.4l-0.1-4.7c0-1-0.3-1.7-0.7-2.2s-1.2-0.8-2.2-0.8h-2.6v10.3H436v-24.3H445z
		 M442.9,250.2c1.2,0,2.1-0.3,2.7-0.8s1-1.5,1-2.8c0-2.2-1.1-3.4-3.4-3.4h-2.3v7H442.9z"/>
	<path d="M459.8,249.3L459.8,249.3l6.3-9.7h5.3l-6.6,10.4l7.3,13.9h-5.5l-5-10l-1.8,2.8v7.2h-4.9v-24.3h4.9V249.3z"/>
	<path d="M486.7,243.6H478v5.7h8.2v4H478v6.5h9v4h-13.9v-24.3h13.6V243.6z"/>
	<path d="M503.7,243.6h-5.3v20.3h-4.9v-20.3h-5.3v-4h15.5V243.6z"/>
	<path d="M519.4,243.6h-8.7v5.7h8.2v4h-8.2v6.5h9v4h-13.9v-24.3h13.6V243.6z"/>
	<path d="M531.2,239.6c2,0,3.6,0.5,4.8,1.5c1.1,1,1.7,2.6,1.7,4.7c0,1.6-0.3,3-1,4c-0.7,1-1.7,1.7-3.1,2v0.1
		c1.2,0.2,2.1,0.6,2.7,1.2c0.6,0.6,0.9,1.6,1.1,3c0,0.5,0.1,0.9,0.1,1.5c0,0.5,0,1.1,0.1,1.8c0,1.3,0.1,2.3,0.2,3
		c0.1,0.7,0.4,1.1,0.9,1.4v0.2h-5.3c-0.2-0.3-0.4-0.7-0.5-1.2c-0.1-0.4-0.1-0.9-0.1-1.4l-0.1-4.7c0-1-0.3-1.7-0.7-2.2
		s-1.2-0.8-2.2-0.8h-2.6v10.3h-4.9v-24.3H531.2z M529.1,250.2c1.2,0,2.1-0.3,2.7-0.8s1-1.5,1-2.8c0-2.2-1.1-3.4-3.4-3.4h-2.3v7
		H529.1z"/>
	<path d="M545,257c0,0.6,0,1.1,0.1,1.5c0.1,0.5,0.3,0.9,0.5,1.2c0.2,0.3,0.6,0.6,1,0.7c0.4,0.2,0.9,0.3,1.6,0.3c0.7,0,1.4-0.2,2-0.7
		c0.6-0.5,0.9-1.2,0.9-2.3c0-0.5-0.1-1-0.2-1.4c-0.1-0.4-0.4-0.8-0.7-1.1c-0.3-0.3-0.8-0.6-1.3-0.9s-1.2-0.5-2.1-0.8
		c-1.1-0.4-2-0.8-2.8-1.2c-0.8-0.4-1.5-0.9-2-1.5c-0.5-0.6-0.9-1.2-1.2-2c-0.2-0.8-0.4-1.6-0.4-2.6c0-2.4,0.7-4.2,2-5.4
		c1.3-1.2,3.2-1.8,5.5-1.8c1.1,0,2.1,0.1,3,0.4c0.9,0.2,1.7,0.6,2.4,1.2c0.7,0.5,1.2,1.2,1.6,2c0.4,0.8,0.6,1.8,0.6,3v0.7h-4.7
		c0-1.2-0.2-2-0.6-2.7c-0.4-0.6-1.1-0.9-2-0.9c-0.5,0-1,0.1-1.4,0.2c-0.4,0.2-0.7,0.4-0.9,0.6c-0.2,0.3-0.4,0.6-0.4,0.9
		c-0.1,0.3-0.1,0.7-0.1,1.1c0,0.7,0.2,1.4,0.5,1.9c0.3,0.5,1,1,2,1.4l3.8,1.6c0.9,0.4,1.7,0.8,2.3,1.3c0.6,0.4,1.1,0.9,1.4,1.4
		c0.4,0.5,0.6,1.1,0.7,1.7c0.1,0.6,0.2,1.3,0.2,2c0,2.6-0.7,4.4-2.2,5.6c-1.5,1.2-3.6,1.8-6.2,1.8c-2.8,0-4.7-0.6-5.9-1.8
		s-1.8-2.9-1.8-5.2v-1h4.9V257z"/>
</g>
<g>
	<g>
		<g>
			<circle fill="#333433" cx="440.9" cy="77.6" r="48.1"/>
			<path fill="#FFFFFF" d="M440.9,126.7c-27.1,0-49.1-22-49.1-49.1c0-27.1,22-49.1,49.1-49.1c27.1,0,49.1,22,49.1,49.1
				C490,104.7,468,126.7,440.9,126.7z M440.9,30.5c-26,0-47.1,21.1-47.1,47.1c0,26,21.1,47.1,47.1,47.1c26,0,47.1-21.1,47.1-47.1
				C488,51.6,466.9,30.5,440.9,30.5z"/>
		</g>
		<g>
			<circle fill="#333433" cx="440.9" cy="77.6" r="41.3"/>
			<path fill="#FFFFFF" d="M440.9,119.9c-23.3,0-42.3-19-42.3-42.3c0-23.3,19-42.3,42.3-42.3s42.3,19,42.3,42.3
				C483.2,100.9,464.2,119.9,440.9,119.9z M440.9,37.3c-22.2,0-40.3,18.1-40.3,40.3s18.1,40.3,40.3,40.3s40.3-18.1,40.3-40.3
				S463.1,37.3,440.9,37.3z"/>
		</g>
	</g>
	<g>
		<g>
			<g>
				<path fill="#FFFFFF" d="M470.5,62.6c-2,1-4.2,1.6-6.5,1.9c2.3-1.5,4.1-3.9,5-6.7c-2.2,1.4-4.6,2.4-7.2,3c-2.1-2.4-5-3.9-8.2-3.9
					c-6.2,0-11.3,5.4-11.3,12.2c0,0.9,0.1,1.9,0.3,2.8c-9.4-0.5-17.7-5.3-23.3-12.7c-1,1.8-1.5,3.9-1.5,6.1c0,4.2,2,8,5,10.1
					c-1.9-0.1-3.6-0.6-5.1-1.5c0,0.1,0,0.1,0,0.2c0,5.9,3.9,10.8,9.1,11.9c-0.9,0.3-1.9,0.4-3,0.4c-0.7,0-1.4-0.1-2.1-0.2
					c1.4,4.8,5.6,8.4,10.5,8.4c-3.9,3.3-8.7,5.2-14,5.2c-0.9,0-1.8-0.1-2.7-0.2c5,3.5,10.9,5.5,17.3,5.5c20.8,0,32.1-18.5,32.1-34.6
					c0-0.5,0-1,0-1.6C467,67.1,469,65,470.5,62.6z"/>
			</g>
		</g>
	</g>
</g>
<g>
	<g>
		<g>
			<circle fill="#333433" cx="333.2" cy="75.8" r="46.1"/>
			<path fill="#FFFFFF" d="M333.2,122.9c-26,0-47.1-21.1-47.1-47.1s21.1-47.1,47.1-47.1c26,0,47.1,21.1,47.1,47.1
				S359.2,122.9,333.2,122.9z M333.2,30.8c-24.9,0-45.1,20.2-45.1,45.1c0,24.9,20.2,45.1,45.1,45.1s45.1-20.2,45.1-45.1
				C378.3,51,358.1,30.8,333.2,30.8z"/>
		</g>
		<g>
			<circle fill="#333433" cx="333.2" cy="75.8" r="39.5"/>
			<path fill="#FFFFFF" d="M333.2,116.4c-22.3,0-40.5-18.2-40.5-40.5s18.2-40.5,40.5-40.5c22.4,0,40.5,18.2,40.5,40.5
				S355.6,116.4,333.2,116.4z M333.2,37.3c-21.2,0-38.5,17.3-38.5,38.5s17.3,38.5,38.5,38.5c21.2,0,38.5-17.3,38.5-38.5
				S354.5,37.3,333.2,37.3z"/>
		</g>
	</g>
	<g>
		<g>
			<path fill="#FFFFFF" d="M336.7,81.6c-1.4-1-4-3.4-4-4.8c0-1.6,0.5-2.5,2.9-4.4c2.5-2,4.3-4.8,4.3-8c0-3.9-1.7-7.6-4.9-8.9h4.9
				l3.4-2.5H328c-6.9,0-13.4,5.2-13.4,11.2c0,6.2,4.7,11.1,11.7,11.1c0.5,0,1,0,1.4,0c-0.5,0.9-0.8,1.8-0.8,2.9
				c0,1.7,0.9,3.1,2.1,4.2c-0.9,0-1.7,0-2.7,0c-8.5,0-15.1,5.4-15.1,11.1c0,5.5,7.2,9,15.7,9c9.7,0,15.1-5.5,15.1-11.1
				C342.1,87.1,340.8,84.4,336.7,81.6z M328.5,73.9c-4-0.1-7.7-4.4-8.4-9.6c-0.7-5.2,2-9.2,5.9-9c4,0.1,7.7,4.3,8.4,9.5
				C335.1,69.9,332.5,74,328.5,73.9z M327,100.1c-5.9,0-10.1-3.7-10.1-8.2c0-4.4,5.3-8,11.2-8c1.4,0,2.7,0.2,3.8,0.6
				c3.2,2.2,5.5,3.5,6.1,6c0.1,0.5,0.2,1,0.2,1.6C338.2,96.6,335.3,100.1,327,100.1z"/>
		</g>
		<g>
			<polygon fill="#FFFFFF" points="353.1,74.3 353.1,68.4 348.3,68.4 348.3,74.3 342.3,74.3 342.3,79.1 348.3,79.1 348.3,85.1 
				353.1,85.1 353.1,79.1 359.1,79.1 359.1,74.3 			"/>
		</g>
	</g>
</g>
<g>
	<g>
		<g>
			<circle fill="#333433" cx="550.4" cy="75.9" r="45.4"/>
			<path fill="#FFFFFF" d="M550.4,122.3c-25.6,0-46.4-20.8-46.4-46.4s20.8-46.4,46.4-46.4s46.4,20.8,46.4,46.4
				S576,122.3,550.4,122.3z M550.4,31.6c-24.5,0-44.4,19.9-44.4,44.4c0,24.5,19.9,44.4,44.4,44.4c24.5,0,44.4-19.9,44.4-44.4
				C594.8,51.5,574.8,31.6,550.4,31.6z"/>
		</g>
		<g>
			<circle fill="#333433" cx="550.4" cy="75.9" r="38.9"/>
			<path fill="#FFFFFF" d="M550.4,115.9c-22,0-39.9-17.9-39.9-39.9S528.4,36,550.4,36s39.9,17.9,39.9,39.9S572.4,115.9,550.4,115.9z
				 M550.4,38c-20.9,0-37.9,17-37.9,37.9s17,37.9,37.9,37.9s37.9-17,37.9-37.9S571.3,38,550.4,38z"/>
		</g>
	</g>
	<g>
		<path fill="#FFFFFF" d="M563.9,68.2h-9.2v-6c0-2.3,1.5-2.8,2.6-2.8c1.1,0,6.5,0,6.5,0v-10l-8.9,0c-9.9,0-12.2,7.4-12.2,12.2v6.6
			h-5.7v10.3h5.7c0,13.2,0,29.1,0,29.1h12.1c0,0,0-16,0-29.1h8.1L563.9,68.2z"/>
	</g>
</g>
</svg>
