<?xml version="1.0" encoding="utf-8"?>
<!-- Generator: Adobe Illustrator 18.0.0, SVG Export Plug-In . SVG Version: 6.00 Build 0)  -->
<!DOCTYPE svg PUBLIC "-//W3C//DTD SVG 1.1//EN" "http://www.w3.org/Graphics/SVG/1.1/DTD/svg11.dtd">
<svg version="1.1" id="Layer_1" xmlns="http://www.w3.org/2000/svg" xmlns:xlink="http://www.w3.org/1999/xlink" x="0px" y="0px"
	 viewBox="0 0 892 150" enable-background="new 0 0 892 150" xml:space="preserve">
<g>
	<g>
		<circle fill="#333433" stroke="#FFFFFF" stroke-width="2" stroke-miterlimit="10" cx="275" cy="77.1" r="64.1"/>
		<circle fill="#333433" stroke="#FFFFFF" stroke-width="2" stroke-miterlimit="10" cx="275" cy="77.1" r="55"/>
	</g>
	<g>
		<g>
			<path fill="#FFFFFF" d="M314.4,57c-2.7,1.3-5.6,2.2-8.7,2.6c3.1-2,5.5-5.2,6.6-9c-2.9,1.8-6.1,3.2-9.6,3.9
				c-2.7-3.2-6.7-5.1-11-5.1c-8.3,0-15,7.2-15,16.2c0,1.3,0.1,2.5,0.4,3.7c-12.5-0.6-23.6-7.1-31-16.9c-1.3,2.4-2,5.2-2,8.1
				c0,5.6,2.7,10.6,6.7,13.5c-2.5-0.1-4.8-0.8-6.8-2c0,0.1,0,0.2,0,0.2c0,7.8,5.2,14.4,12.1,15.9c-1.3,0.4-2.6,0.5-4,0.5
				c-1,0-1.9-0.1-2.8-0.3c1.9,6.5,7.5,11.2,14.1,11.3c-5.2,4.4-11.6,6.9-18.7,6.9c-1.2,0-2.4-0.1-3.6-0.2c6.7,4.6,14.6,7.3,23.1,7.3
				c27.7,0,42.8-24.7,42.8-46.1c0-0.7,0-1.4,0-2.1C309.8,63.1,312.4,60.3,314.4,57z"/>
		</g>
	</g>
</g>
<g>
	<g>
		<line fill="none" stroke="#808080" stroke-width="8" stroke-miterlimit="10" x1="350" y1="77" x2="356" y2="77"/>
		
			<line fill="none" stroke="#808080" stroke-width="8" stroke-miterlimit="10" stroke-dasharray="12,12" x1="368" y1="77" x2="484" y2="77"/>
		<line fill="none" stroke="#808080" stroke-width="8" stroke-miterlimit="10" x1="490" y1="77" x2="496" y2="77"/>
		<g>
			<path fill="#808080" d="M544.7,77.5c-22.7,8.4-50.9,22.8-68.4,38l13.8-38l-13.8-38C493.8,54.7,522,69,544.7,77.5z"/>
		</g>
	</g>
</g>
<g>
	<path fill="#C21429" d="M577.4,28.4L576,42.7h0.2c1.2-1.7,2.7-2.9,4.6-3.6c1.9-0.7,4.2-1.1,6.9-1.1c3,0,5.5,0.6,7.5,1.7
		c2,1.2,3.5,2.7,4.7,4.6c1.2,1.9,2,4,2.4,6.4c0.5,2.4,0.7,4.8,0.7,7.3c0,3.5-0.3,6.7-0.9,9.5c-0.6,2.8-1.6,5.3-3.1,7.3
		c-1.5,2-3.6,3.6-6.2,4.6c-2.6,1-5.9,1.6-9.9,1.6c-4,0-7.2-0.5-9.6-1.6c-2.5-1.1-4.3-2.5-5.6-4.2c-1.3-1.7-2.2-3.6-2.6-5.7
		s-0.7-3.9-0.7-5.7v-1.7h12.2c0,1.1,0.1,2.2,0.2,3.4c0.1,1.2,0.4,2.3,0.8,3.3c0.4,1,1.1,1.9,1.9,2.6c0.8,0.7,1.9,1,3.3,1
		c2.7,0,4.6-1,5.7-3.1c1.2-2,1.7-5.1,1.7-9.2c0-2.6-0.1-4.8-0.4-6.5c-0.2-1.7-0.6-3.1-1.2-4.1c-0.6-1-1.3-1.7-2.3-2.1
		c-0.9-0.4-2.1-0.6-3.5-0.6c-1.8,0-3.2,0.5-4.2,1.6c-1,1-1.6,2.4-1.8,4.2h-11.4l2.3-34.2h32.7v9.9H577.4z"/>
	<path fill="#C21429" d="M619.1,28.4l-1.3,14.3h0.2c1.2-1.7,2.7-2.9,4.6-3.6c1.9-0.7,4.2-1.1,6.9-1.1c3,0,5.5,0.6,7.5,1.7
		c2,1.2,3.5,2.7,4.7,4.6c1.2,1.9,2,4,2.4,6.4c0.5,2.4,0.7,4.8,0.7,7.3c0,3.5-0.3,6.7-0.9,9.5c-0.6,2.8-1.6,5.3-3.1,7.3
		c-1.5,2-3.6,3.6-6.2,4.6c-2.6,1-5.9,1.6-9.9,1.6c-4,0-7.2-0.5-9.6-1.6c-2.5-1.1-4.3-2.5-5.6-4.2c-1.3-1.7-2.2-3.6-2.6-5.7
		s-0.7-3.9-0.7-5.7v-1.7h12.2c0,1.1,0.1,2.2,0.2,3.4c0.1,1.2,0.4,2.3,0.8,3.3c0.4,1,1.1,1.9,1.9,2.6c0.8,0.7,1.9,1,3.3,1
		c2.7,0,4.6-1,5.7-3.1c1.2-2,1.7-5.1,1.7-9.2c0-2.6-0.1-4.8-0.4-6.5c-0.2-1.7-0.6-3.1-1.2-4.1c-0.6-1-1.3-1.7-2.3-2.1
		c-0.9-0.4-2.1-0.6-3.5-0.6c-1.8,0-3.2,0.5-4.2,1.6c-1,1-1.6,2.4-1.8,4.2h-11.4l2.3-34.2h32.7v9.9H619.1z"/>
	<path fill="#C21429" d="M668.5,17.2h13.2V57h6V67h-6v13H670V67h-22.4V56.5L668.5,17.2z M669.8,33.2L657.6,57H670V33.2H669.8z"/>
	<path fill="#C21429" d="M704.7,80H693V66.2h11.7V80z"/>
	<path fill="#C21429" d="M749.3,28.2c-2.6,3.7-4.9,7.6-7,11.8c-2,4.2-3.8,8.5-5.4,13c-1.5,4.4-2.8,8.9-3.8,13.5
		c-1,4.6-1.8,9.1-2.3,13.5h-13.4c0.5-3.8,1.2-7.8,2.1-11.9c0.9-4.2,2.2-8.4,3.8-12.7c1.6-4.3,3.5-8.7,5.7-13c2.2-4.4,4.9-8.7,8-12.9
		h-26.4v-11h38.7V28.2z"/>
</g>
<g>
	<path fill="#C21429" d="M602.5,91.7l3.7,18.5h0.1l3.8-18.5h7.8v26.2H613V97h-0.1l-4.7,20.9h-4.1L599.5,97h-0.1v20.9h-4.8V91.7
		H602.5z"/>
	<path fill="#C21429" d="M621.9,91.7h5.3v26.2h-5.3V91.7z"/>
	<path fill="#C21429" d="M631.1,91.7h5.3v21.8h9.3v4.3h-14.6V91.7z"/>
	<path fill="#C21429" d="M648,91.7h5.3v21.8h9.3v4.3H648V91.7z"/>
	<path fill="#C21429" d="M665.2,91.7h5.3v26.2h-5.3V91.7z"/>
	<path fill="#C21429" d="M674.2,99.3c0.2-1.7,0.6-3.1,1.2-4.3c0.6-1.2,1.5-2.1,2.7-2.8c1.2-0.7,2.7-1,4.7-1c2,0,3.6,0.3,4.7,1
		s2.1,1.6,2.7,2.8s1,2.6,1.2,4.3c0.2,1.7,0.3,3.5,0.3,5.5c0,2-0.1,3.8-0.3,5.5c-0.2,1.7-0.6,3.1-1.2,4.3s-1.5,2.1-2.7,2.7
		s-2.7,1-4.7,1c-2,0-3.6-0.3-4.7-1c-1.2-0.6-2.1-1.6-2.7-2.7c-0.6-1.2-1-2.6-1.2-4.3c-0.2-1.7-0.3-3.5-0.3-5.5
		C673.9,102.8,674,101,674.2,99.3z M679.3,109.3c0.1,1.2,0.3,2.2,0.5,3c0.3,0.8,0.6,1.3,1.1,1.7c0.5,0.4,1.1,0.5,1.9,0.5
		c0.8,0,1.4-0.2,1.9-0.5c0.5-0.4,0.8-0.9,1.1-1.7c0.3-0.8,0.4-1.8,0.5-3c0.1-1.2,0.1-2.7,0.1-4.5c0-1.8,0-3.2-0.1-4.5
		c-0.1-1.2-0.3-2.2-0.5-3c-0.3-0.8-0.6-1.3-1.1-1.7c-0.5-0.4-1.1-0.5-1.9-0.5c-0.8,0-1.4,0.2-1.9,0.5c-0.5,0.4-0.8,0.9-1.1,1.7
		c-0.3,0.8-0.4,1.8-0.5,3c-0.1,1.2-0.1,2.7-0.1,4.5C679.2,106.5,679.2,108,679.3,109.3z"/>
	<path fill="#C21429" d="M707.3,109.6L707.3,109.6l0.1-17.9h4.8v26.2h-6l-6.4-18.3h-0.1v18.3h-4.8V91.7h6.1L707.3,109.6z"/>
</g>
</svg>
