<?xml version="1.0" encoding="utf-8"?>
<!-- Generator: Adobe Illustrator 18.0.0, SVG Export Plug-In . SVG Version: 6.00 Build 0)  -->
<!DOCTYPE svg PUBLIC "-//W3C//DTD SVG 1.1//EN" "http://www.w3.org/Graphics/SVG/1.1/DTD/svg11.dtd">
<svg version="1.1" id="Layer_1" xmlns="http://www.w3.org/2000/svg" xmlns:xlink="http://www.w3.org/1999/xlink" x="0px" y="0px"
	 viewBox="0 0 892 150" enable-background="new 0 0 892 150" xml:space="preserve">
<g>
	<g>
		<circle fill="#333433" stroke="#FFFFFF" stroke-width="2" stroke-miterlimit="10" cx="274" cy="77.9" r="61.4"/>
		<circle fill="#333433" stroke="#FFFFFF" stroke-width="2" stroke-miterlimit="10" cx="274" cy="77.9" r="52.7"/>
	</g>
	<g>
		<path fill="#FFFFFF" d="M278.7,85.5c-1.8-1.3-5.4-4.5-5.4-6.4c0-2.2,0.6-3.3,3.9-5.8c3.4-2.6,5.8-6.4,5.8-10.7
			c0-5.1-2.3-10.2-6.6-11.8h6.5l4.6-3.3H267c-9.2,0-17.8,6.9-17.8,15c0,8.2,6.2,14.9,15.6,14.9c0.7,0,1.3,0,1.9-0.1
			c-0.6,1.2-1,2.5-1,3.8c0,2.3,1.2,4.1,2.8,5.7c-1.2,0-2.3,0-3.5,0c-11.4,0-20.1,7.2-20.1,14.7c0,7.4,9.6,12,20.9,12
			c12.9,0,20.1-7.3,20.1-14.7C285.8,92.9,284.1,89.3,278.7,85.5z M267.8,75.3c-5.3-0.2-10.3-5.9-11.2-12.8
			c-0.9-6.9,2.6-12.2,7.9-12.1c5.3,0.2,10.3,5.7,11.2,12.6C276.5,70,273,75.4,267.8,75.3z M265.7,110.3c-7.8,0-13.5-5-13.5-10.9
			c0-5.8,7-10.7,14.9-10.6c1.8,0,3.5,0.3,5.1,0.8c4.3,3,7.3,4.6,8.2,8c0.2,0.7,0.3,1.4,0.3,2.1C280.6,105.6,276.7,110.3,265.7,110.3
			z"/>
		<polygon fill="#FFFFFF" points="300.5,75.9 300.5,67.9 294.1,67.9 294.1,75.9 286.1,75.9 286.1,82.3 294.1,82.3 294.1,90.3 
			300.5,90.3 300.5,82.3 308.4,82.3 308.4,75.9 		"/>
	</g>
</g>
<g>
	<line fill="none" stroke="#808080" stroke-width="8" stroke-miterlimit="10" x1="351" y1="78" x2="357" y2="78"/>
	
		<line fill="none" stroke="#808080" stroke-width="8" stroke-miterlimit="10" stroke-dasharray="12,12" x1="369" y1="78" x2="485" y2="78"/>
	<line fill="none" stroke="#808080" stroke-width="8" stroke-miterlimit="10" x1="491" y1="78" x2="497" y2="78"/>
	<g>
		<path fill="#808080" d="M545.7,78.2c-22.7,8.4-50.9,22.8-68.4,38l13.8-38l-13.8-38C494.8,55.4,523,69.7,545.7,78.2z"/>
	</g>
</g>
<g>
	<path fill="#C21429" d="M617.1,42.1h-12.5v-8.3h1.2c4.3,0,7.6-0.8,10.1-2.4c2.5-1.6,4-4.2,4.7-7.7h9.4v62.8h-12.8V42.1z"/>
</g>
<g>
	<path fill="#C21429" d="M580.5,98.2c1.1,0,2.1,0.1,3,0.3s1.7,0.6,2.4,1.1c0.7,0.5,1.2,1.2,1.5,2.1c0.4,0.9,0.5,1.9,0.5,3.2
		c0,1.4-0.3,2.6-1,3.6s-1.6,1.7-3,2.1v0.1c1.5,0.2,2.6,0.8,3.5,1.9c0.9,1,1.3,2.5,1.3,4.2c0,1-0.1,2-0.4,2.9s-0.7,1.7-1.4,2.4
		c-0.6,0.7-1.5,1.3-2.5,1.7c-1,0.4-2.3,0.6-3.9,0.6h-8.9V98.2H580.5z M578.5,108.9c1.5,0,2.5-0.3,3.2-0.8c0.7-0.5,1-1.4,1-2.7
		c0-1.2-0.3-2.1-0.9-2.6c-0.6-0.5-1.6-0.8-2.9-0.8H577v6.9H578.5z M579,120.5c1.3,0,2.3-0.3,3.1-0.8c0.8-0.6,1.2-1.6,1.2-3.1
		c0-0.8-0.1-1.4-0.3-1.9c-0.2-0.5-0.5-0.9-0.8-1.2c-0.4-0.3-0.8-0.5-1.3-0.6c-0.5-0.1-1-0.2-1.6-0.2H577v7.9H579z"/>
	<path fill="#C21429" d="M592.3,98.2h5.3v26.2h-5.3V98.2z"/>
	<path fill="#C21429" d="M601.5,98.2h5.3V120h9.3v4.3h-14.6V98.2z"/>
	<path fill="#C21429" d="M618.5,98.2h5.3V120h9.3v4.3h-14.6V98.2z"/>
	<path fill="#C21429" d="M635.7,98.2h5.3v26.2h-5.3V98.2z"/>
	<path fill="#C21429" d="M644.6,105.8c0.2-1.7,0.6-3.1,1.2-4.3c0.6-1.2,1.5-2.1,2.7-2.8c1.2-0.7,2.7-1,4.7-1c2,0,3.6,0.3,4.7,1
		s2.1,1.6,2.7,2.8s1,2.6,1.2,4.3c0.2,1.7,0.3,3.5,0.3,5.5c0,2-0.1,3.8-0.3,5.5c-0.2,1.7-0.6,3.1-1.2,4.3s-1.5,2.1-2.7,2.7
		s-2.7,1-4.7,1c-2,0-3.6-0.3-4.7-1c-1.2-0.6-2.1-1.6-2.7-2.7c-0.6-1.2-1-2.6-1.2-4.3c-0.2-1.7-0.3-3.5-0.3-5.5
		C644.4,109.3,644.4,107.5,644.6,105.8z M649.8,115.8c0.1,1.2,0.3,2.2,0.5,3c0.3,0.8,0.6,1.3,1.1,1.7c0.5,0.4,1.1,0.5,1.9,0.5
		c0.8,0,1.4-0.2,1.9-0.5c0.5-0.4,0.8-0.9,1.1-1.7c0.3-0.8,0.4-1.8,0.5-3c0.1-1.2,0.1-2.7,0.1-4.5c0-1.8,0-3.2-0.1-4.5
		c-0.1-1.2-0.3-2.2-0.5-3c-0.3-0.8-0.6-1.3-1.1-1.7c-0.5-0.4-1.1-0.5-1.9-0.5c-0.8,0-1.4,0.2-1.9,0.5c-0.5,0.4-0.8,0.9-1.1,1.7
		c-0.3,0.8-0.4,1.8-0.5,3c-0.1,1.2-0.1,2.7-0.1,4.5C649.6,113.1,649.7,114.5,649.8,115.8z"/>
	<path fill="#C21429" d="M677.7,116.1L677.7,116.1l0.1-17.9h4.8v26.2h-6l-6.4-18.3h-0.1v18.3h-4.8V98.2h6.1L677.7,116.1z"/>
</g>
</svg>
