<?xml version="1.0" encoding="utf-8"?>
<!-- Generator: Adobe Illustrator 18.0.0, SVG Export Plug-In . SVG Version: 6.00 Build 0)  -->
<!DOCTYPE svg PUBLIC "-//W3C//DTD SVG 1.1//EN" "http://www.w3.org/Graphics/SVG/1.1/DTD/svg11.dtd">
<svg version="1.1" id="Layer_1" xmlns="http://www.w3.org/2000/svg" xmlns:xlink="http://www.w3.org/1999/xlink" x="0px" y="0px"
	 viewBox="0 0 892 150" enable-background="new 0 0 892 150" xml:space="preserve">
<g>
	<g>
		<circle fill="#333433" stroke="#FFFFFF" stroke-width="2" stroke-miterlimit="10" cx="280.2" cy="73.2" r="62.7"/>
		<circle fill="#333433" stroke="#FFFFFF" stroke-width="2" stroke-miterlimit="10" cx="280.2" cy="73.2" r="53.8"/>
	</g>
	<path fill="#FFFFFF" d="M280.2,35.9c-20.6,0-37.3,16.7-37.3,37.3c0,15.3,9.2,28.4,22.3,34.2c-0.1-2.6,0-5.7,0.6-8.6
		c0.7-3,4.8-20.3,4.8-20.3s-1.2-2.4-1.2-5.9c0-5.5,3.2-9.7,7.2-9.7c3.4,0,5,2.6,5,5.6c0,3.4-2.2,8.5-3.3,13.2c-0.9,4,2,7.2,5.9,7.2
		c7.1,0,11.8-9.1,11.8-19.8c0-8.2-5.5-14.3-15.5-14.3c-11.3,0-18.4,8.4-18.4,17.9c0,3.3,1,5.5,2.5,7.3c0.7,0.8,0.8,1.1,0.5,2.1
		c-0.2,0.7-0.6,2.3-0.8,3c-0.2,0.9-1,1.3-1.9,0.9c-5.2-2.1-7.6-7.8-7.6-14.3c0-10.6,8.9-23.3,26.7-23.3c14.3,0,23.6,10.3,23.6,21.4
		c0,14.6-8.1,25.6-20.1,25.6c-4,0-7.8-2.2-9.1-4.7c0,0-2.2,8.6-2.6,10.3c-0.8,2.9-2.3,5.8-3.8,8c3.4,1,6.9,1.5,10.6,1.5
		c20.6,0,37.3-16.7,37.3-37.3C317.5,52.6,300.8,35.9,280.2,35.9z"/>
</g>
<g>
	<g>
		<line fill="none" stroke="#808080" stroke-width="8" stroke-miterlimit="10" x1="357" y1="81" x2="363" y2="81"/>
		
			<line fill="none" stroke="#808080" stroke-width="8" stroke-miterlimit="10" stroke-dasharray="12,12" x1="375" y1="81" x2="491" y2="81"/>
		<line fill="none" stroke="#808080" stroke-width="8" stroke-miterlimit="10" x1="497" y1="81" x2="503" y2="81"/>
		<g>
			<path fill="#808080" d="M551.7,80.6c-22.7,8.4-50.9,22.8-68.4,38l13.8-38l-13.8-38C500.8,57.8,529,72.2,551.7,80.6z"/>
		</g>
	</g>
</g>
<g>
	<path fill="#C21429" d="M575.7,44.6h-12.5v-8.3h1.2c4.3,0,7.6-0.8,10.1-2.4c2.5-1.6,4-4.2,4.7-7.7h9.4V89h-12.8V44.6z"/>
	<path fill="#C21429" d="M619.5,37.3l-1.3,14.3h0.2c1.2-1.7,2.7-2.9,4.6-3.6c1.9-0.7,4.2-1.1,6.9-1.1c3,0,5.5,0.6,7.5,1.7
		c2,1.2,3.5,2.7,4.7,4.6c1.2,1.9,2,4,2.4,6.4c0.5,2.4,0.7,4.8,0.7,7.3c0,3.5-0.3,6.7-0.9,9.5c-0.6,2.8-1.6,5.3-3.1,7.3
		c-1.5,2-3.6,3.6-6.2,4.6c-2.6,1-5.9,1.6-9.9,1.6c-4,0-7.2-0.5-9.6-1.6c-2.5-1.1-4.3-2.5-5.6-4.2c-1.3-1.7-2.2-3.6-2.6-5.7
		s-0.7-3.9-0.7-5.7V71h12.2c0,1.1,0.1,2.2,0.2,3.4c0.1,1.2,0.4,2.3,0.8,3.3c0.4,1,1.1,1.9,1.9,2.6c0.8,0.7,1.9,1,3.3,1
		c2.7,0,4.6-1,5.7-3.1c1.2-2,1.7-5.1,1.7-9.2c0-2.6-0.1-4.8-0.4-6.5c-0.2-1.7-0.6-3.1-1.2-4.1c-0.6-1-1.3-1.7-2.3-2.1
		c-0.9-0.4-2.1-0.6-3.5-0.6c-1.8,0-3.2,0.5-4.2,1.6c-1,1-1.6,2.4-1.8,4.2h-11.4l2.3-34.2h32.7v9.9H619.5z"/>
	<path fill="#C21429" d="M652.4,47.1c0.3-4,1.1-7.6,2.4-10.7c1.3-3.1,3.3-5.6,5.9-7.5c2.6-1.9,6.3-2.8,11-2.8c3.8,0,7,0.5,9.5,1.6
		c2.5,1.1,4.5,2.9,6,5.3c1.5,2.4,2.6,5.6,3.2,9.5c0.6,3.9,0.9,8.6,0.9,14.2c0,4.4-0.1,8.6-0.4,12.6c-0.3,4-1.1,7.6-2.4,10.7
		c-1.3,3.1-3.3,5.5-5.9,7.3c-2.6,1.8-6.3,2.7-11,2.7c-3.8,0-7-0.5-9.5-1.5c-2.5-1-4.6-2.7-6.1-5.1s-2.6-5.6-3.2-9.5
		c-0.6-3.9-0.9-8.6-0.9-14.2C652,55.3,652.1,51.1,652.4,47.1z M665.1,72.2c0.2,2.5,0.6,4.5,1.1,5.9c0.5,1.5,1.2,2.4,2.1,3
		s2,0.8,3.4,0.8c1.4,0,2.6-0.3,3.5-1c0.9-0.7,1.6-1.8,2.1-3.5c0.5-1.6,0.9-3.8,1.1-6.5c0.2-2.7,0.3-6.1,0.3-10.1v-6.8
		c0-4-0.1-7.2-0.3-9.7c-0.2-2.5-0.6-4.5-1.1-5.9c-0.5-1.4-1.2-2.4-2.1-3c-0.9-0.5-2-0.8-3.4-0.8c-1.4,0-2.6,0.3-3.5,1
		c-0.9,0.7-1.6,1.8-2.1,3.5c-0.5,1.6-0.9,3.8-1.1,6.5c-0.2,2.7-0.3,6.1-0.3,10.1v6.8C664.8,66.4,664.9,69.6,665.1,72.2z"/>
</g>
<g>
	<path fill="#C21429" d="M577.4,100.7l3.7,18.5h0.1l3.8-18.5h7.8v26.2h-4.8v-20.9h-0.1l-4.7,20.9h-4.1l-4.7-20.9h-0.1v20.9h-4.8
		v-26.2H577.4z"/>
	<path fill="#C21429" d="M596.8,100.7h5.3v26.2h-5.3V100.7z"/>
	<path fill="#C21429" d="M606,100.7h5.3v21.8h9.3v4.3H606V100.7z"/>
	<path fill="#C21429" d="M623,100.7h5.3v21.8h9.3v4.3H623V100.7z"/>
	<path fill="#C21429" d="M640.2,100.7h5.3v26.2h-5.3V100.7z"/>
	<path fill="#C21429" d="M649.1,108.3c0.2-1.7,0.6-3.1,1.2-4.3c0.6-1.2,1.5-2.1,2.7-2.8c1.2-0.7,2.7-1,4.7-1c2,0,3.6,0.3,4.7,1
		s2.1,1.6,2.7,2.8s1,2.6,1.2,4.3c0.2,1.7,0.3,3.5,0.3,5.5c0,2-0.1,3.8-0.3,5.5c-0.2,1.7-0.6,3.1-1.2,4.3s-1.5,2.1-2.7,2.7
		s-2.7,1-4.7,1c-2,0-3.6-0.3-4.7-1c-1.2-0.6-2.1-1.6-2.7-2.7c-0.6-1.2-1-2.6-1.2-4.3c-0.2-1.7-0.3-3.5-0.3-5.5
		C648.8,111.8,648.9,109.9,649.1,108.3z M654.2,118.2c0.1,1.2,0.3,2.2,0.5,3c0.3,0.8,0.6,1.3,1.1,1.7c0.5,0.4,1.1,0.5,1.9,0.5
		c0.8,0,1.4-0.2,1.9-0.5c0.5-0.4,0.8-0.9,1.1-1.7c0.3-0.8,0.4-1.8,0.5-3c0.1-1.2,0.1-2.7,0.1-4.5c0-1.8,0-3.2-0.1-4.5
		c-0.1-1.2-0.3-2.2-0.5-3c-0.3-0.8-0.6-1.3-1.1-1.7c-0.5-0.4-1.1-0.5-1.9-0.5c-0.8,0-1.4,0.2-1.9,0.5c-0.5,0.4-0.8,0.9-1.1,1.7
		c-0.3,0.8-0.4,1.8-0.5,3c-0.1,1.2-0.1,2.7-0.1,4.5C654.1,115.5,654.1,117,654.2,118.2z"/>
	<path fill="#C21429" d="M682.2,118.6L682.2,118.6l0.1-17.9h4.8v26.2h-6l-6.4-18.3h-0.1v18.3h-4.8v-26.2h6.1L682.2,118.6z"/>
</g>
</svg>
