<?xml version="1.0" encoding="utf-8"?>
<!-- Generator: Adobe Illustrator 18.0.0, SVG Export Plug-In . SVG Version: 6.00 Build 0)  -->
<!DOCTYPE svg PUBLIC "-//W3C//DTD SVG 1.1//EN" "http://www.w3.org/Graphics/SVG/1.1/DTD/svg11.dtd">
<svg version="1.1" id="Layer_1" xmlns="http://www.w3.org/2000/svg" xmlns:xlink="http://www.w3.org/1999/xlink" x="0px" y="0px"
	 viewBox="0 0 892 214" enable-background="new 0 0 892 214" xml:space="preserve">
<g>
	<g>
		<g>
			<circle fill="#333433" cx="241.3" cy="107.2" r="75.4"/>
			<path fill="#FFFFFF" d="M241.3,183.6c-42.1,0-76.4-34.3-76.4-76.4s34.3-76.4,76.4-76.4s76.4,34.3,76.4,76.4
				S283.4,183.6,241.3,183.6z M241.3,32.7c-41,0-74.4,33.4-74.4,74.4s33.4,74.4,74.4,74.4c41,0,74.4-33.4,74.4-74.4
				S282.3,32.7,241.3,32.7z"/>
		</g>
		<g>
			<circle fill="#333433" cx="241.3" cy="107.2" r="64.7"/>
			<path fill="#FFFFFF" d="M241.3,172.9c-36.2,0-65.7-29.5-65.7-65.7s29.5-65.7,65.7-65.7S307,71,307,107.2S277.5,172.9,241.3,172.9
				z M241.3,43.5c-35.1,0-63.7,28.6-63.7,63.7c0,35.1,28.6,63.7,63.7,63.7c35.1,0,63.7-28.6,63.7-63.7
				C305,72.1,276.4,43.5,241.3,43.5z"/>
		</g>
	</g>
	<g>
		<g>
			<path fill="#FFFFFF" d="M247,116.5c-2.3-1.6-6.6-5.5-6.6-7.8c0-2.7,0.8-4,4.8-7.2c4.2-3.2,7.1-7.8,7.1-13.1
				c0-6.3-2.8-12.5-8.1-14.5h8l5.6-4.1h-25.1c-11.3,0-21.9,8.5-21.9,18.4c0,10.1,7.7,18.2,19.1,18.2c0.8,0,1.6,0,2.3-0.1
				c-0.7,1.4-1.3,3-1.3,4.7c0,2.8,1.5,5.1,3.4,6.9c-1.4,0-2.8,0-4.4,0c-13.9,0-24.7,8.9-24.7,18.1c0,9.1,11.8,14.7,25.7,14.7
				c15.9,0,24.7-9,24.7-18.1C255.8,125.6,253.6,121.2,247,116.5z M233.6,104c-6.5-0.2-12.6-7.2-13.7-15.7c-1.1-8.5,3.2-15,9.7-14.8
				c6.5,0.2,12.6,7,13.7,15.5C244.4,97.4,240.1,104.2,233.6,104z M231.1,146.9c-9.6,0-16.6-6.1-16.6-13.4c0-7.2,8.6-13.2,18.3-13.1
				c2.2,0,4.3,0.4,6.2,1c5.2,3.6,9,5.7,10,9.8c0.2,0.8,0.3,1.7,0.3,2.6C249.3,141.2,244.6,146.9,231.1,146.9z"/>
		</g>
		<g>
			<polygon fill="#FFFFFF" points="273.8,104.7 273.8,94.9 265.9,94.9 265.9,104.7 256.1,104.7 256.1,112.6 265.9,112.6 
				265.9,122.3 273.8,122.3 273.8,112.6 283.6,112.6 283.6,104.7 			"/>
		</g>
	</g>
</g>
<g>
	<path fill="#C21429" d="M362.3,54.4l-1,11.2h0.1c0.9-1.3,2.1-2.2,3.6-2.8c1.5-0.6,3.3-0.9,5.4-0.9c2.4,0,4.3,0.5,5.9,1.4
		c1.6,0.9,2.8,2.1,3.7,3.6c0.9,1.5,1.5,3.2,1.9,5.1c0.4,1.9,0.6,3.8,0.6,5.7c0,2.7-0.2,5.2-0.7,7.5c-0.5,2.2-1.3,4.1-2.5,5.7
		s-2.8,2.8-4.8,3.6c-2,0.8-4.6,1.2-7.8,1.2c-3.1,0-5.6-0.4-7.6-1.3c-1.9-0.8-3.4-1.9-4.4-3.3c-1-1.4-1.7-2.9-2.1-4.5
		c-0.3-1.6-0.5-3.1-0.5-4.5v-1.3h9.6c0,0.8,0,1.7,0.1,2.6c0.1,0.9,0.3,1.8,0.7,2.6c0.3,0.8,0.8,1.5,1.5,2s1.5,0.8,2.6,0.8
		c2.1,0,3.6-0.8,4.5-2.4s1.4-4,1.4-7.2c0-2-0.1-3.7-0.3-5.1c-0.2-1.3-0.5-2.4-0.9-3.2c-0.4-0.8-1-1.3-1.8-1.7
		c-0.7-0.3-1.7-0.5-2.8-0.5c-1.4,0-2.5,0.4-3.3,1.2c-0.8,0.8-1.2,1.9-1.4,3.3h-9l1.8-26.8h25.7v7.8H362.3z"/>
	<path fill="#C21429" d="M405,53.7c-0.7-1-1.8-1.5-3.5-1.5c-1.3,0-2.4,0.3-3.2,0.9s-1.4,1.5-1.9,2.6c-0.4,1.1-0.7,2.4-0.9,4
		c-0.1,1.5-0.2,3.2-0.2,5v2.4h0.1c0.8-1.3,2-2.3,3.6-3.1c1.6-0.8,3.4-1.1,5.7-1.1c2.2,0,4,0.4,5.6,1.1c1.5,0.8,2.8,1.8,3.7,3.2
		c1,1.4,1.6,3,2.1,4.9c0.4,1.9,0.7,3.9,0.7,6.2c0,5.7-1.3,10-3.8,13c-2.5,2.9-6.6,4.4-12.2,4.4c-3.4,0-6.2-0.6-8.2-1.8
		s-3.6-2.9-4.7-5c-1.1-2.1-1.8-4.6-2.1-7.3c-0.3-2.8-0.5-5.7-0.5-8.7c0-3.5,0.1-6.9,0.3-10.1s0.8-6.2,1.9-8.7c1-2.5,2.7-4.6,4.9-6.1
		c2.2-1.5,5.4-2.3,9.5-2.3c1.8,0,3.5,0.2,5.1,0.6c1.6,0.4,3.1,1.1,4.4,2.1s2.3,2.3,3,3.9c0.8,1.6,1.2,3.6,1.2,6H406
		C406,56.2,405.6,54.7,405,53.7z M396,83.5c0.1,1.2,0.4,2.2,0.8,3.1c0.4,0.9,1,1.5,1.7,2c0.7,0.5,1.7,0.7,2.8,0.7
		c1.2,0,2.2-0.2,2.9-0.7c0.7-0.5,1.3-1.2,1.6-2.1c0.4-0.9,0.6-1.9,0.7-3.1c0.1-1.2,0.2-2.5,0.2-3.9c0-3.3-0.4-5.7-1.3-7.2
		c-0.8-1.4-2.2-2.2-4.2-2.2c-2,0-3.4,0.7-4.2,2.2c-0.8,1.4-1.3,3.8-1.3,7.2C395.8,81,395.9,82.3,396,83.5z"/>
	<path fill="#C21429" d="M420,53.1c0.3-1.7,0.8-3.1,1.6-4.2c0.8-1.1,1.8-1.9,3.2-2.5c1.4-0.5,3.1-0.8,5.3-0.8c2.2,0,3.9,0.3,5.3,0.8
		c1.3,0.5,2.4,1.4,3.2,2.5c0.8,1.1,1.3,2.5,1.6,4.2c0.3,1.7,0.4,3.6,0.4,5.9c0,2.2-0.1,4.2-0.4,5.9c-0.3,1.7-0.8,3.1-1.6,4.2
		s-1.8,1.9-3.2,2.5c-1.3,0.5-3.1,0.8-5.3,0.8c-2.1,0-3.9-0.3-5.3-0.8c-1.4-0.5-2.4-1.4-3.2-2.5s-1.3-2.5-1.6-4.2s-0.4-3.6-0.4-5.9
		C419.6,56.7,419.8,54.7,420,53.1z M427.5,64.9c0.3,1.4,1.2,2.1,2.6,2.1c1.4,0,2.3-0.7,2.6-2.1c0.3-1.4,0.5-3.4,0.5-6.2
		c0-2.5-0.2-4.4-0.5-5.7c-0.3-1.3-1.2-2-2.6-2c-1.4,0-2.3,0.7-2.6,2c-0.3,1.3-0.5,3.2-0.5,5.7C427,61.4,427.2,63.5,427.5,64.9z
		 M462,44.4l-28.3,52.5h-6.2l28.3-52.5H462z M449.6,76.7c0.3-1.7,0.8-3.1,1.6-4.2c0.8-1.1,1.8-1.9,3.2-2.5c1.4-0.5,3.1-0.8,5.3-0.8
		c2.2,0,3.9,0.3,5.3,0.8c1.3,0.5,2.4,1.4,3.2,2.5c0.8,1.1,1.3,2.5,1.6,4.2c0.3,1.7,0.4,3.6,0.4,5.9c0,2.3-0.1,4.2-0.4,5.9
		c-0.3,1.6-0.8,3-1.6,4.1c-0.8,1.1-1.8,1.9-3.2,2.4c-1.3,0.5-3.1,0.7-5.3,0.7c-2.1,0-3.9-0.2-5.3-0.7c-1.4-0.5-2.4-1.3-3.2-2.4
		c-0.8-1.1-1.3-2.5-1.6-4.1c-0.3-1.6-0.4-3.6-0.4-5.9C449.2,80.4,449.3,78.4,449.6,76.7z M457,88.6c0.3,1.4,1.2,2.1,2.6,2.1
		s2.3-0.7,2.6-2.1c0.3-1.4,0.5-3.4,0.5-6.2c0-2.5-0.2-4.4-0.5-5.7c-0.3-1.3-1.2-2-2.6-2s-2.3,0.7-2.6,2c-0.3,1.3-0.5,3.2-0.5,5.7
		C456.5,85.1,456.7,87.2,457,88.6z"/>
</g>
<g>
	<path d="M364.4,106.5h7v21h3.2v5.2h-3.2v6.9h-6.2v-6.9h-11.8v-5.5L364.4,106.5z M365.1,114.9l-6.4,12.6h6.5L365.1,114.9
		L365.1,114.9z"/>
	<path d="M382.9,112.4l-0.7,7.5h0.1c0.6-0.9,1.4-1.5,2.4-1.9s2.2-0.6,3.6-0.6c1.6,0,2.9,0.3,3.9,0.9s1.9,1.4,2.5,2.4
		c0.6,1,1,2.1,1.3,3.4s0.4,2.5,0.4,3.9c0,1.8-0.2,3.5-0.5,5c-0.3,1.5-0.9,2.8-1.7,3.9c-0.8,1.1-1.9,1.9-3.2,2.4s-3.1,0.8-5.2,0.8
		c-2.1,0-3.8-0.3-5.1-0.8c-1.3-0.6-2.3-1.3-3-2.2c-0.7-0.9-1.1-1.9-1.4-3c-0.2-1.1-0.4-2.1-0.4-3v-0.9h6.4c0,0.6,0,1.2,0.1,1.8
		c0.1,0.6,0.2,1.2,0.4,1.8c0.2,0.5,0.6,1,1,1.4c0.4,0.4,1,0.5,1.7,0.5c1.4,0,2.4-0.5,3-1.6c0.6-1.1,0.9-2.7,0.9-4.8
		c0-1.4-0.1-2.5-0.2-3.4c-0.1-0.9-0.3-1.6-0.6-2.1c-0.3-0.5-0.7-0.9-1.2-1.1s-1.1-0.3-1.9-0.3c-1,0-1.7,0.3-2.2,0.8
		c-0.5,0.5-0.8,1.3-1,2.2h-6l1.2-18h17.2v5.2H382.9z"/>
	<path d="M412.9,128.8h-13.2v-5.5h13.2V128.8z"/>
	<path d="M422.6,112.4l-0.7,7.5h0.1c0.6-0.9,1.4-1.5,2.4-1.9s2.2-0.6,3.6-0.6c1.6,0,2.9,0.3,3.9,0.9s1.9,1.4,2.5,2.4
		c0.6,1,1,2.1,1.3,3.4s0.4,2.5,0.4,3.9c0,1.8-0.2,3.5-0.5,5c-0.3,1.5-0.9,2.8-1.7,3.9c-0.8,1.1-1.9,1.9-3.2,2.4s-3.1,0.8-5.2,0.8
		c-2.1,0-3.8-0.3-5.1-0.8c-1.3-0.6-2.3-1.3-3-2.2c-0.7-0.9-1.1-1.9-1.4-3c-0.2-1.1-0.4-2.1-0.4-3v-0.9h6.4c0,0.6,0,1.2,0.1,1.8
		c0.1,0.6,0.2,1.2,0.4,1.8c0.2,0.5,0.6,1,1,1.4c0.4,0.4,1,0.5,1.7,0.5c1.4,0,2.4-0.5,3-1.6c0.6-1.1,0.9-2.7,0.9-4.8
		c0-1.4-0.1-2.5-0.2-3.4c-0.1-0.9-0.3-1.6-0.6-2.1c-0.3-0.5-0.7-0.9-1.2-1.1s-1.1-0.3-1.9-0.3c-1,0-1.7,0.3-2.2,0.8
		c-0.5,0.5-0.8,1.3-1,2.2h-6l1.2-18h17.2v5.2H422.6z"/>
	<path d="M449,106.5h7v21h3.2v5.2H456v6.9h-6.2v-6.9H438v-5.5L449,106.5z M449.7,114.9l-6.4,12.6h6.5L449.7,114.9L449.7,114.9z"/>
	<path d="M486.4,106.2l8.8,33.4h-7l-1.5-7.1h-8.9l-1.5,7.1h-7l8.8-33.4H486.4z M485.5,127l-3.2-15h-0.1l-3.2,15H485.5z"/>
	<path d="M512.2,114.2c-0.1-0.7-0.4-1.3-0.7-1.8c-0.3-0.5-0.7-1-1.2-1.4c-0.5-0.4-1.1-0.5-1.8-0.5c-1.6,0-2.8,0.9-3.5,2.7
		c-0.7,1.8-1.1,4.8-1.1,9c0,2,0.1,3.8,0.2,5.4c0.1,1.6,0.4,3,0.7,4.1c0.3,1.1,0.8,2,1.4,2.6s1.4,0.9,2.4,0.9c0.4,0,0.8-0.1,1.3-0.3
		c0.5-0.2,0.9-0.5,1.4-1c0.4-0.4,0.8-1,1.1-1.7s0.4-1.5,0.4-2.4v-3.4h-4.4v-5h10.9v18h-5v-3.1h-0.1c-0.8,1.3-1.8,2.2-2.9,2.8
		s-2.5,0.8-4.1,0.8c-2.1,0-3.7-0.4-5-1.1c-1.3-0.7-2.3-1.8-3-3.3c-0.7-1.5-1.2-3.3-1.5-5.5c-0.2-2.2-0.4-4.7-0.4-7.6
		c0-2.8,0.2-5.3,0.5-7.4c0.4-2.1,1-3.9,1.8-5.3c0.9-1.4,2-2.5,3.5-3.2c1.4-0.7,3.2-1.1,5.4-1.1c3.7,0,6.3,0.9,7.9,2.7
		c1.6,1.8,2.4,4.4,2.4,7.8h-6.4C512.4,115.5,512.3,114.9,512.2,114.2z"/>
	<path d="M542.2,111.7h-11.9v7.9h11.2v5.5h-11.2v9h12.4v5.5h-19.1v-33.4h18.6V111.7z"/>
</g>
<g>
	<path fill="#C21429" d="M361.7,150.7c0.8,0,1.5,0.1,2.2,0.2s1.3,0.4,1.8,0.8c0.5,0.4,0.9,0.9,1.1,1.5c0.3,0.6,0.4,1.4,0.4,2.3
		c0,1.1-0.2,2-0.7,2.7s-1.2,1.3-2.2,1.5v0.1c1.1,0.1,1.9,0.6,2.6,1.4c0.6,0.8,1,1.8,1,3.1c0,0.8-0.1,1.5-0.3,2.2
		c-0.2,0.7-0.5,1.3-1,1.8c-0.5,0.5-1.1,0.9-1.9,1.2c-0.8,0.3-1.7,0.5-2.9,0.5h-6.6v-19.4H361.7z M360.2,158.7c1.1,0,1.9-0.2,2.4-0.6
		c0.5-0.4,0.7-1,0.7-2c0-0.9-0.2-1.6-0.7-2c-0.5-0.4-1.2-0.6-2.1-0.6H359v5.1H360.2z M360.6,167.2c0.9,0,1.7-0.2,2.3-0.6
		s0.9-1.2,0.9-2.3c0-0.6-0.1-1-0.2-1.4s-0.4-0.7-0.6-0.9s-0.6-0.4-0.9-0.5c-0.4-0.1-0.8-0.1-1.2-0.1H359v5.8H360.6z"/>
	<path fill="#C21429" d="M377.5,150.7c1.6,0,2.9,0.4,3.8,1.2c0.9,0.8,1.4,2.1,1.4,3.8c0,1.3-0.3,2.4-0.8,3.2
		c-0.5,0.8-1.3,1.4-2.4,1.6v0.1c1,0.1,1.7,0.5,2.1,1s0.7,1.3,0.8,2.4c0,0.4,0.1,0.8,0.1,1.2c0,0.4,0,0.9,0.1,1.4
		c0,1,0.1,1.8,0.2,2.4c0.1,0.5,0.3,0.9,0.7,1.1v0.2h-4.2c-0.2-0.3-0.3-0.6-0.4-0.9c-0.1-0.4-0.1-0.7-0.1-1.1l-0.1-3.7
		c0-0.8-0.2-1.4-0.6-1.8c-0.3-0.4-0.9-0.7-1.7-0.7h-2.1v8.2h-3.9v-19.4H377.5z M375.8,159.2c0.9,0,1.7-0.2,2.2-0.7
		c0.5-0.4,0.8-1.2,0.8-2.2c0-1.8-0.9-2.7-2.7-2.7h-1.8v5.6H375.8z"/>
	<path fill="#C21429" d="M394,150.7l5.1,19.4H395l-0.9-4.1H389l-0.9,4.1H384l5.1-19.4H394z M393.5,162.8l-1.9-8.7h-0.1l-1.9,8.7
		H393.5z"/>
	<path fill="#C21429" d="M408.3,154.2c-0.3-0.6-0.9-1-1.8-1c-0.5,0-0.9,0.1-1.2,0.4s-0.6,0.7-0.7,1.3c-0.2,0.6-0.3,1.4-0.4,2.3
		c-0.1,1-0.1,2.1-0.1,3.5c0,1.5,0,2.7,0.2,3.6c0.1,0.9,0.3,1.6,0.5,2.1c0.2,0.5,0.5,0.8,0.8,1c0.3,0.2,0.7,0.3,1.1,0.3
		c0.3,0,0.7-0.1,1-0.2s0.6-0.4,0.8-0.7c0.2-0.4,0.4-0.9,0.5-1.5s0.2-1.5,0.2-2.5h3.9c0,1.1-0.1,2-0.2,3c-0.2,0.9-0.5,1.8-0.9,2.5
		c-0.4,0.7-1.1,1.3-1.9,1.7s-1.9,0.6-3.1,0.6c-1.5,0-2.6-0.2-3.5-0.7c-0.9-0.5-1.5-1.2-2-2c-0.5-0.9-0.8-1.9-0.9-3.2
		c-0.1-1.2-0.2-2.6-0.2-4.1c0-1.5,0.1-2.8,0.2-4.1c0.1-1.2,0.4-2.3,0.9-3.2c0.5-0.9,1.1-1.6,2-2.1c0.9-0.5,2-0.7,3.5-0.7
		c1.4,0,2.5,0.2,3.3,0.7s1.4,1,1.8,1.7c0.4,0.7,0.6,1.5,0.7,2.3s0.1,1.6,0.1,2.3h-3.9C408.8,155.8,408.6,154.8,408.3,154.2z"/>
	<path fill="#C21429" d="M419,158.5L419,158.5l5-7.8h4.2L423,159l5.9,11.1h-4.4l-4-8l-1.4,2.2v5.8h-3.9v-19.4h3.9V158.5z"/>
	<path fill="#C21429" d="M440.5,153.9h-6.9v4.6h6.5v3.2h-6.5v5.2h7.2v3.2h-11.1v-19.4h10.8V153.9z"/>
	<path fill="#C21429" d="M454.1,153.9h-4.2v16.2H446v-16.2h-4.2v-3.2h12.4V153.9z"/>
	<path fill="#C21429" d="M462.5,150.7h3.9v19.4h-3.9V150.7z"/>
	<path fill="#C21429" d="M478.6,164L478.6,164l0.1-13.3h3.6v19.4h-4.5l-4.8-13.6h-0.1v13.6h-3.6v-19.4h4.5L478.6,164z"/>
	<path fill="#C21429" d="M492.7,154.2c-0.3-0.6-0.9-1-1.8-1c-0.5,0-0.9,0.1-1.2,0.4c-0.3,0.3-0.6,0.7-0.7,1.3
		c-0.2,0.6-0.3,1.4-0.4,2.3c-0.1,1-0.1,2.1-0.1,3.5c0,1.5,0,2.7,0.1,3.6s0.3,1.6,0.5,2.1c0.2,0.5,0.5,0.8,0.8,1
		c0.3,0.2,0.7,0.3,1.1,0.3c0.3,0,0.7-0.1,1-0.2c0.3-0.1,0.6-0.4,0.8-0.7s0.4-0.9,0.5-1.5c0.1-0.6,0.2-1.5,0.2-2.5h3.9
		c0,1.1-0.1,2-0.2,3s-0.5,1.8-0.9,2.5c-0.4,0.7-1.1,1.3-1.9,1.7s-1.9,0.6-3.1,0.6c-1.5,0-2.6-0.2-3.5-0.7c-0.9-0.5-1.5-1.2-2-2
		c-0.5-0.9-0.8-1.9-0.9-3.2c-0.1-1.2-0.2-2.6-0.2-4.1c0-1.5,0.1-2.8,0.2-4.1c0.1-1.2,0.4-2.3,0.9-3.2c0.5-0.9,1.1-1.6,2-2.1
		c0.9-0.5,2-0.7,3.5-0.7c1.4,0,2.5,0.2,3.3,0.7s1.4,1,1.8,1.7c0.4,0.7,0.6,1.5,0.7,2.3s0.1,1.6,0.1,2.3h-3.9
		C493.2,155.8,493.1,154.8,492.7,154.2z"/>
	<path fill="#C21429" d="M506.8,150.7c1.6,0,2.9,0.4,3.8,1.2c0.9,0.8,1.4,2.1,1.4,3.8c0,1.3-0.3,2.4-0.8,3.2
		c-0.5,0.8-1.3,1.4-2.4,1.6v0.1c1,0.1,1.7,0.5,2.1,1s0.7,1.3,0.8,2.4c0,0.4,0.1,0.8,0.1,1.2c0,0.4,0,0.9,0.1,1.4
		c0,1,0.1,1.8,0.2,2.4c0.1,0.5,0.3,0.9,0.7,1.1v0.2h-4.2c-0.2-0.3-0.3-0.6-0.4-0.9c-0.1-0.4-0.1-0.7-0.1-1.1l-0.1-3.7
		c0-0.8-0.2-1.4-0.6-1.8c-0.3-0.4-0.9-0.7-1.7-0.7h-2.1v8.2h-3.9v-19.4H506.8z M505.1,159.2c0.9,0,1.7-0.2,2.2-0.7
		c0.5-0.4,0.8-1.2,0.8-2.2c0-1.8-0.9-2.7-2.7-2.7h-1.8v5.6H505.1z"/>
	<path fill="#C21429" d="M525.5,153.9h-6.9v4.6h6.5v3.2h-6.5v5.2h7.2v3.2h-11.1v-19.4h10.8V153.9z"/>
	<path fill="#C21429" d="M536.3,150.7l5.1,19.4h-4.1l-0.9-4.1h-5.2l-0.9,4.1h-4.1l5.1-19.4H536.3z M535.8,162.8l-1.9-8.7h-0.1
		l-1.9,8.7H535.8z"/>
	<path fill="#C21429" d="M546,164.6c0,0.5,0,0.9,0.1,1.2c0.1,0.4,0.2,0.7,0.4,0.9s0.5,0.5,0.8,0.6c0.3,0.1,0.8,0.2,1.3,0.2
		c0.6,0,1.1-0.2,1.6-0.6c0.5-0.4,0.7-1,0.7-1.8c0-0.4-0.1-0.8-0.2-1.1s-0.3-0.6-0.6-0.9c-0.3-0.3-0.6-0.5-1.1-0.7s-1-0.4-1.6-0.6
		c-0.9-0.3-1.6-0.6-2.3-1c-0.6-0.3-1.2-0.7-1.6-1.2c-0.4-0.5-0.7-1-0.9-1.6s-0.3-1.3-0.3-2.1c0-1.9,0.5-3.4,1.6-4.3s2.5-1.4,4.4-1.4
		c0.9,0,1.7,0.1,2.4,0.3c0.7,0.2,1.4,0.5,1.9,0.9c0.5,0.4,1,1,1.2,1.6c0.3,0.7,0.4,1.5,0.4,2.4v0.5h-3.8c0-0.9-0.2-1.6-0.5-2.1
		c-0.3-0.5-0.9-0.7-1.6-0.7c-0.4,0-0.8,0.1-1.1,0.2s-0.5,0.3-0.7,0.5c-0.2,0.2-0.3,0.4-0.4,0.7c-0.1,0.3-0.1,0.6-0.1,0.8
		c0,0.6,0.1,1.1,0.4,1.5c0.3,0.4,0.8,0.8,1.6,1.1l3,1.3c0.7,0.3,1.3,0.7,1.8,1s0.8,0.7,1.1,1.1c0.3,0.4,0.5,0.9,0.6,1.3
		s0.2,1,0.2,1.6c0,2-0.6,3.5-1.8,4.5c-1.2,0.9-2.8,1.4-5,1.4c-2.2,0-3.8-0.5-4.7-1.4s-1.4-2.3-1.4-4.1V164h3.9V164.6z"/>
	<path fill="#C21429" d="M567.8,153.9h-6.9v4.6h6.5v3.2h-6.5v5.2h7.2v3.2H557v-19.4h10.8V153.9z"/>
	<path fill="#C21429" d="M576.6,150.7c1.4,0,2.5,0.2,3.3,0.7c0.8,0.4,1.5,1.1,1.9,1.9c0.5,0.8,0.8,1.8,0.9,3
		c0.2,1.2,0.2,2.5,0.2,3.9c0,1.7-0.1,3.2-0.3,4.4c-0.2,1.3-0.6,2.3-1.1,3.1c-0.5,0.8-1.2,1.4-2,1.8s-1.9,0.6-3.2,0.6h-6.2v-19.4
		H576.6z M575.9,167.2c0.7,0,1.2-0.1,1.7-0.4c0.4-0.2,0.7-0.6,1-1.2c0.2-0.5,0.4-1.3,0.5-2.1c0.1-0.9,0.1-2,0.1-3.3
		c0-1.1,0-2.1-0.1-2.9c-0.1-0.8-0.2-1.5-0.4-2.1s-0.6-1-1-1.3c-0.4-0.3-1-0.4-1.8-0.4h-1.7v13.6H575.9z"/>
	<path d="M595.3,164.6c0,0.5,0,0.9,0.1,1.2c0.1,0.4,0.2,0.7,0.4,0.9s0.5,0.5,0.8,0.6c0.3,0.1,0.8,0.2,1.3,0.2c0.6,0,1.1-0.2,1.6-0.6
		c0.5-0.4,0.7-1,0.7-1.8c0-0.4-0.1-0.8-0.2-1.1s-0.3-0.6-0.6-0.9c-0.3-0.3-0.6-0.5-1.1-0.7s-1-0.4-1.6-0.6c-0.9-0.3-1.6-0.6-2.3-1
		c-0.6-0.3-1.2-0.7-1.6-1.2c-0.4-0.5-0.7-1-0.9-1.6s-0.3-1.3-0.3-2.1c0-1.9,0.5-3.4,1.6-4.3s2.5-1.4,4.4-1.4c0.9,0,1.7,0.1,2.4,0.3
		c0.7,0.2,1.4,0.5,1.9,0.9c0.5,0.4,1,1,1.2,1.6c0.3,0.7,0.4,1.5,0.4,2.4v0.5h-3.8c0-0.9-0.2-1.6-0.5-2.1c-0.3-0.5-0.9-0.7-1.6-0.7
		c-0.4,0-0.8,0.1-1.1,0.2s-0.5,0.3-0.7,0.5c-0.2,0.2-0.3,0.4-0.4,0.7c-0.1,0.3-0.1,0.6-0.1,0.8c0,0.6,0.1,1.1,0.4,1.5
		c0.3,0.4,0.8,0.8,1.6,1.1l3,1.3c0.7,0.3,1.3,0.7,1.8,1s0.8,0.7,1.1,1.1c0.3,0.4,0.5,0.9,0.6,1.3s0.2,1,0.2,1.6c0,2-0.6,3.5-1.8,4.5
		c-1.2,0.9-2.8,1.4-5,1.4c-2.2,0-3.8-0.5-4.7-1.4s-1.4-2.3-1.4-4.1V164h3.9V164.6z"/>
	<path d="M606.5,150.7h3.9v19.4h-3.9V150.7z"/>
	<path d="M622.5,164L622.5,164l0.1-13.3h3.6v19.4h-4.5l-4.8-13.6h-0.1v13.6h-3.6v-19.4h4.5L622.5,164z"/>
	<path d="M636.7,154.2c-0.3-0.6-0.9-1-1.8-1c-0.5,0-0.9,0.1-1.2,0.4c-0.3,0.3-0.6,0.7-0.7,1.3c-0.2,0.6-0.3,1.4-0.4,2.3
		c-0.1,1-0.1,2.1-0.1,3.5c0,1.5,0,2.7,0.1,3.6s0.3,1.6,0.5,2.1c0.2,0.5,0.5,0.8,0.8,1c0.3,0.2,0.7,0.3,1.1,0.3c0.3,0,0.7-0.1,1-0.2
		c0.3-0.1,0.6-0.4,0.8-0.7s0.4-0.9,0.5-1.5s0.2-1.5,0.2-2.5h3.9c0,1.1-0.1,2-0.2,3s-0.5,1.8-0.9,2.5c-0.4,0.7-1.1,1.3-1.9,1.7
		c-0.8,0.4-1.9,0.6-3.1,0.6c-1.5,0-2.6-0.2-3.5-0.7c-0.9-0.5-1.5-1.2-2-2c-0.5-0.9-0.8-1.9-0.9-3.2c-0.1-1.2-0.2-2.6-0.2-4.1
		c0-1.5,0.1-2.8,0.2-4.1c0.1-1.2,0.4-2.3,0.9-3.2c0.5-0.9,1.1-1.6,2-2.1c0.9-0.5,2-0.7,3.5-0.7c1.4,0,2.5,0.2,3.3,0.7
		c0.8,0.5,1.4,1,1.8,1.7c0.4,0.7,0.6,1.5,0.7,2.3c0.1,0.8,0.1,1.6,0.1,2.3h-3.9C637.2,155.8,637,154.8,636.7,154.2z"/>
	<path d="M654.3,153.9h-6.9v4.6h6.5v3.2h-6.5v5.2h7.2v3.2h-11.1v-19.4h10.8V153.9z"/>
	<path d="M662.2,170.1c0-0.9,0.1-1.6,0.3-2.4c0.2-0.7,0.4-1.4,0.8-2.1s0.8-1.3,1.3-2c0.5-0.6,1.2-1.3,1.9-1.9l1.6-1.5
		c0.4-0.4,0.8-0.7,1-1.1s0.5-0.7,0.6-1c0.1-0.3,0.2-0.7,0.3-1.1s0.1-0.8,0.1-1.3c0-1.6-0.6-2.4-1.9-2.4c-0.5,0-0.9,0.1-1.2,0.3
		c-0.3,0.2-0.5,0.5-0.7,0.8c-0.2,0.3-0.3,0.7-0.3,1.2c0,0.5-0.1,0.9-0.1,1.4h-3.8v-0.7c0-1.8,0.5-3.2,1.4-4.1c1-1,2.5-1.4,4.5-1.4
		c2,0,3.4,0.5,4.3,1.4s1.4,2.2,1.4,3.9c0,0.6-0.1,1.2-0.2,1.7c-0.1,0.5-0.3,1-0.5,1.5c-0.2,0.5-0.5,1-0.9,1.4s-0.8,0.9-1.4,1.4
		l-2.2,2c-0.6,0.5-1,1-1.4,1.5c-0.3,0.5-0.5,0.9-0.6,1.3h7.3v3H662.2z"/>
	<path d="M675.4,157.3c0.1-1.2,0.3-2.3,0.7-3.3c0.4-1,1-1.7,1.8-2.3c0.8-0.6,1.9-0.9,3.4-0.9c1.2,0,2.2,0.2,2.9,0.5
		c0.8,0.3,1.4,0.9,1.8,1.6c0.5,0.7,0.8,1.7,1,2.9c0.2,1.2,0.3,2.6,0.3,4.3c0,1.3,0,2.6-0.1,3.9c-0.1,1.2-0.3,2.3-0.7,3.3
		c-0.4,1-1,1.7-1.8,2.2c-0.8,0.5-1.9,0.8-3.4,0.8c-1.2,0-2.1-0.2-2.9-0.5c-0.8-0.3-1.4-0.8-1.9-1.6c-0.5-0.7-0.8-1.7-1-2.9
		c-0.2-1.2-0.3-2.6-0.3-4.3C675.3,159.8,675.3,158.5,675.4,157.3z M679.3,165c0.1,0.8,0.2,1.4,0.3,1.8s0.4,0.7,0.7,0.9
		c0.3,0.2,0.6,0.2,1,0.2c0.4,0,0.8-0.1,1.1-0.3c0.3-0.2,0.5-0.6,0.6-1.1c0.2-0.5,0.3-1.2,0.3-2s0.1-1.9,0.1-3.1v-2.1
		c0-1.2,0-2.2-0.1-3c-0.1-0.8-0.2-1.4-0.3-1.8s-0.4-0.7-0.7-0.9c-0.3-0.2-0.6-0.2-1-0.2c-0.4,0-0.8,0.1-1.1,0.3
		c-0.3,0.2-0.5,0.6-0.6,1.1c-0.2,0.5-0.3,1.2-0.3,2s-0.1,1.9-0.1,3.1v2.1C679.2,163.2,679.2,164.2,679.3,165z"/>
	<path d="M692.8,156.5h-3.8V154h0.4c1.3,0,2.3-0.2,3.1-0.7s1.2-1.3,1.4-2.4h2.9v19.2h-3.9V156.5z"/>
	<path d="M701.4,170.1c0-0.9,0.1-1.6,0.3-2.4c0.2-0.7,0.4-1.4,0.8-2.1s0.8-1.3,1.3-2c0.5-0.6,1.2-1.3,1.9-1.9l1.6-1.5
		c0.4-0.4,0.8-0.7,1-1.1s0.5-0.7,0.6-1c0.1-0.3,0.2-0.7,0.3-1.1s0.1-0.8,0.1-1.3c0-1.6-0.6-2.4-1.9-2.4c-0.5,0-0.9,0.1-1.2,0.3
		c-0.3,0.2-0.5,0.5-0.7,0.8c-0.2,0.3-0.3,0.7-0.3,1.2c0,0.5-0.1,0.9-0.1,1.4h-3.8v-0.7c0-1.8,0.5-3.2,1.4-4.1c1-1,2.5-1.4,4.5-1.4
		c2,0,3.4,0.5,4.3,1.4s1.4,2.2,1.4,3.9c0,0.6-0.1,1.2-0.2,1.7c-0.1,0.5-0.3,1-0.5,1.5c-0.2,0.5-0.5,1-0.9,1.4s-0.8,0.9-1.4,1.4
		l-2.2,2c-0.6,0.5-1,1-1.4,1.5c-0.3,0.5-0.5,0.9-0.6,1.3h7.3v3H701.4z"/>
</g>
</svg>
