<?xml version="1.0" encoding="utf-8"?>
<!-- Generator: Adobe Illustrator 18.0.0, SVG Export Plug-In . SVG Version: 6.00 Build 0)  -->
<!DOCTYPE svg PUBLIC "-//W3C//DTD SVG 1.1//EN" "http://www.w3.org/Graphics/SVG/1.1/DTD/svg11.dtd">
<svg version="1.1" id="Layer_1" xmlns="http://www.w3.org/2000/svg" xmlns:xlink="http://www.w3.org/1999/xlink" x="0px" y="0px"
	 viewBox="0 0 892 156.3" enable-background="new 0 0 892 156.3" xml:space="preserve">
<g>
	<path fill="#C21429" d="M368.2,20.2h10.4v31.3h4.7v7.8h-4.7v10.2h-9.2V59.3h-17.6v-8.2L368.2,20.2z M369.2,32.8l-9.6,18.7h9.8V32.8
		H369.2z"/>
	<path fill="#C21429" d="M405,28.3c-0.7-1-1.8-1.5-3.5-1.5c-1.3,0-2.4,0.3-3.2,0.9s-1.4,1.5-1.9,2.6c-0.4,1.1-0.7,2.4-0.9,4
		c-0.1,1.5-0.2,3.2-0.2,5v2.4h0.1c0.8-1.3,2-2.3,3.6-3.1c1.6-0.8,3.4-1.1,5.7-1.1c2.2,0,4,0.4,5.6,1.1c1.5,0.8,2.8,1.8,3.7,3.2
		c1,1.4,1.6,3,2.1,4.9c0.4,1.9,0.7,3.9,0.7,6.2c0,5.7-1.3,10-3.8,13c-2.5,2.9-6.6,4.4-12.2,4.4c-3.4,0-6.2-0.6-8.2-1.8
		s-3.6-2.9-4.7-5c-1.1-2.1-1.8-4.6-2.1-7.3c-0.3-2.8-0.5-5.7-0.5-8.7c0-3.5,0.1-6.9,0.3-10.1s0.8-6.2,1.9-8.7c1-2.5,2.7-4.6,4.9-6.1
		c2.2-1.5,5.4-2.3,9.5-2.3c1.8,0,3.5,0.2,5.1,0.6c1.6,0.4,3.1,1.1,4.4,2.1s2.3,2.3,3,3.9c0.8,1.6,1.2,3.6,1.2,6H406
		C406,30.8,405.6,29.3,405,28.3z M396,58.1c0.1,1.2,0.4,2.2,0.8,3.1c0.4,0.9,1,1.5,1.7,2c0.7,0.5,1.7,0.7,2.8,0.7
		c1.2,0,2.2-0.2,2.9-0.7c0.7-0.5,1.3-1.2,1.6-2.1c0.4-0.9,0.6-1.9,0.7-3.1c0.1-1.2,0.2-2.5,0.2-3.9c0-3.3-0.4-5.7-1.3-7.2
		c-0.8-1.4-2.2-2.2-4.2-2.2c-2,0-3.4,0.7-4.2,2.2c-0.8,1.4-1.3,3.8-1.3,7.2C395.8,55.6,395.9,56.9,396,58.1z"/>
	<path fill="#C21429" d="M420,27.7c0.3-1.7,0.8-3.1,1.6-4.2c0.8-1.1,1.8-1.9,3.2-2.5c1.4-0.5,3.1-0.8,5.3-0.8c2.2,0,3.9,0.3,5.3,0.8
		c1.3,0.5,2.4,1.4,3.2,2.5c0.8,1.1,1.3,2.5,1.6,4.2c0.3,1.7,0.4,3.6,0.4,5.9c0,2.2-0.1,4.2-0.4,5.9c-0.3,1.7-0.8,3.1-1.6,4.2
		s-1.8,1.9-3.2,2.5c-1.3,0.5-3.1,0.8-5.3,0.8c-2.1,0-3.9-0.3-5.3-0.8c-1.4-0.5-2.4-1.4-3.2-2.5s-1.3-2.5-1.6-4.2s-0.4-3.6-0.4-5.9
		C419.6,31.3,419.8,29.3,420,27.7z M427.5,39.5c0.3,1.4,1.2,2.1,2.6,2.1c1.4,0,2.3-0.7,2.6-2.1c0.3-1.4,0.5-3.4,0.5-6.2
		c0-2.5-0.2-4.4-0.5-5.7c-0.3-1.3-1.2-2-2.6-2c-1.4,0-2.3,0.7-2.6,2c-0.3,1.3-0.5,3.2-0.5,5.7C427,36,427.2,38.1,427.5,39.5z
		 M462,19l-28.3,52.5h-6.2L455.8,19H462z M449.6,51.4c0.3-1.7,0.8-3.1,1.6-4.2c0.8-1.1,1.8-1.9,3.2-2.5c1.4-0.5,3.1-0.8,5.3-0.8
		c2.2,0,3.9,0.3,5.3,0.8c1.3,0.5,2.4,1.4,3.2,2.5c0.8,1.1,1.3,2.5,1.6,4.2c0.3,1.7,0.4,3.6,0.4,5.9c0,2.3-0.1,4.2-0.4,5.9
		c-0.3,1.6-0.8,3-1.6,4.1c-0.8,1.1-1.8,1.9-3.2,2.4c-1.3,0.5-3.1,0.7-5.3,0.7c-2.1,0-3.9-0.2-5.3-0.7c-1.4-0.5-2.4-1.3-3.2-2.4
		c-0.8-1.1-1.3-2.5-1.6-4.1c-0.3-1.6-0.4-3.6-0.4-5.9C449.2,55,449.3,53,449.6,51.4z M457,63.2c0.3,1.4,1.2,2.1,2.6,2.1
		s2.3-0.7,2.6-2.1c0.3-1.4,0.5-3.4,0.5-6.2c0-2.5-0.2-4.4-0.5-5.7c-0.3-1.3-1.2-2-2.6-2s-2.3,0.7-2.6,2c-0.3,1.3-0.5,3.2-0.5,5.7
		C456.5,59.7,456.7,61.8,457,63.2z"/>
</g>
<g>
	<path d="M364.4,81.1h7v21h3.2v5.2h-3.2v6.9h-6.2v-6.9h-11.8v-5.5L364.4,81.1z M365.1,89.5l-6.4,12.6h6.5L365.1,89.5L365.1,89.5z"/>
	<path d="M382.9,87l-0.7,7.5h0.1c0.6-0.9,1.4-1.5,2.4-1.9s2.2-0.6,3.6-0.6c1.6,0,2.9,0.3,3.9,0.9s1.9,1.4,2.5,2.4
		c0.6,1,1,2.1,1.3,3.4s0.4,2.5,0.4,3.9c0,1.8-0.2,3.5-0.5,5c-0.3,1.5-0.9,2.8-1.7,3.9c-0.8,1.1-1.9,1.9-3.2,2.4s-3.1,0.8-5.2,0.8
		c-2.1,0-3.8-0.3-5.1-0.8c-1.3-0.6-2.3-1.3-3-2.2c-0.7-0.9-1.1-1.9-1.4-3c-0.2-1.1-0.4-2.1-0.4-3v-0.9h6.4c0,0.6,0,1.2,0.1,1.8
		c0.1,0.6,0.2,1.2,0.4,1.8c0.2,0.5,0.6,1,1,1.4c0.4,0.4,1,0.5,1.7,0.5c1.4,0,2.4-0.5,3-1.6c0.6-1.1,0.9-2.7,0.9-4.8
		c0-1.4-0.1-2.5-0.2-3.4c-0.1-0.9-0.3-1.6-0.6-2.1c-0.3-0.5-0.7-0.9-1.2-1.1s-1.1-0.3-1.9-0.3c-1,0-1.7,0.3-2.2,0.8
		c-0.5,0.5-0.8,1.3-1,2.2h-6l1.2-18h17.2V87H382.9z"/>
	<path d="M412.9,103.5h-13.2v-5.5h13.2V103.5z"/>
	<path d="M422.6,87l-0.7,7.5h0.1c0.6-0.9,1.4-1.5,2.4-1.9s2.2-0.6,3.6-0.6c1.6,0,2.9,0.3,3.9,0.9s1.9,1.4,2.5,2.4
		c0.6,1,1,2.1,1.3,3.4s0.4,2.5,0.4,3.9c0,1.8-0.2,3.5-0.5,5c-0.3,1.5-0.9,2.8-1.7,3.9c-0.8,1.1-1.9,1.9-3.2,2.4s-3.1,0.8-5.2,0.8
		c-2.1,0-3.8-0.3-5.1-0.8c-1.3-0.6-2.3-1.3-3-2.2c-0.7-0.9-1.1-1.9-1.4-3c-0.2-1.1-0.4-2.1-0.4-3v-0.9h6.4c0,0.6,0,1.2,0.1,1.8
		c0.1,0.6,0.2,1.2,0.4,1.8c0.2,0.5,0.6,1,1,1.4c0.4,0.4,1,0.5,1.7,0.5c1.4,0,2.4-0.5,3-1.6c0.6-1.1,0.9-2.7,0.9-4.8
		c0-1.4-0.1-2.5-0.2-3.4c-0.1-0.9-0.3-1.6-0.6-2.1c-0.3-0.5-0.7-0.9-1.2-1.1s-1.1-0.3-1.9-0.3c-1,0-1.7,0.3-2.2,0.8
		c-0.5,0.5-0.8,1.3-1,2.2h-6l1.2-18h17.2V87H422.6z"/>
	<path d="M449,81.1h7v21h3.2v5.2H456v6.9h-6.2v-6.9H438v-5.5L449,81.1z M449.7,89.5l-6.4,12.6h6.5L449.7,89.5L449.7,89.5z"/>
	<path d="M486.4,80.8l8.8,33.4h-7l-1.5-7.1h-8.9l-1.5,7.1h-7l8.8-33.4H486.4z M485.5,101.6l-3.2-15h-0.1l-3.2,15H485.5z"/>
	<path d="M512.2,88.8c-0.1-0.7-0.4-1.3-0.7-1.8c-0.3-0.5-0.7-1-1.2-1.4c-0.5-0.4-1.1-0.5-1.8-0.5c-1.6,0-2.8,0.9-3.5,2.7
		c-0.7,1.8-1.1,4.8-1.1,9c0,2,0.1,3.8,0.2,5.4c0.1,1.6,0.4,3,0.7,4.1c0.3,1.1,0.8,2,1.4,2.6s1.4,0.9,2.4,0.9c0.4,0,0.8-0.1,1.3-0.3
		c0.5-0.2,0.9-0.5,1.4-1c0.4-0.4,0.8-1,1.1-1.7s0.4-1.5,0.4-2.4v-3.4h-4.4v-5h10.9v18h-5v-3.1h-0.1c-0.8,1.3-1.8,2.2-2.9,2.8
		s-2.5,0.8-4.1,0.8c-2.1,0-3.7-0.4-5-1.1c-1.3-0.7-2.3-1.8-3-3.3c-0.7-1.5-1.2-3.3-1.5-5.5c-0.2-2.2-0.4-4.7-0.4-7.6
		c0-2.8,0.2-5.3,0.5-7.4c0.4-2.1,1-3.9,1.8-5.3c0.9-1.4,2-2.5,3.5-3.2c1.4-0.7,3.2-1.1,5.4-1.1c3.7,0,6.3,0.9,7.9,2.7
		c1.6,1.8,2.4,4.4,2.4,7.8h-6.4C512.4,90.1,512.3,89.5,512.2,88.8z"/>
	<path d="M542.2,86.4h-11.9v7.9h11.2v5.5h-11.2v9h12.4v5.5h-19.1V80.8h18.6V86.4z"/>
</g>
<g>
	<path fill="#C21429" d="M361.7,125.3c0.8,0,1.5,0.1,2.2,0.2s1.3,0.4,1.8,0.8c0.5,0.4,0.9,0.9,1.1,1.5c0.3,0.6,0.4,1.4,0.4,2.3
		c0,1.1-0.2,2-0.7,2.7s-1.2,1.3-2.2,1.5v0.1c1.1,0.1,1.9,0.6,2.6,1.4c0.6,0.8,1,1.8,1,3.1c0,0.8-0.1,1.5-0.3,2.2
		c-0.2,0.7-0.5,1.3-1,1.8c-0.5,0.5-1.1,0.9-1.9,1.2c-0.8,0.3-1.7,0.5-2.9,0.5h-6.6v-19.4H361.7z M360.2,133.3c1.1,0,1.9-0.2,2.4-0.6
		c0.5-0.4,0.7-1,0.7-2c0-0.9-0.2-1.6-0.7-2c-0.5-0.4-1.2-0.6-2.1-0.6H359v5.1H360.2z M360.6,141.8c0.9,0,1.7-0.2,2.3-0.6
		s0.9-1.2,0.9-2.3c0-0.6-0.1-1-0.2-1.4s-0.4-0.7-0.6-0.9s-0.6-0.4-0.9-0.5c-0.4-0.1-0.8-0.1-1.2-0.1H359v5.8H360.6z"/>
	<path fill="#C21429" d="M377.5,125.3c1.6,0,2.9,0.4,3.8,1.2c0.9,0.8,1.4,2.1,1.4,3.8c0,1.3-0.3,2.4-0.8,3.2
		c-0.5,0.8-1.3,1.4-2.4,1.6v0.1c1,0.1,1.7,0.5,2.1,1s0.7,1.3,0.8,2.4c0,0.4,0.1,0.8,0.1,1.2c0,0.4,0,0.9,0.1,1.4
		c0,1,0.1,1.8,0.2,2.4c0.1,0.5,0.3,0.9,0.7,1.1v0.2h-4.2c-0.2-0.3-0.3-0.6-0.4-0.9c-0.1-0.4-0.1-0.7-0.1-1.1l-0.1-3.7
		c0-0.8-0.2-1.4-0.6-1.8c-0.3-0.4-0.9-0.7-1.7-0.7h-2.1v8.2h-3.9v-19.4H377.5z M375.8,133.8c0.9,0,1.7-0.2,2.2-0.7
		c0.5-0.4,0.8-1.2,0.8-2.2c0-1.8-0.9-2.7-2.7-2.7h-1.8v5.6H375.8z"/>
	<path fill="#C21429" d="M394,125.3l5.1,19.4H395l-0.9-4.1H389l-0.9,4.1H384l5.1-19.4H394z M393.5,137.4l-1.9-8.7h-0.1l-1.9,8.7
		H393.5z"/>
	<path fill="#C21429" d="M408.3,128.8c-0.3-0.6-0.9-1-1.8-1c-0.5,0-0.9,0.1-1.2,0.4s-0.6,0.7-0.7,1.3c-0.2,0.6-0.3,1.4-0.4,2.3
		c-0.1,1-0.1,2.1-0.1,3.5c0,1.5,0,2.7,0.2,3.6c0.1,0.9,0.3,1.6,0.5,2.1c0.2,0.5,0.5,0.8,0.8,1c0.3,0.2,0.7,0.3,1.1,0.3
		c0.3,0,0.7-0.1,1-0.2s0.6-0.4,0.8-0.7c0.2-0.4,0.4-0.9,0.5-1.5s0.2-1.5,0.2-2.5h3.9c0,1.1-0.1,2-0.2,3c-0.2,0.9-0.5,1.8-0.9,2.5
		c-0.4,0.7-1.1,1.3-1.9,1.7s-1.9,0.6-3.1,0.6c-1.5,0-2.6-0.2-3.5-0.7c-0.9-0.5-1.5-1.2-2-2c-0.5-0.9-0.8-1.9-0.9-3.2
		c-0.1-1.2-0.2-2.6-0.2-4.1c0-1.5,0.1-2.8,0.2-4.1c0.1-1.2,0.4-2.3,0.9-3.2c0.5-0.9,1.1-1.6,2-2.1c0.9-0.5,2-0.7,3.5-0.7
		c1.4,0,2.5,0.2,3.3,0.7s1.4,1,1.8,1.7c0.4,0.7,0.6,1.5,0.7,2.3s0.1,1.6,0.1,2.3h-3.9C408.8,130.4,408.6,129.4,408.3,128.8z"/>
	<path fill="#C21429" d="M419,133.1L419,133.1l5-7.8h4.2l-5.3,8.3l5.9,11.1h-4.4l-4-8L419,139v5.8h-3.9v-19.4h3.9V133.1z"/>
	<path fill="#C21429" d="M440.5,128.5h-6.9v4.6h6.5v3.2h-6.5v5.2h7.2v3.2h-11.1v-19.4h10.8V128.5z"/>
	<path fill="#C21429" d="M454.1,128.5h-4.2v16.2H446v-16.2h-4.2v-3.2h12.4V128.5z"/>
	<path fill="#C21429" d="M462.5,125.3h3.9v19.4h-3.9V125.3z"/>
	<path fill="#C21429" d="M478.6,138.6L478.6,138.6l0.1-13.3h3.6v19.4h-4.5l-4.8-13.6h-0.1v13.6h-3.6v-19.4h4.5L478.6,138.6z"/>
	<path fill="#C21429" d="M492.7,128.8c-0.3-0.6-0.9-1-1.8-1c-0.5,0-0.9,0.1-1.2,0.4c-0.3,0.3-0.6,0.7-0.7,1.3
		c-0.2,0.6-0.3,1.4-0.4,2.3c-0.1,1-0.1,2.1-0.1,3.5c0,1.5,0,2.7,0.1,3.6s0.3,1.6,0.5,2.1c0.2,0.5,0.5,0.8,0.8,1
		c0.3,0.2,0.7,0.3,1.1,0.3c0.3,0,0.7-0.1,1-0.2c0.3-0.1,0.6-0.4,0.8-0.7s0.4-0.9,0.5-1.5c0.1-0.6,0.2-1.5,0.2-2.5h3.9
		c0,1.1-0.1,2-0.2,3s-0.5,1.8-0.9,2.5c-0.4,0.7-1.1,1.3-1.9,1.7s-1.9,0.6-3.1,0.6c-1.5,0-2.6-0.2-3.5-0.7c-0.9-0.5-1.5-1.2-2-2
		c-0.5-0.9-0.8-1.9-0.9-3.2c-0.1-1.2-0.2-2.6-0.2-4.1c0-1.5,0.1-2.8,0.2-4.1c0.1-1.2,0.4-2.3,0.9-3.2c0.5-0.9,1.1-1.6,2-2.1
		c0.9-0.5,2-0.7,3.5-0.7c1.4,0,2.5,0.2,3.3,0.7s1.4,1,1.8,1.7c0.4,0.7,0.6,1.5,0.7,2.3s0.1,1.6,0.1,2.3h-3.9
		C493.2,130.4,493.1,129.4,492.7,128.8z"/>
	<path fill="#C21429" d="M506.8,125.3c1.6,0,2.9,0.4,3.8,1.2c0.9,0.8,1.4,2.1,1.4,3.8c0,1.3-0.3,2.4-0.8,3.2
		c-0.5,0.8-1.3,1.4-2.4,1.6v0.1c1,0.1,1.7,0.5,2.1,1s0.7,1.3,0.8,2.4c0,0.4,0.1,0.8,0.1,1.2c0,0.4,0,0.9,0.1,1.4
		c0,1,0.1,1.8,0.2,2.4c0.1,0.5,0.3,0.9,0.7,1.1v0.2h-4.2c-0.2-0.3-0.3-0.6-0.4-0.9c-0.1-0.4-0.1-0.7-0.1-1.1l-0.1-3.7
		c0-0.8-0.2-1.4-0.6-1.8c-0.3-0.4-0.9-0.7-1.7-0.7h-2.1v8.2h-3.9v-19.4H506.8z M505.1,133.8c0.9,0,1.7-0.2,2.2-0.7
		c0.5-0.4,0.8-1.2,0.8-2.2c0-1.8-0.9-2.7-2.7-2.7h-1.8v5.6H505.1z"/>
	<path fill="#C21429" d="M525.5,128.5h-6.9v4.6h6.5v3.2h-6.5v5.2h7.2v3.2h-11.1v-19.4h10.8V128.5z"/>
	<path fill="#C21429" d="M536.3,125.3l5.1,19.4h-4.1l-0.9-4.1h-5.2l-0.9,4.1h-4.1l5.1-19.4H536.3z M535.8,137.4l-1.9-8.7h-0.1
		l-1.9,8.7H535.8z"/>
	<path fill="#C21429" d="M546,139.2c0,0.5,0,0.9,0.1,1.2c0.1,0.4,0.2,0.7,0.4,0.9s0.5,0.5,0.8,0.6c0.3,0.1,0.8,0.2,1.3,0.2
		c0.6,0,1.1-0.2,1.6-0.6c0.5-0.4,0.7-1,0.7-1.8c0-0.4-0.1-0.8-0.2-1.1s-0.3-0.6-0.6-0.9c-0.3-0.3-0.6-0.5-1.1-0.7s-1-0.4-1.6-0.6
		c-0.9-0.3-1.6-0.6-2.3-1c-0.6-0.3-1.2-0.7-1.6-1.2c-0.4-0.5-0.7-1-0.9-1.6s-0.3-1.3-0.3-2.1c0-1.9,0.5-3.4,1.6-4.3s2.5-1.4,4.4-1.4
		c0.9,0,1.7,0.1,2.4,0.3c0.7,0.2,1.4,0.5,1.9,0.9c0.5,0.4,1,1,1.2,1.6c0.3,0.7,0.4,1.5,0.4,2.4v0.5h-3.8c0-0.9-0.2-1.6-0.5-2.1
		c-0.3-0.5-0.9-0.7-1.6-0.7c-0.4,0-0.8,0.1-1.1,0.2s-0.5,0.3-0.7,0.5c-0.2,0.2-0.3,0.4-0.4,0.7c-0.1,0.3-0.1,0.6-0.1,0.8
		c0,0.6,0.1,1.1,0.4,1.5c0.3,0.4,0.8,0.8,1.6,1.1l3,1.3c0.7,0.3,1.3,0.7,1.8,1s0.8,0.7,1.1,1.1c0.3,0.4,0.5,0.9,0.6,1.3
		s0.2,1,0.2,1.6c0,2-0.6,3.5-1.8,4.5c-1.2,0.9-2.8,1.4-5,1.4c-2.2,0-3.8-0.5-4.7-1.4s-1.4-2.3-1.4-4.1v-0.8h3.9V139.2z"/>
	<path fill="#C21429" d="M567.8,128.5h-6.9v4.6h6.5v3.2h-6.5v5.2h7.2v3.2H557v-19.4h10.8V128.5z"/>
	<path fill="#C21429" d="M576.6,125.3c1.4,0,2.5,0.2,3.3,0.7c0.8,0.4,1.5,1.1,1.9,1.9c0.5,0.8,0.8,1.8,0.9,3
		c0.2,1.2,0.2,2.5,0.2,3.9c0,1.7-0.1,3.2-0.3,4.4c-0.2,1.3-0.6,2.3-1.1,3.1c-0.5,0.8-1.2,1.4-2,1.8s-1.9,0.6-3.2,0.6h-6.2v-19.4
		H576.6z M575.9,141.8c0.7,0,1.2-0.1,1.7-0.4c0.4-0.2,0.7-0.6,1-1.2c0.2-0.5,0.4-1.3,0.5-2.1c0.1-0.9,0.1-2,0.1-3.3
		c0-1.1,0-2.1-0.1-2.9c-0.1-0.8-0.2-1.5-0.4-2.1s-0.6-1-1-1.3c-0.4-0.3-1-0.4-1.8-0.4h-1.7v13.6H575.9z"/>
	<path d="M595.3,139.2c0,0.5,0,0.9,0.1,1.2c0.1,0.4,0.2,0.7,0.4,0.9s0.5,0.5,0.8,0.6c0.3,0.1,0.8,0.2,1.3,0.2c0.6,0,1.1-0.2,1.6-0.6
		c0.5-0.4,0.7-1,0.7-1.8c0-0.4-0.1-0.8-0.2-1.1s-0.3-0.6-0.6-0.9c-0.3-0.3-0.6-0.5-1.1-0.7s-1-0.4-1.6-0.6c-0.9-0.3-1.6-0.6-2.3-1
		c-0.6-0.3-1.2-0.7-1.6-1.2c-0.4-0.5-0.7-1-0.9-1.6s-0.3-1.3-0.3-2.1c0-1.9,0.5-3.4,1.6-4.3s2.5-1.4,4.4-1.4c0.9,0,1.7,0.1,2.4,0.3
		c0.7,0.2,1.4,0.5,1.9,0.9c0.5,0.4,1,1,1.2,1.6c0.3,0.7,0.4,1.5,0.4,2.4v0.5h-3.8c0-0.9-0.2-1.6-0.5-2.1c-0.3-0.5-0.9-0.7-1.6-0.7
		c-0.4,0-0.8,0.1-1.1,0.2s-0.5,0.3-0.7,0.5c-0.2,0.2-0.3,0.4-0.4,0.7c-0.1,0.3-0.1,0.6-0.1,0.8c0,0.6,0.1,1.1,0.4,1.5
		c0.3,0.4,0.8,0.8,1.6,1.1l3,1.3c0.7,0.3,1.3,0.7,1.8,1s0.8,0.7,1.1,1.1c0.3,0.4,0.5,0.9,0.6,1.3s0.2,1,0.2,1.6c0,2-0.6,3.5-1.8,4.5
		c-1.2,0.9-2.8,1.4-5,1.4c-2.2,0-3.8-0.5-4.7-1.4s-1.4-2.3-1.4-4.1v-0.8h3.9V139.2z"/>
	<path d="M606.5,125.3h3.9v19.4h-3.9V125.3z"/>
	<path d="M622.5,138.6L622.5,138.6l0.1-13.3h3.6v19.4h-4.5l-4.8-13.6h-0.1v13.6h-3.6v-19.4h4.5L622.5,138.6z"/>
	<path d="M636.7,128.8c-0.3-0.6-0.9-1-1.8-1c-0.5,0-0.9,0.1-1.2,0.4c-0.3,0.3-0.6,0.7-0.7,1.3c-0.2,0.6-0.3,1.4-0.4,2.3
		c-0.1,1-0.1,2.1-0.1,3.5c0,1.5,0,2.7,0.1,3.6s0.3,1.6,0.5,2.1c0.2,0.5,0.5,0.8,0.8,1c0.3,0.2,0.7,0.3,1.1,0.3c0.3,0,0.7-0.1,1-0.2
		c0.3-0.1,0.6-0.4,0.8-0.7s0.4-0.9,0.5-1.5s0.2-1.5,0.2-2.5h3.9c0,1.1-0.1,2-0.2,3s-0.5,1.8-0.9,2.5c-0.4,0.7-1.1,1.3-1.9,1.7
		c-0.8,0.4-1.9,0.6-3.1,0.6c-1.5,0-2.6-0.2-3.5-0.7c-0.9-0.5-1.5-1.2-2-2c-0.5-0.9-0.8-1.9-0.9-3.2c-0.1-1.2-0.2-2.6-0.2-4.1
		c0-1.5,0.1-2.8,0.2-4.1c0.1-1.2,0.4-2.3,0.9-3.2c0.5-0.9,1.1-1.6,2-2.1c0.9-0.5,2-0.7,3.5-0.7c1.4,0,2.5,0.2,3.3,0.7
		c0.8,0.5,1.4,1,1.8,1.7c0.4,0.7,0.6,1.5,0.7,2.3c0.1,0.8,0.1,1.6,0.1,2.3h-3.9C637.2,130.4,637,129.4,636.7,128.8z"/>
	<path d="M654.3,128.5h-6.9v4.6h6.5v3.2h-6.5v5.2h7.2v3.2h-11.1v-19.4h10.8V128.5z"/>
	<path d="M662.2,144.7c0-0.9,0.1-1.6,0.3-2.4c0.2-0.7,0.4-1.4,0.8-2.1s0.8-1.3,1.3-2c0.5-0.6,1.2-1.3,1.9-1.9l1.6-1.5
		c0.4-0.4,0.8-0.7,1-1.1s0.5-0.7,0.6-1c0.1-0.3,0.2-0.7,0.3-1.1s0.1-0.8,0.1-1.3c0-1.6-0.6-2.4-1.9-2.4c-0.5,0-0.9,0.1-1.2,0.3
		c-0.3,0.2-0.5,0.5-0.7,0.8c-0.2,0.3-0.3,0.7-0.3,1.2c0,0.5-0.1,0.9-0.1,1.4h-3.8V131c0-1.8,0.5-3.2,1.4-4.1c1-1,2.5-1.4,4.5-1.4
		c2,0,3.4,0.5,4.3,1.4s1.4,2.2,1.4,3.9c0,0.6-0.1,1.2-0.2,1.7c-0.1,0.5-0.3,1-0.5,1.5c-0.2,0.5-0.5,1-0.9,1.4s-0.8,0.9-1.4,1.4
		l-2.2,2c-0.6,0.5-1,1-1.4,1.5c-0.3,0.5-0.5,0.9-0.6,1.3h7.3v3H662.2z"/>
	<path d="M675.4,131.9c0.1-1.2,0.3-2.3,0.7-3.3c0.4-1,1-1.7,1.8-2.3c0.8-0.6,1.9-0.9,3.4-0.9c1.2,0,2.2,0.2,2.9,0.5
		c0.8,0.3,1.4,0.9,1.8,1.6c0.5,0.7,0.8,1.7,1,2.9c0.2,1.2,0.3,2.6,0.3,4.3c0,1.3,0,2.6-0.1,3.9c-0.1,1.2-0.3,2.3-0.7,3.3
		c-0.4,1-1,1.7-1.8,2.2c-0.8,0.5-1.9,0.8-3.4,0.8c-1.2,0-2.1-0.2-2.9-0.5c-0.8-0.3-1.4-0.8-1.9-1.6c-0.5-0.7-0.8-1.7-1-2.9
		c-0.2-1.2-0.3-2.6-0.3-4.3C675.3,134.4,675.3,133.1,675.4,131.9z M679.3,139.6c0.1,0.8,0.2,1.4,0.3,1.8s0.4,0.7,0.7,0.9
		c0.3,0.2,0.6,0.2,1,0.2c0.4,0,0.8-0.1,1.1-0.3c0.3-0.2,0.5-0.6,0.6-1.1c0.2-0.5,0.3-1.2,0.3-2s0.1-1.9,0.1-3.1V134
		c0-1.2,0-2.2-0.1-3c-0.1-0.8-0.2-1.4-0.3-1.8s-0.4-0.7-0.7-0.9c-0.3-0.2-0.6-0.2-1-0.2c-0.4,0-0.8,0.1-1.1,0.3
		c-0.3,0.2-0.5,0.6-0.6,1.1c-0.2,0.5-0.3,1.2-0.3,2s-0.1,1.9-0.1,3.1v2.1C679.2,137.8,679.2,138.8,679.3,139.6z"/>
	<path d="M692.8,131.1h-3.8v-2.6h0.4c1.3,0,2.3-0.2,3.1-0.7s1.2-1.3,1.4-2.4h2.9v19.2h-3.9V131.1z"/>
	<path d="M701.4,144.7c0-0.9,0.1-1.6,0.3-2.4c0.2-0.7,0.4-1.4,0.8-2.1s0.8-1.3,1.3-2c0.5-0.6,1.2-1.3,1.9-1.9l1.6-1.5
		c0.4-0.4,0.8-0.7,1-1.1s0.5-0.7,0.6-1c0.1-0.3,0.2-0.7,0.3-1.1s0.1-0.8,0.1-1.3c0-1.6-0.6-2.4-1.9-2.4c-0.5,0-0.9,0.1-1.2,0.3
		c-0.3,0.2-0.5,0.5-0.7,0.8c-0.2,0.3-0.3,0.7-0.3,1.2c0,0.5-0.1,0.9-0.1,1.4h-3.8V131c0-1.8,0.5-3.2,1.4-4.1c1-1,2.5-1.4,4.5-1.4
		c2,0,3.4,0.5,4.3,1.4s1.4,2.2,1.4,3.9c0,0.6-0.1,1.2-0.2,1.7c-0.1,0.5-0.3,1-0.5,1.5c-0.2,0.5-0.5,1-0.9,1.4s-0.8,0.9-1.4,1.4
		l-2.2,2c-0.6,0.5-1,1-1.4,1.5c-0.3,0.5-0.5,0.9-0.6,1.3h7.3v3H701.4z"/>
</g>
<g>
	<g>
		<g>
			<circle fill="#333433" cx="239.8" cy="81" r="74.3"/>
			<path fill="#FFFFFF" d="M239.8,156.3c-41.5,0-75.3-33.8-75.3-75.3c0-41.5,33.8-75.3,75.3-75.3c41.5,0,75.3,33.8,75.3,75.3
				C315.1,122.5,281.3,156.3,239.8,156.3z M239.8,7.7c-40.4,0-73.3,32.9-73.3,73.3c0,40.4,32.9,73.3,73.3,73.3s73.3-32.9,73.3-73.3
				C313.1,40.6,280.2,7.7,239.8,7.7z"/>
		</g>
		<g>
			<circle fill="#333433" cx="239.8" cy="81" r="63.7"/>
			<path fill="#FFFFFF" d="M239.8,145.7c-35.7,0-64.7-29-64.7-64.7s29-64.7,64.7-64.7s64.7,29,64.7,64.7S275.5,145.7,239.8,145.7z
				 M239.8,18.3c-34.6,0-62.7,28.1-62.7,62.7s28.1,62.7,62.7,62.7s62.7-28.1,62.7-62.7S274.4,18.3,239.8,18.3z"/>
		</g>
	</g>
	<g>
		<path fill="#FFFFFF" d="M261.9,68.3h-15.1v-9.9c0-3.7,2.5-4.6,4.2-4.6c1.7,0,10.6,0,10.6,0V37.5L247,37.4
			c-16.3,0-19.9,12.2-19.9,19.9v10.9h-9.4v16.8h9.4c0,21.6,0,47.6,0,47.6h19.8c0,0,0-26.2,0-47.6h13.3L261.9,68.3z"/>
	</g>
</g>
</svg>
