<?xml version="1.0" encoding="utf-8"?>
<!-- Generator: Adobe Illustrator 18.0.0, SVG Export Plug-In . SVG Version: 6.00 Build 0)  -->
<!DOCTYPE svg PUBLIC "-//W3C//DTD SVG 1.1//EN" "http://www.w3.org/Graphics/SVG/1.1/DTD/svg11.dtd">
<svg version="1.1" id="Layer_1" xmlns="http://www.w3.org/2000/svg" xmlns:xlink="http://www.w3.org/1999/xlink" x="0px" y="0px"
	 viewBox="0 0 892 242" enable-background="new 0 0 892 242" xml:space="preserve">
<g>
</g>
<g>
	<g>
		<g>
			<path fill="#C21429" d="M489.3,108.8c1.8-2.1,2.8-4.7,2.8-7.8V75.1c0-5.7,1.2-10.2,3.6-13.3c2.4-3.1,5.8-4.7,10.4-4.7H518v13.4
				h-4c-2.1,0-3.6,1-4.2,2.9c-0.7,1.9-1,4.2-1,6.8v22.3c0,4-0.9,7.4-2.7,10c-1.8,2.6-4.1,4.2-7,4.8v0.3c2.9,0.5,5.2,2.1,7,4.8
				c1.8,2.6,2.7,6,2.7,10v21.9c0,2.6,0.3,4.9,1,6.8c0.7,1.9,2.1,2.9,4.2,2.9h4v13.4H506c-4.6,0-8-1.6-10.4-4.7
				c-2.4-3.1-3.6-7.6-3.6-13.3v-25.5c0-3.1-0.9-5.7-2.8-7.8c-1.8-2.1-3.9-3.1-6.1-3.1v-11C485.4,111.9,487.5,110.9,489.3,108.8z"/>
		</g>
		<g>
			<path fill="#C21429" d="M744.5,125.3c-1.8,2.1-2.8,4.7-2.8,7.8V159c0,5.7-1.2,10.2-3.6,13.3c-2.4,3.1-5.8,4.7-10.4,4.7h-11.9
				v-13.4h4c2.1,0,3.6-1,4.2-2.9c0.7-1.9,1-4.2,1-6.8v-22.3c0-4,0.9-7.4,2.7-10c1.8-2.6,4.1-4.2,7-4.8v-0.3c-2.9-0.5-5.2-2.1-7-4.8
				c-1.8-2.6-2.7-6-2.7-10V80c0-2.6-0.3-4.9-1-6.8c-0.7-1.9-2.1-2.9-4.2-2.9h-4V56.9h11.9c4.6,0,8,1.6,10.4,4.7
				c2.4,3.1,3.6,7.6,3.6,13.3v25.5c0,3.1,0.9,5.7,2.8,7.8c1.8,2.1,3.9,3.1,6.1,3.1v11C748.4,122.2,746.3,123.3,744.5,125.3z"/>
		</g>
		<g>
			<path fill="#333433" d="M580,28.7v13.6c-2.4,3.8-4.7,7.9-6.7,12.4c-2.1,4.5-3.9,9.1-5.5,13.9c-1.6,4.8-2.9,9.6-3.9,14.4
				c-1,4.8-1.7,9.4-2,13.8H543c0.5-4.4,1.2-9,2.3-13.6c1-4.6,2.4-9.2,4-13.8c1.6-4.5,3.5-9,5.7-13.4c2.2-4.4,4.8-8.5,7.7-12.4h-28
				V28.7H580z"/>
			<path fill="#333433" d="M586.7,41.2c0.6-2.9,1.7-5.4,3.3-7.5c1.6-2.1,3.9-3.6,6.9-4.8c2.9-1.1,6.8-1.7,11.6-1.7
				c4.6,0,8.3,0.5,11.2,1.5c2.9,1,5.2,2.3,6.8,4.1c1.7,1.7,2.8,3.7,3.4,6c0.6,2.3,0.9,4.7,0.9,7.4c0,4.7-0.8,8.7-2.4,11.9
				c-1.6,3.2-3.7,6.1-6.3,8.7l-10.8,10.5c-0.8,0.8-1.7,1.7-2.6,2.7c-0.9,1-1.6,2-1.9,3h24v13.7h-45.7c0-4.9,0.7-9.5,2.2-13.9
				c1.5-4.4,4.2-8.6,8.2-12.7l12.2-12.4c1.8-1.8,3-3.5,3.8-5.1c0.8-1.6,1.1-3.7,1.1-6.3c0-2.9-0.4-5-1.3-6.1c-0.9-1.1-2-1.7-3.4-1.7
				c-0.7,0-1.3,0.1-1.9,0.3s-1.1,0.7-1.6,1.3c-0.5,0.7-0.9,1.6-1.2,2.8c-0.3,1.2-0.4,2.8-0.4,4.8v2.9h-17.1
				C585.8,47.3,586.1,44.1,586.7,41.2z"/>
			<path fill="#333433" d="M636.8,37.5c0.5-2.4,1.4-4.3,2.6-5.8c1.2-1.5,2.8-2.6,4.8-3.3c2-0.7,4.4-1,7.3-1c2.9,0,5.3,0.3,7.3,1
				c2,0.7,3.5,1.8,4.8,3.3c1.2,1.5,2.1,3.5,2.6,5.8c0.5,2.4,0.8,5.3,0.8,8.7c0,3.4-0.3,6.3-0.8,8.7c-0.5,2.4-1.4,4.3-2.6,5.8
				c-1.2,1.5-2.8,2.6-4.8,3.3c-2,0.7-4.4,1-7.3,1c-2.9,0-5.3-0.3-7.3-1c-2-0.7-3.6-1.8-4.8-3.3c-1.2-1.5-2.1-3.5-2.6-5.8
				c-0.5-2.4-0.8-5.3-0.8-8.7C636,42.7,636.2,39.9,636.8,37.5z M648.1,51.6c0.1,1.4,0.3,2.6,0.5,3.4c0.2,0.8,0.6,1.4,1,1.7
				c0.5,0.3,1,0.4,1.8,0.4c0.7,0,1.3-0.1,1.8-0.4c0.5-0.3,0.8-0.9,1-1.7c0.2-0.8,0.4-1.9,0.5-3.4c0.1-1.4,0.1-3.3,0.1-5.5
				c0-2.3,0-4.1-0.1-5.5c-0.1-1.4-0.3-2.5-0.5-3.3c-0.2-0.8-0.6-1.4-1-1.7c-0.5-0.3-1-0.4-1.8-0.4c-0.7,0-1.3,0.1-1.8,0.4
				c-0.5,0.3-0.8,0.9-1,1.7c-0.2,0.8-0.4,1.9-0.5,3.3c-0.1,1.4-0.1,3.3-0.1,5.5C647.9,48.4,648,50.2,648.1,51.6z M693.4,27.3
				l-31.1,70.6h-10.8l31.1-70.6H693.4z M679,70.6c0.5-2.4,1.4-4.3,2.6-5.8c1.2-1.5,2.8-2.6,4.8-3.3c2-0.7,4.4-1,7.3-1
				c2.9,0,5.3,0.3,7.3,1c2,0.7,3.6,1.8,4.8,3.3c1.2,1.5,2.1,3.5,2.6,5.8c0.5,2.4,0.8,5.3,0.8,8.7c0,3.4-0.3,6.3-0.8,8.7
				c-0.5,2.4-1.4,4.3-2.6,5.8c-1.2,1.5-2.8,2.6-4.8,3.1c-2,0.6-4.4,0.9-7.3,0.9c-2.9,0-5.3-0.3-7.3-0.9c-2-0.6-3.6-1.6-4.8-3.1
				c-1.2-1.5-2.1-3.5-2.6-5.8c-0.5-2.4-0.8-5.3-0.8-8.7C678.2,75.9,678.4,73,679,70.6z M690.3,84.8c0.1,1.4,0.3,2.6,0.5,3.4
				c0.2,0.8,0.6,1.4,1,1.7c0.5,0.3,1,0.4,1.8,0.4c0.7,0,1.3-0.1,1.8-0.4c0.5-0.3,0.8-0.8,1-1.7c0.2-0.8,0.4-1.9,0.5-3.4
				c0.1-1.4,0.1-3.3,0.1-5.5c0-2.3,0-4.1-0.1-5.5c-0.1-1.4-0.3-2.5-0.5-3.3c-0.2-0.8-0.6-1.4-1-1.7c-0.5-0.3-1-0.4-1.8-0.4
				c-0.7,0-1.3,0.1-1.8,0.4c-0.5,0.3-0.8,0.9-1,1.7c-0.2,0.8-0.4,1.9-0.5,3.3c-0.1,1.4-0.1,3.3-0.1,5.5
				C690.2,81.6,690.2,83.4,690.3,84.8z"/>
		</g>
		<g>
			<path fill="#333433" d="M565.6,168.6c1.7-1.6,4.2-2.4,7.5-2.4c2,0,3.6,0.2,4.9,0.6c1.3,0.4,2.3,1,3.1,1.7
				c0.8,0.8,1.3,1.7,1.6,2.8c0.3,1.1,0.5,2.4,0.5,3.8c0,0.6-0.1,1.3-0.2,2c-0.2,0.7-0.4,1.3-0.8,1.9c-0.3,0.6-0.8,1.1-1.4,1.6
				c-0.6,0.5-1.3,0.8-2.1,1v0.1c1.9,0.4,3.2,1.2,4,2.5c0.8,1.3,1.1,2.8,1.1,4.6c0,3.6-0.9,6.3-2.6,7.9c-1.8,1.6-4.4,2.4-7.9,2.4
				c-1.8,0-3.4-0.2-4.8-0.5c-1.4-0.3-2.5-0.8-3.3-1.6c-0.9-0.8-1.5-1.8-2-3.2c-0.4-1.3-0.6-3-0.6-4.9h7.9c0,0.9,0.1,1.7,0.2,2.3
				c0.1,0.6,0.2,1.1,0.4,1.5c0.4,0.8,1,1.2,1.9,1.2c0.5,0,0.9-0.1,1.2-0.2c0.3-0.1,0.5-0.4,0.7-0.8c0.2-0.4,0.3-0.9,0.3-1.5
				c0.1-0.7,0.1-1.5,0.1-2.5c0-1.6-0.3-2.6-0.8-3.2c-0.5-0.5-1.3-0.8-2.3-0.8h-2.1v-5.3h1.2c0.6,0,1.2-0.1,1.6-0.2s0.8-0.3,1.1-0.7
				c0.3-0.3,0.5-0.8,0.7-1.4c0.2-0.6,0.2-1.4,0.2-2.3c0-1.4-0.2-2.3-0.5-2.8c-0.3-0.5-0.9-0.7-1.6-0.7c-0.8,0-1.4,0.3-1.8,1
				c-0.3,0.6-0.5,1.8-0.5,3.5h-7.7C563,172.7,563.9,170.2,565.6,168.6z"/>
			<path fill="#333433" d="M586.9,174.7c0.4-2.1,1.1-3.8,2-5.1c0.9-1.2,2-2.1,3.4-2.6c1.4-0.5,3-0.7,4.9-0.7c1.9,0,3.5,0.2,4.9,0.7
				c1.4,0.5,2.5,1.4,3.4,2.6c0.9,1.2,1.6,2.9,2,5.1c0.4,2.1,0.7,4.8,0.7,8.1c0,3.3-0.2,6-0.7,8.1c-0.4,2.1-1.1,3.8-2,5
				c-0.9,1.2-2,2.1-3.4,2.5c-1.4,0.5-3,0.7-4.9,0.7c-1.9,0-3.5-0.2-4.9-0.7c-1.4-0.5-2.5-1.3-3.4-2.5s-1.6-2.9-2-5s-0.7-4.8-0.7-8.1
				C586.2,179.5,586.5,176.8,586.9,174.7z M595.3,192.7c0.4,0.8,1,1.2,1.9,1.2c0.9,0,1.5-0.4,1.9-1.2c0.4-0.8,0.6-2.3,0.6-4.6v-10.7
				c0-2.3-0.2-3.8-0.6-4.6c-0.4-0.8-1-1.2-1.9-1.2c-0.9,0-1.5,0.4-1.9,1.2c-0.4,0.8-0.6,2.3-0.6,4.6V188
				C594.7,190.3,594.9,191.9,595.3,192.7z"/>
			<path fill="#333433" d="M624.5,181.9v6.9h-14.2v-6.9H624.5z"/>
			<path fill="#333433" d="M636.7,166.9h9.2v19.5h2.8v6.1h-2.8v6H638v-6h-11.5v-6.4L636.7,166.9z M638.3,175.7L638.3,175.7
				l-5.4,10.7h5.4V175.7z"/>
			<path fill="#333433" d="M659.6,193.2c0.3,0.4,0.9,0.6,1.7,0.6c0.6,0,1.1-0.2,1.6-0.8s0.7-1.3,0.7-2.3v-5.1h-0.1
				c-0.4,0.8-1,1.4-2,1.8c-1,0.5-2.1,0.7-3.4,0.7c-1.2,0-2.2-0.2-3.1-0.5s-1.8-0.8-2.4-1.6c-0.7-0.7-1.2-1.7-1.6-3s-0.5-2.8-0.5-4.7
				c0-2.2,0.2-4,0.7-5.6s1.2-2.8,2.1-3.8c0.9-1,2.1-1.7,3.4-2.1c1.3-0.4,2.9-0.7,4.6-0.7c1.9,0,3.5,0.2,4.9,0.7
				c1.4,0.4,2.6,1.2,3.5,2.3s1.6,2.5,2.1,4.2s0.7,4,0.7,6.6v3.6c0,2.5-0.1,4.7-0.4,6.6c-0.3,1.9-0.8,3.6-1.6,4.9
				c-0.8,1.3-1.9,2.3-3.4,3c-1.5,0.7-3.4,1-5.8,1c-2.1,0-3.8-0.2-5.1-0.6c-1.3-0.4-2.4-1-3.1-1.8c-0.7-0.8-1.3-1.6-1.5-2.6
				c-0.3-1-0.4-2-0.4-3.1h7.9C658.9,192,659.2,192.8,659.6,193.2z M659.4,181c0.3,0.7,1,1.1,1.8,1.1c0.8,0,1.4-0.4,1.8-1.1
				c0.4-0.7,0.6-2.1,0.6-4.2c0-2.1-0.2-3.5-0.5-4.2s-1-1.1-1.8-1.1c-0.8,0-1.4,0.4-1.8,1.1s-0.6,2.1-0.6,4.2
				C658.8,178.9,659,180.3,659.4,181z"/>
		</g>
		<g>
			<polygon fill="#DEDEDE" points="617.7,122.2 581.9,158 653.5,158 			"/>
		</g>
		<g>
			<path fill="#333433" d="M589.7,206.9l7.8,21h-4.8l-1.6-4.7h-7.8l-1.6,4.7H577l7.9-21H589.7z M589.9,219.8l-2.6-7.7h-0.1l-2.7,7.7
				H589.9z"/>
			<path fill="#333433" d="M611.8,227.7c-1,0.4-2,0.6-3,0.6c-1.6,0-3-0.3-4.3-0.8c-1.3-0.6-2.4-1.3-3.2-2.3c-0.9-1-1.6-2.1-2-3.4
				s-0.7-2.7-0.7-4.3c0-1.6,0.2-3,0.7-4.4c0.5-1.3,1.1-2.5,2-3.5c0.9-1,2-1.8,3.2-2.3c1.3-0.6,2.7-0.9,4.3-0.9
				c1.1,0,2.1,0.2,3.1,0.5c1,0.3,1.9,0.8,2.7,1.4c0.8,0.6,1.5,1.4,2,2.3c0.5,0.9,0.9,2,1,3.2h-4.4c-0.3-1.2-0.8-2.1-1.6-2.6
				c-0.8-0.6-1.7-0.9-2.8-0.9c-1,0-1.9,0.2-2.6,0.6c-0.7,0.4-1.3,0.9-1.8,1.6s-0.8,1.4-1,2.3c-0.2,0.9-0.3,1.8-0.3,2.7
				c0,0.9,0.1,1.7,0.3,2.6c0.2,0.8,0.5,1.6,1,2.2s1,1.2,1.8,1.6c0.7,0.4,1.6,0.6,2.6,0.6c1.5,0,2.7-0.4,3.5-1.2
				c0.8-0.8,1.3-1.9,1.5-3.4h-4.6v-3.4h8.8v11.3H615l-0.5-2.4C613.7,226.5,612.8,227.3,611.8,227.7z"/>
			<path fill="#333433" d="M637.3,206.9v3.9h-11.1v4.5h10.2v3.6h-10.2v5.1h11.3v3.9h-15.9v-21H637.3z"/>
			<path fill="#333433" d="M644.2,222.7c0.3,0.5,0.6,0.9,1,1.2c0.4,0.3,0.9,0.5,1.5,0.7c0.6,0.1,1.2,0.2,1.8,0.2
				c0.4,0,0.9,0,1.3-0.1c0.5-0.1,0.9-0.2,1.3-0.4c0.4-0.2,0.8-0.5,1-0.8c0.3-0.3,0.4-0.8,0.4-1.3c0-0.6-0.2-1-0.5-1.4
				c-0.4-0.4-0.8-0.6-1.4-0.9c-0.6-0.2-1.3-0.4-2-0.6c-0.7-0.2-1.5-0.4-2.3-0.6c-0.8-0.2-1.5-0.4-2.3-0.7c-0.7-0.3-1.4-0.7-2-1.1
				c-0.6-0.5-1.1-1-1.4-1.7c-0.4-0.7-0.5-1.5-0.5-2.5c0-1.1,0.2-2,0.7-2.8c0.5-0.8,1.1-1.5,1.8-2c0.7-0.5,1.6-0.9,2.5-1.2
				c0.9-0.3,1.9-0.4,2.8-0.4c1.1,0,2.1,0.1,3.2,0.4c1,0.2,1.9,0.6,2.7,1.2c0.8,0.5,1.4,1.2,1.9,2.1c0.5,0.9,0.7,1.9,0.7,3.1h-4.5
				c0-0.6-0.2-1.1-0.4-1.6c-0.2-0.4-0.5-0.7-0.9-1c-0.4-0.2-0.8-0.4-1.3-0.5c-0.5-0.1-1-0.1-1.6-0.1c-0.4,0-0.7,0-1.1,0.1
				c-0.4,0.1-0.7,0.2-1,0.4s-0.6,0.4-0.7,0.7c-0.2,0.3-0.3,0.7-0.3,1.1c0,0.4,0.1,0.7,0.2,1s0.5,0.5,0.9,0.7
				c0.5,0.2,1.1,0.4,1.9,0.6c0.8,0.2,1.9,0.5,3.2,0.8c0.4,0.1,0.9,0.2,1.6,0.4c0.7,0.2,1.4,0.5,2.1,1c0.7,0.5,1.3,1.1,1.8,1.8
				c0.5,0.8,0.7,1.7,0.7,2.9c0,1-0.2,1.8-0.6,2.7c-0.4,0.8-0.9,1.5-1.7,2.1c-0.7,0.6-1.6,1.1-2.7,1.4c-1.1,0.3-2.3,0.5-3.8,0.5
				c-1.2,0-2.3-0.1-3.4-0.4s-2-0.7-2.9-1.3c-0.8-0.6-1.5-1.4-2-2.3c-0.5-0.9-0.7-2.1-0.7-3.3h4.5
				C643.8,221.6,643.9,222.2,644.2,222.7z"/>
		</g>
	</g>
	<g>
		<g>
			<path fill="#C21429" d="M177.2,110.8c1.8-2.1,2.8-4.7,2.8-7.8V77.1c0-5.7,1.2-10.2,3.6-13.3c2.4-3.1,5.8-4.7,10.4-4.7h11.9v13.4
				h-4c-2.1,0-3.6,1-4.2,2.9c-0.7,1.9-1,4.2-1,6.8v22.3c0,4-0.9,7.4-2.7,10c-1.8,2.6-4.1,4.2-7,4.8v0.3c2.9,0.5,5.2,2.1,7,4.8
				c1.8,2.6,2.7,6,2.7,10v21.9c0,2.6,0.3,4.9,1,6.8c0.7,1.9,2.1,2.9,4.2,2.9h4v13.4h-11.9c-4.6,0-8-1.6-10.4-4.7
				c-2.4-3.1-3.6-7.6-3.6-13.3v-25.5c0-3.1-0.9-5.7-2.8-7.8c-1.8-2.1-3.9-3.1-6.1-3.1v-11C173.3,113.9,175.3,112.9,177.2,110.8z"/>
		</g>
		<g>
			<path fill="#C21429" d="M432.3,127.3c-1.8,2.1-2.8,4.7-2.8,7.8V161c0,5.7-1.2,10.2-3.6,13.3c-2.4,3.1-5.8,4.7-10.4,4.7h-11.9
				v-13.4h4c2.1,0,3.6-1,4.2-2.9c0.7-1.9,1-4.2,1-6.8v-22.3c0-4,0.9-7.4,2.7-10c1.8-2.6,4.1-4.2,7-4.8v-0.3c-2.9-0.5-5.2-2.1-7-4.8
				c-1.8-2.6-2.7-6-2.7-10V81.9c0-2.6-0.3-4.9-1-6.8c-0.7-1.9-2.1-2.9-4.2-2.9h-4V58.8h11.9c4.6,0,8,1.6,10.4,4.7
				c2.4,3.1,3.6,7.6,3.6,13.3v25.5c0,3.1,0.9,5.7,2.8,7.8c1.8,2.1,3.9,3.1,6.1,3.1v11C436.2,124.2,434.2,125.2,432.3,127.3z"/>
		</g>
		<g>
			<path fill="#333433" d="M243.6,30.6h19.8v42h6.1v13.2h-6.1v13h-17.1v-13h-24.7V72.1L243.6,30.6z M247,49.5h-0.2l-11.4,23.2H247
				V49.5z"/>
			<path fill="#333433" d="M279.4,34.4c3.6-3.4,9-5.1,16.1-5.1c4.3,0,7.8,0.4,10.6,1.3c2.8,0.9,5.1,2.1,6.7,3.7
				c1.7,1.6,2.8,3.6,3.5,6c0.7,2.4,1,5.1,1,8.2c0,1.4-0.2,2.8-0.5,4.3c-0.3,1.5-0.9,2.8-1.6,4.1c-0.8,1.3-1.8,2.4-3,3.4
				s-2.8,1.7-4.6,2.1v0.2c4.1,0.8,6.9,2.6,8.5,5.4c1.6,2.8,2.5,6.1,2.5,9.9c0,7.9-1.9,13.5-5.7,16.9c-3.8,3.4-9.5,5.2-17,5.2
				c-3.9,0-7.3-0.3-10.3-1c-2.9-0.7-5.3-1.8-7.2-3.5c-1.9-1.7-3.3-4-4.2-6.8c-0.9-2.8-1.4-6.4-1.4-10.6H290c0,2,0.1,3.6,0.3,4.9
				c0.2,1.3,0.5,2.4,0.9,3.3c0.8,1.7,2.2,2.6,4.1,2.6c1,0,1.9-0.1,2.6-0.4c0.7-0.3,1.2-0.8,1.5-1.7c0.4-0.8,0.6-1.9,0.7-3.3
				c0.1-1.4,0.2-3.2,0.2-5.4c0-3.4-0.5-5.7-1.6-6.9c-1.1-1.2-2.8-1.8-5.1-1.8h-4.6V57.9h2.7c1.4,0,2.6-0.1,3.5-0.4
				c1-0.3,1.8-0.8,2.5-1.5c0.7-0.7,1.1-1.7,1.5-3c0.3-1.3,0.5-2.9,0.5-5c0-2.9-0.4-4.9-1.1-5.9c-0.8-1-1.9-1.5-3.5-1.5
				c-1.8,0-3,0.7-3.8,2.1c-0.8,1.4-1.1,3.9-1.1,7.6h-16.5C273.9,43,275.8,37.7,279.4,34.4z"/>
			<path fill="#333433" d="M324.6,39.4c0.5-2.4,1.4-4.3,2.6-5.8c1.2-1.5,2.8-2.6,4.8-3.3c2-0.7,4.4-1,7.3-1c2.9,0,5.3,0.3,7.3,1
				c2,0.7,3.5,1.8,4.8,3.3c1.2,1.5,2.1,3.5,2.6,5.8c0.5,2.4,0.8,5.3,0.8,8.7c0,3.4-0.3,6.3-0.8,8.7c-0.5,2.4-1.4,4.3-2.6,5.8
				c-1.2,1.5-2.8,2.6-4.8,3.3c-2,0.7-4.4,1-7.3,1c-2.9,0-5.3-0.3-7.3-1c-2-0.7-3.6-1.8-4.8-3.3c-1.2-1.5-2.1-3.5-2.6-5.8
				c-0.5-2.4-0.8-5.3-0.8-8.7C323.8,44.7,324.1,41.8,324.6,39.4z M335.9,53.6c0.1,1.4,0.3,2.6,0.5,3.4c0.2,0.8,0.6,1.4,1,1.7
				c0.5,0.3,1,0.4,1.8,0.4c0.7,0,1.3-0.1,1.8-0.4c0.5-0.3,0.8-0.9,1-1.7c0.2-0.8,0.4-1.9,0.5-3.4c0.1-1.4,0.1-3.3,0.1-5.5
				c0-2.3,0-4.1-0.1-5.5c-0.1-1.4-0.3-2.5-0.5-3.3c-0.2-0.8-0.6-1.4-1-1.7c-0.5-0.3-1-0.4-1.8-0.4c-0.7,0-1.3,0.1-1.8,0.4
				c-0.5,0.3-0.8,0.9-1,1.7c-0.2,0.8-0.4,1.9-0.5,3.3c-0.1,1.4-0.1,3.3-0.1,5.5C335.8,50.3,335.8,52.2,335.9,53.6z M381.2,29.3
				l-31.1,70.6h-10.8l31.1-70.6H381.2z M366.8,72.6c0.5-2.4,1.4-4.3,2.6-5.8c1.2-1.5,2.8-2.6,4.8-3.3c2-0.7,4.4-1,7.3-1
				c2.9,0,5.3,0.3,7.3,1c2,0.7,3.5,1.8,4.8,3.3c1.2,1.5,2.1,3.5,2.6,5.8c0.5,2.4,0.8,5.3,0.8,8.7c0,3.4-0.3,6.3-0.8,8.7
				c-0.5,2.4-1.4,4.3-2.6,5.8c-1.2,1.5-2.8,2.6-4.8,3.1c-2,0.6-4.4,0.9-7.3,0.9c-2.9,0-5.3-0.3-7.3-0.9c-2-0.6-3.6-1.6-4.8-3.1
				c-1.2-1.5-2.1-3.5-2.6-5.8c-0.5-2.4-0.8-5.3-0.8-8.7C366,77.9,366.3,75,366.8,72.6z M378.1,86.8c0.1,1.4,0.3,2.6,0.5,3.4
				c0.2,0.8,0.6,1.4,1,1.7c0.5,0.3,1,0.4,1.8,0.4c0.7,0,1.3-0.1,1.8-0.4c0.5-0.3,0.8-0.8,1-1.7c0.2-0.8,0.4-1.9,0.5-3.4
				c0.1-1.4,0.1-3.3,0.1-5.5c0-2.3,0-4.1-0.1-5.5c-0.1-1.4-0.3-2.5-0.5-3.3c-0.2-0.8-0.6-1.4-1-1.7c-0.5-0.3-1-0.4-1.8-0.4
				c-0.7,0-1.3,0.1-1.8,0.4c-0.5,0.3-0.8,0.9-1,1.7c-0.2,0.8-0.4,1.9-0.5,3.3c-0.1,1.4-0.1,3.3-0.1,5.5
				C378,83.5,378.1,85.4,378.1,86.8z"/>
		</g>
		<g>
			<path fill="#333433" d="M285.1,174.2c-0.3-0.4-0.9-0.6-1.7-0.6c-0.6,0-1.1,0.2-1.6,0.8c-0.5,0.5-0.7,1.3-0.7,2.3v5.1h0.1
				c0.4-0.8,1-1.4,2-1.9c1-0.5,2.1-0.7,3.4-0.7c1.2,0,2.2,0.2,3.1,0.5c0.9,0.3,1.8,0.9,2.4,1.6c0.7,0.7,1.2,1.7,1.6,3
				s0.5,2.8,0.5,4.7c0,2.2-0.2,4.1-0.7,5.6c-0.5,1.5-1.2,2.8-2.1,3.8c-0.9,1-2.1,1.6-3.4,2c-1.3,0.4-2.9,0.6-4.6,0.6
				c-1.9,0-3.5-0.2-4.9-0.6c-1.4-0.4-2.6-1.1-3.5-2.2c-0.9-1-1.6-2.4-2.1-4.2s-0.7-3.9-0.7-6.6v-3.6c0-2.5,0.1-4.7,0.4-6.6
				s0.8-3.6,1.6-4.9c0.8-1.3,1.9-2.3,3.4-3c1.5-0.7,3.4-1,5.8-1c2.1,0,3.8,0.2,5.1,0.7c1.3,0.5,2.4,1.1,3.1,1.8
				c0.8,0.8,1.3,1.7,1.6,2.7c0.3,1,0.4,2,0.4,3.1h-7.9C285.7,175.4,285.5,174.6,285.1,174.2z M281.6,194.7c0.3,0.7,1,1.1,1.8,1.1
				c0.8,0,1.4-0.4,1.8-1.1c0.4-0.7,0.6-2.1,0.6-4.2s-0.2-3.5-0.5-4.2c-0.3-0.7-1-1.1-1.8-1.1c-0.8,0-1.4,0.4-1.8,1.1
				c-0.4,0.7-0.6,2.1-0.6,4.2S281.3,194,281.6,194.7z"/>
			<path fill="#333433" d="M315.7,168.9v6.4h-12.3l-0.4,5.4c0.8-0.7,1.7-1.3,2.7-1.7c1-0.4,2.1-0.6,3.3-0.6c2.6,0,4.6,0.8,6,2.5
				c1.4,1.7,2,4.3,2,7.7c0,2.1-0.2,4-0.5,5.5c-0.3,1.6-0.9,2.9-1.8,3.9c-0.8,1-1.9,1.8-3.3,2.3s-3,0.7-5,0.7c-3.7,0-6.4-0.8-8.1-2.4
				c-1.7-1.6-2.5-3.8-2.5-6.7v-1h7.9v1.1c0,1.5,0.2,2.5,0.6,3.1s1,0.8,1.7,0.8c0.4,0,0.8-0.1,1.1-0.2c0.3-0.1,0.5-0.4,0.8-0.9
				c0.2-0.5,0.4-1.2,0.5-2.1c0.1-0.9,0.1-2.1,0.1-3.7c0-1.8-0.2-3.1-0.6-3.8c-0.4-0.7-1-1.1-1.8-1.1c-0.7,0-1.3,0.2-1.7,0.6
				c-0.4,0.4-0.6,1.1-0.6,2.1h-7.7l0.7-17.9H315.7z"/>
		</g>
		<g>
			<polygon fill="#DEDEDE" points="305.5,123.2 269.8,159 341.3,159 			"/>
		</g>
		<g>
			<path fill="#333433" d="M277.5,208.9l7.8,21h-4.8l-1.6-4.7h-7.8l-1.6,4.7h-4.6l7.9-21H277.5z M277.8,221.7l-2.6-7.7h-0.1
				l-2.7,7.7H277.8z"/>
			<path fill="#333433" d="M299.6,229.7c-1,0.4-2,0.6-3,0.6c-1.6,0-3-0.3-4.3-0.8c-1.3-0.6-2.4-1.3-3.2-2.3c-0.9-1-1.6-2.1-2-3.4
				s-0.7-2.7-0.7-4.3c0-1.6,0.2-3,0.7-4.4c0.5-1.3,1.1-2.5,2-3.5s2-1.8,3.2-2.3c1.3-0.6,2.7-0.9,4.3-0.9c1.1,0,2.1,0.2,3.1,0.5
				s1.9,0.8,2.7,1.4s1.5,1.4,2,2.3s0.9,2,1,3.2H301c-0.3-1.2-0.8-2.1-1.6-2.6c-0.8-0.6-1.7-0.9-2.8-0.9c-1,0-1.9,0.2-2.6,0.6
				c-0.7,0.4-1.3,0.9-1.8,1.6c-0.5,0.7-0.8,1.4-1,2.3c-0.2,0.9-0.3,1.8-0.3,2.7c0,0.9,0.1,1.7,0.3,2.6s0.5,1.6,1,2.2
				c0.4,0.7,1,1.2,1.8,1.6c0.7,0.4,1.6,0.6,2.6,0.6c1.5,0,2.7-0.4,3.5-1.2c0.8-0.8,1.3-1.9,1.5-3.4h-4.6v-3.4h8.8v11.3h-2.9
				l-0.5-2.4C301.5,228.5,300.6,229.2,299.6,229.7z"/>
			<path fill="#333433" d="M325.1,208.9v3.9h-11.1v4.5h10.2v3.6h-10.2v5.1h11.3v3.9h-15.9v-21H325.1z"/>
			<path fill="#333433" d="M332,224.7c0.3,0.5,0.6,0.9,1,1.2c0.4,0.3,0.9,0.5,1.5,0.7c0.6,0.1,1.2,0.2,1.8,0.2c0.4,0,0.9,0,1.3-0.1
				c0.5-0.1,0.9-0.2,1.3-0.4c0.4-0.2,0.8-0.5,1-0.8c0.3-0.3,0.4-0.8,0.4-1.3c0-0.6-0.2-1-0.5-1.4c-0.4-0.4-0.8-0.6-1.4-0.9
				c-0.6-0.2-1.3-0.4-2-0.6c-0.7-0.2-1.5-0.4-2.3-0.6c-0.8-0.2-1.5-0.4-2.3-0.7c-0.7-0.3-1.4-0.7-2-1.1s-1.1-1-1.4-1.7
				c-0.4-0.7-0.5-1.5-0.5-2.5c0-1.1,0.2-2,0.7-2.8c0.5-0.8,1.1-1.5,1.8-2c0.7-0.5,1.6-0.9,2.5-1.2c0.9-0.3,1.9-0.4,2.8-0.4
				c1.1,0,2.1,0.1,3.2,0.4c1,0.2,1.9,0.6,2.7,1.2s1.4,1.2,1.9,2.1c0.5,0.9,0.7,1.9,0.7,3.1h-4.5c0-0.6-0.2-1.1-0.4-1.6
				c-0.2-0.4-0.5-0.7-0.9-1c-0.4-0.2-0.8-0.4-1.3-0.5s-1-0.1-1.6-0.1c-0.4,0-0.7,0-1.1,0.1c-0.4,0.1-0.7,0.2-1,0.4
				c-0.3,0.2-0.6,0.4-0.7,0.7c-0.2,0.3-0.3,0.7-0.3,1.1c0,0.4,0.1,0.7,0.2,1c0.2,0.3,0.5,0.5,0.9,0.7c0.5,0.2,1.1,0.4,1.9,0.6
				c0.8,0.2,1.9,0.5,3.2,0.8c0.4,0.1,0.9,0.2,1.6,0.4c0.7,0.2,1.4,0.5,2.1,1c0.7,0.5,1.3,1.1,1.8,1.8c0.5,0.8,0.7,1.7,0.7,2.9
				c0,1-0.2,1.8-0.6,2.7c-0.4,0.8-0.9,1.5-1.7,2.1c-0.7,0.6-1.6,1.1-2.7,1.4s-2.3,0.5-3.8,0.5c-1.2,0-2.3-0.1-3.4-0.4
				s-2-0.7-2.9-1.3c-0.8-0.6-1.5-1.4-2-2.3c-0.5-0.9-0.7-2.1-0.7-3.3h4.5C331.6,223.6,331.7,224.2,332,224.7z"/>
		</g>
		<g>
			<path fill="#333433" d="M338.8,172.1v8.3h8.3v6.4h-8.3v8.3h-6.4v-8.3h-8.3v-6.4h8.3v-8.3H338.8z"/>
		</g>
	</g>
</g>
<g>
</g>
</svg>
